<?xml version="1.0" encoding="utf-8"?>
<!DOCTYPE svg PUBLIC "-//W3C//DTD SVG 1.0//EN" "http://www.w3.org/TR/2001/REC-SVG-20010904/DTD/svg10.dtd">
<svg version="1.0" xmlns="http://www.w3.org/2000/svg" width="500px" height="500px" viewBox="0 0 500 500" preserveAspectRatio="xMidYMid meet">
 <g fill="#182626">
  <path d="M243.7 450.8 c-0.8 -1.3 -2.4 -5.2 -3.5 -8.8 -4.6 -14.2 -8.1 -25.9 -10.2 -33.5 -1.2 -4.4 -2.8 -10 -3.6 -12.5 -0.7 -2.5 -3 -9.9 -5 -16.5 -4.9 -16.5 -9.2 -30.9 -11.4 -38 -1.1 -3.3 -3.2 -10.7 -4.9 -16.5 -1.6 -5.8 -4 -14.1 -5.4 -18.5 -1.4 -4.4 -2.7 -9.1 -3.1 -10.5 -0.3 -1.7 -2 -3.3 -5.1 -4.9 -8.2 -4.3 -13.3 -14 -12.1 -22.8 0.6 -4.7 3.6 -11.2 6 -13.2 1.4 -1.2 1.4 -1.7 0.1 -4.8 -2.1 -4.9 -1.9 -10.7 0.5 -15.2 2.1 -4.2 9.3 -11 14.9 -14.2 l3.6 -2 0.1 -14.2 c0 -17.3 1 -19.8 11.7 -30 l7.1 -6.7 0 -10.3 c0.1 -9 0.4 -10.9 2.9 -16.2 3.2 -6.8 10.5 -14.2 17.1 -17.5 12.6 -6 30.1 -3.4 30.1 4.5 0 2.3 -0.8 3.4 -4.5 5.5 -5.4 3.2 -8 7.1 -6.4 9.7 0.6 1 5.1 3.2 10 4.8 4.9 1.7 10.3 3.8 12 4.7 6.2 3.4 11.4 11.5 11.4 18.1 0 0.9 1.4 3.6 3 5.9 3.5 4.7 3.9 9.4 1.4 15.4 l-1.6 3.9 3.3 2.5 c1.9 1.4 5.9 5 9.1 8.1 7.5 7.6 8.4 11.8 5.3 25.5 -0.6 2.9 -0.5 3.2 2.4 3.7 1.7 0.4 4 1.6 5.1 2.7 1.1 1.1 2 1.7 2 1.3 0.1 -0.5 1 1.7 2 4.7 2.4 6.5 2.6 11.8 0.5 14.7 -0.8 1.1 -1.7 4 -2.1 6.4 -0.4 2.4 -1.1 5.3 -1.7 6.4 -2.1 4.2 -8.2 10.8 -12.4 13.4 -4.3 2.7 -4.7 3.4 -7.8 12.7 -1.8 5.5 -9.7 28.6 -17.4 51.4 -7.8 22.8 -15.7 46.2 -17.6 52 -7.6 23.9 -15.9 47.6 -17.3 49.3 -2.2 2.5 -6.8 2.2 -8.5 -0.5z m18 -55.8 c26.6 -78.3 31.3 -92.4 30.9 -92.7 -0.2 -0.2 -0.9 1 -1.6 2.7 -1.9 4.6 -5.6 7 -10.6 7 -5.2 0 -6.3 -1.3 -8.9 -11 -0.9 -3.6 -2.1 -7.3 -2.7 -8.3 -0.9 -1.7 -1 -1.7 -3.5 0.3 -1.8 1.4 -4.1 2 -7.4 2 -4.3 0 -5.4 -0.5 -9.9 -4.5 -2.8 -2.5 -5.6 -4.5 -6.3 -4.5 -1.1 0 -3.5 1.4 -8.9 5.2 -3.6 2.6 -13.1 3.3 -20.8 1.5 -3.6 -0.9 -6.6 -1.4 -6.7 -1.3 -0.1 0.1 1.3 5.1 3.1 11.2 1.9 6 4.8 15.9 6.6 21.9 1.7 6.1 4.7 15.7 6.5 21.5 4.5 14.1 17.2 56.5 20.1 66.9 3.7 13.4 6.7 21.7 7.2 20.1 0.3 -0.8 6.1 -17.9 12.9 -38z m24.3 -105.3 l3.5 -7.2 6.6 -0.7 c7.9 -0.7 11.5 -2.4 15.9 -7.5 2.8 -3.1 3.1 -3.9 1.7 -4.1 -1.2 -0.2 -1.7 -1.3 -1.7 -3.4 0 -2.4 1.2 -4.4 5 -8.4 2.8 -2.9 5 -5.7 5 -6.3 0 -0.5 -1.4 -2.1 -3.1 -3.6 -3 -2.5 -3.5 -2.6 -11.5 -1.9 l-8.4 0.7 0 -3.1 c0 -2 1 -4 2.9 -6 1.8 -1.7 3.7 -5.5 5 -9.7 2.1 -6.6 2.1 -6.9 0.3 -9.9 -1 -1.7 -5.3 -5.8 -9.6 -9.1 -7.2 -5.6 -8.1 -6 -12.2 -5.7 l-4.4 0.4 0 -3.5 c0 -3.1 0.4 -3.7 3.3 -4.6 2.5 -0.9 3.9 -2.3 5.5 -5.7 l2.3 -4.6 -2.6 -3.4 c-1.4 -1.9 -3.3 -3.4 -4.1 -3.4 -1.7 0 -2 -6 -0.3 -7.7 1.7 -1.7 -2.8 -7.1 -8.1 -9.8 -2.5 -1.2 -7.7 -3.2 -11.6 -4.3 -4.2 -1.3 -8.2 -3.2 -9.7 -4.8 -2.4 -2.4 -2.7 -3.4 -2.7 -10.1 0 -5 0.5 -8.1 1.6 -9.8 l1.6 -2.4 -3.3 0.9 c-8.2 2.4 -16.7 11.4 -19.5 20.8 -1.4 4.8 -1.4 5.6 0.1 10.2 0.9 2.7 2.1 5.2 2.6 5.5 0.5 0.4 0.9 2.2 0.9 4.1 0 3.1 -0.3 3.4 -2.9 3.4 -2.1 0 -4.5 1.6 -9.8 6.8 -3.8 3.7 -7.7 8.4 -8.7 10.5 -1.6 3.5 -1.6 4 -0.2 6.2 1.8 2.7 2.2 8.5 0.6 8.5 -2 0 -2.8 4.4 -1.3 7.3 1 1.9 2.6 3.1 5.8 3.9 4.2 1.1 4.5 1.4 4.5 4.5 l0 3.4 -6 -0.2 c-5.4 -0.2 -6.4 0.2 -12.5 4.1 -6.9 4.5 -12.5 10.1 -12.5 12.6 0 3.5 3.1 7.2 7.5 9 4 1.7 4.5 2.2 4.5 5.2 0 3.1 -0.2 3.2 -4 3.2 -5.2 0 -8.1 1.4 -10.8 5.4 -2.7 4 -2.7 5.6 -0.2 10.6 2 3.9 2 3.9 6.8 3.3 3.6 -0.4 6.8 0.1 13 2.1 4.6 1.4 9.2 2.6 10.3 2.6 1.1 0 4.2 -1.6 7 -3.5 4.7 -3.2 5.7 -3.5 12.4 -3.5 8.5 0 11.6 1 15 4.6 l2.5 2.7 2.5 -2.7 c1.9 -2.1 3.3 -2.6 7.1 -2.6 3.8 0 5.1 0.5 7.4 3 2.8 3 6 10.6 6 14.3 0 2.9 1.1 1.5 5 -6.6z"/>
  <path d="M90.7 450.8 c-0.9 -0.7 -2.8 -4.2 -4.3 -7.8 -2.4 -6.2 -4.1 -11.7 -11.3 -36 -3.7 -12.6 -8 -26.5 -15.4 -50 -3 -9.6 -6.5 -21.1 -7.7 -25.5 -1.2 -4.4 -4.6 -15.6 -7.5 -25 -3 -9.3 -5.7 -18 -6 -19.3 -0.4 -1.2 -2.4 -3.1 -4.5 -4.2 -5 -2.5 -10.8 -9.4 -12.1 -14.4 -1.8 -6.6 0.4 -14.9 5.3 -20.2 1.9 -2.1 1.9 -2.4 0.3 -7 -0.9 -2.8 -1.4 -6.2 -1.1 -8 1.1 -5.5 6 -11.7 12.9 -16.4 l6.6 -4.5 0.2 -7 c0.1 -3.8 0.3 -9.7 0.3 -13 0.2 -8.4 3.3 -14.1 11.7 -21.8 l6.9 -6.4 -0.7 -6.6 c-1.1 -11.9 3.1 -21.6 12.8 -29.5 6.9 -5.6 14.6 -8.4 23.1 -8.3 9 0.1 14.2 2.4 14.6 6.6 0.3 2.7 -0.2 3.4 -3.6 5.2 -5.1 3 -7.4 5.7 -7 8.4 0.3 2 1.5 2.7 9.1 4.6 15.6 4 22.4 9.2 24.5 19 0.6 2.3 2.2 5.6 3.6 7.3 3.7 4.4 4.2 7.6 2.3 13.1 -1 2.6 -1.7 4.9 -1.7 5.2 0 0.3 2.3 1.9 5 3.6 2.8 1.7 7.1 5.1 9.5 7.5 6.3 6.4 7.5 11.7 5 23.2 -0.6 2.8 -0.4 3.2 2.2 3.7 1.5 0.3 4.3 1.6 6.2 2.9 8.4 5.7 10.1 12.9 5.2 22.2 -1.7 3.2 -3.1 6.8 -3.1 8.1 0 4.1 -9.4 15.2 -14.9 17.5 -2.8 1.1 -3.4 2.2 -6.7 12.9 -4.4 14.2 -15.6 49.3 -23.4 73.6 -3.2 9.9 -7.5 23.4 -9.5 30 -5.6 18.5 -15.4 48.6 -17.2 52.7 -1.9 4.5 -6.2 6.1 -9.6 3.6z m11.6 -43.3 c3 -9.3 7.2 -22.4 9.2 -29 2.1 -6.6 5.9 -18.5 8.5 -26.5 2.7 -8 7.4 -22.6 10.5 -32.5 3.1 -9.9 6.8 -21.1 8.1 -24.9 1.4 -3.8 2.3 -7 2.1 -7.2 -0.2 -0.2 -1.7 2.4 -3.3 5.7 -3.6 7.7 -6.3 9.9 -12 9.9 -5 0 -6.1 -1.2 -8.9 -10 -1 -3 -2.4 -6.8 -3.2 -8.3 l-1.4 -2.8 -2.6 2.1 c-1.8 1.4 -4.1 2 -7.3 2 -4.6 0 -6.8 -1.1 -12.4 -6.2 -3.6 -3.3 -5.5 -3.2 -11.2 0.7 -6.6 4.6 -14.2 5.6 -24.4 3.2 -3.6 -0.9 -6.5 -1.5 -6.6 -1.4 -0.1 0.1 1.6 5.4 3.6 11.7 2.1 6.3 5.4 17.1 7.4 24 2.1 6.9 5.5 17.9 7.6 24.5 2.2 6.6 5.6 17.4 7.5 24 2 6.6 5.9 19.2 8.7 28 2.8 8.8 6.4 20.3 8 25.5 4.1 13.4 3.9 13 5.3 8.5 0.7 -2.2 3.8 -11.6 6.8 -21z m27.7 -125.2 c3.3 -8.4 4.6 -9.4 12.9 -10.3 8.1 -0.9 13.5 -3.8 16.4 -8.9 1.6 -2.7 1.6 -3.1 0.3 -3.1 -1.1 0 -1.6 -1 -1.6 -3.1 0 -2.4 1.1 -4.4 4.6 -8.1 2.5 -2.7 4.4 -5.4 4.1 -6.1 -0.8 -2.6 -7.1 -5.9 -10.2 -5.3 -1.6 0.3 -5.6 0.9 -8.7 1.2 l-5.8 0.7 0 -3.2 c0 -2.4 0.9 -4.1 3.4 -6.4 2.3 -2.2 4 -5.1 5.1 -9.1 1.6 -5.4 1.6 -6.2 0.2 -9.2 -1 -2 -4.6 -5.4 -9.4 -8.8 -7 -5 -8.3 -5.5 -13 -5.6 l-5.3 0 0 -3.4 c0 -3.1 0.4 -3.6 3.5 -4.6 2.6 -0.8 4.1 -2.3 5.6 -5.1 l2 -4 -2.3 -2.9 c-1.3 -1.6 -3.1 -3.2 -4.2 -3.6 -1.5 -0.5 -1.8 -1.4 -1.3 -5 0.4 -3.6 0 -4.8 -1.8 -6.8 -3.1 -3.3 -7.3 -5.4 -14.9 -7.1 -13.8 -3.2 -15.6 -4.8 -15.6 -14.1 0 -3.6 0.5 -7.4 1.1 -8.6 1 -1.8 0.8 -1.9 -1.3 -1.3 -6.9 2.1 -15.5 10.6 -18.4 18.2 -1.7 4.5 -1.7 4.8 0.4 10.9 2.9 8.2 2.9 11.4 0.1 11.4 -2.6 0 -16.2 13 -18 17.2 -0.9 2.3 -1 3.5 -0.1 4.9 1.4 2.2 1.6 8.9 0.3 8.9 -1.6 0 -2.3 3.8 -1.2 5.9 0.6 1.1 2 2.3 3.2 2.6 1.6 0.5 2 1.4 1.7 4.3 -0.3 3.2 -0.7 3.7 -3.5 4.3 -4.1 0.8 -15.5 8.2 -18.8 12.1 -1.4 1.6 -2.5 3.8 -2.5 4.7 0 2.9 3.7 6.8 7.5 8.1 3.1 1 3.5 1.6 3.5 4.4 0 3.2 -0.2 3.4 -4.9 4 -9 1.2 -13.9 9.8 -9 16 1.8 2.3 2.7 2.6 8.3 2.6 3.7 0 8.7 0.8 12.1 2 8.1 2.8 11.5 2.6 16 -1 4.8 -3.8 6.8 -4.3 15.9 -3.8 6.5 0.3 7.9 0.7 11.3 3.4 l3.9 3.2 2.7 -2.4 c3.5 -3 8.9 -3.2 13.3 -0.5 3.1 1.9 6.6 8 7.9 13.9 0.9 4.2 1.8 3.5 4.5 -3.5z"/>
  <path d="M403.7 448.3 c-1.5 -1.6 -15 -41.5 -29.7 -88.3 -3.4 -10.7 -6.8 -21.1 -7.6 -23 -0.7 -1.9 -2.7 -8 -4.3 -13.5 -1.6 -5.5 -4.6 -15.1 -6.7 -21.3 -3.5 -10.5 -4.1 -11.5 -7.4 -13.2 -4.5 -2.3 -10.6 -8.6 -12 -12.5 -2.8 -7.4 -1 -17.5 4.1 -23.1 1.8 -1.9 1.8 -2.3 0.4 -5.7 -2.4 -5.8 -1.9 -11.6 1.3 -16.8 2.7 -4.2 8.4 -9.5 14.1 -13 2.5 -1.5 2.5 -1.6 2.6 -16 0.1 -17.2 1 -19.5 11.6 -30.4 l6.7 -7 -0.5 -8.6 c-0.7 -10 0.9 -16 6 -23.2 7.4 -10.3 17.9 -16.1 29.2 -16.1 6.8 0 13.9 3 15 6.4 0.8 2.6 0.1 3.6 -4.6 6.5 -8.3 5.3 -9.1 11.6 -1.6 13.6 11.7 3.1 18.8 6.2 22.6 9.9 3.7 3.6 6.1 8.8 6.1 13.2 0 1 1.6 3.8 3.5 6.4 4 5.3 4.4 8.8 1.6 15.1 l-1.9 4.1 5.7 4 c9 6.4 13.8 12.2 14.6 17.6 0.4 2.6 0.4 6.4 0 8.4 -1.8 9.4 -1.8 9.2 -0.1 9.2 3.3 0 9.6 4.1 12.1 7.7 3.2 4.8 3.3 10.3 0.1 16.9 -1.4 2.7 -2.9 6.7 -3.5 9 -1.5 5.5 -7.2 12.9 -12.8 16.3 -4.4 2.8 -4.7 3.3 -8 13.2 -1.8 5.7 -4.5 14.2 -5.9 18.9 -1.4 4.7 -4.5 14.6 -6.9 22 -2.3 7.4 -8.9 28.4 -14.5 46.5 -16.2 52.5 -20.9 66.4 -23 67.5 -2.7 1.4 -4.3 1.2 -6.3 -0.7z m7.8 -30.8 c2.1 -6.6 4.5 -14.5 5.5 -17.5 2.6 -7.9 7.2 -22.5 12 -38 2.3 -7.4 5 -16 6.1 -19 1 -3 3.9 -12.2 6.4 -20.5 2.6 -8.2 5.3 -16.7 6.1 -18.8 2 -5.4 1.7 -6.8 -0.6 -2.5 -2.5 4.7 -5.6 6.8 -9.9 6.8 -4.8 0 -6.8 -2.2 -9.2 -10.4 -1.2 -3.9 -2.5 -7.9 -3.1 -8.9 -0.9 -1.7 -1 -1.7 -3.5 0.3 -1.8 1.4 -4.1 2 -7.7 2 -4.5 0 -5.6 -0.4 -8.2 -3.1 -1.6 -1.7 -4.1 -3.7 -5.5 -4.5 -2.4 -1.2 -3 -1.1 -6 1.1 -8.9 6.4 -15.8 7.8 -26.7 5.2 -5.9 -1.4 -6.3 -1.4 -5.7 0.1 0.3 0.9 3.5 10.9 7.1 22.2 3.5 11.3 8.4 26.4 10.8 33.5 2.5 7.2 6.8 20.4 9.6 29.5 2.9 9.1 6.4 20.1 8 24.5 1.5 4.4 4.5 13.4 6.6 20 2 6.6 3.9 11.5 4 11 0.1 -0.6 1.9 -6.4 3.9 -13z m32.2 -136.5 c1.5 -2.9 2.4 -3.5 5.3 -3.8 10.2 -0.7 17.5 -4.4 20.5 -10.3 1.4 -2.6 1.4 -2.9 0 -2.9 -1 0 -1.5 -1 -1.5 -3.1 0 -2.4 1.1 -4.4 4.5 -8 2.5 -2.6 4.5 -5.2 4.5 -5.8 0 -0.5 -1.4 -2.1 -3.2 -3.6 -2.5 -2.1 -3.8 -2.5 -6.2 -2.1 -1.7 0.3 -5.7 0.9 -8.8 1.2 l-5.8 0.7 0 -3.6 c0 -2.7 0.6 -3.9 2.1 -4.8 2.3 -1.2 6.4 -9.5 7.4 -14.9 0.8 -5 -1.9 -8.8 -10.6 -14.9 -7 -4.9 -7.4 -5.1 -14.1 -5.1 l-6.8 0 0 -3.4 c0 -3.3 0.2 -3.5 5 -4.6 4.4 -1 5.3 -1.8 7 -5.1 2.5 -4.8 2.5 -5.4 -0.1 -9 -1.3 -1.8 -2.9 -2.9 -4.5 -2.9 -2 0 -2.4 -0.5 -2.4 -3.1 0 -1.8 0.7 -3.7 1.7 -4.4 1.6 -1.2 1.6 -1.4 0 -3.9 -2.7 -4.1 -8.5 -7.3 -18.1 -10 -11.7 -3.2 -13.9 -5.3 -14.4 -13.9 -0.3 -4.6 0 -7.3 1.2 -9.5 2.1 -4.1 0.6 -4.2 -5.5 -0.4 -8.8 5.6 -14.8 15 -14.9 23 0 5 2.2 11 4.5 11.8 0.9 0.4 1.5 1.9 1.5 4 0 3.2 -0.2 3.4 -3.4 3.4 -2.8 0 -4.4 1.1 -10.1 6.8 -3.7 3.7 -7.6 8.5 -8.6 10.7 l-1.8 4 2.4 2.6 c3.3 3.4 3.5 8.6 0.3 9.1 -5.3 0.7 -2.2 8 4.2 9.9 3.6 1.1 4 1.5 4 4.6 l0 3.3 -5.3 0 c-4.3 0 -6.3 0.6 -10.3 3.2 -5.5 3.5 -12.1 9.4 -13.5 12.1 -1.7 3.1 1.6 8.3 6.7 10.4 4.2 1.7 4.5 2 4.2 5.3 -0.3 3.4 -0.4 3.5 -5.2 4.1 -3.8 0.4 -5.5 1.2 -7.7 3.7 -3.4 3.8 -3.7 7.4 -0.9 11.9 1.8 3.1 2.2 3.2 6.3 2.7 3.2 -0.5 6.9 0.1 13.5 2.1 9.9 2.9 12.2 2.7 16.2 -1 3.6 -3.4 7.2 -4.5 14.6 -4.5 7 0 9.4 0.8 13.5 4.6 l2.5 2.4 2.4 -2.5 c1.9 -2 3.3 -2.5 7.3 -2.5 7.2 0 9.8 3 14.4 17 0.3 0.9 1.2 -0.2 2.4 -3 1 -2.5 2.6 -6.1 3.6 -8z"/>
 </g>
 <g fill="#a2644c">
  <path d="M246 440.8 c-0.6 -2.4 -2 -7.1 -3.1 -10.4 -1.1 -3.4 -3 -9.9 -4.3 -14.5 -2.9 -10.4 -15.6 -52.8 -20.1 -66.9 -1.8 -5.8 -4.8 -15.4 -6.5 -21.5 -1.8 -6 -5.2 -17.4 -7.6 -25.1 -4.9 -15.9 -5.3 -17.9 -2.6 -16.9 13.7 5.3 23 6.3 27.7 2.9 8.7 -6.1 11.5 -7 11.5 -3.4 0 1.2 -0.7 2 -1.6 2 -0.9 0 -2.5 1.1 -3.5 2.4 -3.1 3.9 -8 5 -19.7 4.2 -8.1 -0.5 -10.3 -0.3 -10 0.7 1.1 3 8.1 25.8 9.8 31.7 1 3.6 3.9 13 6.3 21 2.5 8 6.9 22.5 9.7 32.2 2.9 9.8 6 20 7.1 22.8 1 2.7 2.4 7.1 2.9 9.7 0.6 2.7 2.3 8.6 3.7 13.2 l2.6 8.4 3.9 -12.4 c2.2 -6.8 4.4 -13.3 4.9 -14.4 2.1 -4.8 3.9 -11 3.9 -13.8 0 -1.6 0.6 -3.5 1.4 -4.1 0.8 -0.6 2.6 -4.7 3.9 -9.1 1.4 -4.4 3.7 -11.1 5.1 -14.9 1.4 -3.7 2.6 -8.8 2.6 -11.2 0 -3.1 0.4 -4.4 1.4 -4.4 1 0 3.4 -5.8 7.3 -17.2 3.2 -9.5 6.1 -18.5 6.4 -19.9 l0.6 -2.7 -3.1 1.9 c-4 2.4 -9.1 2.4 -11.5 0 -1 -1 -2.4 -4.3 -3.1 -7.2 -0.7 -3 -1.9 -6.8 -2.6 -8.6 l-1.3 -3.1 -3.8 1.9 c-4.5 2.3 -11.1 2.5 -11.9 0.4 -0.4 -0.8 -1.1 -1.5 -1.8 -1.5 -0.6 0 -2.4 -1.3 -3.9 -3 -1.6 -1.6 -3.3 -3 -3.8 -3 -0.5 0 -0.9 -0.9 -0.9 -2 0 -3.3 3.5 -2.4 9 2.5 2.8 2.5 6 4.5 7 4.5 1.1 0 3.7 -1.6 5.8 -3.5 l3.9 -3.5 2.2 2.4 c1.3 1.3 3.4 6.2 4.7 10.7 1.3 4.6 3.1 9 3.9 9.9 2.8 2.8 6.5 -0.5 11.5 -10.4 3 -5.8 5.3 -9.2 6.8 -9.7 3 -1.1 5.5 -0.1 4.7 2 -0.4 0.9 -6 17.4 -12.6 36.6 -6.5 19.3 -18.1 53.6 -25.8 76.4 -7.8 22.8 -14.1 41.6 -14.1 41.8 0 0.2 -0.4 0.3 -1 0.3 -0.5 0 -1.4 -1.9 -2 -4.2z"/>
  <path d="M88.6 427.3 c-2.6 -8.1 -6.9 -21.8 -9.6 -30.3 -2.7 -8.5 -6.5 -20.9 -8.5 -27.5 -1.9 -6.6 -5.3 -17.4 -7.5 -24 -2.1 -6.6 -5.5 -17.6 -7.6 -24.5 -2 -6.9 -5.8 -19.2 -8.5 -27.5 -2.7 -8.2 -4.5 -15.3 -4 -15.8 0.5 -0.5 4.2 0.2 8.2 1.4 4.1 1.3 9.9 2.3 13 2.3 4.8 0.1 6.3 -0.4 11 -3.7 4.1 -2.8 6.4 -3.7 9.4 -3.7 3.5 0 7.6 1.8 9.5 4 1.7 2 6.6 5 8.1 5 1 0 3.4 -1.3 5.2 -3 1.9 -1.6 3.9 -3 4.4 -3 2.1 0 4.7 4.3 7.7 12.6 1.7 4.8 3.8 9.2 4.7 9.7 3 1.9 6.8 -1.8 11.2 -11 4 -8.5 6.7 -11 10.2 -9.7 2 0.8 2 0.7 -2.4 14.3 -2.2 6.5 -6.5 19.9 -9.6 29.7 -3.1 9.9 -7.8 24.4 -10.5 32.4 -2.6 8 -6.4 19.9 -8.5 26.5 -2 6.6 -6.2 19.7 -9.2 29 -3 9.4 -6.5 20.1 -7.7 23.9 -1.2 3.9 -2.7 7.1 -3.3 7.3 -0.7 0.3 -3 -5.7 -5.7 -14.4z m8.9 -8 c0.8 -1.8 2.1 -6 3 -9.5 0.9 -3.5 2.3 -7.8 3.1 -9.5 0.8 -1.8 2.3 -6.5 3.4 -10.5 1.1 -4 3.1 -10.7 4.5 -14.8 7.6 -22.5 14.6 -44.2 15.9 -49 0.8 -3 2.9 -9.7 4.7 -14.8 1.8 -5.1 3 -9.5 2.7 -9.7 -0.3 -0.3 -1.8 0.1 -3.4 1 -4 2 -9.7 1.9 -11.7 -0.2 -0.8 -1 -2.4 -4.5 -3.5 -7.8 -1.1 -3.3 -2.5 -7.2 -3.1 -8.8 l-1.1 -2.7 -3.2 2 c-2 1.2 -5.1 2 -7.7 2 -3.8 0 -5.2 -0.7 -10 -4.6 -6.5 -5.3 -9 -5.4 -14 -0.3 l-3.2 3.2 -12.5 -0.5 -12.5 -0.5 0.6 2.6 c0.4 1.4 2.2 6.7 4.1 11.7 1.9 5.1 3.4 9.9 3.4 10.8 0 1.9 2.5 10.2 8.7 28.6 2.5 7.4 5.1 16 5.8 19 0.8 3 2.3 8.4 3.5 12 1.2 3.6 4 11.9 6.2 18.5 2.1 6.6 4.4 13.8 5 16 1.5 5.9 7 23.8 7.7 25 0.3 0.5 0.9 -0.6 1.4 -2.5 0.5 -1.9 1.5 -4.9 2.2 -6.7z"/>
  <path d="M406.2 440 c-0.5 -1.4 -2.8 -8.6 -5.2 -16 -2.3 -7.4 -5.5 -17.1 -7 -21.5 -1.6 -4.4 -5.2 -15.4 -8 -24.5 -2.9 -9.1 -7.6 -23.7 -10.5 -32.5 -12.1 -36.4 -19.8 -61.5 -19.1 -62.2 0.4 -0.4 2.8 0 5.4 0.9 13.3 4.5 19.9 4.4 25.9 -0.6 7.8 -6.5 13.7 -6.1 20.7 1.3 3.8 4 6.7 3.9 11.4 -0.4 l3.8 -3.4 2.3 2.2 c1.2 1.2 3.3 5.9 4.7 10.3 1.3 4.5 3.3 8.9 4.4 9.9 1.8 1.7 2.1 1.7 4.6 0.1 1.5 -1.1 4 -4.8 6.1 -9.4 1.9 -4.2 3.8 -8.4 4.2 -9.2 0.5 -0.9 2.2 -1.5 4.2 -1.5 3.9 0 4 -1.1 -0.8 14 -6.6 21.1 -9.1 29.1 -12.7 40.5 -2.1 6.3 -4.5 14.2 -5.6 17.5 -1 3.3 -3.7 11.9 -5.9 19 -2.3 7.2 -5.5 17.3 -7.2 22.5 -1.6 5.2 -4.3 13.8 -6 19 -1.6 5.2 -3.9 12.6 -5 16.4 -2.8 9.6 -3.5 10.8 -4.7 7.6z m9.7 -38 c2.3 -7.4 5.5 -17.5 7 -22.5 3 -9.4 13.7 -43.1 18.9 -59.5 1.7 -5.2 3.3 -10.3 3.7 -11.2 0.6 -1.5 0 -1.6 -6.3 -1.1 -6.4 0.5 -7 0.4 -8.6 -1.8 l-1.6 -2.3 0 3.2 c0 3 -0.2 3.2 -3.5 3.2 -3.3 0 -3.5 -0.2 -3.5 -3.5 0 -3.4 0.2 -3.5 3.6 -3.5 2.7 0 3.5 -0.4 3.1 -1.4 -0.3 -0.8 -1.1 -3.4 -1.7 -5.8 -0.7 -2.4 -1.6 -5.1 -2.2 -6.1 -0.9 -1.8 -1 -1.8 -2.9 -0.1 -1.2 1 -4.1 1.9 -7.4 2.2 -5.4 0.4 -5.6 0.4 -10.6 -4.3 -4 -3.7 -5.5 -4.6 -7.2 -4 -1.2 0.4 -3.2 0.9 -4.4 1.2 -1.4 0.3 -2.3 1.3 -2.3 2.4 0 2.9 -6.9 4.2 -18.1 3.5 l-9.7 -0.6 2.3 7.3 c8 24.9 11.1 34.6 15.2 46.2 2.4 7.2 4.9 14.8 5.4 17 0.4 2.2 3.6 12.1 6.9 22 3.4 9.9 6.8 20.3 7.6 23 1.3 4.6 5.8 19 7 22.5 0.6 1.6 2.8 -4.8 9.3 -26z"/>
  <path d="M432 319.5 c0 -3.3 0.2 -3.5 3.5 -3.5 3.3 0 3.5 0.2 3.5 3.5 0 3.3 -0.2 3.5 -3.5 3.5 -3.3 0 -3.5 -0.2 -3.5 -3.5z"/>
  <path d="M279 302.4 c-0.6 -1.4 -1 -3.1 -1 -3.8 0 -3.1 -3.4 -10.8 -6 -13.6 -3.6 -3.9 -5.2 -3.8 -9.4 0.5 -2 1.9 -3.9 3.5 -4.4 3.5 -0.5 0 -2.6 -1.6 -4.7 -3.6 -7.3 -6.8 -14.4 -7.4 -22.5 -1.8 -6.6 4.5 -11 4.7 -22.8 0.9 -7.9 -2.5 -8.5 -2.6 -10.9 -1 -2.2 1.5 -2.9 1.5 -5 0.4 -6 -3.2 -8.3 -15.4 -4.1 -21.5 2.8 -4 5.6 -5.4 11.1 -5.4 l4.2 0 -5 -2.4 c-5.7 -2.6 -7.5 -5.5 -7.5 -12.1 0 -3.5 0.6 -5.2 3 -7.8 4.5 -5.1 15.2 -11.8 20.1 -12.4 l4.1 -0.6 -2.9 -1.2 c-1.7 -0.7 -3.5 -2.6 -4.3 -4.4 -1.5 -3.7 -0.7 -10.2 1.4 -11.5 1.2 -0.8 1.2 -1.3 -0.1 -3.3 -2.3 -3.5 -1.2 -10.1 2.5 -15.6 4.3 -6.1 14.9 -14.9 17.2 -14.2 1.6 0.5 1.6 0.2 -0.3 -3.6 -7.6 -15.3 2.7 -35.7 20.4 -40.5 4.6 -1.2 9.8 -1.1 12 0.2 0.3 0.2 -1.3 2.4 -3.7 4.9 -4 4.1 -4.4 5 -4.4 9.4 0 6.5 3 9.4 12.4 12.3 9.7 2.9 15.7 6 18.4 9.7 2.4 3.3 2.9 9 1 10.9 -0.9 0.9 -0.8 1.2 0.5 1.2 1.6 0 7.7 7.3 7.7 9.3 0 0.5 -1.2 3.5 -2.6 6.7 -2.1 4.7 -3.3 6.1 -6.2 7.3 l-3.7 1.4 4.2 -0.4 c3.8 -0.5 4.7 -0.1 12.3 5.7 8.9 6.8 12 10.8 12 15.6 0 5.4 -4 16.5 -7 19.6 -3.1 3.1 -2.5 3.4 3.4 1.7 5 -1.4 9.8 -0.4 13.6 2.7 2.4 2.1 3 3.4 3 6.5 0 3.4 -0.7 4.8 -5 9.3 -4.5 4.7 -4.7 5.3 -2.5 4.8 2.9 -0.5 3.1 0.4 0.9 5.6 -3.3 8 -9.3 12.1 -19.3 13 l-6.6 0.7 -4 8.2 c-5.8 11.8 -7.7 13.6 -9.5 8.7z m10 -20.9 c1.4 -0.8 4.7 -1.4 7.3 -1.5 5.4 0 9.9 -1.7 14.2 -5.4 l3 -2.5 -2.7 -0.1 c-2.6 0 -2.8 -0.3 -2.8 -4 0 -2.2 0.4 -4 0.9 -4 0.5 0 3.2 -2.1 6 -4.6 6 -5.4 6.3 -7.8 1.4 -10.7 -3 -1.7 -3.5 -1.7 -8.4 -0.3 -2.9 0.9 -7.7 1.6 -10.6 1.6 l-5.3 0 0 -3.3 c0 -2.8 0.7 -3.7 5.3 -6.8 4.6 -3.1 5.5 -4.2 7.6 -10.3 2.3 -6.4 2.3 -6.9 0.8 -10.2 -1 -2 -4.6 -5.5 -9.1 -8.9 l-7.5 -5.5 -9.6 0 -9.6 0 0.3 -3.7 0.3 -3.8 7.1 -1.5 c7.9 -1.7 9.6 -2.7 11.4 -6.9 1.7 -4.2 -1 -8.1 -5.6 -8.1 -3.3 0 -3.4 -0.1 -3.4 -3.9 0 -2.8 0.6 -4.2 2.2 -5.3 2 -1.3 2 -1.5 0.5 -3.9 -2 -3.1 -7.4 -6.1 -14.7 -8.3 -13.3 -4.1 -17 -7.5 -17 -15.5 0 -2.2 -0.3 -4.1 -0.7 -4.1 -1.1 0 -7 8.9 -8.3 12.5 -0.7 1.9 -0.9 6.3 -0.4 12.7 l0.7 9.7 -8.1 7.6 c-9.8 9.2 -11.2 12 -11.2 21.9 l0 7.6 -3.6 0 c-2.8 0 -3.5 0.4 -3.2 1.7 0.3 1.6 3.6 3 12.6 5.3 3.9 1 4.2 1.3 4.2 4.5 l0 3.5 -9.3 0 c-9.2 0 -9.5 0.1 -15.3 3.8 -9.9 6.4 -9.8 6.8 0.3 7.7 4.8 0.4 9.6 1 10.6 1.4 2.5 0.9 6.7 12 6.7 17.6 0 3 -0.7 4.6 -3.1 7.1 -4.1 4.3 -5.2 11.6 -2.2 15.3 l2 2.4 4.9 -3.4 c4.2 -2.9 5.9 -3.4 11.9 -3.7 7.2 -0.4 10.6 0.5 16.8 4.5 2.7 1.7 2.9 1.7 3.8 0.1 1.4 -2.6 11.1 -2.5 14.7 0.1 5 3.4 10 4 14.2 1.6z"/>
  <path d="M436.3 299.4 c-0.6 -1 -1.8 -4.4 -2.7 -7.5 -2 -7 -5.4 -12.1 -8.9 -13.3 -2.4 -0.9 -3.2 -0.6 -6.7 2.9 l-3.9 3.8 -3.7 -2.9 c-6.5 -5.2 -8.8 -6.4 -12.6 -6.4 -4.7 0 -8.6 1.5 -11.8 4.5 -1.4 1.4 -4 2.8 -5.8 3.1 -2.8 0.6 -3.2 0.4 -3.2 -1.4 0 -2 2.4 -3.2 6.8 -3.2 1.7 0 2.2 -0.6 2.2 -2.4 0 -2.5 0.6 -2.9 6.8 -4.1 4.3 -0.9 12.9 0.3 14.7 2.1 0.7 0.8 1.8 1.4 2.4 1.4 0.5 0 1.8 1.1 2.9 2.5 2.5 3.1 3.2 3.1 3.2 0.1 0 -2 0.6 -2.4 4.6 -3 7.7 -1 8.4 -0.9 8.4 1.9 0 2 0.5 2.5 2.4 2.5 1.9 0 2.7 0.9 4 4 0.9 2.2 1.6 4.7 1.6 5.5 0 3.6 2 1.9 4 -3.5 1.9 -5 2.6 -6 4.6 -6 1.7 0 2.4 -0.6 2.4 -2 0 -1.7 0.7 -2 4.4 -2 6 0 10.2 -1.7 14.2 -5.7 3.9 -3.8 4.3 -5.3 1.4 -5.3 -1.6 0 -2 -0.7 -2 -3.5 0 -3.4 0.1 -3.5 3.6 -3.5 3.1 0 3.5 0.2 2.4 1.5 -1 1.3 -0.9 1.5 0.9 1.5 2.7 0 2.8 2.8 0.1 8 -3.5 6.8 -11.2 11 -20.2 11 -4.3 0 -5.5 1.4 -8.8 10.1 -1.2 3 -3.2 6.8 -4.4 8.4 -2.2 2.7 -2.4 2.8 -3.3 0.9z"/>
  <path d="M123.5 291.3 c-1 -2.7 -2.2 -6.1 -2.8 -7.8 -1.7 -4.7 -3.8 -7.5 -6.9 -9.1 -3.1 -1.6 -5 -1 -8.2 2.5 -2.5 2.8 -5.7 2.7 -8.5 -0.3 -3.3 -3.5 -8.2 -5.6 -13 -5.6 -3.5 0 -4.1 -0.3 -4.1 -2.1 0 -2.1 0.4 -2.1 6.2 -1.6 3.4 0.3 6.4 1 6.6 1.6 0.2 0.6 1.2 1.1 2.3 1.1 1.4 0 1.9 0.7 1.9 2.5 0 2.1 0.5 2.5 3 2.5 2.1 0 3 0.5 3 1.6 0 1.4 0.3 1.4 1.5 0.4 0.8 -0.7 1.5 -2.5 1.5 -4.1 0 -2.8 0.2 -2.9 4.4 -2.9 5.7 0 7.6 0.8 7.6 3.1 0 1.2 0.7 1.9 2 1.9 1.3 0 2 0.7 2 2 0 1.1 0.4 2 0.9 2 0.6 0 1.6 2.1 2.4 4.8 l1.4 4.7 2.5 -5.5 c1.4 -3 2.8 -6.3 3.1 -7.3 0.8 -2 4.6 -3.7 8.8 -3.7 3.8 0 3.9 2.6 0 3.5 -3.7 0.8 -5.2 2.7 -8.1 9.8 -2.3 5.9 -5.5 10.7 -7 10.7 -0.5 0 -1.6 -2.1 -2.5 -4.7z"/>
  <path d="M363.5 281.4 c-7.9 -2.4 -8 -2.4 -10.5 -0.5 -2.6 1.8 -2.6 1.8 -5.3 -0.1 -10.5 -7.6 -6.7 -25.8 5.3 -25.8 5.4 0 5.6 -1.2 0.5 -3.3 -4.9 -2.1 -7.5 -6.2 -7.5 -12.1 0 -8.5 18.6 -21.8 28 -20 1.4 0.2 0.7 -0.3 -1.5 -1.1 -4.5 -1.7 -7.5 -4.8 -7.5 -7.6 0 -2.5 3.7 -2.5 4.5 -0.1 0.6 2.2 3.7 3.8 8.9 4.7 3.3 0.7 3.6 1 3.6 4.1 l0 3.4 -7.1 0 c-4.9 0 -7.5 0.4 -8.5 1.5 -0.9 0.8 -2.4 1.5 -3.5 1.5 -1 0 -1.9 0.5 -1.9 1.1 0 1.9 -3.3 3.8 -6.6 3.9 -3 0 -3.1 0.2 -3.7 5.3 -0.7 5.5 -0.1 9.7 1.4 9.7 0.5 0 0.9 0.6 0.9 1.4 0 0.9 1.8 1.6 5.1 2 l5 0.7 -0.3 3.7 c-0.3 3.5 -0.5 3.7 -4.2 4 -2.4 0.2 -4.2 -0.2 -4.7 -1 -0.7 -1 -0.9 -0.9 -0.9 0.4 0 1 -1 2 -2.3 2.3 -3.4 0.9 -6.2 7.9 -4.7 11.6 1.8 4.2 3.7 5.3 8.7 5 6.6 -0.4 21.3 3.8 21.3 6.1 0 2.4 -2.6 2.2 -12.5 -0.8z"/>
  <path d="M57 277.6 c-14.4 -4.2 -13.8 -4.1 -17.6 -2.7 -3.4 1.2 -3.7 1.2 -6.5 -1.5 -8.7 -8.3 -4.2 -22.4 7.6 -24.1 l4.9 -0.6 -4.1 -1.8 c-2.3 -1 -4.9 -2.9 -5.9 -4.4 -2.4 -3.6 -2.3 -9.8 0.2 -13.2 2.7 -3.8 17 -13.3 19.9 -13.3 1.3 0 2.7 -0.4 3 -1 0.3 -0.6 0.1 -1 -0.4 -1 -1.8 0 -5.1 -3.9 -5.1 -6 0 -2.6 3.1 -2.6 4.7 -0.1 0.7 1.1 2.8 2.5 4.8 3.2 3 1.1 3.5 1.7 3.5 4.6 0 3.2 -0.1 3.3 -4 3.3 -3.7 0 -11.1 2.6 -11.8 4.3 -0.2 0.4 -1.6 0.7 -3.2 0.7 -2.2 0 -2.9 0.5 -3.2 2.3 -0.2 1.3 -1.1 2.3 -2.3 2.5 -2.8 0.4 -4.6 6.3 -3.2 10.2 0.8 2 2.3 3.2 5.9 4.5 4.8 1.7 4.9 1.9 4.6 5.4 -0.2 2.3 -0.8 3.7 -1.8 3.8 -0.8 0.1 -4 0.5 -7.1 0.8 -5.4 0.6 -5.7 0.8 -6.4 3.8 -0.8 4.1 -0.8 7.3 0 11.5 0.6 2.8 1 3.2 2.9 2.5 3.8 -1.4 10.9 -0.8 19.4 1.7 7.9 2.3 8.5 2.3 11.5 0.8 1.8 -0.9 5.1 -1.9 7.5 -2.1 l4.2 -0.5 -3.2 2.4 c-7.5 5.5 -11 6.2 -18.8 4z"/>
  <path d="M147 273.2 c0 -1.2 1.3 -2.3 3.8 -3.1 2 -0.8 4.4 -2.2 5.3 -3.2 0.9 -1.1 2.1 -1.9 2.6 -1.9 0.6 0 1.3 -1.8 1.7 -4 0.5 -3.1 1.1 -4 2.6 -4 5.4 0 -1 12.3 -8.2 15.9 -5.4 2.6 -7.8 2.7 -7.8 0.3z"/>
  <path d="M475 252.7 c0 -1.9 0.4 -3.7 0.9 -3.9 0.5 -0.1 0.7 -1.4 0.4 -2.8 -0.7 -3.8 -6.4 -5.4 -12.8 -3.5 -2.6 0.8 -6.5 1.5 -8.7 1.5 -3.7 0 -3.8 -0.1 -3.8 -3.5 0 -2.3 0.6 -3.8 1.6 -4.2 3.3 -1.2 6.2 -5.3 8 -11.2 1.4 -4.7 2.2 -6.1 3.7 -6.1 1.7 0 1.8 0.5 1.2 3.8 -1 5.7 -5.1 13.9 -7.5 15.2 -3.7 2 -1.4 2.3 4.4 0.6 4.4 -1.3 6.5 -1.4 9.5 -0.6 3.7 1 9.1 5.8 9.1 8.1 0 1.9 -2.7 7.4 -4.3 8.8 -1.5 1.2 -1.7 1 -1.7 -2.2z"/>
  <path d="M165 248.7 c0 -1.9 0.4 -3.7 1 -3.9 1.4 -0.4 0 -4.8 -1.5 -4.8 -0.7 0 -1.5 -0.5 -1.7 -1.1 -0.4 -1.3 -5.8 -1.5 -12.1 -0.4 -3.8 0.6 -5.1 0.5 -5.8 -0.6 -1.3 -2.1 -1.1 -7.9 0.4 -7.9 1.2 0 5.7 -9.8 5.7 -12.5 0 -0.8 0.9 -1.5 2 -1.5 2.4 0 2.5 1.1 0.4 8.1 -1.1 3.5 -2.8 6.5 -5.1 8.6 -4 3.8 -4 3.8 3.6 1.8 8.2 -2.1 16 0.5 18.1 6.1 1.1 2.8 -0.6 8 -3.3 10.3 -1.5 1.2 -1.7 1 -1.7 -2.2z"/>
  <path d="M461.5 215.3 c-0.7 -2.4 -5.7 -7.8 -7.8 -8.6 -0.9 -0.3 -1.7 -1.1 -1.7 -1.7 0 -0.5 -0.7 -1 -1.5 -1 -0.8 0 -1.5 -0.4 -1.5 -1 0 -0.5 -0.6 -1 -1.4 -1 -0.8 0 -1.6 -0.5 -1.8 -1.1 -0.2 -0.6 -3.5 -1 -8.1 -1 l-7.7 0 0 -3.3 c0 -3.2 0.2 -3.4 6.4 -5 5.9 -1.6 6.5 -2 7.1 -4.9 1 -5.3 0.8 -8 -0.9 -8.9 -0.9 -0.5 -1.6 -1.6 -1.6 -2.3 0 -0.9 -0.9 -1.5 -2.1 -1.5 -2 0 -2.1 -0.4 -1.6 -4.5 0.5 -4.9 -1 -9.5 -3 -9.5 -0.7 0 -1.3 -0.4 -1.3 -0.9 0 -0.8 -12.2 -5 -19.2 -6.7 -1.6 -0.3 -2.8 -1 -2.8 -1.4 0 -0.4 -0.9 -1 -2 -1.3 -1.2 -0.3 -2 -1.4 -2 -2.6 0 -1.2 -0.4 -2.1 -1 -2.1 -1.3 0 -1.3 -12.6 0 -15.1 0.7 -1.2 0.7 -1.9 0.1 -1.9 -1.8 0 -6.6 2.4 -7.4 3.7 -0.4 0.7 -1.7 1.3 -2.7 1.3 -1.3 0 -2 0.7 -2 1.9 0 1.1 -0.8 2.6 -1.8 3.3 -1.9 1.3 -6.2 11.5 -6.2 14.6 0 3.7 2.2 9.3 4.5 11.7 1.6 1.5 2.5 3.5 2.5 5.6 l0 3.2 -5.6 -0.6 c-3.1 -0.3 -5.9 -0.9 -6.3 -1.2 -1.2 -1.2 2.9 -3.2 5.5 -2.7 l2.6 0.5 -2.5 -2.5 c-3.5 -3.5 -5.2 -12.2 -3.7 -19.1 2.5 -11.7 12.5 -22.2 23.2 -24.2 3 -0.6 3.7 -0.4 4.1 1.2 0.4 1.6 0.5 1.6 0.6 0.1 0.1 -1.2 0.9 -1.8 2.5 -1.8 3.4 0 4 1.5 1.3 3.3 -3.8 2.5 -7.1 9.7 -6.3 13.8 1 5.3 4.3 7.7 14.9 10.8 10.7 3.1 16.2 6.6 18.3 11.7 1.5 3.6 0.6 7.7 -1.8 8.7 -0.7 0.3 -0.1 0.6 1.4 0.6 2 0.1 3.4 1.1 5.3 3.8 3.1 4.6 3.1 6.4 0.2 12.8 -2.1 4.5 -2.8 5.1 -7.8 6.7 l-5.4 1.8 6.5 -0.5 6.5 -0.5 7.8 5.6 c7.6 5.4 11.7 10.1 11.7 13.7 0 1 -0.8 1.7 -1.9 1.7 -1.1 0 -2.2 -0.8 -2.6 -1.7z"/>
  <path d="M147.7 208.2 c-1 -1 -1.7 -2.4 -1.7 -3 0 -0.7 -0.9 -1.2 -2 -1.2 -1.1 0 -2 -0.4 -2 -1 0 -0.5 -0.7 -1 -1.5 -1 -0.8 0 -1.5 -0.4 -1.5 -1 0 -0.5 -0.6 -1 -1.4 -1 -0.8 0 -1.6 -0.5 -1.8 -1.2 -0.3 -0.7 -3.2 -1.4 -7.1 -1.6 l-6.7 -0.4 0 -3.4 c0 -3.3 0.1 -3.4 4.4 -3.4 4.3 0 4.4 -0.1 5 -3.7 2 -11.7 2.1 -11 -1.8 -11.7 l-3.6 -0.7 0 -5.4 c0 -7.9 -3.3 -10.5 -17.8 -14 -4 -1 -7.2 -2.2 -7.2 -2.6 0 -0.5 -0.9 -0.9 -2 -0.9 -1.1 0 -2 -0.7 -2 -1.5 0 -0.8 -0.7 -1.5 -1.5 -1.5 -2.6 0 -3.3 -11.1 -1.1 -16.2 0.6 -1.3 0.4 -1.8 -0.8 -1.8 -0.9 0 -1.6 0.4 -1.6 1 0 0.5 -1.1 1.2 -2.5 1.6 -1.4 0.3 -2.5 1 -2.5 1.5 0 0.5 -1.6 0.9 -3.5 0.9 -3.3 0 -3.5 0.2 -3.5 3.5 0 1.9 -0.4 3.5 -0.8 3.5 -1.2 0 -4.2 9 -4.2 12.5 0 1.7 0.9 4.8 2 7 1.1 2.2 2 5.2 2 6.7 0 2.4 -0.4 2.8 -2.8 2.8 -1.6 0 -3.2 0.8 -4 2 -0.9 1.4 -2.3 2 -5 2 l-3.7 -0.1 3.7 -3.4 c2.1 -1.9 4.6 -3.5 5.7 -3.5 1.9 0 1.9 -0.1 0 -5 -2.7 -7.1 -2.5 -13.5 0.7 -19.8 3.2 -6.4 10.9 -13.5 17.1 -15.6 6.1 -2.1 7.3 -2 7.3 0.4 0 1.1 0.5 2 1 2 0.6 0 1 -0.9 1 -2 0 -1.3 0.7 -2 1.9 -2 2.9 0 3.5 1.7 1.1 3 -5.5 3 -7.9 13.1 -4 17 2.5 2.5 5 3.5 13.7 5.5 12.5 2.9 20.2 9.9 17.5 15.9 -0.6 1.4 -0.7 2.6 -0.2 2.6 1.2 0 6.9 6.1 7.6 8.2 0.3 0.9 -0.5 4 -1.7 6.9 -1.8 4.1 -3 5.5 -6.3 7 l-4.1 1.9 4.6 -0.4 c4.3 -0.5 5.2 -0.1 12 4.5 7.4 5 11.9 9.2 11.9 11 0 1.6 -4.6 1 -6.3 -0.9z"/>
  <path d="M365 205.7 c0 -2.9 1.8 -4.7 3.9 -4 1 0.4 0.5 -0.5 -1.1 -2.4 -5 -5.3 -2.9 -12.9 6.3 -22.3 l5.4 -5.5 0.3 2.8 c0.4 3.7 -1.3 5.7 -4.9 5.7 -2.6 0 -2.9 0.3 -2.9 3.3 -0.1 1.7 -0.7 4.3 -1.5 5.7 -1.6 2.9 -2 9 -0.5 9 0.6 0 1 1.6 1 3.5 0 1.9 -0.4 3.5 -1 3.5 -0.5 0 -1 0.7 -1 1.5 0 0.8 -0.9 1.5 -2 1.5 -1.4 0 -2 -0.7 -2 -2.3z"/>
  <path d="M53 203.1 c0 -1.1 0.7 -2.6 1.5 -3.4 1.3 -1.3 1.3 -1.9 -0.1 -4.6 -1.9 -3.8 -0.6 -9.7 3.1 -13.8 l2.4 -2.8 0.1 3.3 c0 1.8 -0.7 4.7 -1.6 6.3 -1.4 2.8 -1.4 3.2 0 4.8 2.2 2.5 2 7.7 -0.4 10.1 -2.5 2.5 -5 2.6 -5 0.1z"/>
 </g>
 <g fill="#b06b50">
  <path d="M245.1 436.3 c-1.3 -4.3 -3.6 -12.7 -5.2 -18.7 -1.6 -5.9 -3.6 -12.2 -4.3 -14 -0.7 -1.7 -3.6 -11.2 -6.5 -21.1 -2.9 -9.9 -7.3 -24.5 -9.8 -32.5 -2.4 -8 -5.3 -17.4 -6.3 -21 -1 -3.6 -3.7 -12.3 -5.9 -19.5 -4.6 -14.6 -4.8 -15.5 -2.5 -15.5 1.4 0 1.4 -0.3 0.4 -1.5 -0.7 -0.8 -1.9 -1.5 -2.6 -1.5 -0.8 0 -1.4 -0.4 -1.4 -0.9 0 -0.5 -0.3 -1.6 -0.6 -2.5 -0.8 -2.2 1.3 -2 6.1 0.4 2.2 1.1 5.1 2 6.6 2 1.5 0 3.5 0.7 4.4 1.6 1 1.1 2 1.3 2.8 0.6 0.7 -0.5 2.9 -1.2 5 -1.6 2 -0.4 5.3 -2.1 7.2 -3.7 4.5 -4 10.1 -4.8 14.4 -2.3 1.7 1 3.1 2.1 3.1 2.5 0 0.4 1.5 1.8 3.4 3.3 3 2.2 3.9 2.5 6.3 1.6 1.5 -0.6 3.8 -2.2 5 -3.7 1.2 -1.5 2.7 -2.4 3.6 -2 1.8 0.7 5.1 7.8 6.7 14.6 0.7 2.9 2.1 6.2 3.1 7.2 1.8 1.8 2.2 1.8 4.9 0.4 2.2 -1.1 4.2 -4 7.5 -10.5 3.5 -7 5.1 -9.1 7 -9.6 1.4 -0.4 2.8 -0.4 3.1 -0.1 1.1 1.1 -3 11 -4.8 11.5 -2.1 0.5 -3.5 4.9 -2 6.4 0.7 0.7 0.6 2.3 -0.4 5.2 -0.8 2.2 -4.6 13.6 -8.4 25.1 -3.9 11.6 -8.6 25.3 -10.4 30.5 -1.9 5.2 -4.6 13.2 -6.1 17.8 -1.5 4.5 -3.1 8 -3.6 7.7 -0.5 -0.4 -0.6 0.1 -0.3 0.9 0.6 1.5 -1.4 8.7 -4.1 15.1 -0.7 1.7 -3.6 10.3 -6.6 19.3 -2.9 8.9 -5.6 16.2 -5.9 16.2 -0.4 0 -1.7 -3.5 -2.9 -7.7z m6.3 -20.9 c2.1 -0.8 2 -3.3 -0.2 -6.2 -1.8 -2.3 -1.8 -2.3 -3.6 -0.3 -1.7 1.8 -1.7 2.1 -0.1 4.5 1.9 2.9 1.8 2.8 3.9 2z m-8.4 -16.4 c0 -0.9 -0.9 -2.5 -1.9 -3.4 -1.5 -1.4 -2.1 -1.5 -2.7 -0.4 -1.1 1.7 -0.5 6.1 0.9 7 1.5 0.9 3.7 -1 3.7 -3.2z m18 -2.4 c0 -2.1 -1.2 -2.5 -3.7 -1.1 -2.1 1.1 -2.1 1.3 -0.7 3.3 1.3 1.9 1.7 2 3 0.8 0.8 -0.8 1.4 -2.1 1.4 -3z m-8 -11.5 c-2.1 -3.6 -2.7 -4.1 -4.3 -3.5 -2.1 0.8 -2.2 3.3 -0.1 6.2 1.5 2.2 1.7 2.2 3.5 0.6 1.3 -1.2 1.6 -2.1 0.9 -3.3z m-9 -11.1 c0.6 0 0.2 -1.3 -1 -3 -2.5 -3.5 -3.5 -3.7 -4.9 -1.2 -0.7 1.3 -0.4 2.7 1.2 5.1 2 3.2 2.1 3.3 2.8 1.2 0.5 -1.1 1.3 -2.1 1.9 -2.1z m18.8 1 c1 -1.7 1 -2.5 -0.5 -4.5 -2.2 -3 -2.5 -3 -4.1 -0.5 -1 1.7 -0.9 2.5 0.4 4.5 2 3 2.5 3.1 4.2 0.5z m-8.8 -14.9 c0 -0.3 -0.8 -1.9 -1.9 -3.4 l-1.8 -2.8 -1.6 2.5 c-1.5 2.3 -1.5 2.6 0.5 5.1 2 2.6 2.2 2.7 3.5 0.9 0.7 -1 1.3 -2 1.3 -2.3z m19 -0.7 c1 -2.9 1 -3.9 -0.2 -5 -1.2 -1.2 -1.7 -1 -3.6 1.6 -2.2 2.9 -2.2 3.1 -0.5 5.4 2.2 2.9 2.8 2.6 4.3 -2z m-39.7 1.9 c1.4 -1.7 1.3 -2.1 -1.3 -5.3 -2.8 -3.4 -2.9 -3.4 -4.9 -1.6 l-2 1.8 2.5 2.6 c1.3 1.5 2.4 3 2.4 3.4 0 1.4 1.6 0.9 3.3 -0.9z m8.9 -18.4 c-2.8 -3.9 -3.5 -4 -5.1 -1 -0.8 1.3 -0.3 2.7 1.7 5.5 l2.6 3.7 1.7 -2.3 c1.7 -2.1 1.6 -2.4 -0.9 -5.9z m22.7 1.1 c-3.1 -5.4 -5.9 -6.6 -5.9 -2.6 0 1.4 -0.5 2.8 -1 3.1 -0.6 0.4 -0.2 1.8 1.1 3.7 l2.2 3 2.2 -2.9 c1.6 -1.9 2 -3.3 1.4 -4.3z m-8.9 -9.9 c-0.1 -1.4 -1.2 -3.9 -2.5 -5.6 -2.3 -2.8 -2.5 -2.8 -4.3 -1.2 -1 0.9 -2.4 1.7 -3 1.7 -0.6 0 0.2 2 1.9 4.3 2.5 3.6 3.5 4.3 5.5 3.9 1.8 -0.3 2.4 -1.1 2.4 -3.1z m-24.9 -6.3 c-2.6 -3.8 -2.6 -3.8 -4.3 -1.7 -1.7 1.9 -1.6 2.2 0.8 5.9 l2.6 3.9 1.8 -2.2 c1.7 -2.1 1.7 -2.3 -0.9 -5.9z m44.5 5.5 c2.2 -2.8 2.2 -2.8 0.2 -5.5 l-1.9 -2.8 -2.5 3 c-2.4 2.8 -2.4 3 -0.8 5.5 2 3.1 2.3 3.1 5 -0.2z m-30.6 -15.5 c0 -0.5 -1.2 -2.5 -2.7 -4.4 l-2.6 -3.5 -2.3 2.8 -2.2 2.8 2.7 3.7 2.6 3.7 2.3 -2.1 c1.2 -1.2 2.2 -2.6 2.2 -3z m20.7 2.3 l2.2 -2.8 -2.2 -3.1 c-1.2 -1.8 -2.5 -3.2 -2.9 -3.2 -0.4 0 -1.6 1.3 -2.7 2.8 l-2 2.9 2.2 3.1 c1.2 1.7 2.5 3.2 2.8 3.2 0.3 0 1.5 -1.3 2.6 -2.9z m20.7 -1.3 c2.3 -5.4 -1.7 -9.4 -4.3 -4.4 -1.2 2.1 -1.1 2.8 0.5 5 1.1 1.4 2 2.6 2.2 2.6 0.2 0 0.9 -1.4 1.6 -3.2z m-64.4 -2.4 c0 -0.7 -1 -2.5 -2.3 -3.9 l-2.3 -2.7 -1.4 2.6 c-1.2 2.4 -1.1 2.8 1 5.1 1.8 1.9 2.6 2.2 3.7 1.4 0.7 -0.6 1.3 -1.7 1.3 -2.5z m32.7 -17 c-2.1 -3.1 -3.4 -4 -4.8 -3.7 -1 0.3 -1.9 1.4 -1.9 2.4 0 1 -0.4 2.1 -1 2.4 -0.6 0.4 0.3 2.2 2.1 4.4 l3 3.8 2.7 -2.6 2.8 -2.6 -2.9 -4.1z m-23 5.5 l2.3 -2.5 -2.3 -3.2 -2.4 -3.2 -2.2 2.4 -2.3 2.4 2.4 3.5 c1.2 2 2.3 3.5 2.3 3.4 0 -0.1 1 -1.4 2.2 -2.8z m-20.2 -1.9 c0.3 -0.5 -0.6 -2.7 -2.1 -4.7 -1.4 -2.1 -2.3 -2.9 -1.9 -1.8 0.3 1.1 0.9 3.2 1.2 4.8 0.6 2.8 1.7 3.5 2.8 1.7z m32.8 -12.6 c0.5 -2.7 -1.9 -4 -5.3 -2.9 -1.9 0.6 -2 0.8 -0.4 3.4 2 3.4 5 3.1 5.7 -0.5z"/>
  <path d="M406.8 440.4 c-0.6 -0.9 -7.9 -23.8 -10.3 -32.2 -0.7 -2.6 -4.3 -13.5 -7.9 -24.2 -3.6 -10.7 -6.6 -20.2 -6.6 -21 0 -0.9 -1.3 -4.9 -2.9 -9 l-2.8 -7.4 1.9 -2.7 c1.9 -2.6 1.9 -2.7 0.2 -5.4 -1 -1.5 -2 -2.3 -2.2 -1.6 -0.8 2.3 -3.1 1 -3.7 -2.1 -0.4 -1.8 -2.9 -9.9 -5.6 -18 -2.7 -8.1 -4.9 -15.2 -4.9 -15.7 0 -1.5 3.7 -1.4 4.3 0.2 0.3 0.8 0.7 0.7 1.2 -0.5 0.4 -1.1 -0.2 -2.9 -1.7 -5 -2.2 -3.1 -2.3 -3.2 -2.6 -1 -0.6 4.1 -2.7 2.3 -5.1 -4.4 -1.3 -3.6 -2.1 -6.7 -1.8 -7 0.3 -0.3 2.7 0.4 5.2 1.5 2.6 1.2 6 2.1 7.6 2.1 1.5 0 3.5 0.7 4.4 1.6 1.1 1.1 1.9 1.3 2.8 0.6 0.7 -0.6 2.9 -1.3 4.9 -1.7 2.1 -0.4 5.1 -2 6.8 -3.6 3.6 -3.5 5 -3.7 5 -0.6 0 1.2 0.8 3.2 1.8 4.5 l1.8 2.3 2.3 -2.5 c2.1 -2.2 2.2 -2.6 0.7 -3.2 -0.9 -0.3 -1.6 -1.5 -1.6 -2.5 0 -3.3 3.8 -2.2 9 2.7 4.3 4 5.3 4.5 8 3.9 1.7 -0.4 4 -2 5.2 -3.6 1.2 -1.6 2.7 -2.9 3.4 -2.9 1.9 0 4.5 4.7 6.9 12.7 1.9 6 2 7.3 0.8 7.3 -0.8 0 -1.1 0.5 -0.8 1 0.4 0.6 1 0.8 1.5 0.5 0.5 -0.3 1.8 0 2.9 0.7 2.8 1.7 6.7 -0.6 9.2 -5.4 2.1 -4 3.8 -4.9 4 -2 0 1 0.5 0.6 1.1 -1.2 0.8 -2 0.7 -3 -0.1 -3.5 -2 -1.3 1.4 -7.8 4.5 -8.5 3.4 -0.9 3.8 -0.4 2.5 3.6 -0.5 1.8 -2.4 7.6 -4 12.8 -1.7 5.2 -4.6 14.5 -6.5 20.5 -4.1 13.1 -15.6 49.3 -19.7 62 -1.5 5 -4.7 15.1 -7 22.5 -7.8 25.4 -11.6 36.4 -12.1 35.4z m3.1 -34.6 c-2 -2.7 -2.2 -2.8 -3.5 -1.1 -1.8 2.4 -1.7 3 0.4 5.8 l1.7 2.4 1.7 -2 c1.7 -2 1.7 -2.2 -0.3 -5.1z m-9 -8.5 c1.2 -2.3 -2.7 -8.3 -4 -6.1 -1.3 2 -1.1 6.6 0.4 7.1 2.1 0.9 2.6 0.8 3.6 -1z m17.1 -2.9 c0.6 -1.4 0.7 -3 0.4 -3.6 -0.9 -1.4 -3.7 3 -3 4.7 0.8 2.2 1.5 1.8 2.6 -1.1z m-8.1 -14.6 c-2.1 -2.9 -2.1 -2.9 -3.6 -0.9 -1.2 1.9 -1.2 2.5 0.4 5.2 l1.8 3 1.7 -2.2 c1.7 -2 1.7 -2.2 -0.3 -5.1z m-9.2 -8.8 c1.1 -1.6 0.9 -2.3 -1.1 -4.7 l-2.3 -2.7 -1.2 2.3 c-1 1.8 -0.9 2.7 0.4 4.7 1.9 2.9 2.6 3 4.2 0.4z m20 0.2 c0.9 -1.5 0.7 -2.4 -1.1 -4.7 l-2.3 -2.9 -1.2 2.3 c-1 1.8 -0.9 2.7 0.4 4.7 1.9 2.9 2.6 3 4.2 0.6z m-30 -13.1 c0.9 -1.5 0.7 -2.5 -1.4 -5.5 -2.5 -3.4 -2.7 -3.5 -4.4 -2 -1.9 1.7 -1.8 2.1 1.3 6.7 2.3 3.2 2.9 3.3 4.5 0.8z m20.3 -3.1 c-0.5 -0.9 -1.6 -2.2 -2.4 -2.9 -1.2 -1 -1.7 -0.8 -2.6 0.9 -0.9 1.7 -0.8 2.7 0.5 4.7 1.6 2.3 1.7 2.4 3.5 0.8 1.4 -1.3 1.7 -2.2 1 -3.5z m19.5 -3.7 c-0.5 -2.1 -0.8 -2.3 -2.1 -1.2 -3.1 2.6 -3.6 4.9 -1.8 7.7 l1.8 2.7 1.3 -3.4 c0.8 -1.9 1.2 -4.5 0.8 -5.8z m-29.5 -9.2 c-0.5 -0.9 -1.8 -2.6 -2.8 -3.9 -1.8 -2.3 -1.8 -2.3 -3.6 -0.3 -1.7 1.9 -1.7 2.1 0.9 5.6 2.6 3.3 2.9 3.5 4.6 1.9 1.3 -1.2 1.6 -2.1 0.9 -3.3z m21 0.8 c0.7 -1.2 0.4 -2.4 -1.1 -4.3 l-2.1 -2.6 -1.9 2.4 c-2.3 2.9 -2.3 3.5 -0.3 6.4 1.3 1.9 1.9 2.1 3 1.1 0.9 -0.7 1.9 -2 2.4 -3z m-11.7 -17.9 l-2.8 -3.8 -2.2 3 -2.2 3 2.7 3.5 2.7 3.4 2.3 -2.6 2.2 -2.6 -2.7 -3.9z m-20.3 3.5 c0 -0.8 -1.2 -2.8 -2.6 -4.5 -2.6 -3.1 -2.7 -3.1 -4.1 -1 -1.3 1.9 -1.2 2.4 1.2 5.6 2.2 2.8 3 3.3 4.1 2.3 0.8 -0.6 1.4 -1.7 1.4 -2.4z m42.1 1.3 c2.3 -2.9 2.3 -3.7 0 -6.7 l-1.8 -2.3 -2.2 3 c-2.1 3 -2.1 3.3 -0.5 5.7 2 3.1 2.1 3.1 4.5 0.3z m-32.9 -19.4 c-1.5 -1.8 -3 -3.3 -3.3 -3.3 -0.4 -0.1 -1.4 1.1 -2.4 2.5 -1.6 2.4 -1.5 2.7 1.1 6.1 l2.7 3.6 2.3 -2.8 2.3 -2.9 -2.7 -3.2z m22.9 6.4 c2.4 -3 2.4 -3.7 -0.5 -7.3 l-2.4 -3 -2.1 2.5 c-2.6 3.1 -2.6 3.5 0 7.1 2.5 3.5 2.6 3.5 5 0.7z m-44.3 -1.9 c1.1 -1.7 1 -2.4 -1.1 -4.8 -2 -2.4 -2.6 -2.6 -4 -1.6 -2.2 1.6 -2.1 2 0.5 5.5 2.6 3.6 2.9 3.6 4.6 0.9z m66.2 -1.7 c0 -1.4 -0.8 -3.4 -1.7 -4.4 -1.6 -1.8 -1.7 -1.7 -3.4 0.9 -1.8 2.7 -1.8 2.8 0.2 4.9 2.6 2.8 4.9 2.1 4.9 -1.4z m-32.9 -11.3 l2.2 -3.1 -2.2 -2.8 c-1.1 -1.6 -2.1 -3.7 -2.1 -4.7 0 -1.3 -0.8 -0.8 -3 1.7 -1.6 1.9 -2.9 3.9 -3 4.3 0 0.7 5.1 7.7 5.7 7.7 0.1 0 1.2 -1.4 2.4 -3.1z m-22.8 -0.4 c1.7 -2.4 1.7 -2.6 -0.5 -5.5 l-2.2 -3 -2.4 2.4 -2.5 2.4 2.2 3.1 c2.7 3.7 3.1 3.8 5.4 0.6z m33.7 -13.6 c0 -0.5 -0.7 -0.9 -1.5 -0.9 -1.5 0 -2 1.2 -0.9 2.3 0.8 0.8 2.4 -0.1 2.4 -1.4z"/>
  <path d="M92.2 436.8 c-6.3 -20.6 -8.2 -26.9 -9 -30.3 -0.6 -2.2 -2.9 -9.4 -5 -16 -2.2 -6.6 -5 -14.9 -6.2 -18.5 -1.2 -3.6 -2.7 -9 -3.5 -12 -0.7 -3 -3.3 -11.8 -5.9 -19.5 -6.8 -20.3 -7.5 -22.5 -8.5 -27.5 -0.9 -4.4 -6.9 -22.6 -9.9 -30.3 -1.8 -4.6 -1.1 -5.5 3.1 -3.8 5 2 10.6 3 17.4 3.1 5.5 0 6.6 -0.3 9.6 -3 4.3 -3.7 8.3 -5.2 11.9 -4.5 3.5 0.8 3.8 3.5 0.2 3.5 -1.4 0 -3.4 0.5 -4.5 1 -2.1 1.2 -2.7 0.3 18.9 27.5 18.8 23.8 22.7 28.4 23.3 27.7 0.3 -0.4 1.1 -2.3 1.8 -4.2 1.3 -3.9 2.8 -1.4 -13.9 -23.1 -5.2 -6.7 -11.6 -14.6 -14.2 -17.4 -3.3 -3.6 -4.8 -6 -4.8 -8 l0 -2.7 3.6 2.7 c4.2 3.2 6.8 2.9 11.7 -1.5 l3.4 -2.9 2.1 2.2 c1.1 1.2 3.2 5.8 4.7 10.2 1.5 4.4 3.5 8.8 4.5 9.9 1.7 1.7 1.9 1.7 5.3 0.1 2.9 -1.3 4.2 -3.2 7.6 -10.1 2.8 -5.8 4.8 -8.8 6.6 -9.6 3.1 -1.4 4.3 -0.4 2.7 2.2 -0.7 1.1 -1.2 2.8 -1.2 3.7 0 1.8 -4.8 16.9 -10.1 31.9 -1.6 4.4 -2.9 8.6 -2.9 9.3 0 1.1 -9.7 31 -16.5 51.1 -1.4 4.1 -3.4 10.8 -4.5 14.8 -1.1 4 -2.6 8.7 -3.4 10.5 -0.8 1.7 -2.2 6 -3.1 9.5 -0.9 3.5 -2.2 7.7 -2.9 9.5 -0.8 1.8 -2.3 6.5 -3.5 10.5 -1.2 3.9 -2.6 7.2 -3.1 7.2 -0.5 0 -1.3 -1.5 -1.8 -3.2z m4.7 -33.4 c-1.8 -2.7 -3.8 -5.4 -4.4 -6.1 -0.5 -0.6 -3.7 -4.8 -6.9 -9.2 -5.5 -7.5 -8.2 -10 -5.7 -5.3 0.6 1.2 1.1 2.9 1.1 4 0 3 6.4 15 12.2 22.7 l5.2 7 0.9 -4.1 c0.9 -3.8 0.7 -4.6 -2.4 -9z m8.9 -11.1 c1 -3.1 0.8 -3.7 -6.8 -14 -4.3 -6 -9.8 -13.2 -12.2 -16.1 -2.4 -2.9 -5.2 -6.8 -6.3 -8.7 -1.1 -1.8 -4.2 -6.3 -7 -9.9 -2.7 -3.6 -5.8 -7.7 -6.8 -9.1 -1.1 -1.5 -2.1 -2.5 -2.3 -2.2 -0.6 0.6 4.5 14.7 6.5 18.3 1 1.7 5.2 7.5 9.2 12.9 4.1 5.4 8.1 10.8 8.9 12 3.6 5.2 15.3 20.5 15.5 20.3 0.1 -0.2 0.7 -1.8 1.3 -3.5z m7.2 -22.5 c0 -0.9 -0.5 -2 -1 -2.3 -0.6 -0.4 -5.8 -7 -11.5 -14.8 -5.8 -7.8 -13 -17.3 -16 -21.2 -10.1 -12.9 -26 -33.9 -29.9 -39.8 -2.1 -3.2 -4 -5.6 -4.2 -5.4 -0.7 0.6 3.5 12.8 5.8 16.9 2.1 3.7 10.1 14.7 29.8 40.8 12.6 16.7 16.5 21.9 20.3 27.2 l4.2 5.7 1.2 -2.7 c0.7 -1.5 1.2 -3.5 1.3 -4.4z m-3.1 -34.8 c-5.7 -7.3 -11.3 -14.5 -12.5 -16.1 -3.2 -4.4 -6.6 -8.9 -9.9 -13 -1.6 -2 -5.8 -7.3 -9.3 -11.8 -6.2 -7.9 -6.4 -8.1 -10.7 -8.1 l-4.4 0 3.8 5.4 c2 3 4.9 6.9 6.4 8.8 2.7 3.3 7.7 10 17.2 22.8 2.8 3.7 9.7 13 15.5 20.7 l10.5 14 1.9 -4.8 1.8 -4.7 -10.3 -13.2z m22.1 -25.1 c1.3 -3 0.4 -6.8 -1.4 -6.1 -0.3 0.1 -2.2 0.2 -4.1 0.2 l-3.6 0 3.3 4.5 c1.8 2.4 3.6 4.4 3.9 4.5 0.4 0 1.2 -1.4 1.9 -3.1z m-17.9 -20.4 c-1.2 -2.6 -2.1 -5.6 -2.1 -6.6 0 -1.1 -0.7 -1.9 -1.5 -1.9 -2.5 0 -1.7 4.6 1.6 9.5 1.7 2.5 3.3 4.4 3.6 4.1 0.3 -0.2 -0.5 -2.6 -1.6 -5.1z"/>
  <path d="M436 298.5 c-0.6 -1.7 -1.4 -4.2 -1.7 -5.7 -0.5 -2.4 -0.2 -2.8 1.6 -2.8 1.7 0 2.1 0.6 2.1 2.9 0 1.8 0.6 3.1 1.5 3.3 1.2 0.2 1.1 0.7 -0.5 2.8 l-1.9 2.5 -1.1 -3z"/>
  <path d="M218.2 283.5 c-4.5 -5.7 -3.5 -16.4 2.1 -22.2 l3 -3.2 -2.4 -7.2 c-1.7 -5.2 -3 -7.4 -4.6 -8 -1.3 -0.5 -7 -1.1 -12.8 -1.5 -7.2 -0.5 -10.5 -1.1 -10.5 -1.9 0 -1.8 8.8 -9.7 14.5 -13 4.5 -2.7 5.6 -2.9 13.9 -2.7 10 0.2 9.8 -0.5 -0.7 -3.3 -7.4 -1.9 -9 -3.6 -8 -8.8 0.5 -2.3 1 -2.7 4.1 -2.7 l3.5 0 -0.6 -5.2 c-1.2 -9.5 0.5 -13.2 10.6 -23.2 l8.9 -8.9 -1.1 -6.9 c-1.8 -11 1.2 -20 9.6 -28.2 6.8 -6.7 13.7 -8.7 9.2 -2.7 -3.1 4.3 -3.6 10.3 -1 14.4 2.1 3.5 5.4 5.3 15.1 8.3 7.9 2.4 12.8 5.4 15.2 9.1 2.3 3.9 1.8 7.7 -1.2 9.3 -2.9 1.6 -2.4 2.7 0.9 2.2 2.5 -0.3 3.3 0.2 5.5 3.4 3.1 4.6 3.2 6.3 0.7 11.3 -2.6 5.1 -3.5 5.6 -11.4 7.1 -3.7 0.7 -7 1.6 -7.3 2.1 -0.3 0.5 3.8 0.9 9.1 0.9 l9.6 0 7.4 5.5 c4.1 3 8.1 6.8 9 8.4 2.1 4.1 1.8 10.5 -0.8 17.5 -1.9 5.1 -3 6.5 -7.5 9.5 -4.4 2.9 -5 3.7 -3.3 3.9 1.2 0.2 4.5 -0.4 7.5 -1.2 6.8 -2 10.9 -2 14.6 -0.1 6.7 3.4 6.7 9.1 0.3 15.5 -2.7 2.6 -5.7 5.2 -6.8 5.8 -3 1.6 -1.3 2.4 2.4 1.1 1.8 -0.6 3.4 -0.9 3.7 -0.6 0.3 0.3 -0.3 2.5 -1.4 4.9 -2.7 6.1 -8.6 10 -16 10.5 -3.1 0.2 -7.4 1.1 -9.4 2 -5.2 2.2 -15.4 1.4 -19.5 -1.5 -4 -2.9 -7.2 -2.8 -10.2 0.3 -3 3.3 -4.2 3.2 -9.6 -1 -7.8 -5.9 -14 -5.9 -22.7 0 -6.2 4.2 -9 4.4 -11.6 1z"/>
  <path d="M444 281.5 c0 -2.4 0.5 -3.5 1.5 -3.5 0.8 0 1.5 -0.4 1.5 -1 0 -0.5 1.6 -1 3.5 -1 2.4 0 3.5 0.5 3.5 1.5 0 0.8 -0.7 1.5 -1.6 1.5 -0.8 0 -2.9 1.4 -4.6 3 -1.6 1.7 -3.1 3 -3.4 3 -0.2 0 -0.4 -1.6 -0.4 -3.5z"/>
  <path d="M371.8 283.3 c-1 -0.2 -1.8 -1.1 -1.8 -1.9 0 -1 1.4 -1.4 5.3 -1.4 4.1 0 5.5 -0.4 6.5 -2 0.8 -1.4 2.3 -2 4.9 -2 l3.6 0 -2.4 2.6 c-4.1 4.5 -10.3 6.3 -16.1 4.7z"/>
  <path d="M415 281.2 c0 -1.8 0.6 -4 1.4 -4.8 2 -1.9 7.6 -1.9 7.6 0.1 0 0.8 -0.7 1.5 -1.4 1.5 -0.8 0 -2.9 1.5 -4.5 3.3 l-3.1 3.2 0 -3.3z"/>
  <path d="M350 278.9 c0 -2.6 0.3 -2.9 3.5 -2.9 4.5 0 4.5 2 0 4.1 l-3.5 1.6 0 -2.8z"/>
  <path d="M360.8 280.3 c-3.3 -0.8 -2 -3.3 1.7 -3.3 2.8 0 3.5 0.4 3.5 2 0 2 -1.4 2.3 -5.2 1.3z"/>
  <path d="M462 275.5 c0 -1.8 0.5 -2.5 2 -2.5 1.1 0 2 -0.7 2 -1.5 0 -0.8 0.7 -1.5 1.5 -1.5 0.8 0 1.5 -0.9 1.5 -2 0 -1.1 0.6 -2 1.3 -2.1 0.6 0 0.2 -0.5 -1 -1.1 -1.7 -0.8 -2.3 -2 -2.3 -4.5 0 -3.2 0.2 -3.3 3.8 -3.3 l3.7 0.1 -2.9 2.6 -3 2.5 3.2 -0.7 c3.6 -0.7 3.8 0 1.9 5 -1.5 3.9 -3.5 6.5 -7.1 9.3 -3.7 2.8 -4.6 2.8 -4.6 -0.3z"/>
  <path d="M343 274.1 c-1.6 -3.1 -1.2 -5.1 1 -5.1 1.6 0 2 0.7 2 3.5 0 3.9 -1.4 4.6 -3 1.6z"/>
  <path d="M391 273.9 c0 -1.7 0.8 -1.9 6 -1.9 5.2 0 6 0.2 6 1.9 0 1.7 -0.8 1.9 -6 1.9 -5.2 0 -6 -0.2 -6 -1.9z"/>
  <path d="M342.2 264.3 c3.5 -7.4 6.2 -9.3 12.7 -9.3 5.1 0 6.2 -1.6 1.7 -2.4 -4.8 -0.9 -8.4 -4.1 -9.7 -8.6 -2.2 -7.2 0.6 -11.7 12 -19.3 7.6 -5.1 10.1 -5.8 10.1 -2.7 0 1.4 -0.7 2 -2.4 2 -1.5 0 -2.6 0.7 -2.9 2 -0.4 1.4 -1.4 2 -3.5 2 -2.4 0 -3.1 0.5 -3.4 2.3 -0.2 1.4 -1.1 2.3 -2.5 2.5 -1.5 0.2 -2.3 1 -2.3 2.3 0 1 -0.4 1.9 -1 1.9 -0.5 0 -1 1.5 -1 3.3 0.1 2.5 0.9 3.8 3.7 6 2 1.5 5.4 3 7.5 3.3 3.6 0.6 3.8 0.9 3.8 4.2 l0 3.5 -5 -0.6 c-4 -0.5 -5 -0.3 -5 0.8 0 0.8 -0.9 1.5 -2 1.5 -2.1 0 -6 3.3 -6 5 0 0.6 -1.2 1 -2.6 1 -1.4 0 -2.4 -0.3 -2.2 -0.7z"/>
  <path d="M476 250.5 c0 -2.8 0.4 -3.5 2 -3.5 2.3 0 2.6 2.6 0.6 5.3 -2 2.5 -2.6 2.1 -2.6 -1.8z"/>
  <path d="M474 244 c-0.8 -1.1 -2.2 -2 -3.2 -2 -1.1 0 -1.8 -0.7 -1.8 -2 0 -2.4 2 -2.6 6 -0.5 2.6 1.3 5 4.2 5 5.9 0 1.5 -4.7 0.4 -6 -1.4z"/>
  <path d="M454 242.6 c0 -1.3 2.8 -2.6 5.8 -2.6 0.6 0 1.2 0.9 1.2 2 0 1.6 -0.7 2 -3.5 2 -2.3 0 -3.5 -0.5 -3.5 -1.4z"/>
  <path d="M454 238.5 c0 -0.8 0.9 -1.5 2 -1.5 1.6 0 2 -0.7 2 -3.5 0 -1.9 0.5 -3.5 1 -3.5 0.6 0 1 -1.1 1 -2.5 0 -1.4 0.5 -2.5 1 -2.5 0.6 0 1 -1.8 1 -4 0 -3.3 0.3 -4 2 -4 2.6 0 2.6 2 -0.1 10.1 -2 6.3 -4.7 10.1 -8.1 12 -1.4 0.7 -1.8 0.6 -1.8 -0.6z"/>
  <path d="M372.6 222.4 c-0.9 -2.4 -0.9 -2.4 3.2 -2.5 l3.7 -0.1 -3.7 -1 c-4.8 -1.3 -5.1 -3.8 -0.5 -3.8 6.2 0 7.7 0.9 7.7 4.5 0 3.6 -1.2 4.5 -6.5 4.5 -2.1 0 -3.5 -0.6 -3.9 -1.6z"/>
  <path d="M367.6 215.4 c-2.2 -2.1 -2.9 -5.7 -2.2 -9.9 0.5 -2.7 1.2 -3.5 2.8 -3.5 2.1 0 2.1 0 -0.2 -2.5 l-2.3 -2.5 3.6 0 c3.6 0 3.7 0.1 3.7 3.5 0 2.8 -0.4 3.5 -2 3.5 -1.7 0 -2 0.7 -2 4 0 2.2 0.5 4 1 4 0.6 0 1 1.1 1 2.5 0 2.9 -1.2 3.2 -3.4 0.9z"/>
  <path d="M430.8 200.3 c-2.4 -0.4 -2.8 -0.9 -2.8 -3.7 0 -3.1 0.3 -3.3 5.1 -4.4 2.8 -0.7 5.9 -1.2 7 -1.2 1.2 0 1.9 -0.7 1.9 -2 0 -1.1 0.5 -2 1 -2 0.6 0 1 -1.1 1 -2.5 0 -2 0.5 -2.5 2.5 -2.5 l2.5 0 -2.1 5.3 c-1.1 2.8 -2.2 5.3 -2.4 5.5 -0.2 0.2 -2.9 1.2 -6.2 2.3 l-5.8 1.9 7.2 -0.4 c6.1 -0.4 7.4 -0.2 8.9 1.5 1.6 1.8 1.6 1.9 -0.8 1.9 -1.4 0 -5.2 0.2 -8.4 0.4 -3.2 0.2 -7.1 0.2 -8.6 -0.1z"/>
  <path d="M368 184.9 c0 -0.6 3.2 -4.4 7.2 -8.5 5.9 -6.2 7.7 -7.4 10.2 -7.3 1.7 0 2.5 0.3 1.9 0.6 -0.7 0.2 -1.3 1 -1.3 1.7 0 2.1 -3.5 4.6 -6.3 4.6 -2.3 0 -2.7 0.4 -2.7 3 0 1.9 -0.5 3 -1.4 3 -0.7 0 -1.6 0.9 -1.9 2 -0.6 2.1 -5.7 3 -5.7 0.9z"/>
  <path d="M434.2 172.3 c0.3 -3.6 0.5 -3.8 4.3 -4.1 3.9 -0.3 3.9 -0.3 2.1 1.7 -1.7 1.9 -1.7 2.1 -0.3 2.1 1 0 1.7 0.8 1.7 2 0 1.7 -0.7 2 -4.1 2 l-4 0 0.3 -3.7z"/>
  <path d="M387.3 167.1 c-2 -1.9 -4.3 -7.7 -4.3 -10.8 0 -0.7 0.8 -1.3 1.9 -1.3 1.4 0 2.1 1 2.6 3.7 0.4 2.1 1.1 4.1 1.7 4.4 0.5 0.3 0.8 1.8 0.6 3.3 l-0.3 2.7 -2.2 -2z"/>
  <path d="M417 152 c0 -2.1 1 -2.4 4.8 -1.4 3.6 1 2.7 3.4 -1.3 3.4 -2.8 0 -3.5 -0.4 -3.5 -2z"/>
  <path d="M383 149.5 c0 -0.8 0.9 -3.9 2 -6.9 4.6 -12.2 19.5 -21.7 29.8 -19 2.1 0.6 2.1 0.7 0.5 2 -1 0.7 -3.7 1.4 -6 1.4 -2.4 0 -4.3 0.3 -4.3 0.8 0 0.4 -1.7 1.6 -3.7 2.7 -2.1 1.1 -4.4 2.8 -5.1 3.7 -0.7 1 -2.2 1.8 -3.3 1.8 -1.2 0 -1.9 0.7 -1.9 2 0 2.4 -2.1 7 -3.2 7 -0.4 0 -0.8 1.4 -0.8 3 0 2.3 -0.4 3 -2 3 -1.1 0 -2 -0.7 -2 -1.5z"/>
  <path d="M405 142.5 c0 -3.7 2.3 -5 3.3 -1.7 0.2 0.9 0.8 2.5 1.2 3.5 0.6 1.4 0.2 1.7 -1.9 1.7 -2.3 0 -2.6 -0.4 -2.6 -3.5z"/>
 </g>
 <g fill="#eea85a">
  <path d="M246.1 438.6 c-0.6 -2.5 -1.1 -5.4 -1.1 -6.5 0 -1.2 -0.4 -2.1 -0.8 -2.1 -1 0 -5.6 -15.9 -4.9 -16.6 0.2 -0.3 2.7 2.9 5.6 7 2.8 4.2 5.6 7.8 6.1 8.1 0.6 0.3 1 1.6 1 2.9 0 2.9 -3 11.6 -4 11.6 -0.4 0 -1.3 -2 -1.9 -4.4z"/>
  <path d="M405.3 435.4 c-2.1 -6.1 -2.1 -6.2 -0.2 -9 4.4 -6.7 7.1 -1.1 4.2 8.6 l-1.9 6.5 -2.1 -6.1z"/>
  <path d="M91.9 434.8 c-0.7 -2.4 -2.7 -9 -4.6 -14.7 -1.9 -5.7 -3.1 -10.6 -2.8 -11 0.4 -0.3 1.8 0.8 3.1 2.4 1.4 1.7 3.4 4.1 4.4 5.3 1.1 1.3 2 2.7 2 3.1 0 0.5 0.9 1.8 2 3.1 1.1 1.3 2 3.3 2 4.5 0 3 -3 11.5 -4.1 11.5 -0.4 0 -1.4 -1.9 -2 -4.2z"/>
  <path d="M252.3 426.9 c-0.7 -0.7 -1.3 -1.7 -1.3 -2.2 0 -0.6 -0.6 -1.5 -1.4 -2.1 -0.8 -0.6 -4.3 -5.2 -7.8 -10.3 -5.8 -8.2 -6.8 -10.5 -10.2 -22.5 -2.1 -7.3 -4.5 -14.8 -5.3 -16.6 -3.1 -7.1 -0.7 -6.3 5.2 1.9 8 11.1 7.9 10.7 6.3 12.7 -1.2 1.5 -1.1 1.6 0.5 0.3 0.9 -0.8 1.9 -1.2 2 -1 0.2 0.2 2.2 3 4.6 6.2 4.2 5.8 4.2 5.9 2.4 8 -1.8 2.2 -1.8 2.2 0.3 0.4 2 -1.7 2.2 -1.6 6.2 3.8 4.1 5.4 4.9 7.5 3.6 8.8 -0.4 0.3 -0.8 2.1 -0.9 3.9 -0.1 1.8 -0.8 4.8 -1.6 6.6 -1.1 2.7 -1.6 3.1 -2.6 2.1z m-1.4 -17 c-1 -1.9 -1.2 -2 -2.7 -0.5 -1.4 1.4 -1.4 1.7 0.3 3.6 1.6 1.8 2 1.9 2.7 0.6 0.5 -1 0.4 -2.4 -0.3 -3.7z m-9.6 -13.1 c-2.4 -2.7 -4.1 -0.6 -2.3 2.8 1.3 2.4 1.5 2.4 2.7 0.8 1.1 -1.5 1 -2.1 -0.4 -3.6z"/>
  <path d="M402.2 425.4 c-1.4 -2.7 -4.6 -14.4 -4 -14.9 0.4 -0.5 7.6 8.7 8.3 10.8 0.3 0.7 -0.4 2.3 -1.4 3.6 -1.8 2.3 -1.9 2.3 -2.9 0.5z"/>
  <path d="M410.8 422.3 c-1.4 -1.5 -1.5 -2.2 -0.5 -3.2 0.9 -1 0.9 -1.1 -0.5 -0.6 -1.2 0.5 -3.4 -1.6 -8.7 -8.7 -3.9 -5.2 -7.7 -11.3 -8.5 -13.5 -1.3 -3.7 -1.3 -4.3 0.2 -6.4 1.5 -2.3 1.5 -2.3 -0.1 -1 -1 0.8 -1.9 1.2 -2.1 1 -0.2 -0.2 -1.4 -4 -2.6 -8.4 -1.2 -4.4 -2.9 -9.5 -3.7 -11.3 -3.6 -8.2 0.5 -4 16 16.2 9.2 11.9 16.7 22 16.7 22.3 0 0.4 -0.8 1.5 -1.7 2.6 -1 1.1 -1.2 1.7 -0.4 1.2 1 -0.6 1.2 -0.1 0.6 2.6 -0.4 1.9 -1.2 4.7 -1.9 6.2 -1.1 2.8 -1.2 2.8 -2.8 1z m-0.5 -12.5 c0.5 -1.6 -1 -4.8 -2.4 -4.8 -1.6 0 -2.2 2.9 -0.9 4.5 1.5 1.8 2.7 1.9 3.3 0.3z m-9.3 -15.3 c0 -1.5 -2.7 -2.8 -4.1 -2 -0.4 0.3 -0.3 1.7 0.3 3 0.9 1.9 1.4 2.2 2.5 1.4 0.7 -0.6 1.3 -1.7 1.3 -2.4z"/>
  <path d="M93.9 417.2 c-10.7 -13.2 -13.1 -18.1 -18.9 -37.2 -1.7 -5.8 -3.8 -12.2 -4.6 -14.3 -1.7 -4.6 -1.7 -4.7 0.1 -4.7 0.7 0 3.4 3 5.8 6.8 3.5 5.4 15.6 22.1 19.4 26.7 0.5 0.6 2.6 3.4 4.7 6.4 l3.8 5.4 -1.2 6 c-1.2 6.1 -2.9 10.7 -3.9 10.7 -0.3 0 -2.7 -2.6 -5.2 -5.8z m2.6 -12.2 c-1.3 -1.5 -2.1 -1.7 -3.1 -0.9 -1.1 0.9 -1 1.5 0.4 3.4 1.5 2 1.9 2.2 3.1 1 1.3 -1.3 1.2 -1.7 -0.4 -3.5z m-10.8 -14.7 c-2.4 -2.4 -3.2 -0.9 -1.6 2.8 1.2 3.1 1.3 3.2 2.3 1 0.7 -1.7 0.5 -2.6 -0.7 -3.8z"/>
  <path d="M258.3 408.2 c-0.6 -0.9 -5.3 -7.3 -10.3 -14.2 -5 -6.9 -10.7 -14.8 -12.7 -17.7 l-3.5 -5.2 3.2 -4.3 3.2 -4.3 -3.6 4 c-2.2 2.5 -3.8 3.6 -4.4 3 -2 -2.4 -7.9 -11.1 -8.5 -12.7 -0.6 -1.6 5.7 -10.8 7.3 -10.8 1.5 0 20.1 26.2 19.6 27.6 -0.3 0.7 0 1.1 0.7 0.9 1.1 -0.4 2.9 1.8 13 16.1 l2.8 4 -2.5 7.4 c-1.4 4 -2.7 7.5 -2.9 7.6 -0.1 0.2 -0.8 -0.5 -1.4 -1.4z m-8.3 -23.9 c-0.1 -2.4 -0.2 -2.6 -1.1 -1 -0.5 0.9 -0.7 2.2 -0.4 2.7 1 1.7 1.5 1.1 1.5 -1.7z m-7.3 -10.9 c0.2 -0.5 -0.3 -1.9 -1.2 -2.9 -1.2 -1.7 -1.6 -1.8 -2.4 -0.6 -0.6 1 -0.6 2.2 0 3.4 1 1.8 3 1.9 3.6 0.1z m-9.9 -12.7 c1.6 -1.9 -3.1 -7.7 -4.8 -6 -0.9 0.9 -0.8 1.8 0.6 4.2 2 3.4 2.7 3.7 4.2 1.8z"/>
  <path d="M414.2 400.9 c-2.3 -3.1 -4.2 -6.1 -4.2 -6.7 0 -0.7 -0.4 -1.2 -1 -1.2 -1.1 0 -9 -10.5 -9 -12 0 -0.7 1.6 -3.3 3.6 -5.8 l3.7 -4.7 -4.4 4.9 -4.5 4.8 -4.2 -5.5 c-4.7 -6.3 -4.9 -7.2 -2.5 -10.1 1.5 -1.7 1.3 -1.7 -0.8 0.2 l-2.6 2.3 -3.5 -4.8 c-4.7 -6.5 -6.1 -9.2 -5.4 -10.9 0.3 -0.8 0.2 -1.3 -0.3 -0.9 -1 0.6 -4.3 -7.5 -6.2 -15 -0.9 -3.6 -0.9 -4.9 0.2 -6.3 1.3 -1.5 1.2 -1.6 -0.3 -0.4 -1.4 1.1 -1.8 0.7 -3.3 -3.8 -0.9 -2.8 -1.5 -5.3 -1.2 -5.6 0.3 -0.3 2.5 2.1 4.9 5.3 2.4 3.2 14 18.3 25.6 33.6 11.7 15.3 21.9 28.9 22.8 30.2 1.4 2.1 1.3 3 -0.9 10.1 l-2.3 7.8 -4.2 -5.5z m-6.2 -19.6 c0 -1.9 -0.3 -2.4 -1 -1.7 -0.6 0.6 -0.8 1.8 -0.4 2.7 0.9 2.4 1.4 2.1 1.4 -1z m-8.5 -14.3 c-1.6 -1.8 -2 -1.9 -2.7 -0.6 -0.5 1 -0.4 2.4 0.3 3.7 1 1.9 1.2 2 2.7 0.5 1.4 -1.4 1.4 -1.7 -0.3 -3.6z m-10.6 -13.9 c-2 -2.7 -2.5 -2.9 -3.7 -1.7 -1.2 1.2 -1.1 1.8 0.9 4.5 2 2.7 2.5 2.9 3.7 1.7 1.2 -1.2 1.1 -1.8 -0.9 -4.5z m-5.9 -7.1 c1.2 -1.6 1.9 -3 1.6 -3 -0.2 0 -1.4 1.4 -2.6 3 -1.2 1.7 -1.9 3 -1.6 3 0.2 0 1.4 -1.3 2.6 -3z"/>
  <path d="M96.3 392.3 c-4.9 -6.5 -9.5 -12.7 -10.3 -13.9 -0.8 -1.2 -4.8 -6.5 -8.9 -11.9 -9.8 -13 -10.4 -14.2 -14.6 -27 -1.9 -6 -4.4 -13.7 -5.5 -17 -2.6 -7.8 -2.6 -8.9 0 -7.3 1.1 0.7 2.3 2 2.5 2.9 0.3 0.9 1.3 2.6 2.3 3.7 4.9 5.7 19.3 24.8 21.7 28.7 1.1 1.9 3.9 5.8 6.3 8.7 6 7.4 17.2 22.7 19.3 26.3 1.8 2.9 1.7 3.2 -0.3 10 -1.1 3.9 -2.4 7.4 -2.8 7.8 -0.4 0.5 -4.8 -4.4 -9.7 -11z m-0.9 -13.8 c-0.4 -1.7 -1 -2.3 -1.6 -1.7 -0.6 0.6 -0.5 1.7 0.3 3 1.7 2.7 2.2 2.2 1.3 -1.3z m-9 -15.1 c-1.7 -2.6 -3.4 -2.4 -3.4 0.5 0 2.6 2.1 4.3 3.6 3 1.1 -0.9 1 -1.5 -0.2 -3.5z m-9.4 -11.7 c-0.1 -0.7 -1.1 -2.5 -2.4 -4.1 -2.4 -2.8 -2.4 -2.8 -3.1 -0.6 -0.5 1.5 -0.1 2.8 1.6 4.6 2.2 2.3 3.9 2.4 3.9 0.1z"/>
  <path d="M263.1 387.9 l-2.3 -3.1 2.4 -2.6 c1.3 -1.5 3 -3.6 3.8 -4.7 0.8 -1.2 -0.3 -0.1 -2.5 2.3 l-4 4.4 -8.6 -11.9 c-11.1 -15.2 -10.5 -14 -7.8 -17.1 l2.4 -2.7 -2.7 2.4 c-1.6 1.4 -3 2.3 -3.2 2 -0.8 -0.9 -19.3 -26.5 -20 -27.7 -0.4 -0.7 0.4 -2.7 2.2 -5 3.9 -5 5.1 -7.6 1.6 -3.3 -1.6 1.9 -3.4 4.2 -4.1 5 -0.6 0.9 -1.3 1.4 -1.5 1.1 -0.2 -0.3 -2.3 -3 -4.6 -6.1 -2.3 -3.1 -4.2 -6.1 -4.2 -6.8 0 -0.7 1.6 -3.4 3.6 -5.9 l3.7 -4.7 -4.1 4.5 c-2.2 2.5 -4.3 4.2 -4.7 3.8 -0.3 -0.3 -2 -5 -3.7 -10.5 -1.6 -5.4 -3.3 -11 -3.8 -12.5 -2 -6.6 6.3 -1.1 12.9 8.4 2.8 4 7.5 10.5 10.4 14.4 2.8 3.9 7.4 10.1 10.1 13.8 l4.9 6.7 -2.9 3.2 -2.9 3.2 3.2 -2.8 3.1 -2.9 4.7 6.4 c2.6 3.4 7.1 9.6 10.1 13.7 l5.4 7.4 -2.2 2.6 -2.3 2.6 2.6 -2.3 2.5 -2.2 5.4 7.6 5.3 7.7 -2.3 6.8 c-1.2 3.8 -2.6 7.1 -3 7.4 -0.4 0.2 -1.7 -1 -2.9 -2.6z m-11.5 -30.6 c-0.5 -1.2 -0.9 -1.3 -2.1 -0.3 -1.1 0.9 -1.2 1.6 -0.2 3.1 1 1.6 1.3 1.6 2 0.3 0.5 -0.8 0.6 -2.2 0.3 -3.1z m-8.6 -12.2 c-0.5 -1 -1.6 -2.4 -2.5 -3.1 -2.8 -2.3 -3.8 0.8 -1.3 4.2 1.6 2.3 2.3 2.6 3.4 1.7 0.9 -0.8 1.1 -1.6 0.4 -2.8z m-11.1 -12.4 c0.8 -1 0.5 -2.1 -1.3 -4.5 -2 -2.8 -2.5 -3 -3.6 -1.7 -1 1.1 -0.8 2 1 4.5 2.5 3.5 2.4 3.4 3.9 1.7z m-10.9 -17.6 c-0.5 -1 -1.5 -2.3 -2.3 -3 -2.2 -1.8 -3.1 1.6 -1.2 4.6 1.3 1.9 1.9 2.2 3 1.3 1 -0.8 1.2 -1.7 0.5 -2.9z m-10 -12.9 c0 -0.5 -0.6 -1.7 -1.4 -2.7 -1.3 -1.8 -1.4 -1.8 -0.9 0.8 0.5 2.4 2.3 3.9 2.3 1.9z"/>
  <path d="M421.2 384.3 l-2.3 -3.6 2.3 -2.6 2.3 -2.6 -2.6 2.3 -2.6 2.2 -4.7 -6 -4.7 -6.1 3.7 -4.7 3.7 -4.7 -4 4.4 -3.9 4.3 -4.2 -5.5 c-2.3 -3.1 -4.2 -6.1 -4.2 -6.7 0 -0.6 1.7 -3.3 3.8 -6.1 l3.7 -5 2.3 2.8 c1.2 1.5 6.1 7.8 10.8 14 l8.5 11.2 -2.2 7.3 c-1.2 4 -2.4 7.6 -2.8 8 -0.3 0.3 -1.6 -1 -2.9 -2.9z m-12.7 -31 c-0.4 -1.2 -0.8 -1.4 -1.7 -0.5 -0.9 0.9 -0.8 1.8 0.3 3.9 1.4 2.6 1.4 2.6 1.7 0.4 0.2 -1.2 0.1 -3 -0.3 -3.8z"/>
  <path d="M105.2 376.8 c-2.8 -4 -7.9 -10.9 -11.2 -15.3 -26.1 -34.3 -38.4 -51.1 -40.8 -55.3 -1.3 -2.4 -3.8 -8.7 -5.4 -14 -4 -12.8 -4.3 -14.2 -2.9 -14.2 2.7 0 9.3 5.6 12.8 10.8 3.8 5.8 19.7 26.8 29.8 39.7 3 3.9 9.6 12.6 14.6 19.5 5.1 6.9 10.2 13.6 11.4 15 3.4 3.7 3.7 7.6 1.2 14.4 -1.2 3.3 -2.7 6.1 -3.3 6.3 -0.5 0.2 -3.3 -2.9 -6.2 -6.9z m-9.4 -27.2 c-1 -1.8 -1.1 -1.8 -2 -0.2 -0.7 1.2 -0.6 2.2 0.3 3.2 1.7 2.1 3.1 -0.3 1.7 -3z m-9.9 -13.7 c-2.1 -3 -3.4 -3.6 -4.4 -1.9 -1 1.7 3.8 6.9 5.2 5.8 1 -0.8 0.8 -1.7 -0.8 -3.9z m-10.4 -11.9 c0.3 -0.6 -0.3 -2.4 -1.5 -4 -1.7 -2.5 -2.5 -2.8 -3.6 -1.9 -1.1 0.9 -1 1.6 0.9 4 2.4 3 3.3 3.4 4.2 1.9z m-12.3 -18.6 c-0.9 -1.3 -2 -2.4 -2.4 -2.4 -1.7 0 -1.8 2.3 -0.3 4.6 1.3 2 1.9 2.3 3 1.4 1.2 -1 1.2 -1.5 -0.3 -3.6z"/>
  <path d="M269.1 369.3 c-0.5 -1 -4.6 -6.7 -9 -12.6 -4.5 -6 -8.1 -11.2 -8.1 -11.7 0 -0.5 -0.4 -1 -0.8 -1.2 -0.5 -0.1 -5.5 -6.7 -11.1 -14.5 l-10.3 -14.2 4.1 -4.9 c2.3 -2.6 4.1 -5.2 4.1 -5.6 0 -0.5 -1.8 1.5 -4.1 4.3 -4.7 5.9 -4.6 5.9 -10.3 -2.4 l-3.8 -5.5 4.2 -5.5 c2.3 -3 4.8 -5.5 5.4 -5.5 0.6 0 1.7 1 2.5 2.2 0.7 1.2 11.4 15.6 23.7 32.1 12.3 16.4 22.4 30.5 22.4 31.3 0 2.8 -5.5 15.4 -6.7 15.4 -0.7 0 -1.7 -0.8 -2.2 -1.7z m-2.1 -17.3 c1.7 -2.2 2.9 -4 2.7 -4 -0.3 0 -2 1.8 -3.7 4 -1.7 2.2 -2.9 4 -2.7 4 0.3 0 2 -1.8 3.7 -4z m-13.8 -17.2 c0.8 -2.1 -1.2 -8 -2.4 -7.6 -2.6 0.9 -3.2 3.6 -1.5 6.2 1.9 2.8 3.2 3.3 3.9 1.4z m-10.4 -15.8 c1.1 -1.8 1 -2.5 -0.9 -5.2 l-2.2 -3 -1.8 2.3 c-1.7 2.2 -1.7 2.4 0.3 5.1 2.3 3.3 2.9 3.4 4.6 0.8z m-11.5 -19.4 c-2 -2.5 -2.1 -2.5 -3.8 -0.6 -1.7 1.9 -1.7 2.1 0 4.6 l1.7 2.6 2 -2 2.1 -2 -2 -2.6z"/>
  <path d="M418.7 354.4 l-9.7 -12.6 3.1 -4.1 3.1 -4.2 -3.4 3.8 -3.3 3.7 -5.3 -7 -5.4 -6.9 4.7 -6.1 c2.5 -3.3 4.8 -6 4.9 -6 0.2 0 3.5 3.9 7.3 8.8 3.8 4.8 10.1 12.8 14.1 17.9 l7.2 9.1 -2.4 6.8 c-4.1 11.1 -3.9 11.2 -14.9 -3.2z m6.3 -7 c1.8 -2.6 2.9 -4.5 2.4 -4.2 -0.5 0.4 -2.5 2.8 -4.4 5.4 -1.8 2.6 -2.9 4.5 -2.4 4.2 0.5 -0.4 2.5 -2.8 4.4 -5.4z m-15 -18 c0 -1.4 -0.5 -3.4 -1.1 -4.5 -0.8 -1.6 -1.3 -1.8 -2.5 -0.8 -1.8 1.5 -1.8 3.4 0.2 6.4 1.9 2.9 3.4 2.4 3.4 -1.1z"/>
  <path d="M104.3 348.4 c-6.5 -8.6 -14 -18.7 -16.8 -22.4 -9.5 -12.9 -14.5 -19.5 -17.3 -22.9 -1.5 -1.9 -3.8 -5.1 -5.2 -7.1 -1.4 -2 -4.2 -5.7 -6.2 -8.2 -2.1 -2.5 -3.8 -4.8 -3.8 -5.1 0 -0.3 3.3 -0.5 7.3 -0.4 3.9 0.1 8.1 -0.1 9.2 -0.5 1.7 -0.6 3.1 0.7 9 8.3 3.9 5.1 8.4 10.8 10 12.9 3.2 3.9 6.5 8.2 9.9 12.9 1.2 1.6 6.9 9 12.9 16.6 5.9 7.6 10.7 14.3 10.7 15 0 3.2 -5.7 16.5 -7.1 16.5 -0.5 0 -6.1 -7 -12.6 -15.6z m-6.9 -22.9 c0.6 -1.6 -1.2 -6.5 -2.4 -6.5 -0.4 0 -1.3 0.6 -1.9 1.4 -1 1.2 -0.9 2 0.4 4 2 3 3 3.3 3.9 1.1z m-11.7 -19.7 c-2.5 -3.3 -2.8 -3.4 -4.4 -0.9 -0.9 1.5 -0.8 2.4 1 4.8 2.1 3 2.1 3 3.8 1 1.6 -2 1.5 -2.3 -0.4 -4.9z m-11.4 -14.4 c-1.8 -2.9 -2.2 -2.9 -3.8 -0.7 -1 1.4 -1 2.2 0.2 4 1.5 2.2 1.7 2.3 3.4 0.7 1.7 -1.5 1.7 -1.8 0.2 -4z"/>
  <path d="M393.1 347 c-4.7 -6.2 -5.2 -7.2 -4 -8.7 1.3 -1.6 1.2 -1.7 -0.2 -0.5 -1.5 1.1 -2.3 0.4 -6.8 -5.3 -2.8 -3.5 -5.1 -6.9 -5.1 -7.5 0 -0.5 -0.4 -1 -0.8 -1 -0.5 0 -3 -2.9 -5.6 -6.5 -4.2 -5.7 -4.6 -6.8 -3.4 -8.3 1.2 -1.5 1.1 -1.6 -0.4 -0.3 -1.5 1.1 -1.9 1.1 -2.3 0 -0.3 -0.8 -2.2 -6.7 -4.4 -13.1 -3.7 -11.4 -3.7 -11.8 -1.7 -11.8 2.7 0.1 7.3 4.2 11.9 10.6 3.4 4.8 3.5 5.1 1.9 6.9 -1.6 1.8 -1.6 1.8 0 0.6 2.6 -1.9 1.1 -3.4 19.5 20.8 l4.2 5.5 -3.1 4 -3 4.1 2.9 -3.2 c1.6 -1.8 3.4 -3.3 3.9 -3.3 0.5 0.1 3.1 3 5.7 6.6 l4.8 6.5 -4.1 5.5 c-2.2 3 -4.2 5.4 -4.3 5.4 -0.2 0 -2.7 -3.1 -5.6 -7z m5.8 -6.9 c-2 -2.7 -2.5 -2.9 -3.7 -1.7 -1.3 1.3 -1.2 1.8 0.9 4.4 2 2.5 2.6 2.8 3.8 1.7 1.1 -1.1 0.9 -1.8 -1 -4.4z m-9.9 -12 c0 -2.6 -3.7 -5.8 -5.1 -4.4 -0.8 0.8 -0.5 2 1.1 4.2 2.2 3.2 4 3.3 4 0.2z m-8 -9.1 c1.7 -2.2 2.9 -4 2.7 -4 -0.3 0 -2 1.8 -3.7 4 -1.7 2.2 -2.9 4 -2.7 4 0.3 0 2 -1.8 3.7 -4z m-4.2 -8.3 c-1.5 -3.1 -2.1 -3.3 -3.8 -1.2 -1.7 2 1.9 7 3.8 5.1 1 -0.9 1 -1.7 0 -3.9z"/>
  <path d="M218.1 345.8 c-1.2 -4 -3.3 -10.9 -4.6 -15.3 -2 -6.7 -2.5 -10.1 -1.2 -8.4 3.3 4.1 15 20.5 15.4 21.5 0.5 1.4 -5.2 9.4 -6.7 9.4 -0.4 0 -1.8 -3.3 -2.9 -7.2z"/>
  <path d="M255.1 319.9 c-25.5 -34 -25.1 -33.1 -17.3 -35.9 3.7 -1.3 4.5 -1.2 7.7 0.3 2 0.9 3.9 2.6 4.3 3.6 0.4 1.1 1.2 1.9 1.7 1.8 0.6 -0.1 5.7 6.1 11.4 13.7 7.2 9.6 10.1 14.3 9.5 15.2 -0.5 0.7 -2.4 3.2 -4.2 5.6 -3.2 4 -3.1 4 1.2 -0.7 l4.6 -5 2 2.5 c1.1 1.4 3.2 4.3 4.7 6.5 1.6 2.2 3.1 4.2 3.6 4.3 0.4 0.2 0.7 1.1 0.7 2 0 2.4 -5 17.2 -5.8 17.2 -0.4 0 -11.2 -14 -24.1 -31.1z m23.9 17.1 c1.7 -2.2 2.9 -4 2.7 -4 -0.3 0 -2 1.8 -3.7 4 -1.7 2.2 -2.9 4 -2.7 4 0.3 0 2 -1.8 3.7 -4z m-22 -26 c1.7 -2.2 2.9 -4 2.7 -4 -0.3 0 -2 1.8 -3.7 4 -1.7 2.2 -2.9 4 -2.7 4 0.3 0 2 -1.8 3.7 -4z m-14.6 -23 c-0.6 -0.6 -1.8 -0.8 -2.7 -0.4 -1.3 0.5 -1.4 0.9 -0.4 2.5 1 1.6 1.3 1.7 2.6 0.4 1.1 -1 1.2 -1.8 0.5 -2.5z"/>
  <path d="M422.3 329.8 l-13.2 -17.1 4.5 -6.1 c4.5 -6 2.4 -4.2 -2.6 2.2 l-2.5 3.3 -5.5 -7.2 c-3 -4 -7.6 -9.8 -10.2 -12.9 -2.7 -3.2 -4.8 -6.4 -4.8 -7.2 0 -2 5.3 -4.8 9 -4.8 3.7 0 9 2.5 9 4.3 0 0.7 -0.6 1.9 -1.2 2.7 -0.7 0.8 -0.4 0.7 0.8 -0.3 2.6 -2.1 0.8 -4 19.8 20.8 8 10.5 15 19.5 15.6 20.2 0.5 0.7 1 1.8 1 2.5 -0.1 2.6 -4.6 16.2 -5.6 16.4 -0.5 0.2 -6.8 -7.4 -14.1 -16.8z m16.7 -1.7 c0 -0.6 -0.8 0.3 -4.8 5.5 -1.8 2.3 -3.2 4.5 -3.2 5 0 0.4 1.8 -1.7 4 -4.6 2.2 -2.9 4 -5.6 4 -5.9z m-10.8 -11.6 c1.4 -2.7 -0.1 -1 -4.1 4.5 l-3.3 4.5 3.2 -3.5 c1.7 -1.9 3.6 -4.4 4.2 -5.5z m-29.9 -31.6 c-0.7 -0.7 -1.9 -0.9 -2.8 -0.6 -1.3 0.6 -1.3 1 -0.3 2.7 1.1 1.7 1.4 1.8 2.7 0.5 1.1 -1.1 1.2 -1.8 0.4 -2.6z"/>
  <path d="M121.3 339.3 c-1.5 -2.1 -5.2 -6.8 -8 -10.3 -2.9 -3.6 -9.9 -12.3 -15.5 -19.4 -26.3 -33.2 -23.8 -29.3 -20.4 -32.2 2 -1.8 3.9 -2.4 7.3 -2.4 4.5 0 4.9 0.3 12.7 8.2 4.5 4.6 12.4 13.9 17.6 20.7 5.2 6.8 11 14.4 12.9 16.8 l3.4 4.5 -2.3 7.6 c-3.3 10.7 -4.1 11.4 -7.7 6.5z m-35.8 -58.3 c0.3 -0.6 -0.1 -1.3 -1 -1.6 -1.9 -0.8 -3 0 -2 1.5 0.8 1.4 2.2 1.4 3 0.1z"/>
  <path d="M275.1 316.1 c-5.5 -7.7 -10.1 -14.3 -10.1 -14.7 0 -0.4 1 -1.9 2.3 -3.3 l2.2 -2.6 -2.6 2.3 c-1.4 1.2 -2.8 2.2 -3.1 2.2 -0.3 0 -1.8 -1.6 -3.2 -3.5 l-2.7 -3.5 2.4 -0.9 c1.3 -0.5 3.4 -2.2 4.7 -3.8 l2.2 -2.8 2.4 2.8 c1.3 1.5 3.1 5.3 3.9 8.5 0.8 3.1 2.4 7.5 3.5 9.6 1.8 3.5 1.9 4.1 0.5 5.6 -0.8 0.9 -1.5 2 -1.5 2.5 0 0.4 0.9 -0.4 2 -1.8 1.1 -1.4 3.5 -3.3 5.3 -4.2 3.2 -1.6 3.2 -1.6 5.9 1.7 3.3 4 3.4 4.4 0.6 10.5 -2.1 4.7 -2.3 5.5 -2.6 8.1 -0.4 2.7 -2.3 0.6 -12.1 -12.7z"/>
  <path d="M392 319.4 c-5 -6.7 -5.8 -8.8 -4 -9.9 0.5 -0.3 1.9 -2 3 -3.8 1.9 -2.8 1.7 -2.7 -1 0.6 -4.5 5.3 -4.4 5.3 -11.1 -4.1 l-3.1 -4.3 4.2 -5.5 c2.4 -2.9 4.8 -5.4 5.4 -5.4 0.6 0.1 2.7 2.2 4.6 4.7 5.2 6.9 5.3 7.2 3.8 9.1 -1.2 1.5 -1.1 1.6 0.5 0.3 1.9 -1.5 2 -1.5 5.1 2.7 1.1 1.7 3.4 4.6 4.9 6.5 l2.8 3.5 -4.7 6.1 c-2.6 3.4 -4.9 6.1 -5 6.1 -0.2 0 -2.6 -3 -5.4 -6.6z m7.5 -7.4 c-0.8 -0.9 -1.5 -2.2 -1.5 -2.8 0 -1.9 -2.4 -1.4 -3.8 0.8 -1.1 1.8 -1 2.5 0.9 5.2 l2.2 3.1 1.9 -2.3 c1.7 -2.1 1.7 -2.5 0.3 -4z m-11.6 -11.4 c1 -1.2 0.9 -2 -0.5 -4.1 l-1.7 -2.6 -2 2 c-2 2 -2 2.1 -0.2 4.1 2.2 2.4 2.9 2.5 4.4 0.6z"/>
  <path d="M441.5 324.6 c-0.6 -0.8 -2.9 -4 -5.3 -7 l-4.3 -5.5 2.2 -3.1 c1.3 -1.7 3.7 -3.9 5.5 -4.9 l3.1 -1.9 3.1 4 c3 3.9 3 4 1.5 8.4 -0.8 2.4 -1.9 4.6 -2.4 5 -0.5 0.3 -0.9 1.8 -0.9 3.5 0 3.2 -0.9 3.7 -2.5 1.5z"/>
  <path d="M127.2 316.6 c-3 -4.1 -14 -18.1 -21.7 -27.5 -3.4 -4.1 -3.5 -4.5 -1.8 -5.4 1 -0.5 3.1 -2.1 4.6 -3.6 3.7 -3.4 5.3 -2.3 8.4 5.9 6.1 15.9 6.6 16.4 12.3 13.5 2.7 -1.4 2.9 -1.4 5.4 1.6 1.4 1.7 2.6 3.9 2.6 5 0 2.3 -5.1 14.9 -6 14.9 -0.4 0 -2.1 -2 -3.8 -4.4z"/>
  <path d="M291.3 309.8 c-3.3 -4.2 -3.4 -5.6 -0.7 -11 3.6 -7.3 4.4 -8.1 6 -6.7 1.9 1.6 1.7 4.6 -0.6 11.5 -2.4 6.8 -3.3 8 -4.7 6.2z"/>
  <path d="M426 304.5 l-5.3 -6.6 2.2 -3.2 2.2 -3.2 -2.5 2.7 -2.5 2.8 -3.1 -3.9 c-2.9 -3.7 -2.9 -4 -1.1 -4.6 1.1 -0.3 3.2 -2 4.7 -3.8 l2.6 -3.1 2.4 2.7 c1.3 1.5 3.3 5.9 4.5 9.7 1.1 3.8 2.9 8 3.9 9.3 1.7 2.2 1.7 2.3 -0.5 5 l-2.2 2.9 -5.3 -6.7z"/>
  <path d="M446.1 302.9 c-1.5 -2.5 -1.7 -3.7 -1 -5.8 1.2 -3.1 5.8 -11.1 6.4 -11.1 0.3 0 1.1 1 2 2.3 1.4 2.1 1.3 3 -1.1 10 -1.4 4.2 -3 7.7 -3.5 7.7 -0.5 0 -1.8 -1.4 -2.8 -3.1z"/>
  <path d="M135.8 299.8 c-1 -1.2 -1.8 -3 -1.8 -4 0 -2.2 4.8 -12 6.3 -13 3.1 -1.9 3.5 2.6 1.1 11 -2.1 7.5 -3.4 8.8 -5.6 6z"/>
  <path d="M215.2 295.4 c-1.9 -2.5 -3.2 -4.7 -3 -4.9 0.2 -0.2 3.4 -0.1 7.1 0.3 l6.8 0.7 -3.3 4.3 c-1.8 2.3 -3.5 4.2 -3.8 4.2 -0.3 -0.1 -2 -2.1 -3.8 -4.6z"/>
  <path d="M371.2 292.4 c-1.9 -2.5 -3.2 -4.7 -3 -4.9 0.2 -0.2 3.4 -0.1 7.1 0.3 l6.8 0.7 -3.3 4.3 c-1.8 2.3 -3.5 4.2 -3.8 4.2 -0.3 -0.1 -2 -2.1 -3.8 -4.6z"/>
  <path d="M298.1 290.6 c-1.1 -1.3 -1 -1.7 0.3 -2.2 2.2 -0.8 3 0.1 1.9 2.1 -0.9 1.5 -1.1 1.5 -2.2 0.1z"/>
  <path d="M454.5 286 c-0.8 -1.3 -0.1 -2.4 1.4 -1.9 0.6 0.3 0.7 1 0.2 1.8 -0.6 1 -1 1 -1.6 0.1z"/>
 </g>
 <g fill="#d4ca8b">
  <path d="M125.3 294.8 c-0.6 -0.7 -1.8 -3.6 -2.6 -6.4 -2.1 -7 -4.2 -10.8 -7.3 -13.3 -3.6 -2.8 -5.5 -2.6 -8.9 0.9 -3.7 3.9 -5.4 3.8 -10.5 -0.5 -7.5 -6.3 -13.8 -6.5 -22.3 -0.9 -6.4 4.2 -8.9 4.5 -17.5 2.3 -14 -3.7 -13.9 -3.7 -16.7 -2.3 -7.1 3.7 -13.6 -9.7 -9 -18.6 2.1 -4.1 5.3 -6 10.2 -6 5.8 0 6.1 -1.4 0.8 -3.5 -9.6 -3.6 -10.2 -14.7 -1.3 -21.6 6.9 -5.4 14.3 -8.9 18.9 -8.9 l4.4 0 -4.2 -1.9 c-2.3 -1.1 -4.6 -2.8 -5.2 -3.9 -1.8 -3.3 -1.3 -8 1 -10.3 1.9 -1.9 1.9 -2.2 0.5 -3.8 -2.2 -2.4 -2 -7.4 0.4 -12 2.4 -4.9 14.8 -16.1 17.6 -16.1 l2.1 0 -2.1 -4.2 c-7.4 -15.1 5.3 -35.3 23.4 -37.5 7.6 -0.9 8.8 0.1 4.7 3.7 -4.5 3.9 -6.2 8.1 -5.1 12.3 1.3 4.2 5.7 7 14.6 9.2 14.1 3.4 19.4 7.8 18.4 15.2 -0.4 3.3 -0.2 4.3 0.8 4.3 2.1 0 6.6 5.8 6.6 8.4 0 1.3 -0.9 4.4 -2 6.9 -1.7 3.8 -2.7 4.8 -6.3 6 l-4.2 1.5 5.4 0.1 c4.6 0.1 6.4 0.7 11.8 4.2 3.4 2.3 7.9 5.9 9.9 8.1 3.5 3.9 3.6 4.3 3.1 9.7 -0.6 7.1 -4.1 15.5 -7.4 17.6 -3.6 2.4 -2.3 2.8 4.4 1.4 7.1 -1.5 12.2 -0.6 15.7 2.6 4.2 3.9 3.6 8.2 -2 14.4 -2.9 3.3 -4 5.1 -3.1 5.1 2.4 0 2.8 1.4 1.4 5.3 -2.6 7.5 -10.2 12.6 -18.7 12.7 -6.9 0 -8.7 1.6 -12.5 10.4 -4 9.3 -5.6 11.4 -7.2 9.4z m8.4 -22.8 c2.3 -1.2 5.7 -2 8.6 -2 5.5 0 10.4 -1.8 13.1 -4.9 1.9 -2.1 1.9 -2.1 -0.2 -2.1 -1.9 0 -2.2 -0.6 -2.2 -3.7 0 -3.3 0.8 -4.4 6.3 -9.6 l6.2 -5.8 -2.8 -2.5 c-3.3 -2.8 -4.6 -2.9 -12.4 -0.9 -3.1 0.8 -7.4 1.5 -9.5 1.5 l-3.8 0 0 -4.5 c0 -2.5 0.4 -4.5 0.8 -4.5 0.5 0 2.6 -1.5 4.8 -3.4 3.1 -2.6 4.5 -4.9 5.8 -9.4 l1.9 -6 -2.3 -3.2 c-1.3 -1.8 -5.4 -5.2 -9.1 -7.6 l-6.8 -4.4 -9.6 0 -9.6 0 0.3 -4.2 0.3 -4.3 7.5 -2 c6.3 -1.7 7.7 -2.5 8.9 -4.9 1.9 -4 -0.4 -8 -4.8 -8.4 -2.9 -0.3 -3.1 -0.6 -3.1 -4.2 0 -2.1 0.5 -4.2 1 -4.5 4.1 -2.5 -3.5 -7.7 -15.4 -10.5 -4.9 -1.2 -9.9 -2.8 -11.1 -3.6 -2.9 -1.9 -4.5 -5.6 -4.5 -10.6 0 -4.1 0 -4.1 -2 -2.3 -1.1 1 -3.5 4.7 -5.2 8.2 -3 6.1 -3.1 6.7 -2 11.4 2 8.4 1.6 12.4 -1.4 14.4 -4.8 3.1 -10.7 9 -13.6 13.4 -2.4 3.9 -2.8 5.5 -2.8 11.8 l0 7.3 -3 0 c-4.4 0 -3.7 1.7 1.3 3.1 10.8 2.9 11.2 3.1 11.5 7.7 l0.3 4.2 -8.6 0 c-9.2 0 -11.2 0.7 -19.5 6.4 l-4.5 3.1 10.4 1 10.3 1 2.4 6.5 c3 8.3 3.1 14 0.3 16.6 -4.9 4.5 -6 11.1 -2.5 15.9 1.3 1.8 1.5 1.7 6.1 -1.3 5.7 -3.7 9.3 -4.6 17.9 -4 4.7 0.3 7.4 1.1 10.3 3 3.4 2.3 4.1 2.4 5.8 1.2 1.1 -0.8 4.3 -1.4 7.7 -1.4 4.6 0 6.7 0.5 9.6 2.5 4.4 3 8 3.2 12.9 0.5z"/>
  <path d="M356 256.6 c0 -0.7 1 -1.7 2.3 -2 l2.2 -0.7 -2.4 -1 c-3.4 -1.3 -1.4 -3.1 3 -2.7 3.1 0.3 3.4 0.6 3.7 4.1 l0.3 3.7 -4.5 0 c-3.3 0 -4.6 -0.4 -4.6 -1.4z"/>
  <path d="M349 233 c1.2 -1.6 2.6 -3 3.1 -3 0.5 0 0.9 1.4 0.9 3 0 2.7 -0.3 3 -3.1 3 l-3 0 2.1 -3z"/>
  <path d="M375 221.9 c0 -1.1 0.4 -1.8 0.9 -1.5 0.5 0.4 1.7 0.3 2.6 0 1.4 -0.6 1.2 -0.9 -1.1 -2 -2.9 -1.2 -2.8 -1.2 1.9 -1.3 l4.7 -0.1 0 3.5 c0 3.5 0 3.5 -4.5 3.5 -3.9 0 -4.5 -0.3 -4.5 -2.1z"/>
  <path d="M367 203.5 c0 -0.8 0.7 -1.5 1.5 -1.5 2 0 1.9 -1 -0.2 -2.6 -1.6 -1.2 -1.4 -1.3 2 -1.4 3.6 0 3.7 0.1 3.7 3.5 0 3.3 -0.2 3.5 -3.5 3.5 -2.4 0 -3.5 -0.5 -3.5 -1.5z"/>
  <path d="M428 197.5 l0 -3.5 5.8 0.1 5.7 0.1 -4.5 1.3 c-4.2 1.2 -4.3 1.3 -1.5 1.6 1.7 0.1 3.6 0.2 4.3 0.2 0.6 -0.1 1.2 0.8 1.2 1.8 0 1.6 -0.8 1.9 -5.5 1.9 l-5.5 0 0 -3.5z"/>
 </g>
 <g fill="#f4c087">
  <path d="M246.1 437.4 c-1 -3.9 -0.9 -5 0.4 -7 1.8 -2.8 2.8 -3 4.5 -0.9 0.9 1.1 0.8 2.5 -0.5 6.5 -0.9 2.7 -2 5.2 -2.5 5.5 -0.4 0.3 -1.3 -1.6 -1.9 -4.1z"/>
  <path d="M405 433.6 c-1 -3.8 -1 -4.7 0.5 -6.9 1.7 -2.7 3.9 -2.7 5 0 0.6 1.8 -2.2 11.3 -3.5 11.3 -0.4 0 -1.3 -2 -2 -4.4z"/>
  <path d="M91.9 433 c-1.1 -3.5 -1 -4.2 0.6 -6 2.2 -2.4 3.4 -2.5 4.2 -0.5 0.7 1.9 -1.6 10.5 -2.8 10.5 -0.4 0 -1.4 -1.8 -2 -4z"/>
  <path d="M241.7 422.8 c-0.9 -3.4 -1.4 -6.4 -1.2 -6.6 0.5 -0.6 6.5 7.9 6.5 9.3 0 1.2 -2 3.5 -3.1 3.5 -0.3 0 -1.4 -2.8 -2.2 -6.2z"/>
  <path d="M252 424.8 c0.1 -1.7 3.9 -6.7 4 -5.1 0 2.1 -1.9 6.3 -3 6.3 -0.5 0 -1 -0.6 -1 -1.2z"/>
  <path d="M401 420.9 c-0.6 -2.3 -1.6 -5.2 -2 -6.5 -1.3 -3.4 -0.6 -3 3.5 2.1 2.7 3.2 3.5 5 3 6.5 -1.1 3.3 -3.3 2.3 -4.5 -2.1z"/>
  <path d="M87.5 418.8 c-1.7 -6 -1.3 -7 1.5 -3.7 2.3 2.8 3.5 6.3 2.5 7.8 -1.3 2.2 -2.5 1 -4 -4.1z"/>
  <path d="M411.7 422.4 c-1.2 -1.2 -0.8 -3.1 1.3 -5.5 l2 -2.4 -0.6 3 c-0.9 4 -1.9 5.7 -2.7 4.9z"/>
  <path d="M245.6 416 l-3.8 -5 3.3 -4.5 c1.9 -2.4 3.9 -4.4 4.4 -4.4 1.2 0 7.5 8.4 7.5 10 0 1.3 -5.8 8.9 -6.9 8.9 -0.4 0 -2.4 -2.3 -4.5 -5z"/>
  <path d="M404.7 413.1 c-2 -2.6 -3.7 -5.1 -3.7 -5.5 0 -1.1 6.2 -9.6 7 -9.6 0.3 0 2.3 2.3 4.3 5 l3.8 5.1 -2 3.3 c-1.1 1.8 -2.9 4 -3.9 4.9 -1.7 1.6 -2 1.4 -5.5 -3.2z"/>
  <path d="M91.6 411.4 c-2 -2.6 -3.6 -5.3 -3.6 -6 0 -1.5 5.8 -8.4 7 -8.4 0.5 0 2.5 2.3 4.5 5.1 l3.8 5 -3 4.2 c-1.7 2.2 -3.5 4.3 -4.1 4.5 -0.6 0.2 -2.6 -1.8 -4.6 -4.4z"/>
  <path d="M237 404.3 c-3.5 -5.9 -3.5 -9.2 -0.1 -13.1 l2.9 -3.4 4.2 5.6 4.2 5.6 -3.6 4.5 c-2.1 2.5 -4.1 4.5 -4.6 4.5 -0.4 0 -1.8 -1.7 -3 -3.7z"/>
  <path d="M256.1 403.7 c-2.9 -4.3 -4 -7.7 -2.3 -7.7 0.4 0 2.2 2.3 4 5.1 4.4 6.7 2.8 9.1 -1.7 2.6z"/>
  <path d="M396.7 402.9 c-0.8 -1.3 -2.3 -4.1 -3.3 -6.1 -1.7 -3.7 -1.7 -3.7 1 -7.8 1.4 -2.2 3 -4 3.4 -4 1 0 8.2 9.4 8.2 10.6 0 0.5 -1.8 2.9 -3.9 5.3 l-3.8 4.5 -1.6 -2.5z"/>
  <path d="M414.7 400.2 c-3.7 -5.3 -4.6 -7.7 -2.6 -7 2 0.7 7.1 8.5 6.7 10.4 -0.2 1.4 -1.2 0.6 -4.1 -3.4z"/>
  <path d="M81.5 397 c-3.2 -6.3 -3.1 -8.2 0.3 -12.1 l2.8 -3.2 3.7 5 c2 2.8 3.7 5.6 3.7 6.3 0 1.5 -5.9 9 -7.1 9 -0.5 0 -2 -2.2 -3.4 -5z"/>
  <path d="M102.2 398 c-3.2 -4.4 -4 -7 -2.2 -7 1.3 0 6.3 8.7 5.8 10.1 -0.2 0.7 -1.8 -0.8 -3.6 -3.1z"/>
  <path d="M246.6 390.5 c-2 -2.7 -3.6 -5.3 -3.6 -5.9 0 -0.6 1.6 -2.9 3.5 -5.1 3.4 -3.9 3.5 -3.9 5 -2.1 2.4 3.1 2.4 14.1 0.1 16.4 -1.1 1.2 -1.9 0.6 -5 -3.3z"/>
  <path d="M232 391.7 c0 -0.1 -0.9 -3.3 -1.9 -7 -1.9 -6.4 -1.9 -9.7 -0.1 -9.7 0.4 0 2.4 2.4 4.5 5.4 l3.7 5.5 -2.2 3 c-1.7 2.5 -4 4.1 -4 2.8z"/>
  <path d="M404.8 387.1 c-2.1 -2.8 -3.8 -5.6 -3.8 -6.3 0.1 -0.7 1.6 -3.1 3.6 -5.3 3.3 -3.9 3.5 -3.9 4.9 -2.1 0.8 1.1 1.5 3.1 1.5 4.5 0 1.4 0.3 4.2 0.6 6.1 0.4 2.6 0.1 4.2 -1.3 5.8 l-1.8 2.3 -3.7 -5z"/>
  <path d="M390.6 388.1 c-1.4 -2.2 -4.6 -14.2 -4.1 -15.1 1.1 -1.7 2 -1.1 5.9 4 l3.8 5 -2.2 3.5 c-2.3 3.8 -2.6 4 -3.4 2.6z"/>
  <path d="M91.2 383 c-3.5 -5.1 -3.5 -5.2 0.6 -10.7 2.9 -3.9 4.8 -3.4 6.2 1.5 1.9 7 0.7 14.2 -2.3 14.2 -0.7 0 -2.7 -2.3 -4.5 -5z"/>
  <path d="M75.2 379 c-2.5 -7.2 -2.8 -10.4 -0.9 -9.8 1.4 0.5 7.7 8.5 7.7 9.8 0 0.5 -1.1 2.1 -2.3 3.6 l-2.4 2.8 -2.1 -6.4z"/>
  <path d="M236.7 377 c-2 -2.7 -3.7 -5.3 -3.7 -5.7 0 -0.5 1.7 -2.8 3.8 -5.2 l3.8 -4.4 3.7 5.2 c2 2.8 3.7 5.4 3.7 5.7 0 0.9 -6.3 9.4 -7 9.4 -0.3 0 -2.2 -2.2 -4.3 -5z"/>
  <path d="M394.8 374 c-2.1 -2.7 -3.8 -5.4 -3.8 -6 0 -1.5 5.9 -9 7 -9 0.5 0 2.5 2.3 4.5 5 l3.7 5.1 -2.7 3.9 c-4.3 6.2 -4.6 6.3 -8.7 1z"/>
  <path d="M81.2 369.6 c-1.8 -2.4 -3.2 -5.1 -3.2 -5.8 0 -0.8 1.5 -3.2 3.3 -5.3 l3.3 -3.8 3.7 4.5 c2 2.5 3.7 5.4 3.7 6.5 0 1.7 -5.7 8.3 -7.1 8.3 -0.3 0 -2 -2 -3.7 -4.4z"/>
  <path d="M226 371.4 c-1.4 -3.6 -0.7 -4.1 1.4 -1 1 1.5 1.2 2.7 0.6 3.1 -0.6 0.3 -1.5 -0.6 -2 -2.1z"/>
  <path d="M383.7 367.9 c-0.4 -1.6 -0.3 -1.8 0.9 -0.8 1.6 1.3 1.9 2.9 0.5 2.9 -0.5 0 -1.1 -0.9 -1.4 -2.1z"/>
  <path d="M229.3 366.8 c-4 -4.5 -7.5 -10.7 -6.7 -12 0.4 -0.7 2.1 -3 3.7 -5 l3 -3.7 4.8 6.6 4.8 6.6 -1.9 2.6 c-1.1 1.4 -2.8 3.6 -3.8 4.9 l-1.8 2.3 -2.1 -2.3z"/>
  <path d="M247.4 364.8 c-1.6 -2.4 -3.2 -4.8 -3.6 -5.4 -0.4 -0.6 0.9 -3.2 2.9 -5.9 l3.7 -4.7 2.3 2.8 c1.5 1.9 2.3 4.2 2.3 6.7 0 4.1 -2.3 10.7 -3.8 10.7 -0.5 0 -2.2 -1.9 -3.8 -4.2z"/>
  <path d="M404.8 360.9 c-2.1 -2.7 -3.8 -5.5 -3.8 -6.2 0 -2.4 6.5 -9.1 7.9 -8.2 3.8 2.3 4.5 14.6 1 18 -1.2 1.1 -2 0.5 -5.1 -3.6z"/>
  <path d="M384.7 360.8 c-5.9 -7.4 -6 -7.8 -2 -12.9 1.9 -2.4 3.6 -4.5 3.7 -4.6 0.1 -0.2 2.4 2.6 5 6.2 2.9 4 4.4 7 4 7.7 -1.6 2.7 -5.9 7.8 -6.6 7.8 -0.4 0 -2.2 -1.9 -4.1 -4.2z"/>
  <path d="M91.7 356.1 c-2 -2.6 -3.7 -5.2 -3.7 -5.6 0 -1.2 6.1 -8.5 7.1 -8.5 1.6 0 4.9 6.3 4.9 9.3 0 3.2 -2.5 9.7 -3.7 9.7 -0.5 0 -2.6 -2.2 -4.6 -4.9z"/>
  <path d="M71.2 356.1 c-5.7 -7.1 -5.9 -8.4 -2.2 -13.1 2.6 -3.3 3.5 -3.8 4.6 -2.9 2.2 1.8 8.4 10.5 8.4 11.7 0 1.3 -5.9 8.2 -6.9 8.2 -0.4 0 -2.2 -1.8 -3.9 -3.9z"/>
  <path d="M236.7 350 l-4.6 -6.3 1.7 -2.9 c0.9 -1.6 2.7 -3.8 3.8 -4.9 l2.1 -2 4.7 6.1 c5 6.7 5 6.7 -0.2 12.9 l-2.8 3.3 -4.7 -6.2z"/>
  <path d="M393.6 346.5 l-4.8 -6.5 3.3 -4.5 c1.9 -2.4 3.9 -4.4 4.4 -4.4 0.6 0 3 2.6 5.3 5.9 l4.4 6 -3.7 5 c-2 2.8 -3.7 5 -3.8 5 -0.1 -0.1 -2.4 -3 -5.1 -6.5z"/>
  <path d="M218 344.9 c-2.2 -7.4 -2.3 -12 -0.3 -12.6 0.6 -0.3 3.2 2.4 5.7 5.8 l4.5 6.2 -3.1 3.8 c-1.7 2.2 -3.5 3.9 -3.9 3.9 -0.4 0 -1.7 -3.2 -2.9 -7.1z"/>
  <path d="M374.8 340.8 c-2.4 -7.9 -2.3 -11.8 0.1 -11.8 0.5 0 3 2.8 5.5 6.1 l4.5 6.2 -3 3.8 c-1.7 2.2 -3.4 3.9 -3.8 3.9 -0.5 0 -1.9 -3.7 -3.3 -8.2z"/>
  <path d="M81.5 342.7 c-5.9 -8.3 -5.9 -8 -1.7 -12.7 l3.8 -4.3 4.2 5.6 c2.3 3.1 4.2 6.2 4.2 7 0 1.8 -5.2 8.6 -6.5 8.6 -0.5 0 -2.3 -1.9 -4 -4.2z"/>
  <path d="M254 345.5 c0 -0.8 0.5 -1.5 1 -1.5 0.6 0 1 0.7 1 1.5 0 0.8 -0.4 1.5 -1 1.5 -0.5 0 -1 -0.7 -1 -1.5z"/>
  <path d="M411.5 342.7 c-0.4 -1 -0.5 -2.1 -0.1 -2.4 1 -1 1.8 0.4 1.3 2.4 -0.4 1.7 -0.4 1.7 -1.2 0z"/>
  <path d="M61.5 334.8 c-2.5 -7.9 -2.6 -10.8 -0.6 -10.8 1.4 0 9.1 10.3 9.1 12.1 -0.1 1.4 -4.4 6.9 -5.4 6.9 -0.3 0 -1.7 -3.7 -3.1 -8.2z"/>
  <path d="M247.2 337.5 c-2.3 -3.2 -4.2 -6.3 -4.2 -6.9 0 -1.6 7 -10.1 8.3 -10.1 1.9 0 4.7 6 5.4 11.3 0.5 4.4 0.3 5.2 -2.4 8.2 l-3 3.3 -4.1 -5.8z"/>
  <path d="M226.3 335.9 c-2.1 -3 -4.3 -6 -4.7 -6.7 -0.8 -1.3 5 -10.1 6.7 -10.2 0.4 0 2.7 2.7 5.2 6.1 4.9 6.6 4.9 6.6 -0.3 12.8 l-2.9 3.4 -4 -5.4z"/>
  <path d="M406.4 336.8 c-1.1 -1.3 -3.2 -4 -4.7 -6 l-2.8 -3.8 4.3 -5.6 4.2 -5.6 2.3 2.6 c2.2 2.6 4.3 8.4 4.3 12 0 1.9 -3.9 8.6 -5.1 8.6 -0.3 0 -1.4 -1 -2.5 -2.2z"/>
  <path d="M382.3 331.5 c-2.4 -3 -4.3 -5.9 -4.3 -6.3 0 -1.2 6.1 -9.2 7 -9.2 0.5 0 2.9 2.7 5.4 6.1 l4.6 6 -3.3 4.4 c-1.7 2.4 -3.6 4.4 -4.2 4.5 -0.5 0 -2.9 -2.5 -5.2 -5.5z"/>
  <path d="M91.7 329 c-2.1 -2.8 -4 -5.6 -4.3 -6.3 -0.6 -1.6 6.5 -10.9 8 -10.4 2 0.7 5.6 8.1 5.6 11.7 0 3.4 -3.1 10 -4.8 10 -0.4 0 -2.5 -2.3 -4.5 -5z"/>
  <path d="M69.1 325.9 c-2.3 -2.9 -4.1 -5.8 -4.1 -6.5 0 -1.4 5.7 -8.4 6.9 -8.4 0.8 0 7.9 9.4 8.7 11.4 0.5 1.4 -5.1 8.6 -6.6 8.6 -0.5 0 -2.7 -2.3 -4.9 -5.1z"/>
  <path d="M213.7 330.3 c-0.2 -0.5 -0.7 -2.1 -1.1 -3.8 -0.7 -2.9 -0.7 -2.9 1.3 -1.1 2.1 1.9 2.9 5.6 1.2 5.6 -0.6 0 -1.2 -0.3 -1.4 -0.7z"/>
  <path d="M235.6 321.7 l-4.8 -6.7 4.2 -5 c2.4 -2.8 4.6 -5 5.1 -4.8 1.2 0.4 8.9 11 8.9 12.2 0 0.6 -2 3.3 -4.3 6 l-4.4 4.9 -4.7 -6.6z"/>
  <path d="M370.7 327.3 c-0.2 -0.5 -0.7 -2.1 -1.1 -3.8 l-0.7 -3 2.1 2.5 c1.1 1.4 2 2.8 2 3.2 0 1.1 -1.8 1.9 -2.3 1.1z"/>
  <path d="M214.6 319.7 c-2 -2.9 -3.6 -5.7 -3.6 -6.2 0 -0.6 1.6 -2.8 3.5 -5 l3.5 -4 2.9 3.5 c1.6 1.9 3.7 4.7 4.5 6.1 1.5 2.5 1.4 2.8 -2 6.8 -2 2.2 -3.9 4.1 -4.4 4.1 -0.4 0 -2.4 -2.4 -4.4 -5.3z"/>
  <path d="M393.1 319.5 c-2.3 -3 -4.4 -6.1 -4.7 -6.9 -0.5 -1.3 6.2 -11.4 7.6 -11.5 0.5 -0.1 7.4 8.6 9.3 11.7 0.7 1.1 -1.4 4.6 -7.3 11.5 -0.4 0.4 -2.6 -1.7 -4.9 -4.8z"/>
  <path d="M56.7 320.1 c-0.3 -1.2 -0.1 -2.1 0.3 -2.1 1.5 0 2.3 2.1 1.2 3.2 -0.6 0.6 -1.1 0.2 -1.5 -1.1z"/>
  <path d="M370.9 316.5 l-4.1 -5.5 3.3 -4.5 c1.9 -2.4 3.7 -4.5 4.1 -4.5 0.9 0 8.8 9.8 8.8 10.9 0 1.2 -6.1 9.1 -7.1 9.1 -0.4 0 -2.7 -2.5 -5 -5.5z"/>
  <path d="M79.6 313.1 c-2.5 -3.5 -4.3 -6.8 -3.9 -7.5 1.7 -2.9 6.6 -8.6 7.4 -8.6 0.5 0 2.9 2.6 5.3 5.7 4.9 6.2 4.9 6.2 -0.7 12.7 l-3.4 4 -4.7 -6.3z"/>
  <path d="M57.5 310.5 l-3.8 -5.5 2.9 -3.7 c1.7 -2 3.5 -3.8 4.1 -4 1.3 -0.5 8.3 8.3 8.3 10.3 0 1.5 -5.8 8.4 -7 8.4 -0.4 0 -2.5 -2.5 -4.5 -5.5z"/>
  <path d="M225.1 307.3 c-2.3 -3.1 -4.1 -6 -4.1 -6.4 0 -0.9 6.9 -9.3 8 -9.7 0.5 -0.2 2.7 2.2 5 5.2 l4.2 5.6 -4.1 5.5 c-2.3 3 -4.4 5.5 -4.6 5.5 -0.2 0 -2.2 -2.5 -4.4 -5.7z"/>
  <path d="M246.6 306.8 c-3.6 -4.8 -3.8 -5.3 -2.5 -7.6 2.1 -3.8 3.2 -3 5.2 3.4 0.9 3.3 2 6.7 2.3 7.7 1 3.2 -1.1 1.7 -5 -3.5z"/>
  <path d="M206 304.1 c-1.1 -3.7 -2 -7.5 -2 -8.3 0 -1.4 3 -4.8 4.2 -4.8 0.9 0 7.8 9.8 7.8 11.1 0 1.3 -6.1 8.9 -7.1 8.9 -0.5 0 -1.7 -3.1 -2.9 -6.9z"/>
  <path d="M381 303.5 l-4.2 -5.5 3.8 -5 c2.1 -2.7 4.3 -5 4.9 -5 0.9 0.1 7.4 8 8.3 10.2 0.4 1 -6.7 10.8 -7.8 10.8 -0.4 0 -2.7 -2.5 -5 -5.5z"/>
  <path d="M403.1 303.7 c-2.2 -3 -4.1 -5.8 -4.1 -6.4 0 -1.3 3.9 -4.8 4.5 -4.1 0.8 0.8 4.6 15 4.2 15.5 -0.2 0.2 -2.3 -2.1 -4.6 -5z"/>
  <path d="M362.1 300.4 c-2.1 -7.1 -2.1 -7.8 -0.6 -10.1 0.9 -1.3 2 -2.3 2.5 -2.1 0.4 0.2 2.6 2.7 4.8 5.7 l4.1 5.4 -3.2 4.3 c-1.8 2.4 -3.7 4.3 -4.3 4.4 -0.6 0 -2.1 -3.4 -3.3 -7.6z"/>
  <path d="M68.1 298 c-4.5 -5.7 -4.5 -5.9 0.8 -12 l3.1 -3.5 3.6 4 c5.8 6.4 5.8 6.8 1.8 11.7 -2 2.3 -4 4.4 -4.4 4.6 -0.5 0.2 -2.7 -2 -4.9 -4.8z"/>
  <path d="M90.6 297.9 c-2 -2.4 -3.6 -4.8 -3.6 -5.5 0 -1.8 3.1 -4.7 4 -3.7 1 1.1 4.2 12.4 3.7 13 -0.3 0.2 -2.1 -1.5 -4.1 -3.8z"/>
  <path d="M48.9 293.8 c-2.1 -7.1 -1.9 -9.6 0.9 -10.6 0.6 -0.2 2.9 2 5.1 4.8 l4.1 5.2 -2.7 3.9 c-1.6 2.1 -3.3 3.9 -4 3.9 -0.7 0 -2.2 -3.2 -3.4 -7.2z"/>
  <path d="M216.4 295.5 c-1.5 -2 -2.4 -3.8 -2.1 -4.1 0.6 -0.6 9.7 0.6 9.7 1.3 0 0.3 -1.1 1.8 -2.4 3.4 l-2.5 2.9 -2.7 -3.5z"/>
  <path d="M236.8 293.8 c-1.9 -2.4 -3.8 -4.8 -4.2 -5.5 -1 -1.8 4.9 -4.5 9.1 -4.1 3 0.2 3.8 0.8 4.6 3.1 0.7 2.3 0.4 3.5 -1.7 6.7 -1.5 2.2 -3 4 -3.5 4 -0.5 0 -2.4 -1.9 -4.3 -4.2z"/>
  <path d="M372 292 l-3.1 -4 6 0.3 c3.4 0.1 6.1 0.3 6.1 0.3 0 0.1 -1.3 1.8 -2.9 3.8 l-2.9 3.6 -3.2 -4z"/>
  <path d="M392.9 290.8 c-1.8 -2.4 -3.7 -4.8 -4.2 -5.5 -1.1 -1.6 4.8 -5.3 8.4 -5.3 5.5 0 7 6.5 2.8 11.8 -1.3 1.7 -2.7 3.1 -3.1 3.1 -0.3 0.1 -2.1 -1.8 -3.9 -4.1z"/>
  <path d="M201.6 289.8 c-0.9 -3.4 -0.8 -3.7 1.4 -3.1 2.3 0.6 2.6 2.6 0.6 4.2 -1.1 0.9 -1.5 0.7 -2 -1.1z"/>
  <path d="M59.6 286.8 c-2.3 -3.3 -2 -3.8 2.4 -3.8 4.4 0 5.2 1.6 2.2 4.3 -2.4 2.2 -2.8 2.1 -4.6 -0.5z"/>
  <path d="M79.6 284.3 c-3.3 -4.3 -3.5 -4.8 -2 -6.4 3.7 -4.1 12.4 -2.7 12.4 1.9 0 2 -4.6 9.2 -5.9 9.2 -0.5 0 -2.5 -2.1 -4.5 -4.7z"/>
  <path d="M357.5 287 c-0.8 -2.6 -0.3 -3.3 1.9 -2.4 1.9 0.7 1.8 3.5 -0.1 4.1 -0.6 0.2 -1.4 -0.5 -1.8 -1.7z"/>
  <path d="M45 280.5 c0 -0.8 0.5 -1.5 1 -1.5 0.6 0 1 0.7 1 1.5 0 0.8 -0.4 1.5 -1 1.5 -0.5 0 -1 -0.7 -1 -1.5z"/>
  <path d="M349.3 233 c0.8 -1.2 2.5 -2.9 3.7 -3.7 2.1 -1.5 2.1 -1.4 1.8 1.8 -0.3 3 -0.7 3.4 -3.7 3.7 -3.2 0.3 -3.3 0.3 -1.8 -1.8z"/>
  <path d="M427 197.5 c0 -3.3 0.2 -3.5 3.5 -3.5 1.9 0 3.5 0.5 3.5 1 0 0.6 -0.7 1 -1.5 1 -0.8 0 -1.5 0.5 -1.5 1 0 0.6 0.7 1 1.5 1 0.8 0 1.5 0.7 1.5 1.5 0 1 -1.1 1.5 -3.5 1.5 -3.3 0 -3.5 -0.2 -3.5 -3.5z"/>
  <path d="M370 182.3 c0.8 -1 2.5 -2.9 3.8 -4.3 l2.3 -2.4 -0.3 3.9 c-0.3 3.7 -0.5 4 -3.7 4.3 -3.2 0.3 -3.4 0.2 -2.1 -1.5z"/>
  <path d="M409.8 127.2 c-3.1 -0.4 -3.8 -2.7 -1 -3.4 0.9 -0.2 3 -0.2 4.6 0.2 2.7 0.5 2.7 0.6 1 2 -1.1 0.9 -3.1 1.4 -4.6 1.2z"/>
 </g>
 <g fill="#e3d894">
  <path d="M62.4 276 c-2.6 -1 -4.4 -5.8 -4.4 -11.7 0 -5 1.1 -7.5 4.8 -11.5 l2.6 -2.8 -2.6 -7.2 -2.5 -7.3 -5.9 -0.6 c-3.2 -0.4 -8.7 -0.7 -12.1 -0.8 -3.5 -0.1 -6.3 -0.5 -6.3 -1.1 0 -2 6.5 -8 12.4 -11.5 5.6 -3.3 6.5 -3.5 14.9 -3.5 12.5 0 11.4 -2.1 -3 -5.9 -3.2 -0.9 -4.4 -1.8 -4.9 -3.6 -1 -3.8 0.2 -5.5 3.7 -5.5 l3.2 0 -0.7 -5.7 c-0.6 -4.9 -0.3 -6.4 1.9 -10.9 2.4 -4.9 8.4 -11.4 14.9 -16 2.8 -2.1 2.9 -2.2 1.8 -6.7 -3.1 -12.3 1.3 -24 12.1 -31.8 5.6 -4.1 7.5 -3.9 4.8 0.5 -3.5 5.7 -2.4 13.9 2.4 17 1.2 0.8 6.2 2.4 11.1 3.6 10.2 2.4 15.5 5.4 17.4 9.9 1.1 2.9 1.1 3.4 -0.9 5.5 -2.8 3 -2.7 3.6 0.7 3.6 4 0 7.6 5 6.8 9.3 -1.3 6.7 -2.7 8 -10.5 10.2 -10.9 3 -10.4 4.5 1.4 4.5 l9.6 0 6.8 4.4 c11.1 7.2 13.1 12.1 9.5 23.2 -1.8 5.3 -4.4 8.7 -8.6 11.2 -1.6 0.9 -2.8 2.2 -2.8 2.9 0 1.7 -0.2 1.7 9.9 -0.8 8 -2 8.9 -2 12.3 -0.6 2 0.8 4.4 2.7 5.3 4.1 2.4 3.7 0.7 7.5 -6.1 13.3 -6.4 5.4 -6.8 6.8 -1.8 5.8 3.4 -0.6 3.5 -0.5 2.9 1.7 -1.2 3.9 -5.6 8.9 -9.1 10.4 -1.8 0.8 -5.5 1.4 -8.1 1.4 -2.9 0 -6.3 0.8 -8.6 2 -5.5 3 -14.1 2.7 -18.9 -0.5 -4.8 -3.2 -8.8 -3.2 -12.7 0.1 l-3.1 2.6 -5.3 -3.6 c-8.5 -5.8 -15.6 -6 -23.8 -0.7 -5.4 3.5 -7.8 4.2 -10.5 3.1z"/>
 </g>
 <g fill="#e7ade5">
  <path d="M436.6 299.2 c-0.3 -0.6 -1.5 -4 -2.7 -7.6 -3.8 -12.3 -11.2 -17.2 -15.9 -10.6 -2.7 3.9 -4.3 3.8 -9.2 -0.5 -7.8 -6.6 -14.4 -6.9 -22.2 -1 -5.6 4.3 -9.6 5 -16.6 3 -13.5 -3.8 -15.7 -4 -18 -2 -2 1.8 -2.1 1.8 -4.6 -0.6 -5.1 -4.6 -6.8 -12.3 -4 -17.7 2.5 -4.9 5.1 -6.4 12.1 -6.9 7.4 -0.6 8.4 -1.7 2.5 -2.7 -2.3 -0.4 -5.4 -1.9 -7.5 -3.7 -3.2 -2.8 -3.5 -3.6 -3.5 -8.3 0 -4.9 0.3 -5.4 4.8 -9.7 2.6 -2.5 7 -6 9.7 -7.8 4.8 -3.2 5.3 -3.3 12.5 -2.7 8.2 0.7 8.7 -0.8 0.7 -2.3 -7.5 -1.4 -10.4 -5.2 -9.2 -12.3 0.6 -3.3 1 -3.8 3.3 -3.8 l2.7 -0.1 -2.7 -2 c-2.4 -1.7 -2.8 -2.8 -2.8 -6.7 0 -5.9 1.8 -8.9 10.5 -17.6 6.4 -6.4 7.1 -6.8 10.3 -6.2 l3.5 0.5 -2.6 -2.7 c-3.2 -3.4 -5.1 -10.8 -4.4 -17.2 1.6 -13.5 14.4 -26 26.7 -26 5.5 0 6.1 0.7 2.9 3.6 -3.2 2.9 -4.9 6.8 -4.9 11.3 0 6 3.9 9.3 14.2 12.1 10.2 2.7 15.3 5.5 17.8 9.6 2.8 4.5 2.6 7.8 -0.7 10.3 l-2.8 2 3.5 -0.5 c3.2 -0.4 3.8 -0.1 6.3 3.5 1.5 2.1 2.7 4.4 2.7 4.9 0 1.6 -4.3 11.7 -5.3 12.3 -0.5 0.4 -3.6 1.2 -6.9 1.9 -9.2 2 -8.2 3.3 1.8 2.5 l8.9 -0.6 7 5.3 c9.5 7.3 11.9 10.9 11 17.1 -1 8 -4.3 15.3 -8.3 18.8 -4.1 3.5 -3.6 3.5 5.8 0.9 5.8 -1.7 11 -0.7 14.4 2.7 4.5 4.5 2.9 10.2 -4.6 16.8 -4.1 3.5 -4.1 3.7 -1.5 3.3 2.4 -0.5 2.7 -0.2 2.7 2.1 0 6.3 -8.1 14 -15.5 14.9 -4.1 0.4 -4.5 0.3 -4.5 -1.7 0 -1.5 0.6 -2.1 2 -2.1 2.8 0 7 -2.3 9.9 -5.4 l2.4 -2.6 -2.6 0 c-2.3 0 -2.7 -0.4 -2.7 -3.1 0 -2.5 1.3 -4.3 6.5 -9.4 7.1 -6.9 7.4 -8.2 2.1 -11 -3.1 -1.7 -3.6 -1.7 -8.1 -0.1 -2.7 0.9 -7.3 1.6 -10.2 1.6 l-5.3 0 0 -3.3 c0 -2.7 0.8 -3.8 4.8 -6.7 4.1 -3 5 -4.4 6.9 -10.4 2.5 -7.7 2.1 -9.8 -3.4 -14.7 -7.2 -6.5 -11.6 -8.9 -16.5 -8.9 -3.1 0 -4.8 -0.4 -4.8 -1.2 0 -0.9 -0.3 -0.9 -1.2 0 -0.7 0.7 -3.2 1.2 -5.6 1.2 l-4.3 0 0.3 -3.7 0.3 -3.7 8.1 -1.9 8.2 -1.8 1.7 -4.4 c1.6 -4.2 1.6 -4.6 -0.2 -6.9 -1.4 -1.9 -2.7 -2.5 -5.5 -2.6 -3.7 0 -3.8 -0.1 -3.8 -3.5 0 -2.5 0.6 -3.7 2.3 -4.6 1.2 -0.6 2.4 -1.3 2.6 -1.5 0.2 -0.1 -0.6 -1.6 -1.8 -3.2 -2.3 -3.3 -8.8 -6.4 -18.3 -8.8 -10.5 -2.7 -12.9 -5.2 -13.8 -14.4 l-0.5 -5.5 -3.7 5.5 c-5.2 7.7 -6.5 13.4 -5 20.8 2 9.5 1.8 9.8 -5.8 16.9 -3.9 3.6 -8.2 8.5 -9.7 11 -2.2 3.9 -2.5 5.4 -2.4 12.4 l0.2 7.9 -3.6 0 c-1.9 0 -3.5 0.4 -3.5 0.9 0 1.7 2.9 3.2 9.6 4.9 6.9 1.7 6.9 1.7 7.2 5.5 l0.3 3.7 -9.1 0 c-9.6 0 -12.5 0.9 -17.8 5.8 -1.4 1.2 -3.6 2.2 -4.8 2.2 -1.7 0 -2.4 0.6 -2.4 1.9 0 1.7 1.2 1.9 11.4 2.6 l11.5 0.7 2 6.1 c2.9 8.4 2.8 14.9 -0.3 18.2 -3.4 3.6 -4.2 8.9 -2 13.7 0.9 2.1 2 3.8 2.5 3.8 0.4 0 3 -1.6 5.9 -3.5 4.8 -3.2 5.8 -3.5 12.7 -3.5 7.3 0 11.6 1.3 15.5 4.7 1.4 1.3 1.9 1.2 3.7 -0.6 3 -3 9.7 -2.8 15.7 0.4 5.3 2.8 9.9 3.2 12.8 1 2.4 -1.8 8.6 -2 8.6 -0.2 0 0.6 -1.3 1.8 -2.9 2.5 -2.3 1 -3.6 2.9 -6.1 9.2 -3.1 7.8 -6.2 12 -7.4 10.2z"/>
 </g>
 <g fill="#f9baf5">
  <path d="M373 279 c-3.3 -6.4 -2.5 -16.1 1.6 -20.5 2.9 -3.2 3 -4.5 0.3 -12.2 l-2 -6.1 -11.4 -0.7 c-6.3 -0.4 -12.1 -0.5 -13 -0.1 -0.8 0.3 -1.5 0 -1.5 -0.6 0 -2.8 4.8 -8.2 11.3 -12.8 l7.1 -5 9.5 0 c10.8 0 11.1 -1.1 1.1 -3.4 -7.5 -1.8 -10.3 -4.3 -9.8 -9 0.3 -2.9 0.5 -3.1 4.2 -2.8 l3.9 0.4 -0.8 -6.7 c-0.6 -5.9 -0.4 -7.2 2 -12 1.7 -3.5 5.2 -7.8 10 -12.3 l7.3 -6.8 -1.5 -6.5 c-1.3 -5.7 -1.3 -7.1 0.1 -12.8 2.1 -8.5 6.6 -15.3 13.4 -20.1 5 -3.6 8.2 -4.9 8.2 -3.4 0 0.3 -1.1 2 -2.5 3.9 -4.9 6.3 -4.2 14.4 1.4 18.4 1.4 1 5.5 2.6 9.1 3.5 10.1 2.6 17.1 6.4 19.3 10.8 2.2 4.4 1.6 7 -2.1 8.9 l-2.7 1.4 4 0.3 c3.2 0.2 4.5 0.9 6.3 3.6 2.7 4 2.7 4.8 0 11.3 l-2.1 5.2 -7.6 1.7 c-11.4 2.5 -11.3 3.7 0.2 3.2 l9.9 -0.5 5.1 3.5 c13.9 9.4 15.8 13.9 11.4 27.2 -1.9 5.5 -2.9 7 -7 10 -4 2.9 -4.4 3.6 -2.7 3.8 1.2 0.2 4.2 -0.4 6.7 -1.2 6 -2.1 12.2 -2 15.3 0.1 3.4 2.3 4 3.3 4 7.2 0 2.8 -1 4.3 -6.6 9.8 l-6.7 6.4 4.2 -0.7 4.2 -0.7 -1.6 3.9 c-3.2 7.6 -8 11 -17.2 12 -3.2 0.3 -6.8 1.3 -8 2 -3.8 2.4 -13.3 1.8 -18.8 -1.2 -5.6 -2.9 -8.5 -2.6 -10.9 1.1 -2 3.1 -4.7 3.2 -7.2 0.4 -3 -3.4 -9 -5.9 -13.7 -5.9 -3.5 0 -5.7 0.8 -10.5 4 -7.8 5.2 -10.5 5.2 -13.2 0z"/>
 </g>
</svg>