<?xml version="1.0" encoding="utf-8"?>
<!DOCTYPE svg PUBLIC "-//W3C//DTD SVG 1.0//EN" "http://www.w3.org/TR/2001/REC-SVG-20010904/DTD/svg10.dtd">
<svg version="1.0" xmlns="http://www.w3.org/2000/svg" width="500px" height="500px" viewBox="0 0 500 500" preserveAspectRatio="xMidYMid meet">
 <g fill="#182626">
  <path d="M401.7 450.8 c-0.8 -1.3 -2.4 -5.2 -3.5 -8.8 -4.6 -14.2 -8.1 -25.9 -10.2 -33.5 -1.2 -4.4 -2.8 -10 -3.6 -12.5 -0.7 -2.5 -3 -9.9 -5 -16.5 -4.9 -16.5 -9.2 -30.9 -11.4 -38 -1.1 -3.3 -3.2 -10.7 -4.9 -16.5 -1.6 -5.8 -4 -14.1 -5.4 -18.5 -1.4 -4.4 -2.7 -9.1 -3.1 -10.5 -0.3 -1.7 -2 -3.3 -5.1 -4.9 -8.2 -4.3 -13.3 -14 -12.1 -22.8 0.6 -4.7 3.6 -11.2 6 -13.2 1.4 -1.2 1.4 -1.7 0.1 -4.8 -2.1 -4.9 -1.9 -10.7 0.5 -15.2 2.1 -4.2 9.3 -11 14.9 -14.2 l3.6 -2 0.1 -14.2 c0 -17.3 1 -19.8 11.7 -30 l7.1 -6.7 0 -10.3 c0.1 -9 0.4 -10.9 2.9 -16.2 3.2 -6.8 10.5 -14.2 17.1 -17.5 12.6 -6 30.1 -3.4 30.1 4.5 0 2.3 -0.8 3.4 -4.5 5.5 -5.4 3.2 -8 7.1 -6.4 9.7 0.6 1 5.1 3.2 10 4.8 4.9 1.7 10.3 3.8 12 4.7 6.2 3.4 11.4 11.5 11.4 18.1 0 0.9 1.4 3.6 3 5.9 3.5 4.7 3.9 9.4 1.4 15.4 l-1.6 3.9 3.3 2.5 c1.9 1.4 5.9 5 9.1 8.1 7.5 7.6 8.4 11.8 5.3 25.5 -0.6 2.9 -0.5 3.2 2.4 3.7 1.7 0.4 4 1.6 5.1 2.7 1.1 1.1 2 1.7 2 1.3 0.1 -0.5 1 1.7 2 4.7 2.4 6.5 2.6 11.8 0.5 14.7 -0.8 1.1 -1.7 4 -2.1 6.4 -0.4 2.4 -1.1 5.3 -1.7 6.4 -2.1 4.2 -8.2 10.8 -12.4 13.4 -4.3 2.7 -4.7 3.4 -7.8 12.7 -1.8 5.5 -9.7 28.6 -17.4 51.4 -7.8 22.8 -15.7 46.2 -17.6 52 -7.6 23.9 -15.9 47.6 -17.3 49.3 -2.2 2.5 -6.8 2.2 -8.5 -0.5z m18 -55.8 c26.6 -78.3 31.3 -92.4 30.9 -92.7 -0.2 -0.2 -0.9 1 -1.6 2.7 -1.9 4.6 -5.6 7 -10.6 7 -5.2 0 -6.3 -1.3 -8.9 -11 -0.9 -3.6 -2.1 -7.3 -2.7 -8.3 -0.9 -1.7 -1 -1.7 -3.5 0.3 -1.8 1.4 -4.1 2 -7.4 2 -4.3 0 -5.4 -0.5 -9.9 -4.5 -2.8 -2.5 -5.6 -4.5 -6.3 -4.5 -1.1 0 -3.5 1.4 -8.9 5.2 -3.6 2.6 -13.1 3.3 -20.8 1.5 -3.6 -0.9 -6.6 -1.4 -6.7 -1.3 -0.1 0.1 1.3 5.1 3.1 11.2 1.9 6 4.8 15.9 6.6 21.9 1.7 6.1 4.7 15.7 6.5 21.5 4.5 14.1 17.2 56.5 20.1 66.9 3.7 13.4 6.7 21.7 7.2 20.1 0.3 -0.8 6.1 -17.9 12.9 -38z m24.3 -105.3 l3.5 -7.2 6.6 -0.7 c7.9 -0.7 11.5 -2.4 15.9 -7.5 2.8 -3.1 3.1 -3.9 1.7 -4.1 -1.2 -0.2 -1.7 -1.3 -1.7 -3.4 0 -2.4 1.2 -4.4 5 -8.4 2.8 -2.9 5 -5.7 5 -6.3 0 -0.5 -1.4 -2.1 -3.1 -3.6 -3.1 -2.5 -3.5 -2.6 -11 -1.9 l-7.9 0.7 0 -3.3 c0 -2 1 -4.3 2.5 -6.2 1.3 -1.6 3.4 -5.8 4.5 -9.4 2.4 -7.9 1.7 -10 -5.7 -16.1 -9.1 -7.4 -11.4 -8.7 -15.5 -8.4 -3.8 0.2 -3.8 0.2 -3.8 -3.4 0 -3.1 0.4 -3.8 2.8 -4.6 1.9 -0.6 3.6 -2.5 5.1 -5.5 l2.2 -4.6 -2.6 -3.4 c-1.4 -1.9 -3.1 -3.4 -3.6 -3.4 -0.7 0 -1 -1.9 -0.8 -4.7 0.6 -8.4 -3.6 -12.2 -18.4 -16.7 -5.3 -1.6 -9.4 -3.5 -11.1 -5.2 -2.3 -2.4 -2.6 -3.4 -2.6 -10.1 0 -5 0.5 -8.1 1.6 -9.8 l1.6 -2.4 -3.3 0.9 c-8.1 2.4 -16.7 11.4 -19.4 20.6 -1.3 4.2 -1.4 6 -0.4 9.8 0.6 2.5 1.7 5.1 2.5 5.7 0.8 0.6 1.4 2.7 1.4 4.5 0 3.1 -0.3 3.4 -2.9 3.4 -3.6 0 -16.3 11.9 -18.6 17.4 -1.5 3.4 -1.5 4 -0.1 6.2 1.8 2.6 2.1 8.4 0.6 8.4 -2 0 -2.8 4.4 -1.3 7.3 1 1.9 2.6 3.1 5.8 3.9 4.2 1.1 4.5 1.4 4.5 4.5 l0 3.4 -6 -0.2 c-5.4 -0.2 -6.4 0.2 -12.5 4.1 -6.9 4.5 -12.5 10.1 -12.5 12.6 0 3.2 3 7.1 6.9 8.9 3.6 1.6 4.1 2.2 4.1 5.2 0 3.1 -0.2 3.3 -3.7 3.3 -4.7 0.1 -7.8 1.8 -10.4 5.6 -2.4 3.7 -2.4 5.5 0.1 10.4 2 3.9 2 3.9 6.8 3.3 3.6 -0.4 6.8 0.1 13 2.1 4.6 1.4 9.2 2.6 10.3 2.6 1.1 0 4.2 -1.6 7 -3.5 4.7 -3.2 5.7 -3.5 12.6 -3.5 7.9 0 12.5 1.6 15.5 5.3 l1.7 2.2 2.5 -2.8 c2.7 -2.9 7.2 -3.6 11.9 -1.8 3.2 1.2 6.4 6.5 7.9 12.9 0.6 2.9 1.4 4.9 1.7 4.6 0.3 -0.2 2.2 -3.7 4.1 -7.7z"/>
  <path d="M90.7 450.8 c-0.9 -0.7 -2.8 -4.2 -4.3 -7.8 -2.4 -6.2 -4.1 -11.7 -11.3 -36 -3.7 -12.6 -8 -26.5 -15.4 -50 -3 -9.6 -6.5 -21.1 -7.7 -25.5 -1.2 -4.4 -4.6 -15.6 -7.5 -25 -3 -9.3 -5.7 -18 -6 -19.3 -0.4 -1.2 -2.4 -3.1 -4.5 -4.2 -5 -2.5 -10.8 -9.4 -12.1 -14.4 -1.8 -6.6 0.4 -14.9 5.3 -20.2 1.9 -2.1 1.9 -2.4 0.3 -7 -0.9 -2.8 -1.4 -6.2 -1.1 -8 1.1 -5.5 6 -11.7 12.9 -16.4 l6.6 -4.5 0.2 -7 c0.1 -3.8 0.3 -9.7 0.3 -13 0.2 -8.4 3.3 -14.1 11.7 -21.8 l6.9 -6.4 -0.7 -6.6 c-1.1 -11.9 3.1 -21.6 12.8 -29.5 6.9 -5.6 14.6 -8.4 23.1 -8.3 9 0.1 14.2 2.4 14.6 6.6 0.3 2.7 -0.2 3.4 -3.6 5.2 -5.1 3 -7.4 5.7 -7 8.4 0.3 2 1.5 2.7 9.1 4.6 15.6 4 22.4 9.2 24.5 19 0.6 2.3 2.2 5.6 3.6 7.3 3.7 4.4 4.2 7.6 2.3 13.1 -1 2.6 -1.7 4.9 -1.7 5.2 0 0.3 2.3 1.9 5 3.6 2.8 1.7 7.1 5.1 9.5 7.5 6.3 6.4 7.5 11.7 5 23.2 -0.6 2.8 -0.4 3.2 2.2 3.7 1.5 0.3 4.3 1.6 6.2 2.9 8.4 5.7 10.1 12.9 5.2 22.2 -1.7 3.2 -3.1 6.8 -3.1 8.1 0 4.1 -9.4 15.2 -14.9 17.5 -2.8 1.1 -3.4 2.2 -6.7 12.9 -4.4 14.2 -15.6 49.3 -23.4 73.6 -3.2 9.9 -7.5 23.4 -9.5 30 -5.6 18.5 -15.4 48.6 -17.2 52.7 -1.9 4.5 -6.2 6.1 -9.6 3.6z m11.6 -43.3 c3 -9.3 7.2 -22.4 9.3 -29 2 -6.6 5.9 -18.5 8.5 -26.5 2.6 -8 7.3 -22.6 10.4 -32.5 3.1 -9.9 7 -21.7 8.6 -26.3 1.6 -4.6 2.9 -8.7 2.9 -9 0 -0.4 -1.8 2.9 -3.9 7.4 -4.4 9.3 -6.8 11.4 -12.8 11.4 -4.9 0 -6 -1.3 -8.8 -10 -1 -3 -2.4 -6.8 -3.2 -8.3 l-1.4 -2.8 -2.6 2.1 c-1.8 1.4 -4.1 2 -7.3 2 -4.6 0 -6.8 -1.1 -12.4 -6.2 -3.6 -3.3 -5.5 -3.2 -11.1 0.7 -4 2.7 -6.7 3.8 -10.9 4.2 -4.8 0.5 -15 -0.8 -19.1 -2.3 -1.2 -0.5 3.8 16.7 16.5 56.6 2.7 8.5 6.5 20.9 8.5 27.5 2 6.6 5.8 19 8.5 27.5 2.7 8.5 6.4 20.2 8.1 26 1.8 5.8 3.4 10.9 3.7 11.5 0.3 0.5 1.1 -0.9 1.8 -3 0.7 -2.2 3.7 -11.6 6.7 -21z m27.7 -125.2 c3.3 -8.4 4.6 -9.4 12.9 -10.3 8.1 -0.9 13.5 -3.8 16.4 -8.9 1.6 -2.7 1.6 -3.1 0.3 -3.1 -1.1 0 -1.6 -1 -1.6 -3.1 0 -2.4 1.1 -4.4 4.6 -8.1 2.5 -2.7 4.4 -5.4 4.1 -6.1 -0.8 -2.6 -7.1 -5.9 -10.2 -5.3 -1.6 0.3 -5.6 0.9 -8.7 1.2 l-5.8 0.7 0 -3.2 c0 -2.4 0.9 -4.1 3.4 -6.4 2.3 -2.2 4 -5.1 5.1 -9.1 1.6 -5.4 1.6 -6.2 0.2 -9.2 -1 -2 -4.6 -5.4 -9.4 -8.8 -7 -5 -8.3 -5.5 -13 -5.6 l-5.3 0 0 -3.4 c0 -3.1 0.4 -3.6 3.5 -4.6 2.6 -0.8 4.1 -2.3 5.6 -5.1 l2 -4 -2.3 -2.9 c-1.3 -1.6 -3.1 -3.2 -4.2 -3.6 -1.5 -0.5 -1.8 -1.4 -1.3 -5 0.4 -3.6 0 -4.8 -1.8 -6.8 -3.1 -3.3 -7.3 -5.4 -14.9 -7.1 -13.8 -3.2 -15.6 -4.8 -15.6 -14.1 0 -3.6 0.5 -7.4 1.1 -8.6 1 -1.8 0.8 -1.9 -1.3 -1.3 -6.9 2.1 -15.5 10.6 -18.4 18.2 -1.7 4.5 -1.7 4.8 0.4 10.9 2.9 8.2 2.9 11.4 0.1 11.4 -2.6 0 -16.2 13 -18 17.2 -0.9 2.3 -1 3.5 -0.1 4.9 1.4 2.2 1.6 8.9 0.3 8.9 -1.6 0 -2.3 3.8 -1.2 5.9 0.6 1.1 2 2.3 3.2 2.6 1.6 0.5 2 1.4 1.7 4.3 -0.3 3.2 -0.7 3.7 -3.5 4.3 -4.1 0.8 -15.5 8.2 -18.8 12.1 -1.4 1.6 -2.5 3.8 -2.5 4.7 0 2.9 3.7 6.8 7.5 8.1 3.1 1 3.5 1.6 3.5 4.4 0 3.2 -0.2 3.4 -4.9 4 -9 1.2 -13.9 9.8 -9 16 1.8 2.3 2.7 2.6 8.3 2.6 3.7 0 8.7 0.8 12.1 2 8.1 2.8 11.5 2.6 16 -1 4.8 -3.8 6.8 -4.3 15.9 -3.8 6.5 0.3 7.9 0.7 11.3 3.4 l3.9 3.2 2.7 -2.4 c3.5 -3 8.9 -3.2 13.3 -0.5 3.1 1.9 6.6 8 7.9 13.9 0.9 4.2 1.8 3.5 4.5 -3.5z"/>
  <path d="M248.7 448.3 c-1.5 -1.6 -15 -41.5 -29.7 -88.3 -3.4 -10.7 -6.8 -21.1 -7.6 -23 -0.7 -1.9 -2.7 -8 -4.3 -13.5 -1.6 -5.5 -4.6 -15.1 -6.7 -21.3 -3.5 -10.5 -4.1 -11.5 -7.4 -13.2 -4.5 -2.3 -10.6 -8.6 -12 -12.5 -2.8 -7.4 -1 -17.5 4.1 -23.1 1.8 -1.9 1.8 -2.3 0.4 -5.7 -2.4 -5.8 -1.9 -11.6 1.3 -16.8 2.7 -4.2 8.4 -9.5 14.1 -13 2.5 -1.5 2.5 -1.6 2.6 -16 0.1 -17.2 1 -19.5 11.6 -30.4 l6.7 -7 -0.5 -8.6 c-0.7 -10 0.9 -16 6 -23.2 7.4 -10.3 17.9 -16.1 29.2 -16.1 6.8 0 13.9 3 15 6.4 0.8 2.6 0.1 3.6 -4.6 6.5 -8.3 5.3 -9.1 11.6 -1.6 13.6 11.7 3.1 18.8 6.2 22.6 9.9 3.7 3.6 6.1 8.8 6.1 13.2 0 1 1.6 3.8 3.5 6.4 4 5.3 4.4 8.8 1.6 15.1 l-1.9 4.1 5.7 4 c9 6.4 13.8 12.2 14.6 17.6 0.4 2.6 0.4 6.4 0 8.4 -1.8 9.4 -1.8 9.2 -0.1 9.2 3.3 0 9.6 4.1 12.1 7.7 3.2 4.8 3.3 10.3 0.1 16.9 -1.4 2.7 -2.9 6.7 -3.5 9 -1.5 5.5 -7.2 12.9 -12.8 16.3 -4.4 2.8 -4.7 3.3 -8 13.2 -1.8 5.7 -4.5 14.2 -5.9 18.9 -1.4 4.7 -4.5 14.6 -6.9 22 -2.3 7.4 -8.9 28.4 -14.5 46.5 -16.2 52.5 -20.9 66.4 -23 67.5 -2.7 1.4 -4.3 1.2 -6.3 -0.7z m7.8 -30.8 c2.1 -6.6 4.8 -15.1 6 -19 3.1 -9.5 6.6 -20.4 11.5 -36.5 2.3 -7.4 5 -16 6.1 -19 1 -3 3.9 -12.2 6.4 -20.5 2.6 -8.2 5.3 -16.7 6.1 -18.8 2 -5.4 1.7 -6.8 -0.6 -2.5 -2.5 4.7 -5.6 6.8 -9.9 6.8 -4.8 0 -6.8 -2.2 -9.2 -10.4 -1.2 -3.9 -2.5 -7.9 -3.1 -8.9 -0.9 -1.7 -1 -1.7 -3.5 0.3 -1.8 1.4 -4.1 2 -7.7 2 -4.5 0 -5.6 -0.4 -8.2 -3.1 -1.6 -1.7 -4.1 -3.7 -5.5 -4.5 -2.4 -1.2 -3 -1.1 -6 1.1 -8.9 6.4 -15 7.6 -26.2 5.2 -6.2 -1.4 -6.8 -1.3 -6.2 0.1 0.3 0.9 3.5 10.9 7.1 22.2 3.5 11.3 8.4 26.4 10.8 33.5 2.5 7.2 6.8 20.4 9.6 29.5 2.9 9.1 6.4 20.1 8 24.5 1.5 4.4 4.5 13.4 6.5 20 2.1 6.6 3.9 11.6 4.1 11 0.1 -0.5 1.9 -6.4 3.9 -13z m32.2 -136.5 c1.5 -2.9 2.4 -3.5 5.3 -3.8 10.2 -0.7 17.5 -4.4 20.5 -10.3 1.4 -2.6 1.4 -2.9 0 -2.9 -1 0 -1.5 -1 -1.5 -3.1 0 -2.4 1.1 -4.4 4.5 -8 2.5 -2.6 4.5 -5.2 4.5 -5.8 0 -0.5 -1.4 -2.1 -3.2 -3.6 -2.5 -2.1 -3.8 -2.5 -6.2 -2.1 -1.7 0.3 -5.7 0.9 -8.8 1.2 l-5.8 0.7 0 -3.6 c0 -2.7 0.6 -3.9 2.1 -4.8 2.3 -1.2 6.4 -9.5 7.4 -14.9 0.8 -5 -1.9 -8.8 -10.6 -14.9 -7 -4.9 -7.4 -5.1 -14.1 -5.1 l-6.8 0 0 -3.4 c0 -3.3 0.2 -3.5 5 -4.6 4.4 -1 5.3 -1.8 7 -5.1 2.5 -4.8 2.5 -5.4 -0.1 -9 -1.3 -1.8 -2.9 -2.9 -4.5 -2.9 -2 0 -2.4 -0.5 -2.4 -3.1 0 -1.8 0.7 -3.7 1.7 -4.4 1.6 -1.2 1.6 -1.4 0 -3.9 -2.7 -4.1 -8.5 -7.3 -18.1 -10 -11.7 -3.2 -13.9 -5.3 -14.4 -13.9 -0.3 -4.6 0 -7.3 1.2 -9.5 2.1 -4.1 0.6 -4.2 -5.5 -0.4 -8.8 5.6 -14.8 15 -14.9 23 0 5 2.2 11 4.5 11.8 0.9 0.4 1.5 1.9 1.5 4 0 3.2 -0.2 3.4 -3.4 3.4 -2.8 0 -4.4 1.1 -10.1 6.8 -3.7 3.7 -7.6 8.5 -8.6 10.7 l-1.8 4 2.4 2.6 c3.3 3.4 3.5 8.6 0.3 9.1 -5.3 0.7 -2.2 8 4.2 9.9 3.6 1.1 4 1.5 4 4.6 l0 3.3 -5.3 0 c-4.3 0 -6.3 0.6 -10.3 3.2 -5.5 3.5 -12.1 9.4 -13.5 12.1 -1.7 3.1 1.6 8.3 6.7 10.4 4.2 1.7 4.5 2 4.2 5.3 -0.3 3.4 -0.4 3.5 -5.2 4.1 -3.8 0.4 -5.5 1.2 -7.7 3.7 -3.4 3.8 -3.7 7.4 -0.9 11.9 1.8 3.1 2.2 3.2 6.3 2.7 3.2 -0.5 6.9 0.1 13.5 2.1 9.9 2.9 12.2 2.7 16.2 -1 3.6 -3.4 7.2 -4.5 14.6 -4.5 7 0 9.4 0.8 13.5 4.6 l2.5 2.4 2.4 -2.5 c1.9 -2 3.3 -2.5 7.3 -2.5 7.2 0 9.8 3 14.4 17 0.3 0.9 1.2 -0.2 2.4 -3 1 -2.5 2.6 -6.1 3.6 -8z"/>
 </g>
 <g fill="#a0634c">
  <path d="M404 440.8 c-0.6 -2.4 -2 -7.1 -3.1 -10.4 -1.1 -3.4 -3 -9.9 -4.3 -14.5 -2.9 -10.4 -15.6 -52.8 -20.1 -66.9 -1.8 -5.8 -4.8 -15.4 -6.5 -21.5 -1.8 -6 -5.2 -17.4 -7.6 -25.1 -4.9 -15.9 -5.3 -17.9 -2.6 -16.9 13.7 5.3 23 6.3 27.7 2.9 8.7 -6.1 11.5 -7 11.5 -3.4 0 1.2 -0.7 2 -1.6 2 -0.9 0 -2.5 1.1 -3.6 2.5 -3.2 4.2 -13.8 5.7 -24.8 3.5 -2.5 -0.4 -4.7 -0.7 -4.9 -0.5 -0.2 0.2 1.3 5.5 3.2 11.7 2 6.2 4.7 15.1 6 19.8 1.4 4.7 4.6 15.3 7.1 23.5 8.7 28.3 16.8 55 19.7 65.5 1.6 5.8 3.7 12.7 4.6 15.4 l1.6 5 9.2 -27.5 c5.1 -15.1 11.6 -34.4 14.5 -42.9 2.9 -8.5 7.7 -22.7 10.7 -31.5 3 -8.8 5.9 -17.5 6.3 -19.2 0.8 -3.2 0.7 -3.2 -1.3 -1.8 -3 2.1 -12.7 2.1 -12.7 0 0 -0.8 -0.4 -1.5 -0.9 -1.5 -0.5 0 -1.5 -2.4 -2.1 -5.2 -0.7 -2.9 -1.9 -6.8 -2.6 -8.6 -1.3 -3.2 -1.4 -3.3 -3.6 -1.8 -2.5 1.8 -13.8 2.3 -13.8 0.6 0 -0.5 -0.6 -1 -1.3 -1 -0.6 0 -2.5 -1.3 -4 -3 -1.6 -1.6 -3.3 -3 -3.8 -3 -0.5 0 -0.9 -0.9 -0.9 -2 0 -3.3 3.5 -2.4 9 2.5 2.8 2.5 6 4.5 7 4.5 1.1 0 3.7 -1.6 5.8 -3.5 l3.9 -3.5 2.2 2.4 c1.3 1.3 3.4 6.2 4.7 10.7 1.3 4.6 3.1 9 3.9 9.9 2.8 2.8 6.5 -0.5 11.5 -10.4 3 -5.8 5.3 -9.2 6.8 -9.7 3 -1.1 5.5 -0.1 4.7 2 -0.4 0.9 -6 17.4 -12.6 36.6 -6.5 19.3 -18.1 53.6 -25.8 76.4 -7.8 22.8 -14.1 41.6 -14.1 41.8 0 0.2 -0.4 0.3 -1 0.3 -0.5 0 -1.4 -1.9 -2 -4.2z"/>
  <path d="M88.5 427.3 c-2.5 -8.1 -6.8 -21.8 -9.5 -30.3 -2.7 -8.5 -6.5 -20.9 -8.5 -27.5 -2 -6.6 -5.8 -19 -8.5 -27.5 -10.1 -31.9 -19.2 -61.5 -19.4 -63 -0.1 -1.9 1.9 -1.8 11.9 0.9 10 2.7 14.5 2.2 21 -2.4 6.7 -4.8 14.2 -4.6 18.5 0.5 1.7 2 6.6 5 8.1 5 1 0 3.4 -1.3 5.2 -3 1.9 -1.6 3.9 -3 4.4 -3 2.1 0 4.7 4.3 7.7 12.6 1.7 4.8 3.8 9.2 4.7 9.7 3.1 1.9 6.8 -1.8 11.1 -10.9 4 -8.6 6.7 -11.1 10.3 -9.8 2 0.8 2 0.7 -2.4 14.3 -2.2 6.5 -6.5 19.9 -9.6 29.7 -3.1 9.9 -7.8 24.4 -10.4 32.4 -2.6 8 -6.5 19.9 -8.5 26.5 -2.1 6.6 -6.3 19.7 -9.3 29 -3 9.4 -6.5 20.1 -7.7 23.9 -1.2 3.9 -2.7 7.1 -3.3 7.3 -0.7 0.3 -3 -5.5 -5.8 -14.4z m7.4 -3.5 c0.1 -1.5 0.5 -2.9 1 -3.2 0.5 -0.3 1.8 -4.3 3 -8.8 1.2 -4.6 2.8 -9.4 3.5 -10.8 0.7 -1.4 2.1 -5.4 3.1 -9 1 -3.6 4.7 -15.3 8.2 -26 3.5 -10.7 8 -24.7 10 -31 2 -6.3 5 -15.5 6.6 -20.5 1.6 -4.9 3.3 -10.4 3.7 -12.1 l0.7 -3.2 -3.5 2.4 c-4.2 2.9 -9.5 3.1 -12.1 0.5 -1 -1 -2.7 -4.3 -3.6 -7.2 -1 -3 -2.4 -6.9 -3.2 -8.6 l-1.3 -3.3 -3.3 2 c-6.4 3.9 -11.6 2.7 -19.6 -4.8 -3.3 -3.1 -8.1 -2.5 -11.5 1.5 l-2.4 2.8 -13.1 -0.1 c-7.2 0 -13.1 0.3 -13.1 0.6 0 0.3 1.2 3.9 2.6 8 2.7 8 4.4 13.7 7.4 24 1 3.6 3.9 12.8 6.5 20.5 2.6 7.7 5.1 16 5.6 18.5 0.5 2.5 1.6 6.3 2.4 8.5 0.8 2.2 2.8 8.7 4.5 14.5 1.7 5.8 4.2 13.2 5.5 16.5 1.3 3.3 2.6 7.6 3 9.5 0.5 2.9 2.1 8.2 7.2 24 0.7 2 2.1 -1.4 2.2 -5.2z"/>
  <path d="M251.1 439.8 c-0.5 -1.3 -2.8 -8.4 -5.1 -15.8 -2.3 -7.4 -5.5 -17.1 -7 -21.5 -1.6 -4.4 -5.2 -15.4 -8 -24.5 -2.9 -9.1 -7.6 -23.7 -10.5 -32.5 -12 -36.1 -19.8 -61.5 -19.1 -62.2 0.3 -0.4 3 0.1 5.9 1 13.3 4.3 19.6 4.2 25.4 -0.7 7.8 -6.5 13.7 -6.1 20.7 1.3 3.8 4 6.7 3.9 11.4 -0.4 l3.8 -3.4 2.3 2.2 c1.2 1.2 3.3 5.9 4.7 10.3 1.3 4.5 3.3 8.9 4.4 9.9 1.8 1.7 2.1 1.7 4.6 0.1 1.5 -1.1 4 -4.8 6.1 -9.4 4.9 -10.9 4.8 -10.7 7.2 -11 3.8 -0.6 5.2 0.4 4.1 3 -0.5 1.3 -3.2 9.7 -6 18.8 -2.8 9.1 -5.7 18.3 -6.5 20.5 -0.7 2.2 -3.4 10.8 -6 19 -2.5 8.3 -5 16.1 -5.5 17.5 -0.5 1.4 -3 9.3 -5.5 17.5 -5.2 16.7 -10.7 34.2 -13.5 42.5 -1 3 -2.7 8.8 -3.9 12.8 -1.2 3.9 -2.4 7.2 -2.7 7.2 -0.2 0 -0.8 -1 -1.3 -2.2z m10.4 -39.3 c2 -6.6 5 -16 6.5 -21 1.6 -4.9 6.1 -19.1 10 -31.5 3.9 -12.4 8.7 -27.4 10.6 -33.4 1.9 -6 3.2 -11.1 2.9 -11.4 -0.3 -0.3 -0.5 0 -0.5 0.6 0 0.7 -0.9 1.2 -2 1.2 -1.1 0 -2 0.7 -2 1.5 0 1.1 -1.2 1.5 -5 1.5 -5.8 0 -6.8 -1.1 -9.5 -10.5 -2.7 -9.6 -2.9 -9.8 -6.8 -7.5 -1.9 1.2 -5 2 -7.6 2 -3.8 0 -5 -0.6 -9.2 -4.5 -3.1 -2.9 -5.7 -4.5 -7.4 -4.5 -1.4 0 -2.5 0.5 -2.5 1 0 0.6 -0.9 1 -2 1 -1.3 0 -2 0.7 -2 2 0 3.1 -6.7 4.4 -18.3 3.6 l-9.9 -0.7 0.7 2.3 c0.4 1.3 2 5.9 3.6 10.3 1.6 4.3 3.9 11.3 5 15.5 1.2 4.1 2.5 8 2.9 8.5 0.4 0.6 1 2.7 1.4 4.8 0.4 2.1 2.7 9.1 5.2 15.6 2.4 6.5 4.4 12.5 4.4 13.2 0 0.8 2.9 10.2 6.5 20.9 3.6 10.7 7.7 23.3 9 28 1.4 4.7 3.2 10.5 4.1 13 0.9 2.5 1.8 5.2 2 6 0.5 1.5 3.5 -6.9 9.9 -27.5z"/>
  <path d="M437.6 304.2 c-0.2 -0.4 -1.2 -3.6 -2.1 -7.2 -1.6 -6.4 -5.7 -14 -7.4 -14 -0.5 0 -1.6 -0.3 -2.4 -0.6 -0.9 -0.3 -2.9 0.9 -5.1 3 -1.9 2 -4 3.6 -4.5 3.6 -0.5 0 -2.2 -1.3 -3.8 -2.9 -7.3 -7.3 -15.2 -8.1 -23.3 -2.5 -6.6 4.5 -11 4.7 -22.8 0.9 -7.9 -2.5 -8.5 -2.6 -10.9 -1 -2.2 1.5 -2.9 1.5 -5 0.4 -5.8 -3.1 -8.3 -15.4 -4.4 -21.3 2.6 -3.9 5.7 -5.5 10.6 -5.6 l4 -0.1 -4.4 -2.3 c-5.3 -2.8 -7 -5.6 -7.1 -11.8 0 -3.9 0.6 -5.4 3 -8.1 4.5 -5.1 15.2 -11.8 20.1 -12.4 l4.1 -0.6 -2.9 -1.2 c-1.7 -0.7 -3.5 -2.6 -4.3 -4.4 -1.5 -3.7 -0.7 -10.2 1.4 -11.5 1.2 -0.8 1.2 -1.3 -0.1 -3.3 -2.2 -3.4 -1.2 -10.4 2.3 -15.5 1.6 -2.2 5.7 -6.5 9.2 -9.5 5 -4.2 6.9 -5.2 8.5 -4.7 2.1 0.6 2.1 0.6 0.4 -1.3 -0.9 -1.1 -2.3 -4.5 -2.9 -7.7 -3.7 -17.3 10.8 -35.7 28.2 -36 6.9 -0.1 7.2 0.8 2.4 5.8 -4 4.2 -4.4 5.1 -4.4 9.5 0 6.7 2.9 9.4 13.7 12.7 14.6 4.4 19.8 9.1 19.1 16.7 -0.3 3.4 0 4.5 1.7 5.9 1.1 0.9 2.9 3.2 3.9 5 1.9 3.4 1.9 3.5 -0.9 9.6 -2.1 4.6 -3.4 6.3 -5.6 7.1 -3.9 1.3 -3.6 1.7 0.9 1.4 3.2 -0.3 4.7 0.4 11.2 5.5 8.6 6.7 12 11.1 12 15.7 0 5 -3.8 16.1 -6.6 19.5 -2.9 3.3 -2.6 3.5 3 1.9 5 -1.4 9.8 -0.4 13.6 2.7 2.4 2.1 3 3.4 3 6.5 0 3.4 -0.7 4.8 -5 9.3 -4.5 4.7 -4.7 5.3 -2.5 4.8 2.9 -0.5 3.1 0.4 0.9 5.6 -3.3 8 -9.3 12.1 -19.3 13 l-6.6 0.7 -4 8.2 c-5.1 10.3 -7.3 13 -8.9 10.5z m9.8 -22.7 c1.1 -0.9 4.1 -1.5 7 -1.5 5.3 0 12.1 -2.7 15.1 -6 1.8 -1.9 1.7 -2 -0.8 -2 -2.4 0 -2.7 -0.4 -2.7 -3.1 0 -2.6 1.2 -4.3 6.8 -9.6 l6.7 -6.4 -3.4 -3 c-2.8 -2.6 -3.9 -3 -6.5 -2.4 -8.8 2 -11.4 2.4 -14.8 2.5 -3.7 0 -3.8 -0.1 -3.7 -3.7 0 -3.4 0.5 -4.1 4.7 -6.8 4 -2.5 5 -3.9 6.9 -9 1.2 -3.3 2.2 -7 2.2 -8.2 0.1 -2.9 -3.9 -7.5 -11.4 -12.8 l-6.3 -4.5 -9.1 0 -9.1 0 0 -3.9 0 -3.9 6.8 -1.2 c7.3 -1.4 9.4 -2.7 11.2 -7 1 -2.5 0.9 -3.3 -1 -6 -1.5 -2.2 -2.9 -3 -5.1 -3 -2.6 0 -2.9 -0.3 -2.9 -3.4 0 -2.3 0.7 -3.8 2.2 -4.8 2 -1.3 2 -1.5 0.4 -4 -1.8 -2.8 -9 -6.9 -15.1 -8.7 -13.5 -4 -16.5 -6.8 -16.5 -15.6 0 -4.7 -0.1 -4.8 -1.9 -3.1 -3 2.7 -8.1 13 -8.2 16.7 0 1.9 0.2 6.8 0.6 10.9 l0.8 7.6 -4.3 2.9 c-4.8 3.3 -11.5 10.6 -13.8 15 -1.1 2.1 -1.5 5.3 -1.3 10.8 l0.2 7.7 -3.6 0 c-2.9 0 -3.6 0.3 -3.3 1.8 0.3 1.7 3.7 3.1 12.6 5.2 3.9 1 4.2 1.3 4.2 4.5 l0 3.5 -9.5 0 -9.6 0 -6.8 4.5 c-9.7 6.4 -10.4 7.5 -5.2 7.5 6.2 0 18 2.1 19 3.4 1.7 2.2 4.1 11.1 4.1 15.1 0 3.1 -0.6 4.7 -2.5 6.5 -3.8 3.6 -4.9 8.9 -2.9 13.9 1.8 4.6 3 5 6.5 2.2 4.9 -3.7 8.8 -5.1 14.9 -5.1 6.7 0 11.7 1.7 15 5 l2.2 2.2 2.2 -2.1 c3.3 -3.1 10.6 -2.9 15.4 0.4 4.2 2.9 10.5 3.3 13.6 1z"/>
  <path d="M281.2 299.3 c-0.5 -1 -1.7 -4.3 -2.6 -7.4 -2 -7 -5.4 -12.1 -8.9 -13.3 -2.4 -0.9 -3.2 -0.6 -6.7 2.9 l-3.9 3.8 -3.7 -2.9 c-6.5 -5.2 -8.8 -6.4 -12.6 -6.4 -4.8 0 -8.7 1.5 -12 4.7 -4.1 3.9 -11 4.1 -21.8 0.8 -8.4 -2.5 -8.5 -2.5 -11 -0.6 -2.6 1.8 -2.6 1.8 -5.3 -0.1 -3.8 -2.8 -5.9 -7.3 -6 -12.9 -0.1 -7.6 4.6 -12.8 11.7 -13.1 5.1 -0.2 5.2 -1 0.1 -3.1 -4.9 -2.1 -7.5 -6.2 -7.5 -12.1 0 -8.5 18.6 -21.8 28 -20 1.4 0.2 0.7 -0.3 -1.5 -1.1 -2.2 -0.8 -4.8 -2.5 -5.7 -3.6 -2.5 -2.9 -2.3 -5.9 0.2 -5.9 1.1 0 2 0.4 2 0.9 0 1.9 3.3 4.1 7.6 5.2 4.1 1.1 4.4 1.4 4.4 4.5 l0 3.4 -6.6 0 c-4.5 0 -7 0.5 -8 1.5 -0.9 0.8 -2.4 1.5 -3.5 1.5 -1 0 -1.9 0.5 -1.9 1.1 0 1.9 -3.3 3.8 -6.6 3.9 -3 0 -3.1 0.2 -3.8 5.4 -0.9 8.2 0.2 10.3 7.2 12.5 4 1.3 4.2 1.6 4.2 5.3 0 3.7 -0.1 3.8 -3.5 3.8 -1.9 0 -5.3 0.5 -7.4 1.2 -3.3 1 -3.9 1.7 -5 5.6 -1 3.8 -0.9 4.8 0.7 7.6 1.7 2.9 2.2 3.1 9.3 3.7 4 0.4 9.8 1.4 12.8 2.4 4 1.2 6.9 1.5 11.2 1 5.3 -0.6 5.9 -0.9 5.9 -3 0 -2.4 0.6 -2.8 6.8 -4 4.3 -0.9 12.9 0.3 14.7 2.1 0.7 0.8 1.8 1.4 2.4 1.4 0.5 0 1.8 1.1 2.9 2.5 2.5 3.2 3 3.1 3.4 -0.2 0.3 -2.7 0.6 -2.8 6.6 -3.1 6.1 -0.3 6.2 -0.2 6.2 2.3 0 2 0.5 2.5 2.4 2.5 1.9 0 2.7 0.9 4 4 0.9 2.2 1.6 4.7 1.6 5.5 0 3.6 2 1.9 4 -3.5 1.9 -5 2.6 -6 4.6 -6 1.7 0 2.4 -0.6 2.4 -2 0 -1.7 0.7 -2 4.4 -2 7.6 0 12.2 -2.4 16.1 -8.4 1.6 -2.4 1.6 -2.6 0.1 -2.6 -1.2 0 -1.6 -0.9 -1.6 -3.5 0 -3.3 0.2 -3.5 3.1 -3.5 2.7 0 3 0.2 1.9 1.5 -1 1.3 -0.9 1.5 0.9 1.5 2.7 0 2.8 2.8 0.1 8 -3.5 6.8 -11.2 11 -20.2 11 -4.4 0 -5.3 1.1 -9.3 11.2 -1.4 3.6 -3.5 7.4 -4.5 8.3 -1.7 1.6 -1.9 1.6 -2.8 -0.2z"/>
  <path d="M123.5 291.3 c-1 -2.7 -2.2 -6.1 -2.8 -7.8 -0.6 -1.6 -1.7 -4 -2.5 -5.3 -1.7 -2.7 -6.8 -5.6 -8.2 -4.7 -0.6 0.3 -1 -0.3 -1 -1.4 0 -1.6 0.6 -2.1 2.9 -2.1 4.2 0 6.1 1 6.1 3.1 0 1.2 0.7 1.9 2 1.9 1.3 0 2 0.7 2 2 0 1.1 0.5 2 1 2 0.6 0 1 1.4 1 3 0 1.7 0.4 3 0.9 3 0.5 0 1.1 0.8 1.4 1.8 0.3 1.1 1.1 0.1 2.7 -3.3 1.2 -2.7 2.7 -5.1 3.1 -5.3 0.5 -0.2 0.9 -1.2 0.9 -2.3 0 -2.2 3.5 -3.9 8.1 -3.9 3.8 0 3.9 2.6 0 3.5 -3.7 0.8 -5.2 2.7 -8.1 9.8 -2.3 5.9 -5.5 10.7 -7 10.7 -0.5 0 -1.6 -2.1 -2.5 -4.7z"/>
  <path d="M57 277.6 c-10.3 -2.9 -13 -4 -13 -5.3 0 -1.9 3.9 -1.6 12.6 0.9 7 2.1 7.6 2.1 10.7 0.6 1.8 -0.9 5.1 -1.9 7.5 -2.1 l4.2 -0.5 -3.2 2.4 c-7.5 5.5 -11 6.2 -18.8 4z"/>
  <path d="M95.6 275.5 c-2.1 -1.9 -5.1 -3.7 -6.7 -4 -4.2 -0.9 -3.8 -3.5 0.6 -3.5 1.9 0 3.5 0.5 3.5 1 0 0.6 0.9 1 2 1 1.5 0 2 0.7 2 2.5 0 2.1 0.5 2.5 3 2.5 2.1 0 3 0.5 3 1.7 0 1.4 0.5 1.2 2.8 -0.8 l2.7 -2.4 -2.4 2.8 c-3.2 3.5 -5.8 3.4 -10.5 -0.8z"/>
  <path d="M32.3 272.7 c-7.8 -8.9 -3.3 -21.8 8.1 -23.4 5.1 -0.6 5.1 -0.6 2.2 -1.8 -2.3 -1 -2.5 -1.3 -1.1 -1.8 0.9 -0.4 3 -0.7 4.6 -0.7 2.6 0 2.9 0.3 2.9 3.4 0 3.4 0 3.4 -6.3 4.5 -3.5 0.6 -7.1 1.1 -7.9 1.1 -1.9 0 -3.2 9.3 -1.8 12.1 0.6 1 1 2.7 1 3.8 0 1.6 0.6 2.1 2.6 2.1 1.9 0 2.5 0.5 2.2 1.7 -0.6 3 -3.4 2.5 -6.5 -1z"/>
  <path d="M155 270.5 c0 -3 2.1 -5.5 4.4 -5.5 1.2 0 1.6 -1 1.6 -4 0 -3.3 0.3 -4 2 -4 1.4 0 2 0.7 2 2.2 0 3 -4.4 10.2 -7.5 12.2 -2.5 1.6 -2.5 1.6 -2.5 -0.9z"/>
  <path d="M320.4 250 l0.7 -6.5 -4 -1.2 c-3.2 -1 -4.8 -1 -8.8 0.2 -2.6 0.8 -6.5 1.5 -8.5 1.5 -3.7 0 -3.8 -0.1 -3.8 -3.5 0 -2.3 0.6 -3.8 1.6 -4.2 3.3 -1.2 6 -5.2 7.9 -11.1 1.4 -4.8 2.2 -6.2 3.8 -6.2 1.7 0 1.8 0.5 1.2 3.8 -1 5.7 -5.1 13.9 -7.5 15.2 -3.7 2 -1.4 2.3 4.4 0.6 4.4 -1.3 6.5 -1.4 9.5 -0.6 3.7 1 9.1 5.8 9.1 8.1 0 2 -2.8 7.5 -4.5 8.9 -1.7 1.4 -1.8 1.2 -1.1 -5z"/>
  <path d="M165 248.6 c0 -2 0.4 -3.6 0.9 -3.6 0.5 0 0.6 -2.1 0.3 -4.7 -0.5 -4.5 -0.4 -4.7 1.2 -3.3 4.1 3.3 3.7 10.2 -0.7 13.9 -1.5 1.2 -1.7 1 -1.7 -2.3z"/>
  <path d="M36.7 244.2 c-4.2 -4.6 -4.1 -11.8 0.1 -16.6 2.9 -3.3 16.4 -11.6 18.8 -11.6 3 0 4 -1.7 1.4 -2.5 -1.1 -0.3 -2.5 -1.5 -3 -2.6 -1 -1.7 -0.7 -1.9 2 -1.9 1.6 0 3 0.4 3 0.9 0 0.5 1.4 1.1 3 1.5 2.6 0.5 3 1 3 3.9 0 3.4 0 3.4 -5.7 4 -3.2 0.3 -5.9 1.1 -6.1 1.7 -0.2 0.5 -1 1 -1.8 1 -0.8 0 -1.4 0.5 -1.4 1 0 0.6 -1.3 1 -3 1 -2.3 0 -3 0.4 -3 2 0 1.5 -0.7 2 -2.5 2 -1.9 0 -2.5 0.5 -2.5 2.1 0 1.1 -0.5 2.9 -1 4 -0.8 1.3 -0.7 2.5 0 3.9 0.6 1.2 1 3.5 0.8 5.2 -0.3 3 -0.3 3 -2.1 1z"/>
  <path d="M145 237.6 c0 -1.7 11.6 -4.8 14.8 -3.9 4.1 1 2.2 2.8 -4.3 4.1 -8.3 1.6 -10.5 1.5 -10.5 -0.2z"/>
  <path d="M145 233.6 c0 -0.9 0.7 -1.6 1.5 -1.6 0.9 0 1.5 -0.9 1.5 -2.2 0 -1.3 0.8 -4.9 1.7 -8 1.4 -4.3 2.3 -5.8 3.7 -5.8 1.6 0 1.7 0.5 1.2 3.8 -1 5.2 -4.7 12.3 -7.3 14 -2 1.3 -2.3 1.3 -2.3 -0.2z"/>
  <path d="M306.5 215.3 c-0.7 -2.4 -5.7 -7.8 -7.8 -8.6 -0.9 -0.3 -1.7 -1.1 -1.7 -1.7 0 -0.5 -0.7 -1 -1.5 -1 -0.8 0 -1.5 -0.4 -1.5 -1 0 -0.5 -0.6 -1 -1.4 -1 -0.8 0 -1.6 -0.5 -1.8 -1.1 -0.2 -0.6 -3.5 -1 -8.1 -1 l-7.7 0 0 -3.3 c0 -3.2 0.2 -3.4 5.8 -5 5.2 -1.4 5.9 -2 7.4 -5.6 0.9 -2.3 1.4 -4.8 1.1 -5.7 -1.1 -2.9 -4.2 -5.3 -6.8 -5.3 -2.1 0 -2.5 -0.5 -2.5 -3.1 0 -1.8 0.7 -3.7 1.7 -4.4 1.4 -1.1 1.4 -1.6 0.2 -4.3 -0.8 -1.8 -2 -3.2 -2.6 -3.2 -0.7 0 -1.3 -0.4 -1.3 -0.8 0 -0.9 -6.4 -3.2 -15.7 -5.8 -3.5 -0.9 -6.3 -2 -6.3 -2.4 0 -0.4 -0.9 -1 -2 -1.3 -1.2 -0.3 -2 -1.4 -2 -2.6 0 -1.2 -0.4 -2.1 -1 -2.1 -1.3 0 -1.3 -12.6 0 -15.1 0.6 -1 0.7 -1.9 0.4 -1.9 -1.7 0 -7.4 2.5 -7.4 3.2 0 0.4 -1.1 0.8 -2.5 0.8 -2 0 -2.5 0.5 -2.5 2.4 0 1.4 -0.8 3.1 -1.8 3.8 -2.1 1.5 -6.2 11.6 -6.2 15.4 0 3.4 2.6 9.3 5 11.4 1.2 1.1 2 3 2 5 l0 3.3 -5.6 -0.6 c-3.1 -0.3 -5.9 -0.9 -6.3 -1.2 -1.2 -1.2 2.9 -3.2 5.5 -2.7 l2.6 0.5 -2.5 -2.5 c-3.5 -3.5 -5.2 -12.2 -3.7 -19.1 2.5 -11.8 12.5 -22.2 23.3 -24.2 3 -0.6 3.7 -0.4 3.7 0.9 0 0.9 0.5 1.6 1 1.6 0.6 0 1 -0.7 1 -1.5 0 -1.6 3.5 -2.1 4.4 -0.6 0.3 0.5 -0.5 1.6 -1.7 2.4 -3.8 2.5 -7.1 9.7 -6.3 13.8 1 5.3 4.3 7.7 14.9 10.8 10.7 3.1 16.2 6.6 18.3 11.7 1.5 3.6 0.6 7.7 -1.8 8.7 -0.7 0.3 -0.1 0.6 1.4 0.6 2 0.1 3.4 1.1 5.3 3.8 3.1 4.6 3.1 6.4 0.2 12.8 -2.1 4.5 -2.8 5.1 -7.8 6.7 l-5.4 1.8 6.5 -0.5 6.5 -0.5 7.8 5.6 c7.6 5.4 11.7 10.1 11.7 13.7 0 1 -0.8 1.7 -1.9 1.7 -1.1 0 -2.2 -0.8 -2.6 -1.7z"/>
  <path d="M149 208.5 c0 -0.8 -0.7 -1.5 -1.5 -1.5 -0.8 0 -1.5 -0.7 -1.5 -1.5 0 -0.8 -0.9 -1.5 -2 -1.5 -1.1 0 -2 -0.4 -2 -1 0 -0.5 -0.7 -1 -1.5 -1 -0.8 0 -1.5 -0.4 -1.5 -1 0 -0.5 -0.6 -1 -1.4 -1 -0.8 0 -1.6 -0.5 -1.8 -1.2 -0.3 -0.7 -3.2 -1.4 -7.1 -1.6 l-6.7 -0.4 0 -3.4 c0 -3.3 0.1 -3.4 4.4 -3.4 4.3 0 4.4 -0.1 5 -3.7 2 -11.5 2.1 -11 -1.3 -11.6 -3.1 -0.6 -3.1 -0.7 -3.1 -6.7 0 -4.6 -0.3 -6 -1.5 -6 -0.7 0 -1.8 -0.6 -2.2 -1.3 -0.9 -1.5 -10.3 -5.7 -12.7 -5.7 -1 0 -1.6 -0.9 -1.6 -2.1 0 -1.9 0.4 -2.1 3.8 -1.5 11 2 19.7 9.8 17.5 15.7 -0.6 1.6 -0.7 2.9 -0.3 2.9 1.3 0 6.9 6.2 7.6 8.2 0.3 0.9 -0.5 4 -1.7 6.9 -1.8 4.1 -3 5.5 -6.3 7 l-4.1 1.9 4.6 -0.4 c4.3 -0.5 5.2 -0.1 12 4.5 11 7.4 14.5 11.9 9.4 11.9 -1.6 0 -2.5 -0.6 -2.5 -1.5z"/>
  <path d="M210 205.7 c0 -2.9 1.8 -4.7 3.9 -4 1 0.4 0.5 -0.5 -1.1 -2.4 -5 -5.3 -2.9 -12.9 6.3 -22.3 l5.4 -5.5 0.3 2.8 c0.4 3.7 -1.3 5.7 -4.9 5.7 -2.6 0 -2.9 0.3 -2.9 3.3 -0.1 1.7 -0.7 4.3 -1.5 5.7 -1.6 2.9 -2 9 -0.5 9 0.6 0 1 1.6 1 3.5 0 1.9 -0.4 3.5 -1 3.5 -0.5 0 -1 0.7 -1 1.5 0 0.8 -0.9 1.5 -2 1.5 -1.4 0 -2 -0.7 -2 -2.3z"/>
  <path d="M53 203.1 c0 -1.1 0.7 -2.6 1.5 -3.4 1.3 -1.3 1.3 -1.9 -0.1 -4.6 -1.9 -3.8 -0.6 -9.7 3.1 -13.8 l2.4 -2.8 0.1 3.8 c0 2 -0.4 3.7 -0.9 3.7 -1.6 0 -2 5.4 -0.5 7.1 1.9 2.2 1.9 8.9 -0.1 8.9 -0.8 0 -1.5 0.7 -1.5 1.5 0 0.8 -0.9 1.5 -2 1.5 -1.3 0 -2 -0.7 -2 -1.9z"/>
  <path d="M67.2 171.5 c2.1 -1.9 4.6 -3.5 5.7 -3.5 1.9 0 1.9 -0.1 0 -5 -2.4 -6.4 -2.4 -8 0.1 -8 1.5 0 2 0.7 2 2.5 0 1.4 0.9 3.5 2 4.7 1.2 1.3 2 3.6 2 5.5 0 2.9 -0.3 3.3 -2.8 3.3 -1.6 0 -3.2 0.8 -4 2 -0.9 1.4 -2.3 2 -5 2 l-3.7 -0.1 3.7 -3.4z"/>
  <path d="M71 150.7 c0 -6.6 10.7 -20 18 -22.5 2.8 -1 3 -0.9 3 1.3 0 1.8 -0.7 2.6 -2.5 3.1 -1.4 0.3 -2.5 1 -2.5 1.5 0 0.5 -1.6 0.9 -3.5 0.9 -3.3 0 -3.5 0.2 -3.5 3.4 0 1.9 -0.3 3.6 -0.7 3.8 -1.1 0.4 -4.3 7.5 -4.3 9.3 0 0.8 -0.9 1.5 -2 1.5 -1.4 0 -2 -0.7 -2 -2.3z"/>
  <path d="M101 152 c0 -0.5 -0.9 -1 -2 -1 -1.6 0 -2 -0.7 -2 -3 0 -2.3 -0.4 -3 -2 -3 -1.7 0 -2 -0.7 -2 -4.4 0 -6.6 1.7 -10.6 4.6 -10.6 1.7 0 2.4 -0.6 2.4 -2 0 -1.3 0.7 -2 1.9 -2 2.9 0 3.5 1.7 1.1 3 -3.2 1.7 -6 7 -6 11.3 0 4.4 3.3 8.2 8.1 9.2 4.2 0.9 3.8 3.5 -0.6 3.5 -1.9 0 -3.5 -0.4 -3.5 -1z"/>
 </g>
 <g fill="#ad6a4e">
  <path d="M401.2 429.3 c-2.4 -8.2 -5.4 -18.2 -6.8 -22.4 -1.3 -4.2 -4.7 -15.3 -7.4 -24.5 -5.2 -17.6 -13 -43.5 -15.7 -51.6 -0.8 -2.6 -2.3 -7.8 -3.3 -11.5 -1.5 -5.6 -6 -20.4 -9.4 -31 -0.9 -2.9 0.2 -2.9 6.9 -0.4 11.7 4.4 19.8 4 25.4 -1.3 2.9 -2.8 7.7 -4.2 11.3 -3.2 1.3 0.3 4.3 2.4 6.7 4.6 5.5 5 9.1 5.3 13.1 1 1.5 -1.6 3.3 -3 3.8 -3 1.7 0 5 6.2 6.7 12.8 2 7.9 3.4 10.2 6 10.2 3.5 0 5.5 -2.3 10.4 -11.6 3.9 -7.6 5 -8.9 7.4 -9.2 1.5 -0.2 2.7 -0.1 2.7 0.3 0 1 -5.1 16.7 -7 21.5 -1 2.5 -2.9 8.1 -4.3 12.5 -1.4 4.4 -7.4 22 -13.2 39 -5.8 17.1 -14.4 42.6 -19.2 56.8 -4.7 14.1 -8.9 25.7 -9.3 25.7 -0.3 0 -2.5 -6.6 -4.8 -14.7z m8.2 -13.9 c2.1 -0.8 2 -3.3 -0.2 -6.2 -1.8 -2.3 -1.8 -2.3 -3.6 -0.3 -1.7 1.8 -1.7 2.1 -0.1 4.5 1.9 2.9 1.8 2.8 3.9 2z m-8.4 -16.1 c0 -0.8 -0.8 -2.5 -1.8 -3.8 -1.7 -2.1 -1.9 -2.2 -2.9 -0.6 -0.8 1.3 -0.7 2.6 0.3 5 1.2 2.8 1.6 3.1 2.9 2.1 0.8 -0.7 1.5 -1.9 1.5 -2.7z m18 -2.7 c0 -2.1 -1.2 -2.5 -3.7 -1.1 -2.1 1.1 -2.1 1.3 -0.7 3.3 1.3 1.9 1.7 2 3 0.8 0.8 -0.8 1.4 -2.1 1.4 -3z m-8 -11.5 c-2.1 -3.6 -2.7 -4.1 -4.3 -3.5 -2.1 0.8 -2.2 3.3 -0.1 6.2 1.5 2.2 1.7 2.2 3.5 0.6 1.3 -1.2 1.6 -2.1 0.9 -3.3z m-9 -11.1 c0.6 0 0.2 -1.3 -1 -3 -2.5 -3.5 -3.5 -3.7 -4.9 -1.2 -0.7 1.3 -0.4 2.7 1.2 5.1 2 3.2 2.1 3.3 2.8 1.2 0.5 -1.1 1.3 -2.1 1.9 -2.1z m18.8 1 c1 -1.7 1 -2.5 -0.5 -4.5 -2.2 -3 -2.5 -3 -4.1 -0.5 -1 1.7 -0.9 2.5 0.4 4.5 2 3 2.5 3.1 4.2 0.5z m-9.8 -13 c0.8 -1.6 0.7 -2.7 -0.7 -5 l-1.8 -3 -1.7 2.2 c-1.5 2.1 -1.5 2.4 0 5 1.9 3.3 2.8 3.5 4.2 0.8z m20 -2.6 c1 -2.9 1 -3.9 -0.2 -5 -1.2 -1.2 -1.7 -1 -3.6 1.6 -2.2 2.9 -2.2 3.1 -0.5 5.4 2.2 2.9 2.8 2.6 4.3 -2z m-39.7 1.9 c1.4 -1.7 1.3 -2.1 -1.3 -5.3 -2.7 -3.3 -3 -3.4 -4.6 -1.8 -1.6 1.6 -1.6 1.9 0.7 5.2 2.8 4.1 3 4.2 5.2 1.9z m8.9 -18.4 c-2.8 -3.9 -3.5 -4 -5.1 -1 -0.8 1.3 -0.3 2.7 1.7 5.5 l2.6 3.7 1.7 -2.3 c1.7 -2.1 1.6 -2.4 -0.9 -5.9z m22.7 1.1 c-3.1 -5.4 -5.9 -6.6 -5.9 -2.6 0 1.4 -0.5 2.8 -1 3.1 -0.6 0.4 -0.2 1.8 1.1 3.7 l2.2 3 2.2 -2.9 c1.6 -1.9 2 -3.3 1.4 -4.3z m-8.9 -9.7 c0 -1.3 -1.2 -4 -2.6 -5.9 -2.6 -3.4 -2.7 -3.4 -4.1 -1.4 -0.8 1.1 -2.1 2 -2.8 2 -1 0 -0.5 1.4 1.6 4.3 2.5 3.6 3.5 4.3 5.5 3.9 1.8 -0.3 2.4 -1.1 2.4 -2.9z m-24.9 -6.5 c-2.6 -3.8 -2.6 -3.8 -4.3 -1.7 -1.7 1.9 -1.6 2.2 0.8 5.9 l2.6 3.9 1.8 -2.2 c1.7 -2.1 1.7 -2.3 -0.9 -5.9z m44.6 5.4 l2.1 -2.9 -2.1 -2.7 -2.2 -2.7 -2.3 3 c-2.1 2.9 -2.2 3.2 -0.6 5.6 2.1 3.2 2.6 3.1 5.1 -0.3z m-30.7 -15 c0 -0.7 -1.2 -2.9 -2.7 -4.9 l-2.7 -3.5 -2.2 2.8 -2.3 2.8 2.7 3.7 c2.6 3.5 2.7 3.6 4.9 2 1.2 -0.9 2.3 -2.2 2.3 -2.9z m20.8 1.9 l2.1 -2.9 -2.1 -2.9 c-1.2 -1.5 -2.3 -3 -2.5 -3.2 -0.4 -0.6 -3.3 2 -4.3 3.9 -0.6 1.2 -0.2 2.6 1.3 4.8 1.2 1.7 2.5 3.2 2.8 3.2 0.3 0 1.5 -1.3 2.7 -2.9z m21 -1.9 c0.7 -2.1 0.6 -3.3 -0.4 -4.7 -1.3 -1.8 -1.4 -1.8 -3.4 0 -2.4 2.2 -2.5 3 -0.2 6 2 2.7 2.7 2.5 4 -1.3z m-64.8 -1.8 c0 -0.7 -1.1 -2.5 -2.4 -4.1 l-2.4 -2.8 -1.3 2.8 c-1.1 2.4 -1 3 1.1 5.2 1.8 1.9 2.6 2.2 3.7 1.4 0.7 -0.6 1.3 -1.7 1.3 -2.5z m32.7 -17 c-2.3 -3.3 -3.3 -4 -5.2 -3.6 -3.6 0.6 -3.7 4.9 -0.2 9.3 l2.8 3.6 2.7 -2.6 2.8 -2.6 -2.9 -4.1z m-23 5.5 l2.3 -2.5 -2.3 -3.2 -2.4 -3.2 -2.3 2.5 -2.3 2.4 2.4 3.5 c1.3 1.9 2.4 3.4 2.4 3.3 0 -0.1 1 -1.4 2.2 -2.8z m-20.2 -1.9 c0.3 -0.5 -0.6 -2.7 -2.1 -4.7 -1.4 -2.1 -2.3 -2.9 -1.9 -1.8 0.3 1.1 0.9 3.2 1.2 4.8 0.6 2.8 1.7 3.5 2.8 1.7z m32.7 -12 c0.5 -3.3 -1.5 -4.7 -5.2 -3.5 -2 0.6 -2 0.7 -0.3 3.6 2.3 3.8 4.9 3.8 5.5 -0.1z"/>
  <path d="M92.7 437.9 c-0.9 -1.9 -1.9 -4.8 -2.2 -6.5 -0.4 -1.6 -2 -6.5 -3.5 -10.9 -1.5 -4.4 -3 -9.8 -3.4 -12 -0.4 -2.2 -1.8 -6.7 -3.1 -10 -1.3 -3.3 -3.8 -10.7 -5.5 -16.5 -1.7 -5.8 -3.7 -12.3 -4.5 -14.5 -0.8 -2.2 -1.9 -6 -2.4 -8.5 -0.5 -2.5 -3 -10.8 -5.6 -18.5 -2.6 -7.7 -5.6 -17.1 -6.7 -21 -1.1 -3.8 -2.8 -9.7 -3.9 -13 -1.1 -3.3 -2.9 -9.1 -4 -13 -1.2 -3.8 -2.8 -8.7 -3.7 -10.8 -1.9 -4.6 -1.1 -5.5 3.1 -3.8 4.9 2 13.7 3.3 19.4 2.9 4 -0.4 5.9 -1.1 8.7 -3.6 6.1 -5.3 12.3 -5.2 18.2 0.3 6.8 6.4 8.9 6.6 14.8 1.4 l3.3 -2.8 2.1 2.2 c1.1 1.2 3.3 5.8 4.8 10.2 1.5 4.3 3.6 8.7 4.7 9.8 1.8 1.8 1.9 1.8 5 0 2.3 -1.3 4.3 -4.1 7.2 -10.1 4.1 -8.4 5.6 -10.2 8.9 -10.2 1.3 0 1.7 0.5 1.3 1.8 -0.3 0.9 -1.5 5.2 -2.6 9.4 -1.2 4.3 -2.7 9.2 -3.5 11 -0.7 1.8 -3 8.5 -5 14.8 -4.9 15.7 -9.4 29.9 -16.9 53 -3.5 10.7 -7.2 22.4 -8.2 26 -1 3.6 -2.3 7.4 -3 8.5 -0.6 1.1 -2 5.2 -2.9 9 -1 3.9 -2.3 8.4 -3 10 -0.7 1.7 -1.8 5.1 -2.4 7.7 -0.7 2.7 -1.8 6.3 -2.6 8 l-1.4 3.3 -1.5 -3.6z m7.2 -28.6 c0.1 -1.4 -3.7 -7.3 -9.6 -15.2 -5.4 -7.2 -10.3 -13.8 -11 -14.8 -1.2 -1.7 -0.1 2.1 3.4 12.4 1.5 4.5 9.9 18.1 13.7 22.1 l2.1 2.4 0.6 -2.4 c0.4 -1.3 0.7 -3.3 0.8 -4.5z m5.9 -17 c1 -3.1 0.8 -3.7 -6.8 -14 -4.3 -6 -10.1 -13.6 -12.9 -17 -2.8 -3.4 -5.1 -6.6 -5.1 -7.1 0 -0.6 -1.5 -2.8 -3.2 -5 -1.8 -2.1 -5.5 -6.9 -8.1 -10.6 -2.7 -3.8 -5 -6.6 -5.3 -6.4 -0.6 0.6 4.4 14.7 6.5 18.4 1 1.7 5.2 7.5 9.2 12.9 4.1 5.4 8.1 10.7 8.8 11.9 3.4 4.8 15.4 20.6 15.6 20.4 0.1 -0.2 0.7 -1.8 1.3 -3.5z m7.2 -22.5 c0 -0.9 -0.5 -2 -1 -2.3 -0.6 -0.4 -5.8 -7 -11.6 -14.8 -5.7 -7.8 -12.6 -16.9 -15.2 -20.2 -2.6 -3.2 -5.7 -7.4 -7 -9.3 -1.3 -1.8 -6.6 -8.8 -11.8 -15.4 -5.2 -6.6 -9.4 -12.7 -9.4 -13.4 0 -0.7 -0.4 -1.4 -0.8 -1.6 -0.4 -0.1 -1.8 -1.8 -3.1 -3.6 -1.3 -1.8 -2.5 -3.2 -2.7 -3 -0.6 0.7 3.2 12.1 5.5 16.7 1.3 2.4 4.3 6.9 6.7 10 4 5.1 17.6 23.2 30.9 41.2 2.8 3.7 7.7 10.3 11 14.7 l6 8 1.2 -2.6 c0.7 -1.5 1.2 -3.5 1.3 -4.4z m-5.1 -37.6 c-6.8 -8.7 -13.5 -17.4 -14.9 -19.2 -1.4 -1.8 -3.8 -5 -5.5 -7.1 -1.6 -2 -5.8 -7.3 -9.3 -11.8 -6.2 -7.9 -6.4 -8.1 -10.7 -8.1 l-4.4 0 3.8 5.4 c2 3 4.9 6.9 6.4 8.8 2.7 3.3 7.7 10 17.2 22.8 2.8 3.7 9.7 13 15.5 20.7 l10.5 14 1.9 -4.8 1.8 -4.8 -12.3 -15.9z m17 0.6 c2.4 -6.4 2.4 -6.2 -5.7 -16.4 -4.3 -5.5 -10.2 -13 -13.1 -16.9 -7 -9.2 -17.4 -20.2 -20 -21 -1.1 -0.3 -3 -0.1 -4.1 0.5 l-2.1 1.1 2.1 2.7 c2.6 3.5 6.2 7.9 18.8 23.8 5.6 7.1 13 16.4 16.4 20.7 3.4 4.2 6.3 7.7 6.5 7.7 0.2 0 0.7 -1 1.2 -2.2z m6.9 -22.3 c2.4 -5.3 0.8 -7.4 -5 -6.5 l-3.7 0.5 3.2 4.2 c1.8 2.3 3.5 4.2 3.8 4.3 0.3 0 1.1 -1.1 1.7 -2.5z m-18.5 -22.9 c-2.9 -6.9 -4.3 -8.2 -4.3 -4.2 0 2.5 5.8 12.2 6.7 11.3 0.2 -0.3 -0.8 -3.5 -2.4 -7.1z"/>
  <path d="M251.8 440.4 c-0.3 -0.5 -2.7 -7.6 -5.2 -15.9 -2.6 -8.2 -5.6 -17.7 -6.7 -21 -7.2 -21.5 -12.9 -39.5 -12.9 -40.7 0 -0.8 -1.1 -4.2 -2.5 -7.6 -1.4 -3.4 -2.7 -7 -2.9 -7.9 -0.2 -1 -1 -3.4 -1.9 -5.3 -0.8 -1.9 -1.8 -5.3 -2.2 -7.4 -0.5 -2.2 -1.4 -5.1 -2.1 -6.5 -0.8 -1.4 -1.4 -3.2 -1.4 -3.9 0 -0.6 -3 -10 -6.6 -20.8 -3.6 -10.7 -6.4 -19.8 -6.1 -20.1 0.3 -0.2 2.7 0.5 5.2 1.6 2.6 1.2 6.2 2.1 7.9 2.2 1.7 0 4 0.4 5.1 0.8 3.1 1.2 10.6 -1.3 14.3 -4.7 5.7 -5.3 12.1 -4.7 18.8 1.9 3.6 3.5 4.7 4.1 7 3.5 1.5 -0.4 3.9 -2 5.5 -3.7 1.5 -1.6 3.2 -2.9 3.7 -2.9 1.7 0 4.9 6 7 13.3 1.7 5.6 1.8 6.7 0.5 6.7 -0.8 0 -1.2 0.4 -0.8 1 0.3 0.5 1.2 0.7 1.9 0.4 0.8 -0.3 1.7 -0.1 2.1 0.5 1.7 2.9 7 -0.2 9.9 -5.7 1.8 -3.5 3.6 -4.2 3.7 -1.4 0 1 0.5 0.6 1.1 -1.2 0.8 -2.1 0.7 -3 -0.2 -3.6 -2 -1.3 1.3 -7.6 4.5 -8.4 3.6 -0.9 3.9 -0.4 2.6 3.6 -0.6 1.8 -3.8 11.9 -7 22.3 -3.3 10.5 -9.1 28.9 -13 41 -3.8 12.1 -9 28.8 -11.6 37 -2.6 8.3 -5.3 16.8 -6 19 -0.7 2.2 -3.2 10.1 -5.5 17.5 -5.1 16.5 -5.5 17.6 -6.2 16.4z m3.1 -34.5 l-2.1 -2.9 -1.8 2.2 c-1.7 2.2 -1.7 2.3 0.4 5 2.1 2.7 2.1 2.7 3.8 0.6 1.7 -1.9 1.7 -2.1 -0.3 -4.9z m-9 -8.8 c1.3 -2.4 -2.6 -8.2 -4 -5.9 -1.3 2 -1.1 6.6 0.4 7.1 2.1 0.9 2.6 0.7 3.6 -1.2z m17.1 -2.7 c0.6 -1.4 0.7 -3 0.4 -3.6 -0.9 -1.4 -3.7 3 -3 4.7 0.8 2.2 1.5 1.8 2.6 -1.1z m-8.1 -14.5 c-2.4 -3.4 -2.5 -3.5 -3.9 -0.9 -0.8 1.6 -0.7 2.7 0.7 5.1 l1.8 3 1.7 -2.2 c1.7 -2 1.7 -2.2 -0.3 -5z m-9.2 -8.9 c1.1 -1.6 0.9 -2.3 -1.1 -4.7 l-2.3 -2.7 -1.2 2.3 c-1 1.8 -0.9 2.7 0.4 4.7 1.9 2.9 2.6 3 4.2 0.4z m20 0.2 c0.9 -1.5 0.7 -2.4 -1.1 -4.7 l-2.3 -2.9 -1.2 2.3 c-1 1.8 -0.9 2.7 0.4 4.7 1.9 2.9 2.6 3 4.2 0.6z m-30 -13.1 c0.9 -1.5 0.7 -2.5 -1.4 -5.5 -2.5 -3.4 -2.7 -3.5 -4.4 -2 -1.9 1.7 -1.8 2.1 1.3 6.7 2.3 3.2 2.9 3.3 4.5 0.8z m20.3 -3.1 c-0.5 -0.9 -1.6 -2.2 -2.4 -2.9 -1.2 -1 -1.7 -0.8 -2.6 0.9 -0.9 1.7 -0.8 2.7 0.5 4.7 1.6 2.3 1.7 2.4 3.5 0.8 1.4 -1.3 1.7 -2.2 1 -3.5z m19.5 -3.7 c-0.5 -2.1 -0.8 -2.3 -2.1 -1.2 -3.1 2.6 -3.6 4.9 -1.8 7.7 l1.8 2.7 1.3 -3.4 c0.8 -1.9 1.2 -4.5 0.8 -5.8z m-29.5 -9.2 c-0.5 -0.9 -1.8 -2.6 -2.8 -3.9 -1.8 -2.3 -1.8 -2.3 -3.6 -0.3 -1.7 1.9 -1.7 2.1 0.9 5.6 2.6 3.3 2.9 3.5 4.6 1.9 1.3 -1.2 1.6 -2.1 0.9 -3.3z m21 0.8 c0.7 -1.2 0.4 -2.4 -1.1 -4.3 l-2.1 -2.6 -1.9 2.4 c-2.3 2.9 -2.3 3.5 -0.3 6.4 1.3 1.9 1.9 2.1 3 1.1 0.9 -0.7 1.9 -2 2.4 -3z m-42 -1.4 c0 -0.8 -0.4 -1.7 -1 -2 -0.6 -0.4 -1 0.5 -1 2 0 1.5 0.4 2.4 1 2 0.6 -0.3 1 -1.2 1 -2z m32 -11.6 c0.7 -1.2 0.2 -2.6 -1.8 -5.2 l-2.8 -3.4 -2.1 3 -2.2 3 2.7 3.3 c2.7 3.4 4.1 3.3 6.2 -0.7z m-23.2 0.9 c1.8 -1.8 1.5 -3.3 -1.4 -6.8 -2.6 -3 -2.7 -3 -4.1 -1.1 -1.2 1.8 -1.1 2.4 0.9 5.6 2.5 3.9 2.9 4 4.6 2.3z m43.3 -1 c2.3 -2.9 2.3 -3.7 0 -6.7 l-1.8 -2.3 -2.2 3 c-2.1 3 -2.1 3.3 -0.5 5.7 2 3.1 2.1 3.1 4.5 0.3z m-32.9 -19.4 c-1.5 -1.8 -3 -3.3 -3.3 -3.3 -0.4 -0.1 -1.4 1.1 -2.4 2.5 -1.6 2.4 -1.5 2.7 1.1 6.1 l2.7 3.6 2.3 -2.8 2.3 -2.9 -2.7 -3.2z m22.9 6.4 c2.4 -3 2.4 -3.7 -0.5 -7.3 l-2.4 -3 -2.1 2.5 c-2.6 3.1 -2.6 3.5 0 7.1 2.5 3.5 2.6 3.5 5 0.7z m-44.3 -1.9 c1.1 -1.7 1 -2.4 -1.1 -4.8 -2 -2.4 -2.6 -2.6 -4 -1.6 -2.2 1.6 -2.1 2.1 0.4 5.6 2.4 3.4 3 3.6 4.7 0.8z m66.2 -1.7 c0 -1.4 -0.7 -3.4 -1.6 -4.3 -1.6 -1.8 -1.7 -1.7 -3.6 0.7 l-2 2.5 2.2 2.4 c2.7 2.8 5 2.2 5 -1.3z m-32.9 -11.3 l2.2 -3.1 -2.2 -2.8 c-1.1 -1.6 -2.1 -3.7 -2.1 -4.7 0 -1.3 -0.8 -0.8 -3 1.7 -1.6 1.9 -2.9 3.9 -3 4.3 0 0.7 5.1 7.7 5.7 7.7 0.1 0 1.2 -1.4 2.4 -3.1z m-22.8 -0.4 c1.7 -2.4 1.7 -2.6 -0.5 -5.5 l-2.2 -3 -2.4 2.4 -2.5 2.4 2.2 3.1 c2.7 3.7 3.1 3.8 5.4 0.6z m-20.3 -1.8 c0 -0.7 -1.1 -2.5 -2.5 -4.2 l-2.5 -3 1.6 4.8 c1.4 4.2 3.4 5.6 3.4 2.4z m31.4 -15.4 c-1.5 -1.1 -4.9 -0.9 -6.2 0.2 -0.2 0.2 0.4 1.5 1.4 3 l1.7 2.6 2.4 -2.3 c2.3 -2.1 2.3 -2.3 0.7 -3.5z"/>
  <path d="M281 298.5 c-0.6 -1.7 -1.4 -4.2 -1.7 -5.7 -0.5 -2.4 -0.2 -2.8 1.6 -2.8 1.7 0 2.1 0.6 2.1 2.9 0 1.8 0.6 3.1 1.5 3.3 1.2 0.2 1.1 0.7 -0.5 2.8 l-1.9 2.5 -1.1 -3z"/>
  <path d="M124.6 294.4 c-0.9 -2.3 -0.8 -2.4 1.9 -2.4 2.7 0 3.2 0.9 1.3 2.8 -1.6 1.6 -2.5 1.5 -3.2 -0.4z"/>
  <path d="M121.3 284.5 c-1.1 -3.3 -1 -3.5 1.3 -3.5 2.1 0 2.4 0.5 2.4 3.5 0 2.2 -0.5 3.5 -1.3 3.5 -0.8 0 -1.8 -1.6 -2.4 -3.5z"/>
  <path d="M438.5 286.1 c-2.8 -0.3 -6.4 -1.6 -8.2 -2.9 -4 -2.8 -5.8 -2.8 -9.5 0.3 -3.5 3 -7.3 3.2 -8.7 0.6 -1.4 -2.5 -8.9 -6.1 -13 -6.1 -3.4 0 -6.7 1.4 -12.7 5.5 -2 1.4 -5 2.5 -6.6 2.5 -2.4 0 -3.2 -0.7 -4.8 -4.2 -3.2 -7.1 -2.2 -16.4 2.4 -20.7 1.4 -1.3 2.2 -3.1 2.1 -4.6 -0.4 -3.1 -2.5 -9.7 -3.6 -11.1 -1.2 -1.5 -14 -3.5 -20.1 -3.2 -2.6 0.1 -5 0 -5.3 -0.4 -1.2 -1.1 2.4 -6.6 6.2 -9.5 11.1 -8.5 12 -8.8 22.3 -8.5 10.3 0.2 10.5 -0.8 0.7 -2.8 -6.7 -1.4 -9.7 -3.8 -9.7 -7.9 0 -3.6 1.7 -4.9 5.3 -4.4 l2.9 0.4 -0.7 -6.4 c-0.6 -5.3 -0.3 -7.3 1.3 -11 2 -4.5 10.1 -13.5 15.6 -17.4 l2.9 -2 -1.3 -6.6 c-1.8 -9.7 0 -17.1 6.2 -26 3.2 -4.4 11.7 -10.7 14.6 -10.7 l2.5 0 -2 2.3 c-5.4 5.9 -6.6 11.9 -3.3 17.3 2 3.2 4.6 4.5 14.5 7.5 10 2.9 17.5 9.2 17.5 14.7 0 1.1 -1.2 3 -2.7 4.1 l-2.8 2 3.2 0.1 c2.6 0 3.7 0.7 5.8 3.7 3 4.5 3.1 6.2 0.6 11.2 -2.6 5.1 -3.5 5.6 -11.3 7.1 -3.8 0.7 -6.8 1.6 -6.8 2.1 0 0.5 4.1 0.9 9.1 0.9 l9.1 0 6.3 4.5 c9.4 6.7 11.5 9.6 11.4 15.8 0 2.9 -1 7.9 -2.2 11.2 -1.9 5.1 -2.9 6.5 -6.9 9 -2.6 1.7 -4.7 3.4 -4.7 3.8 -0.1 0.9 5.1 0.1 11.9 -1.7 8.6 -2.4 16 1.5 16 8.3 0 3.1 -0.9 4.4 -6.7 10 -3.8 3.5 -5.9 6.1 -4.8 5.6 1.1 -0.4 3.1 -1 4.4 -1.3 2.1 -0.4 2.2 -0.2 1.6 1.9 -2.7 8.6 -8.2 12.9 -18.3 13.9 -3.7 0.4 -8 1.4 -9.7 2.3 -1.6 0.9 -3.4 1.6 -4 1.6 -0.5 -0.1 -3.3 -0.5 -6 -0.8z"/>
  <path d="M289 281.5 c0 -2.4 0.5 -3.5 1.5 -3.5 0.8 0 1.5 -0.4 1.5 -1 0 -0.5 1.6 -1 3.5 -1 2.4 0 3.5 0.5 3.5 1.5 0 0.8 -0.7 1.5 -1.6 1.5 -0.8 0 -2.9 1.4 -4.6 3 -1.6 1.7 -3.1 3 -3.4 3 -0.2 0 -0.4 -1.6 -0.4 -3.5z"/>
  <path d="M221 282 c0 -1.4 0.7 -2 2.3 -2 1.2 0 2.8 -0.9 3.5 -2 0.8 -1.4 2.3 -2 4.9 -2 l3.6 0 -2.4 2.6 c-2.5 2.7 -7.6 5.4 -10.4 5.4 -0.8 0 -1.5 -0.9 -1.5 -2z"/>
  <path d="M260 280.5 c0 -3.3 0.2 -3.5 3.4 -3.5 l3.4 0 -3.1 3.5 c-1.7 1.9 -3.2 3.5 -3.4 3.5 -0.2 0 -0.3 -1.6 -0.3 -3.5z"/>
  <path d="M132 278.5 c0 -3.4 0.1 -3.5 3.8 -3.4 2 0 3.1 0.3 2.4 0.6 -0.7 0.3 -1.9 1.8 -2.7 3.4 -2.1 3.9 -3.5 3.7 -3.5 -0.6z"/>
  <path d="M205.8 280.3 c-3.3 -0.8 -2 -3.3 1.7 -3.3 2.8 0 3.5 0.4 3.5 2 0 2 -1.4 2.3 -5.2 1.3z"/>
  <path d="M62.7 278.3 c-1.8 -1.7 -0.5 -3.3 2.8 -3.3 4 0 4.9 2.4 1.3 3.4 -2.9 0.7 -3.3 0.7 -4.1 -0.1z"/>
  <path d="M307 275.5 c0 -1.8 0.5 -2.5 2 -2.5 1.1 0 2 -0.7 2 -1.5 0 -1 1 -1.5 3 -1.5 2.7 0 2.9 0.2 1.9 1.8 -1.2 1.8 -6.9 6.2 -8.2 6.2 -0.4 0 -0.7 -1.1 -0.7 -2.5z"/>
  <path d="M36 273.6 c0 -2.3 0.4 -2.6 3.5 -2.6 3.7 0 5 2.3 1.8 3.3 -1 0.2 -2.6 0.8 -3.5 1.2 -1.5 0.6 -1.8 0.2 -1.8 -1.9z"/>
  <path d="M106 272.9 c0 -2.6 0.3 -2.9 3.5 -2.9 4.5 0 4.5 2 0 4.1 l-3.5 1.6 0 -2.8z"/>
  <path d="M188 274.1 c-1.6 -3.1 -1.2 -5.1 1 -5.1 1.6 0 2 0.7 2 3.5 0 3.9 -1.4 4.6 -3 1.6z"/>
  <path d="M236 273.9 c0 -1.7 0.8 -1.9 6 -1.9 5.2 0 6 0.2 6 1.9 0 1.7 -0.8 1.9 -6 1.9 -5.2 0 -6 -0.2 -6 -1.9z"/>
  <path d="M150 272.6 c0 -2.7 1.7 -3.6 6.2 -3.6 3 0 3.1 0.1 1.4 1.9 -1 1.1 -3.1 2.4 -4.7 3 -2.7 0.9 -2.9 0.8 -2.9 -1.3z"/>
  <path d="M81 269 c0 -1.6 0.7 -2 3.5 -2 2.8 0 3.5 0.4 3.5 2 0 1.6 -0.7 2 -3.5 2 -2.8 0 -3.5 -0.4 -3.5 -2z"/>
  <path d="M160 264.3 c0 -4.4 1.1 -7.3 2.6 -7.3 2.3 0 2.7 2.5 1 6.4 -1.8 4.3 -3.6 4.7 -3.6 0.9z"/>
  <path d="M316 266 c0 -0.5 -1.2 -1 -2.6 -1 -2.3 0 -2.5 -0.3 -2.2 -3.7 0.3 -3.6 0.5 -3.8 4.3 -4.1 l4 -0.3 -2.5 2.6 -2.5 2.7 2.8 -0.7 c2.8 -0.8 3.1 -0.4 2.1 3.3 -0.6 2.1 -3.4 3.2 -3.4 1.2z"/>
  <path d="M188.2 261.9 c1.4 -4 6.2 -6.9 11.6 -6.9 5.3 0 5.4 -1.3 0.1 -3 -9.6 -3.2 -11.7 -14.2 -4.1 -21.3 4.2 -3.8 14.8 -10.7 16.6 -10.7 0.9 0 1.6 0.8 1.6 2 0 1.4 -0.7 2 -2.4 2 -1.5 0 -2.6 0.7 -2.9 2 -0.4 1.4 -1.4 2 -3.5 2 -2.4 0 -3.1 0.5 -3.4 2.3 -0.2 1.4 -1.1 2.3 -2.5 2.5 -1.5 0.2 -2.3 1 -2.3 2.3 0 1 -0.4 1.9 -1 1.9 -0.5 0 -1 1.4 -1 3 0 4.4 4.7 8.7 10.5 9.5 4.3 0.7 4.5 0.8 4.5 4.2 l0 3.5 -5 -0.4 c-3.5 -0.2 -5 0.1 -5 1 0 0.6 -1 1.2 -2.2 1.2 -1.4 0 -3.1 1.2 -4.3 3 -1.2 1.8 -2.9 3 -4.2 3 -2 0 -2.1 -0.2 -1.1 -3.1z"/>
  <path d="M29.7 257.1 c0.3 -1.1 1.4 -2.7 2.4 -3.7 1.8 -1.7 1.9 -1.6 1.9 1.9 0 3.2 -0.3 3.7 -2.4 3.7 -1.9 0 -2.3 -0.4 -1.9 -1.9z"/>
  <path d="M39 251.5 c0 -0.8 1.5 -1.7 3.7 -2.1 l3.8 -0.7 -3.9 -1.4 c-6.8 -2.3 -8.8 -5.3 -3.6 -5.3 1.7 0 3 0.5 3 1 0 0.6 1.1 1 2.4 1 2.6 0 3.6 1.6 3.6 6.1 0 2.8 -0.2 2.9 -4.5 2.9 -3.3 0 -4.5 -0.4 -4.5 -1.5z"/>
  <path d="M319 244 c-0.8 -1.1 -2.2 -2 -3.2 -2 -1.1 0 -1.8 -0.7 -1.8 -2 0 -2.4 2 -2.6 6 -0.5 2.6 1.3 5 4.2 5 5.9 0 1.5 -4.7 0.4 -6 -1.4z"/>
  <path d="M299 242.7 c0 -1.2 6 -3.7 8.9 -3.7 2.1 0 1.1 3.8 -1.1 4.4 -4 1 -7.8 0.7 -7.8 -0.7z"/>
  <path d="M163 239 c0 -0.5 -0.9 -1 -2 -1 -1.3 0 -2 -0.7 -2 -2 0 -2.6 2.5 -2.6 6.8 0 4 2.5 4.1 4 0.2 4 -1.6 0 -3 -0.4 -3 -1z"/>
  <path d="M299 238.5 c0 -0.8 0.4 -1.5 0.9 -1.5 0.5 0 1.7 -0.3 2.7 -0.7 2.3 -0.9 1 1.3 -1.7 2.7 -1.5 0.9 -1.9 0.7 -1.9 -0.5z"/>
  <path d="M307 221 c0 -3.3 0.3 -4 2 -4 2.1 0 2.5 1.6 1.4 5.8 -1.1 3.9 -3.4 2.7 -3.4 -1.8z"/>
  <path d="M217.6 222.4 c-0.9 -2.3 -0.9 -2.4 2.7 -2.5 l3.2 -0.1 -3.2 -1 c-1.8 -0.6 -3.3 -1.7 -3.3 -2.4 0 -1.5 2.9 -1.8 7.9 -0.8 2.7 0.6 3.1 1.1 3.1 3.9 0 3.6 -1.2 4.5 -6.5 4.5 -2.1 0 -3.5 -0.6 -3.9 -1.6z"/>
  <path d="M48 220.1 c0 -1.6 7 -4.2 10.3 -3.8 l3.2 0.4 -3.2 0.1 c-2.6 0.2 -3.3 0.6 -3.3 2.2 0 1.6 -0.7 2 -3.5 2 -1.9 0 -3.5 -0.4 -3.5 -0.9z"/>
  <path d="M212.6 215.4 c-2.2 -2.1 -2.9 -5.7 -2.2 -9.9 0.5 -2.7 1.2 -3.5 2.8 -3.5 2.1 0 2.1 0 -0.2 -2.5 l-2.3 -2.5 3.6 0 c3.6 0 3.7 0.1 3.7 3.5 0 2.8 -0.4 3.5 -2 3.5 -1.7 0 -2 0.7 -2 4 0 2.2 0.5 4 1 4 0.6 0 1 1.1 1 2.5 0 2.9 -1.2 3.2 -3.4 0.9z"/>
  <path d="M57.3 213.4 c-4.3 -2.1 -4.2 -3.4 0.2 -3.4 3.1 0 3.5 0.3 3.5 2.5 0 1.4 -0.1 2.5 -0.2 2.5 -0.2 0 -1.8 -0.8 -3.5 -1.6z"/>
  <path d="M147.7 208.3 c-0.4 -0.3 -0.7 -1.9 -0.7 -3.5 0 -2.8 0.1 -2.8 2.1 -1.4 1.1 0.8 2.7 2.4 3.5 3.5 1.4 2 1.4 2.1 -1.4 2.1 -1.6 0 -3.2 -0.3 -3.5 -0.7z"/>
  <path d="M53.7 201 c0.3 -1.1 1.2 -2 2 -2 0.9 0 1.3 -0.6 0.9 -1.5 -0.3 -0.8 -0.1 -1.5 0.4 -1.5 0.6 0 1 1.6 1 3.5 0 3 -0.3 3.5 -2.4 3.5 -1.9 0 -2.3 -0.4 -1.9 -2z"/>
  <path d="M275.8 200.3 c-2.4 -0.4 -2.8 -0.9 -2.8 -3.7 0 -2.9 0.4 -3.4 3.1 -4 5 -1 7.9 -0.7 7.9 0.8 0 0.7 -1.5 1.8 -3.2 2.4 -2.9 1 -2.4 1.1 3.9 0.7 6.1 -0.3 7.4 -0.1 8.9 1.6 1.6 1.8 1.6 1.9 -0.8 1.9 -1.4 0 -5.2 0.2 -8.4 0.4 -3.2 0.2 -7.1 0.2 -8.6 -0.1z"/>
  <path d="M289 185.6 c0 -3.2 0.3 -3.6 2.5 -3.6 2.4 0 2.5 0.1 1.2 3.2 -1.9 4.6 -3.7 4.8 -3.7 0.4z"/>
  <path d="M54.2 187.3 c3.5 -7.4 4.8 -8.1 4.8 -2.8 0 3.1 -0.3 3.5 -2.6 3.5 -1.4 0 -2.4 -0.3 -2.2 -0.7z"/>
  <path d="M213 184.9 c0 -0.6 3.2 -4.4 7.2 -8.5 5.9 -6.2 7.7 -7.4 10.2 -7.3 1.7 0 2.5 0.3 1.9 0.6 -0.7 0.2 -1.3 1 -1.3 1.7 0 2.1 -3.5 4.6 -6.3 4.6 -2.3 0 -2.7 0.4 -2.7 3 0 1.9 -0.5 3 -1.4 3 -0.7 0 -1.6 0.9 -1.9 2 -0.6 2.1 -5.7 3 -5.7 0.9z"/>
  <path d="M279 172.5 c0 -3.4 0.1 -3.5 3.8 -3.5 3.5 0.1 3.6 0.2 1.8 1.5 -1.9 1.5 -1.9 1.5 0.2 1.5 1.5 0 2.2 0.6 2.2 2 0 1.7 -0.7 2 -4 2 -3.9 0 -4 -0.1 -4 -3.5z"/>
  <path d="M126 165.8 c0 -7.9 0 -8.1 1.9 -6.4 2.3 2.1 3.3 6.4 2 8.8 -0.7 1.3 -0.4 2 1.1 2.8 3.1 1.6 2.4 3 -1.5 3 l-3.5 0 0 -8.2z"/>
  <path d="M232.8 167.6 c-2 -1.5 -4.8 -7.6 -4.8 -10.6 0 -1.3 0.7 -2 1.9 -2 1.4 0 2.1 1 2.6 3.7 0.4 2.1 1.1 4.1 1.7 4.4 0.5 0.3 0.8 1.8 0.6 3.2 -0.3 2.2 -0.5 2.4 -2 1.3z"/>
  <path d="M73 163 c-1.8 -3.5 -2.3 -11.2 -0.8 -15.4 2.4 -7.2 3.4 -5.3 3.4 6.4 0 10.9 -0.5 12.9 -2.6 9z"/>
  <path d="M228 149.5 c0 -4 4.4 -12.6 8.8 -17.2 6.6 -6.9 17.7 -11 23.6 -8.7 2.8 1.1 -1.3 3.3 -6.1 3.4 -2.4 0 -4.3 0.5 -4.3 1 0 0.6 -0.6 1 -1.4 1 -0.8 0 -3.2 1.6 -5.3 3.5 -2.1 1.9 -4.6 3.5 -5.5 3.5 -1.1 0 -1.8 0.8 -1.8 2 0 2.4 -2.1 7 -3.2 7 -0.4 0 -0.8 1.4 -0.8 3 0 2.3 -0.4 3 -2 3 -1.1 0 -2 -0.7 -2 -1.5z"/>
  <path d="M94 146.3 c0 -1 -0.3 -4.2 -0.6 -7 -0.7 -5.2 -0.6 -5.3 1.9 -5.3 2.4 0 2.5 0.1 1.5 3.4 -0.9 2.9 -0.8 4 1 7 l2.1 3.6 -2.9 0 c-2.2 0 -3 -0.5 -3 -1.7z"/>
  <path d="M91 128.6 c0 -1.3 2.8 -2.6 5.8 -2.6 0.6 0 1.2 0.9 1.2 2 0 1.6 -0.7 2 -3.5 2 -2.3 0 -3.5 -0.5 -3.5 -1.4z"/>
 </g>
 <g fill="#eea759">
  <path d="M404.1 438.6 c-0.6 -2.5 -1.1 -5.4 -1.1 -6.5 0 -1.2 -0.4 -2.1 -0.8 -2.1 -0.9 0 -5.6 -15.9 -4.9 -16.6 0.2 -0.2 2.1 2.1 4.3 5.2 2.1 3.1 4.9 6.8 6.2 8.4 1.2 1.5 2.2 3.7 2.2 4.7 0 2.7 -3 11.3 -4 11.3 -0.4 0 -1.3 -2 -1.9 -4.4z"/>
  <path d="M250.3 435.4 c-1.4 -4.2 -1.8 -6.6 -1.1 -7.8 0.7 -1.2 0.6 -1.6 -0.4 -1.4 -1.3 0.3 -5.6 -10.8 -5.7 -14.7 -0.1 -1.8 0.1 -1.8 1.9 0.5 6.4 8.1 7.3 9.9 5.9 11.7 -1.3 1.7 -1.3 1.7 0.5 0.3 1.6 -1.3 2 -1.2 3.2 0.5 1.8 2.4 1.8 3.7 -0.4 11 l-1.8 6 -2.1 -6.1z"/>
  <path d="M91.9 434.8 c-0.7 -2.4 -2.7 -9 -4.6 -14.7 -1.9 -5.7 -3.1 -10.6 -2.8 -11 0.4 -0.3 1.8 0.8 3.1 2.4 1.4 1.7 3.4 4 4.5 5.1 1 1.2 1.9 2.6 1.9 3.1 0 0.6 0.9 2 2 3.3 1.1 1.3 2 3.3 2 4.5 0 3 -3 11.5 -4.1 11.5 -0.4 0 -1.4 -1.9 -2 -4.2z"/>
  <path d="M410.3 426.9 c-0.7 -0.7 -1.3 -1.7 -1.3 -2.2 0 -0.6 -0.6 -1.5 -1.4 -2.1 -0.8 -0.6 -4.3 -5.2 -7.8 -10.3 -5.8 -8.2 -6.8 -10.5 -10.2 -22.5 -2.1 -7.3 -4.5 -14.8 -5.3 -16.6 -3.1 -7.1 -0.7 -6.3 5.2 1.9 8 11.1 7.9 10.7 6.3 12.7 -1.2 1.5 -1.1 1.6 0.5 0.3 0.9 -0.8 1.9 -1.2 2 -1 0.2 0.2 2.2 3 4.6 6.2 4.2 5.8 4.2 5.9 2.4 8 -1.8 2.2 -1.8 2.2 0.3 0.4 2 -1.7 2.2 -1.6 6.2 3.8 4.1 5.4 4.9 7.5 3.6 8.8 -0.4 0.3 -0.8 2.1 -0.9 3.9 -0.1 1.8 -0.8 4.8 -1.6 6.6 -1.1 2.7 -1.6 3.1 -2.6 2.1z m-1.4 -17 c-1 -1.9 -1.2 -2 -2.7 -0.5 -1.4 1.4 -1.4 1.7 0.3 3.6 1.6 1.8 2 1.9 2.7 0.6 0.5 -1 0.4 -2.4 -0.3 -3.7z m-9.6 -13.1 c-2.4 -2.7 -4 -0.7 -2.4 2.9 1.2 2.7 1.3 2.7 2.7 0.9 1.2 -1.7 1.2 -2.2 -0.3 -3.8z"/>
  <path d="M255.8 422.3 c-1.3 -1.4 -1.5 -2.2 -0.7 -3 0.8 -0.8 0.6 -1.1 -0.7 -1 -2.2 0.2 -14.8 -16.2 -16.8 -22 -1.3 -3.7 -1.2 -4.4 0.2 -6.5 1.5 -2.2 1.5 -2.2 -0.1 -0.9 -1 0.8 -1.9 1.2 -2.1 1 -0.2 -0.2 -1.4 -4 -2.6 -8.4 -1.2 -4.4 -2.9 -9.5 -3.7 -11.3 -3.6 -8.2 0.5 -4.1 16 16.1 9.2 12 16.7 22 16.7 22.4 0 0.3 -0.8 1.5 -1.7 2.6 -1 1.1 -1.2 1.7 -0.4 1.2 1 -0.6 1.2 -0.1 0.6 2.6 -0.4 1.9 -1.2 4.7 -1.9 6.2 -1.1 2.8 -1.2 2.8 -2.8 1z m-0.5 -12.5 c0.5 -1.6 -1 -4.8 -2.4 -4.8 -1.6 0 -2.2 2.9 -0.9 4.5 1.5 1.8 2.7 1.9 3.3 0.3z m-10.8 -16.8 c-1.6 -1.8 -2 -1.9 -2.7 -0.6 -0.5 0.9 -0.4 2.3 0.4 3.5 1.1 1.8 1.4 1.9 2.7 0.6 1.3 -1.3 1.2 -1.7 -0.4 -3.5z"/>
  <path d="M94.9 418.7 c-5.4 -6.3 -13.5 -19.1 -15.2 -24 -0.9 -2.3 -3 -8.9 -4.7 -14.7 -1.7 -5.8 -3.8 -12.2 -4.6 -14.3 -1.7 -4.6 -1.7 -4.7 0.1 -4.7 0.8 0 3.6 3.2 6.2 7.1 6.9 10.2 7 10.5 15.3 21.4 13.2 17.4 12.4 15.7 11 22.7 -1.2 6.2 -2.9 10.8 -3.9 10.8 -0.3 -0.1 -2.2 -2 -4.2 -4.3z m2.5 -10.3 c0.9 -2.4 -2.3 -5.7 -4 -4.3 -1.1 0.9 -1 1.5 0.4 3.5 2 2.8 2.8 3 3.6 0.8z m-11.7 -18.1 c-2.4 -2.4 -3.2 -0.9 -1.6 2.8 1.2 3.1 1.3 3.2 2.3 1 0.7 -1.7 0.5 -2.6 -0.7 -3.8z"/>
  <path d="M416.3 408.2 c-0.6 -0.9 -5.1 -7.2 -10 -13.8 -20.8 -28.7 -26 -36 -26.6 -37.6 -0.4 -1.1 0.8 -3.5 3.4 -6.7 l4.1 -5.1 9.9 13.6 c5.5 7.5 9.8 14.2 9.5 15 -0.3 0.7 0 1.1 0.7 0.9 1.1 -0.4 2.9 1.8 13 16.1 l2.8 4 -2.5 7.4 c-1.4 4 -2.7 7.5 -2.9 7.6 -0.1 0.2 -0.8 -0.5 -1.4 -1.4z m-8.3 -23.9 c-0.1 -2.4 -0.2 -2.6 -1.1 -1 -0.5 0.9 -0.7 2.2 -0.4 2.7 1 1.7 1.5 1.1 1.5 -1.7z m-7.3 -10.9 c0.2 -0.5 -0.3 -1.9 -1.2 -2.9 -1.2 -1.7 -1.6 -1.8 -2.4 -0.6 -0.6 1 -0.6 2.2 0 3.4 1 1.8 3 1.9 3.6 0.1z m-7.1 -7.1 c1.5 -2 2.3 -3.3 1.6 -2.9 -1.3 0.8 -5.6 6.6 -4.9 6.6 0.3 0 1.7 -1.7 3.3 -3.7z m-2.8 -5.5 c1.5 -1.9 -3 -8.2 -4.6 -6.6 -1.6 1.6 -1.5 2.5 0.6 5.3 2 2.8 2.6 3 4 1.3z"/>
  <path d="M259.2 400.9 c-2.3 -3.1 -4.2 -6.1 -4.2 -6.7 0 -0.7 -0.4 -1.2 -1 -1.2 -1.2 0 -9 -10.5 -9 -12.1 0 -0.7 0.8 -2.2 1.7 -3.3 1.5 -1.8 1.4 -1.7 -0.8 0.2 l-2.6 2.3 -4.2 -5.5 c-4.6 -6.2 -4.8 -7.1 -2.4 -10 1.5 -1.7 1.3 -1.7 -0.8 0.2 l-2.6 2.3 -3.5 -4.8 c-4.7 -6.5 -6.1 -9.2 -5.4 -10.9 0.3 -0.8 0.2 -1.3 -0.3 -0.9 -1 0.6 -4.3 -7.5 -6.2 -15 -0.9 -3.6 -0.9 -4.9 0.2 -6.3 1.3 -1.5 1.2 -1.6 -0.3 -0.4 -1.4 1.1 -1.8 0.7 -3.3 -3.8 -0.9 -2.8 -1.5 -5.3 -1.2 -5.6 0.3 -0.3 2.5 2.1 4.9 5.3 2.4 3.2 14 18.3 25.6 33.6 11.7 15.3 21.9 28.9 22.8 30.2 1.4 2.1 1.3 3 -0.9 10.1 l-2.3 7.8 -4.2 -5.5z m-6.2 -19.6 c0 -1.9 -0.3 -2.4 -1 -1.7 -0.6 0.6 -0.8 1.8 -0.4 2.7 0.9 2.4 1.4 2.1 1.4 -1z m-8.5 -14.3 c-1.6 -1.8 -2 -1.9 -2.7 -0.6 -0.5 1 -0.4 2.4 0.3 3.7 1 1.9 1.2 2 2.7 0.5 1.4 -1.4 1.4 -1.7 -0.3 -3.6z m-10.6 -13.9 c-2 -2.7 -2.5 -2.9 -3.7 -1.7 -1.2 1.2 -1.1 1.8 0.9 4.5 2 2.7 2.5 2.9 3.7 1.7 1.2 -1.2 1.1 -1.8 -0.9 -4.5z"/>
  <path d="M97.4 393.9 c-4.4 -5.7 -9 -11.9 -10.4 -14 -1.4 -2 -5.8 -8 -9.9 -13.4 -9.8 -13 -10.4 -14.2 -14.6 -27 -1.9 -6 -4.4 -13.7 -5.5 -17 -2.6 -7.8 -2.6 -8.9 0 -7.3 1.1 0.7 2.3 2.1 2.6 3 0.3 1 1.1 2.4 1.7 3 4.3 4.6 18.8 23.8 22.2 29.4 1.1 1.8 3.9 5.7 6.3 8.6 6 7.4 17.2 22.7 19.3 26.3 1.8 2.9 1.7 3.2 -0.3 10 -1.1 3.9 -2.4 7.4 -2.8 7.8 -0.4 0.5 -4.3 -3.7 -8.6 -9.4z m-1.8 -15.5 c-0.5 -1.8 -1 -2.4 -1.7 -1.7 -0.7 0.7 -0.7 1.7 0.2 3.1 1.7 2.7 2.3 2 1.5 -1.4z m-9.2 -15 c-1.7 -2.6 -3.4 -2.4 -3.4 0.5 0 2.6 2.1 4.3 3.6 3 1.1 -0.9 1 -1.5 -0.2 -3.5z m-9.8 -10.8 c0.7 -1.7 -3.5 -7.8 -4.8 -7 -1.3 0.8 -0.9 3.3 1 5.9 2 2.8 3 3.1 3.8 1.1z"/>
  <path d="M413.4 377.2 c-15 -20.3 -14.1 -18.7 -11.3 -22 l2.4 -2.7 -2.7 2.4 c-1.6 1.4 -3 2.3 -3.2 2 -0.8 -0.9 -19.3 -26.5 -20 -27.7 -0.4 -0.7 0.4 -2.7 2.2 -5 3.9 -5 5.1 -7.6 1.6 -3.3 -1.6 1.9 -3.4 4.2 -4.1 5 -0.6 0.9 -1.3 1.4 -1.5 1.1 -0.2 -0.3 -2.5 -3.4 -5.1 -6.9 l-4.8 -6.4 2.3 -2.6 2.3 -2.6 -2.3 1.9 c-1.2 1.1 -2.5 1.7 -2.8 1.4 -0.3 -0.4 -1.9 -5 -3.6 -10.5 -1.6 -5.4 -3.3 -11 -3.8 -12.5 -1.9 -6 6.2 -1.4 11.9 6.9 2.2 3.2 7 9.9 10.6 14.8 3.6 5 8.6 11.8 11.2 15.3 l4.6 6.3 -2.9 3.2 -2.9 3.2 3.2 -2.8 3.1 -2.9 4.7 6.4 c2.6 3.4 7.1 9.6 10.1 13.7 l5.4 7.4 -2.2 2.6 -2.3 2.6 2.6 -2.3 2.5 -2.2 5.4 7.6 5.3 7.7 -2.3 6.8 c-1.2 3.8 -2.5 7.1 -2.9 7.4 -0.4 0.2 -5.2 -5.8 -10.7 -13.3z m10.6 1.8 c1.7 -2.2 2.9 -4 2.7 -4 -0.3 0 -2 1.8 -3.7 4 -1.7 2.2 -2.9 4 -2.7 4 0.3 0 2 -1.8 3.7 -4z m-14 -19.9 c0 -2.5 -1.1 -3.3 -2.6 -2 -1 0.8 -1 1.5 -0.2 2.9 1.4 2.2 2.8 1.7 2.8 -0.9z m-9 -14 c-0.5 -1 -1.6 -2.4 -2.5 -3.1 -2.8 -2.3 -3.8 0.8 -1.3 4.2 1.6 2.3 2.3 2.6 3.4 1.7 0.9 -0.8 1.1 -1.6 0.4 -2.8z m-11.1 -12.4 c0.8 -1 0.5 -2.1 -1.3 -4.5 -2 -2.8 -2.5 -3 -3.6 -1.7 -1 1.1 -0.8 2 1 4.5 2.5 3.5 2.4 3.4 3.9 1.7z m-10.5 -16.8 c-0.3 -0.5 -1.1 -2.1 -1.9 -3.5 l-1.3 -2.6 -1.2 2.2 c-1.6 2.9 1.3 7.8 3.6 6 0.7 -0.7 1.1 -1.6 0.8 -2.1z m-10.4 -13.7 c0 -0.5 -0.6 -1.7 -1.4 -2.7 -1.3 -1.8 -1.4 -1.8 -0.9 0.8 0.5 2.4 2.3 3.9 2.3 1.9z"/>
  <path d="M266.2 384.3 l-2.3 -3.6 2.3 -2.6 2.3 -2.6 -2.6 2.3 -2.6 2.3 -9.1 -12 c-5.1 -6.6 -9.2 -12.5 -9.2 -13.1 0 -0.6 1.7 -3.3 3.8 -6.1 l3.7 -5 2.3 2.8 c1.2 1.5 6.1 7.8 10.8 14 l8.5 11.2 -2.2 7.3 c-1.2 4 -2.4 7.6 -2.8 8 -0.3 0.3 -1.6 -1 -2.9 -2.9z m-7.6 -22 c1.5 -2 2.3 -3.3 1.6 -2.9 -1.3 0.8 -5.6 6.6 -4.9 6.6 0.3 0 1.7 -1.7 3.3 -3.7z m-5.1 -9 c-0.4 -1.2 -0.8 -1.4 -1.7 -0.5 -0.9 0.9 -0.8 1.8 0.3 3.9 1.4 2.6 1.4 2.6 1.7 0.4 0.2 -1.2 0.1 -3 -0.3 -3.8z"/>
  <path d="M106 377.8 c-2.4 -3.5 -6 -8.3 -8 -10.8 -2.1 -2.5 -5.7 -7.2 -8.1 -10.6 -6.5 -9 -25.2 -34.1 -30.3 -40.5 -5.8 -7.3 -8.3 -12.4 -11.9 -23.9 -3.9 -12.7 -4.2 -14 -2.7 -14 2.1 0 9.9 6 11.7 9 0.9 1.7 2.1 3 2.5 3 0.4 0 0.8 0.6 0.8 1.4 0 0.7 4.2 6.8 9.4 13.4 5.2 6.6 10.5 13.6 11.8 15.4 1.3 1.9 4.4 6.1 7 9.3 2.6 3.3 8.9 11.6 13.9 18.5 5.1 6.9 10.2 13.6 11.4 15 3.4 3.7 3.7 7.6 1.2 14.4 -1.2 3.3 -2.7 6.1 -3.2 6.3 -0.6 0.2 -3.1 -2.5 -5.5 -5.9z m-10.2 -28.2 c-1 -1.8 -1.1 -1.8 -2 -0.2 -0.7 1.2 -0.6 2.2 0.3 3.2 1.7 2.1 3.1 -0.3 1.7 -3z m-9.9 -13.7 c-2.1 -3 -3.4 -3.6 -4.4 -1.9 -1 1.7 3.8 6.9 5.2 5.8 1 -0.8 0.8 -1.7 -0.8 -3.9z m-10.4 -11.9 c0.3 -0.6 -0.3 -2.4 -1.5 -4 -1.7 -2.5 -2.5 -2.8 -3.6 -1.9 -1.1 0.9 -1 1.6 0.9 4 2.4 3 3.3 3.4 4.2 1.9z m-12.2 -18.6 c-0.8 -1.3 -1.9 -2.4 -2.4 -2.4 -1.8 0 -2 2.2 -0.4 4.6 1.3 2 1.9 2.3 3 1.4 1.2 -1 1.2 -1.5 -0.2 -3.6z"/>
  <path d="M426.4 368.3 c-0.9 -1.6 -6.2 -8.9 -11.7 -16.3 -5.5 -7.4 -11.4 -15.4 -13.1 -17.7 -1.7 -2.3 -5.5 -7.6 -8.4 -11.7 l-5.4 -7.6 4.1 -4.9 c2.3 -2.7 4.1 -5.2 4.1 -5.6 0 -0.4 -1.8 1.6 -4.1 4.4 -4.7 5.9 -4.7 5.9 -10.5 -2.4 l-3.7 -5.4 4.3 -5.6 c2.3 -3 4.8 -5.5 5.4 -5.5 0.6 0 1.7 1 2.5 2.2 0.7 1.2 11.4 15.6 23.7 32.1 12.3 16.4 22.4 30.5 22.4 31.3 0 2.7 -5.4 15.4 -6.6 15.4 -0.6 0 -2 -1.2 -3 -2.7z m-1.4 -16.3 c1.7 -2.2 2.9 -4 2.7 -4 -0.3 0 -2 1.8 -3.7 4 -1.7 2.2 -2.9 4 -2.7 4 0.3 0 2 -1.8 3.7 -4z m-13.6 -17.5 c0.5 -1.5 -1.2 -7.5 -2.2 -7.5 -0.3 0 -1.4 0.7 -2.3 1.6 -1.8 1.6 -1.8 1.8 0.2 4.5 2.3 3.2 3.4 3.6 4.3 1.4z m-10.4 -15.5 c0.9 -1.7 0.7 -2.7 -1.1 -5.1 l-2.2 -3.1 -1.8 2.3 c-1.7 2.2 -1.7 2.4 0.3 5.1 2.3 3.3 3.4 3.5 4.8 0.8z m-11.7 -19.4 c-2 -2.5 -2.1 -2.5 -3.8 -0.6 -1.7 1.9 -1.7 2.1 0 4.6 l1.7 2.6 2 -2 2.1 -2 -2 -2.6z"/>
  <path d="M263.7 354.4 l-9.7 -12.6 3.1 -4.1 3.1 -4.2 -3.4 3.8 -3.3 3.7 -5.3 -7 -5.4 -6.9 4.7 -6.1 c2.5 -3.3 5 -5.8 5.4 -5.6 0.4 0.3 6.9 8.4 14.4 18 l13.7 17.5 -2.4 6.7 c-4.1 11.1 -3.9 11.2 -14.9 -3.2z m6.3 -7 c1.8 -2.6 2.9 -4.5 2.4 -4.2 -0.5 0.4 -2.5 2.8 -4.4 5.4 -1.8 2.6 -2.9 4.5 -2.4 4.2 0.5 -0.4 2.5 -2.8 4.4 -5.4z m-15 -18.3 c0 -1.5 -0.6 -3.5 -1.3 -4.6 -1.3 -1.7 -1.5 -1.7 -3 0.5 -1.5 2.1 -1.4 2.5 0.5 5.1 2.5 3.3 3.8 2.9 3.8 -1z"/>
  <path d="M104.3 348.4 c-6.5 -8.6 -14 -18.7 -16.8 -22.4 -9.5 -12.9 -14.5 -19.5 -17.3 -22.9 -1.5 -1.9 -3.8 -5.1 -5.2 -7.1 -1.4 -2 -4.2 -5.7 -6.2 -8.2 -2.1 -2.5 -3.8 -4.8 -3.8 -5.1 0 -0.3 3.3 -0.5 7.3 -0.4 3.9 0.1 8.1 -0.1 9.2 -0.5 1.7 -0.6 3.1 0.7 9 8.3 3.9 5.1 8.4 10.8 10 12.9 1.7 2 4.1 5.2 5.5 7 1.4 1.8 8.2 10.7 15.3 19.8 7 9 12.7 17 12.7 17.7 0 3.2 -5.7 16.5 -7.1 16.5 -0.5 0 -6.1 -7 -12.6 -15.6z m-6.8 -22.5 c0.8 -1.2 -1.3 -6.9 -2.5 -6.9 -0.4 0 -1.3 0.6 -1.9 1.4 -1 1.2 -0.9 2 0.4 4 1.9 2.8 3 3.2 4 1.5z m-11.8 -20.1 c-2.5 -3.3 -2.8 -3.4 -4.4 -0.9 -0.9 1.5 -0.8 2.4 1 4.8 2.1 3 2.1 3 3.8 1 1.6 -2 1.5 -2.3 -0.4 -4.9z m-11.4 -14.4 c-1.8 -2.9 -2.2 -2.9 -3.8 -0.7 -1 1.4 -1 2.2 0.2 4 1.5 2.2 1.7 2.3 3.4 0.7 1.7 -1.5 1.7 -1.8 0.2 -4z"/>
  <path d="M238 347 c-4.6 -6.2 -5.1 -7.2 -3.9 -8.8 1.2 -1.5 1.2 -1.6 -0.2 -0.5 -1.3 1.1 -1.9 0.9 -3.5 -1 -3.2 -3.6 -8.4 -10.5 -8.4 -11.1 0 -0.3 -1.4 -2 -3 -3.8 -1.7 -1.8 -4.2 -5 -5.7 -7 -2.2 -3.3 -2.4 -4 -1.2 -5.5 1.3 -1.6 1.2 -1.7 -0.3 -0.4 -1.5 1.1 -1.9 1.1 -2.3 0 -0.3 -0.8 -2.2 -6.7 -4.4 -13.1 -3.7 -11.4 -3.7 -11.8 -1.7 -11.8 2.7 0.1 7.3 4.2 11.9 10.6 3.4 4.8 3.5 5.1 1.9 6.9 -1.6 1.8 -1.6 1.8 0 0.6 2.6 -1.9 1.1 -3.4 19.5 20.8 l4.2 5.5 -3.1 4 -3 4.1 2.9 -3.2 c1.6 -1.8 3.4 -3.3 3.9 -3.3 0.5 0.1 3.1 3 5.7 6.6 l4.8 6.5 -4.1 5.5 c-2.2 3 -4.2 5.4 -4.4 5.4 -0.2 0 -2.8 -3.2 -5.6 -7z m6.8 -6.1 c-1.9 -3.4 -3.1 -4 -4.7 -2.4 -1.2 1.1 -1 1.8 1 4.3 2 2.4 2.6 2.8 3.7 1.7 1.2 -1 1.2 -1.6 0 -3.6z m-10.8 -13.8 c-1.6 -3 -4 -4.5 -5.2 -3.3 -0.7 0.7 -0.4 1.9 1.2 4.2 1.7 2.4 2.5 2.8 3.6 1.9 0.9 -0.8 1.1 -1.6 0.4 -2.8z m-8 -8.1 c1.7 -2.2 2.9 -4 2.7 -4 -0.3 0 -2 1.8 -3.7 4 -1.7 2.2 -2.9 4 -2.7 4 0.3 0 2 -1.8 3.7 -4z m-4.2 -8.3 c-1.5 -3.1 -2.1 -3.3 -3.8 -1.2 -1.7 2 1.9 7 3.8 5.1 1 -0.9 1 -1.7 0 -3.9z m-9.8 -11 c0 -0.7 -0.7 -2.2 -1.5 -3.3 -1.3 -1.7 -1.4 -1.6 -0.4 1.4 1.1 3.3 1.9 4.1 1.9 1.9z"/>
  <path d="M376.1 345.8 c-1.2 -4 -3.3 -10.9 -4.6 -15.3 -2 -6.7 -2.5 -10.1 -1.2 -8.4 3.3 4.1 15 20.5 15.4 21.5 0.5 1.4 -5.2 9.4 -6.7 9.4 -0.4 0 -1.8 -3.3 -2.9 -7.2z"/>
  <path d="M413.1 319.9 c-25.5 -34 -25.1 -33.1 -17.3 -35.9 3.7 -1.3 4.5 -1.2 7.7 0.3 2 0.9 3.9 2.6 4.3 3.6 0.4 1.1 1.2 1.9 1.7 1.8 0.6 -0.1 5.7 6.1 11.4 13.7 7.2 9.6 10.1 14.3 9.5 15.2 -0.5 0.7 -2.4 3.2 -4.3 5.6 -3.1 4 -3 3.9 1.3 -0.7 l4.6 -5 2 2.5 c1.1 1.4 3.2 4.3 4.7 6.5 1.6 2.2 3.1 4.2 3.6 4.3 0.4 0.2 0.7 1.1 0.7 2 0 2.4 -5 17.2 -5.8 17.2 -0.4 0 -11.2 -14 -24.1 -31.1z m23.9 17.1 c1.7 -2.2 2.9 -4 2.7 -4 -0.3 0 -2 1.8 -3.7 4 -1.7 2.2 -2.9 4 -2.7 4 0.3 0 2 -1.8 3.7 -4z m-36.6 -49 c-0.6 -0.6 -1.8 -0.8 -2.7 -0.4 -1.3 0.5 -1.4 0.9 -0.4 2.5 1 1.6 1.3 1.7 2.6 0.4 1.1 -1 1.2 -1.8 0.5 -2.5z"/>
  <path d="M267.3 329.8 l-13.2 -17.1 4.5 -6.1 c4.5 -6 2.4 -4.2 -2.6 2.2 l-2.5 3.3 -5.5 -7.2 c-3 -4 -7.6 -9.8 -10.2 -12.9 -2.7 -3.2 -4.8 -6.4 -4.8 -7.2 0 -2 5.3 -4.8 9 -4.8 3.7 0 9 2.5 9 4.3 0 0.7 -0.4 1.8 -1 2.5 -0.7 0.9 -0.7 0.9 0.2 0.2 0.7 -0.5 1.8 -1 2.4 -1 0.7 0 8.2 9.1 16.8 20.2 8.5 11.2 16 20.8 16.6 21.5 0.5 0.7 1 1.8 1 2.5 -0.1 2.6 -4.6 16.2 -5.6 16.4 -0.5 0.2 -6.8 -7.4 -14.1 -16.8z m16.7 -1.7 c0 -0.6 -0.8 0.3 -4.8 5.5 -1.8 2.3 -3.2 4.5 -3.2 5 0 0.4 1.8 -1.7 4 -4.6 2.2 -2.9 4 -5.6 4 -5.9z m-10.8 -11.6 c1.4 -2.7 -0.1 -1 -4.1 4.5 l-3.3 4.5 3.2 -3.5 c1.7 -1.9 3.6 -4.4 4.2 -5.5z m-29.9 -31.6 c-0.7 -0.7 -1.9 -0.9 -2.8 -0.6 -1.3 0.6 -1.3 1 -0.3 2.7 1.1 1.7 1.4 1.8 2.7 0.5 1.1 -1.1 1.2 -1.8 0.4 -2.6z"/>
  <path d="M116.1 332.7 c-9.1 -11.6 -26.8 -33.9 -32.3 -40.6 -2 -2.5 -4.9 -6.3 -6.4 -8.5 l-2.8 -3.8 2.7 -2.4 c2.1 -1.8 4 -2.4 7.4 -2.4 4.5 0 4.9 0.3 12.7 8.2 7 7.2 13.1 14.7 30.5 37.5 l3.4 4.5 -2.7 8.4 c-1.5 4.6 -3.1 8.6 -3.5 8.9 -0.5 0.2 -4.5 -4.1 -9 -9.8z m-30.7 -52.9 c-0.7 -1 -3.4 -1 -3.4 0 0 0.4 0.5 1.3 1.2 2 0.9 0.9 1.4 0.9 1.9 0 0.4 -0.7 0.5 -1.6 0.3 -2z"/>
  <path d="M433.1 316.1 c-5.5 -7.7 -10.1 -14.3 -10.1 -14.7 0 -0.4 1 -1.9 2.3 -3.3 l2.2 -2.6 -2.6 2.3 c-1.4 1.2 -2.8 2.2 -3.1 2.2 -0.3 0 -1.8 -1.6 -3.2 -3.5 l-2.7 -3.5 2.4 -0.9 c1.3 -0.5 3.4 -2.2 4.7 -3.8 l2.2 -2.8 2.4 2.8 c1.3 1.5 3.1 5.3 3.9 8.5 0.8 3.1 2.4 7.5 3.5 9.6 1.8 3.5 1.9 4.1 0.5 5.6 -0.8 0.9 -1.5 2 -1.5 2.5 0 0.4 0.9 -0.4 2 -1.8 1.1 -1.4 3.5 -3.3 5.3 -4.2 3.2 -1.6 3.2 -1.6 5.9 1.7 3.3 4 3.4 4.4 0.6 10.5 -2.1 4.7 -2.3 5.5 -2.6 8.1 -0.4 2.7 -2.3 0.6 -12.1 -12.7z"/>
  <path d="M237 319.4 c-5 -6.7 -5.8 -8.8 -4 -9.9 0.5 -0.3 1.9 -2 3.1 -3.8 1.6 -2.4 1.1 -2.1 -1.7 1.1 l-3.9 4.3 -4.1 -5.3 c-2.2 -2.9 -4.4 -5.9 -4.8 -6.6 -0.9 -1.4 6.9 -12.2 8.8 -12.2 0.6 0.1 2.7 2.2 4.6 4.7 5.2 6.9 5.3 7.2 3.8 9.1 -1.2 1.5 -1.1 1.6 0.5 0.3 1.9 -1.5 2 -1.5 5.1 2.7 1.1 1.7 3.4 4.6 4.9 6.5 l2.8 3.5 -4.7 6.1 c-2.6 3.4 -4.9 6.1 -5 6.1 -0.2 0 -2.6 -3 -5.4 -6.6z m7.5 -7.4 c-0.8 -0.9 -1.5 -2.2 -1.5 -2.8 0 -1.9 -2.4 -1.4 -3.8 0.8 -1.1 1.8 -1 2.5 0.9 5.2 l2.2 3.1 1.9 -2.3 c1.7 -2.1 1.7 -2.5 0.3 -4z m-12.1 -15.4 c-1.7 -2.7 -1.7 -2.7 -3.7 -0.8 -1.9 2 -1.9 2.1 -0.1 4.5 1.8 2.5 2 2.5 3.8 0.8 1.7 -1.8 1.7 -2 0 -4.5z"/>
  <path d="M286.5 324.6 c-0.6 -0.8 -3 -4 -5.3 -7 l-4.4 -5.5 2.1 -3 c1.2 -1.6 3.6 -3.8 5.5 -4.9 l3.3 -2 3.1 4 c3 3.9 3 4 1.5 8.4 -0.8 2.4 -1.9 4.6 -2.4 5 -0.5 0.3 -0.9 1.8 -0.9 3.5 0 3.2 -0.9 3.7 -2.5 1.5z"/>
  <path d="M128.7 318.8 c-1.5 -2.5 -17.2 -22.4 -23.2 -29.7 l-3.6 -4.4 2.8 -1.7 c1.5 -0.9 3.4 -2.4 4.2 -3.3 0.7 -1 2 -1.7 2.8 -1.7 1.3 0 7.3 11.2 7.3 13.8 0 2.5 4.1 9.2 5.6 9.2 0.8 0 2.8 -0.7 4.4 -1.5 2.7 -1.4 2.9 -1.4 5.4 1.6 1.4 1.7 2.6 3.9 2.6 5 0 2.3 -5.1 14.9 -6.1 14.9 -0.4 0 -1.3 -1 -2.2 -2.2z"/>
  <path d="M271 304.5 l-5.3 -6.6 2.2 -3.2 2.2 -3.2 -2.5 2.7 -2.5 2.8 -3.1 -3.9 c-2.9 -3.7 -2.9 -4 -1.1 -4.6 1.1 -0.3 3.2 -2 4.7 -3.8 l2.6 -3.1 2.4 2.7 c1.3 1.5 3.3 5.9 4.5 9.7 1.1 3.8 2.9 8 3.9 9.3 1.7 2.2 1.7 2.3 -0.5 5 l-2.2 2.9 -5.3 -6.7z"/>
  <path d="M449.3 309.8 c-3.3 -4.2 -3.4 -5.6 -0.7 -11 3.6 -7.3 4.4 -8.1 6 -6.7 1.9 1.6 1.7 4.6 -0.6 11.5 -2.4 6.8 -3.3 8 -4.7 6.2z"/>
  <path d="M291.1 302.9 c-1.5 -2.5 -1.7 -3.7 -1 -5.8 1.2 -3.1 5.8 -11.1 6.4 -11.1 0.3 0 1.1 1 2 2.3 1.4 2.1 1.3 3 -1.1 10 -1.4 4.2 -3 7.7 -3.5 7.7 -0.5 0 -1.8 -1.4 -2.8 -3.1z"/>
  <path d="M135.8 299.8 c-1 -1.2 -1.8 -3 -1.8 -4 0 -2.2 4.8 -12 6.3 -13 3.1 -1.9 3.5 2.6 1.1 11 -2.1 7.5 -3.4 8.8 -5.6 6z"/>
  <path d="M373.2 295.4 c-1.9 -2.5 -3.2 -4.7 -3 -4.9 0.2 -0.2 3.4 -0.1 7.1 0.3 l6.8 0.7 -3.3 4.3 c-1.8 2.3 -3.5 4.2 -3.8 4.2 -0.3 -0.1 -2 -2.1 -3.8 -4.6z"/>
  <path d="M216.2 292.4 c-1.9 -2.5 -3.2 -4.7 -3 -4.9 0.2 -0.2 3.4 -0.1 7.1 0.3 l6.8 0.7 -3.3 4.3 c-1.8 2.3 -3.5 4.2 -3.8 4.2 -0.3 -0.1 -2 -2.1 -3.8 -4.6z"/>
  <path d="M456.1 290.6 c-1.1 -1.3 -1 -1.7 0.3 -2.2 2.2 -0.8 3 0.1 1.9 2.1 -0.9 1.5 -1.1 1.5 -2.2 0.1z"/>
  <path d="M299.5 286 c-0.8 -1.3 -0.1 -2.4 1.4 -1.9 0.6 0.3 0.7 1 0.2 1.8 -0.6 1 -1 1 -1.6 0.1z"/>
 </g>
 <g fill="#d2c78a">
  <path d="M125.3 294.8 c-0.6 -0.7 -1.8 -3.6 -2.6 -6.4 -2.1 -7 -4.2 -10.8 -7.3 -13.3 -3.6 -2.8 -5.5 -2.6 -8.9 0.9 -3.6 3.7 -5.5 3.8 -9.7 0.1 -7.8 -6.7 -13.9 -7.2 -23 -1.5 -7.2 4.4 -10.9 4.6 -20.8 1.5 -7.2 -2.3 -13 -2.7 -14.7 -1 -3 3 -9.3 -5 -9.3 -11.9 0 -8.2 4.4 -13.2 11.7 -13.2 4.7 0 6.6 -1.5 3.1 -2.5 -8.7 -2.4 -12.3 -9.8 -8.4 -17.4 2.9 -5.5 16.9 -14.1 23.2 -14.1 l3.9 -0.1 -4 -2.1 c-4.9 -2.6 -5.5 -3.3 -5.5 -8 0 -2.5 0.7 -4.5 2.1 -5.9 1.9 -1.9 1.9 -2.2 0.5 -3.8 -2.2 -2.4 -2 -7.4 0.4 -12 2.4 -4.9 14.8 -16.1 17.6 -16.1 l2.1 0 -2.1 -4.2 c-7.4 -15.1 5.3 -35.3 23.4 -37.5 7.6 -0.9 8.8 0.1 4.7 3.7 -4.5 3.9 -6.2 8.1 -5.1 12.3 1.3 4.2 5.5 6.9 14.5 9 14.6 3.5 20.9 9.4 18.4 17.5 -0.5 1.6 -0.3 2.2 0.8 2.2 2.2 0 6.7 5.7 6.7 8.4 0 1.3 -0.9 4.4 -2 6.9 -1.7 3.8 -2.7 4.8 -6.3 6 l-4.2 1.5 5.4 0.1 c4.6 0.1 6.4 0.7 11.8 4.2 9.2 6 13.3 10.9 13.3 15.9 0 6.5 -3.6 16.1 -7.3 19.4 l-3.2 2.8 3.5 -0.6 c1.9 -0.4 4.9 -1 6.7 -1.3 8.1 -1.4 15.3 2.9 15.3 9 0 2.7 -1 4.6 -4.6 8.6 -2.9 3.3 -4 5.1 -3.1 5.1 2.4 0 2.8 1.4 1.4 5.2 -1.8 5.1 -3.9 7.4 -8.8 10.2 -3.1 1.8 -5.9 2.6 -9.4 2.6 -7.4 0 -9.2 1.4 -13 10.4 -4 9.3 -5.6 11.4 -7.2 9.4z m8.8 -22.8 c2.4 -1.1 6.6 -2 9.2 -2 5.2 0 9.1 -1.6 12.1 -4.9 1.9 -2.1 1.9 -2.1 -0.2 -2.1 -1.9 0 -2.2 -0.6 -2.2 -3.7 0 -3.3 0.7 -4.4 6.3 -9.5 l6.2 -5.8 -2.9 -2.6 c-3.1 -2.8 -2.9 -2.8 -15.7 -0.3 -8.2 1.6 -9.9 1 -9.9 -3.4 0 -2.8 0.8 -4.1 4.8 -7.4 4 -3.4 5.2 -5.2 6.7 -10.2 1.8 -6.1 1.8 -6.2 -0.2 -8.9 -1.1 -1.5 -4.9 -4.7 -8.4 -7.2 -6.3 -4.5 -6.5 -4.5 -16.4 -5 l-10 -0.5 0 -4 0 -4 6.8 -1.6 c7.6 -1.9 9.2 -2.9 10.1 -6.5 1 -3.8 -1.7 -7.4 -5.4 -7.4 -2.8 0 -3 -0.3 -3 -3.5 0 -1.9 0.6 -4.4 1.3 -5.6 1 -1.8 0.9 -2.3 -1.6 -4.4 -1.5 -1.4 -5.2 -3.1 -8.2 -4 -3 -0.8 -7.9 -2.2 -10.9 -3 -7.4 -2.1 -10.6 -5.9 -10.6 -12.7 l0 -5.1 -3.1 3.9 c-4.9 6.1 -7.2 11.9 -6.5 16.8 2.1 14.7 2.1 14.1 -1.6 16.4 -4 2.5 -12.9 11.6 -14.8 15.2 -0.7 1.4 -1.2 5.3 -1.1 9.7 l0.2 7.3 -3.1 0 c-5.1 0 -3 2.3 3.6 4 8 2.1 8.4 2.5 8.4 7.1 l0 3.9 -8.2 0 c-7.4 0 -8.6 0.3 -14.3 3.5 -9.6 5.3 -9.8 6.1 -1.8 6.9 13.5 1.4 12.9 1.1 15.2 7.9 2.9 8.4 2.7 12.8 -0.5 16.6 -3 3.6 -4.1 9.3 -2.5 13.4 1.6 4.1 3.3 4.2 8.6 0.5 4.5 -3.2 5 -3.3 14 -3.3 8.4 0 9.6 0.2 13 2.7 3.5 2.4 4 2.6 5.9 1.2 3.4 -2.3 12.4 -1.8 17.1 1.1 4.8 3 7.9 3.1 13.6 0.5z"/>
  <path d="M201 256.6 c0 -0.7 1 -1.7 2.3 -2 l2.2 -0.7 -2.4 -1 c-3.4 -1.3 -1.4 -3.1 3 -2.7 3.1 0.3 3.4 0.6 3.7 4.1 l0.3 3.7 -4.5 0 c-3.3 0 -4.6 -0.4 -4.6 -1.4z"/>
  <path d="M193.6 233.5 c0.9 -1.4 2.6 -3 3.6 -3.6 1.8 -0.9 1.9 -0.7 1.6 2.3 -0.3 2.9 -0.7 3.3 -3.6 3.6 l-3.3 0.3 1.7 -2.6z"/>
  <path d="M220 221.9 c0 -1.1 0.4 -1.7 1 -1.4 0.5 0.3 1.8 0.1 2.7 -0.4 1.6 -0.9 1.6 -1 -0.4 -1.1 -1.2 0 -2.5 -0.4 -2.8 -1 -0.4 -0.6 1.2 -1 3.9 -1 4.6 0 4.6 0 4.6 3.5 0 3.5 0 3.5 -4.5 3.5 -3.9 0 -4.5 -0.3 -4.5 -2.1z"/>
  <path d="M212 203.5 c0 -0.8 0.7 -1.5 1.5 -1.5 2 0 1.9 -1 -0.2 -2.6 -1.6 -1.2 -1.4 -1.3 2 -1.4 3.6 0 3.7 0.1 3.7 3.5 0 3.3 -0.2 3.5 -3.5 3.5 -2.4 0 -3.5 -0.5 -3.5 -1.5z"/>
  <path d="M273 197.5 l0 -3.5 5.8 0.1 5.7 0.1 -4.5 1.3 c-4.2 1.2 -4.3 1.3 -1.5 1.6 1.7 0.1 3.6 0.2 4.3 0.2 0.6 -0.1 1.2 0.8 1.2 1.8 0 1.6 -0.8 1.9 -5.5 1.9 l-5.5 0 0 -3.5z"/>
 </g>
 <g fill="#f4bf86">
  <path d="M404.1 437.4 c-1 -3.9 -0.9 -5 0.4 -7 1.8 -2.8 2.8 -3 4.5 -0.9 0.9 1.1 0.8 2.5 -0.5 6.5 -0.9 2.7 -2 5.2 -2.5 5.5 -0.4 0.3 -1.3 -1.6 -1.9 -4.1z"/>
  <path d="M249.9 433.8 c-0.9 -3.5 -0.8 -4.7 0.4 -6.7 2 -3.4 3.3 -3.7 4.7 -1.1 0.9 1.6 0.8 3.2 -0.5 7.1 -0.9 2.7 -2.1 4.9 -2.5 4.9 -0.5 0 -1.4 -1.9 -2.1 -4.2z"/>
  <path d="M92 433.4 c-1 -2.9 -1 -4.1 0.1 -6 1.5 -2.8 4.2 -2.8 4.7 0 0.5 2.3 -1.8 9.6 -2.9 9.6 -0.4 0 -1.3 -1.6 -1.9 -3.6z"/>
  <path d="M399.7 422.8 c-0.9 -3.4 -1.4 -6.4 -1.2 -6.6 0.5 -0.6 6.5 7.9 6.5 9.3 0 1.2 -2 3.5 -3.1 3.5 -0.3 0 -1.4 -2.8 -2.2 -6.2z"/>
  <path d="M247.7 425.3 c-0.4 -0.6 -1.6 -4 -2.6 -7.4 l-2 -6.4 4 4.5 c2.1 2.5 3.9 5 3.9 5.6 0 1.8 -2.6 4.8 -3.3 3.7z"/>
  <path d="M410 424.6 c0 -1.7 3.9 -6.6 4 -4.9 0 0.6 -0.4 2.3 -1 3.7 -1 2.8 -3 3.5 -3 1.2z"/>
  <path d="M87.5 418.8 c-1.7 -6 -1.3 -7 1.5 -3.7 2.3 2.8 3.5 6.3 2.5 7.8 -1.3 2.2 -2.5 1 -4 -4.1z"/>
  <path d="M256.5 421.7 c-0.4 -1 0 -2.8 1.1 -4.4 2.2 -3.5 3 -1.6 1.1 2.8 -1.2 2.8 -1.6 3.1 -2.2 1.6z"/>
  <path d="M403.5 416 l-3.7 -5 3.3 -4.5 c1.9 -2.4 3.9 -4.5 4.5 -4.5 1.2 0 7.4 8.5 7.4 10.1 0 1.4 -5.9 8.9 -7 8.9 -0.5 0 -2.5 -2.3 -4.5 -5z"/>
  <path d="M249.7 413.1 c-2 -2.6 -3.7 -5.3 -3.7 -5.8 0 -1.4 5.9 -8.8 7 -8.8 0.5 0 2.5 2.2 4.5 4.8 l3.7 4.9 -3.3 4.9 c-1.9 2.7 -3.6 4.9 -3.9 4.9 -0.3 0 -2.3 -2.2 -4.3 -4.9z"/>
  <path d="M91.5 411.4 c-1.9 -2.6 -3.5 -5.3 -3.5 -6.1 0 -0.7 1.6 -3 3.5 -5.1 l3.5 -3.7 3 3.5 c5.5 6.6 5.7 7.4 2.1 11.9 -1.8 2.3 -3.7 4.1 -4.1 4.1 -0.5 0 -2.5 -2.1 -4.5 -4.6z"/>
  <path d="M395 404.5 c-3.5 -5.7 -3.5 -9.4 0 -13.4 1.6 -1.9 3.1 -3.3 3.3 -3 0.2 0.2 2 2.8 4.1 5.7 l3.8 5.2 -3.7 4.5 c-2 2.5 -4 4.5 -4.5 4.5 -0.5 0 -1.8 -1.6 -3 -3.5z"/>
  <path d="M414.1 403.7 c-2.9 -4.3 -4 -7.7 -2.3 -7.7 0.4 0 2.2 2.3 4 5.1 4.4 6.7 2.8 9.1 -1.7 2.6z"/>
  <path d="M240.7 401.3 c-3.9 -6.2 -4.2 -8.3 -1.5 -12.3 1.3 -1.9 2.9 -3.5 3.5 -3.5 1.3 0 8.3 8.5 8.3 10 -0.1 0.6 -1.8 3 -3.9 5.4 l-3.8 4.5 -2.6 -4.1z"/>
  <path d="M259.5 399.9 c-2.1 -3 -3.4 -5.7 -3 -6.6 0.4 -1.2 1.5 -0.3 4 3.3 3 4.2 4.5 8.4 3.1 8.4 -0.2 0 -2.1 -2.3 -4.1 -5.1z"/>
  <path d="M81.5 397 c-3.2 -6.3 -3.1 -8.2 0.3 -12.1 l2.9 -3.2 4.1 5.8 4.1 5.7 -3.6 4.4 c-1.9 2.4 -3.9 4.4 -4.4 4.4 -0.5 0 -2 -2.2 -3.4 -5z"/>
  <path d="M102.2 398 c-3.1 -4.3 -4.1 -7 -2.3 -7 1.4 0 6.2 8 5.9 9.8 -0.2 1.1 -1.3 0.3 -3.6 -2.8z"/>
  <path d="M404.5 390.4 c-1.9 -2.6 -3.5 -5.2 -3.5 -5.8 0 -0.6 1.6 -2.9 3.5 -5.1 3.2 -3.7 3.6 -3.9 4.9 -2.2 3 3.8 2.6 17.7 -0.5 17.7 -0.5 0 -2.4 -2.1 -4.4 -4.6z"/>
  <path d="M388.2 385.4 c-3.2 -11.7 -1.6 -13.5 4.3 -4.9 l3.8 5.4 -2.7 3.6 c-1.5 1.9 -2.8 3.5 -3 3.5 -0.1 0 -1.2 -3.4 -2.4 -7.6z"/>
  <path d="M249.8 387.1 c-2.1 -2.8 -3.8 -5.5 -3.8 -6.1 0 -1.4 6.1 -9 7.1 -9 1.5 0 2.7 3.4 3.4 9.5 0.5 5.1 0.3 6.5 -1.2 8.3 l-1.8 2.3 -3.7 -5z"/>
  <path d="M233.1 381.5 c-3.2 -11 -1.5 -12.6 4.4 -4.5 l3.7 5 -2.2 3.5 c-1.2 1.9 -2.5 3.5 -2.9 3.5 -0.4 0 -1.8 -3.4 -3 -7.5z"/>
  <path d="M91.3 383.2 c-1.8 -2.7 -3.3 -5.2 -3.3 -5.6 0 -1.1 6.2 -8.6 7.2 -8.6 2.8 0 4.9 13 2.8 17.1 -1.6 3 -3.2 2.3 -6.7 -2.9z"/>
  <path d="M75.1 378.8 c-3.7 -10.9 -2 -13.3 3.7 -4.9 3.5 5.1 3.5 7 -0.1 10 -1.3 1 -1.8 0.2 -3.6 -5.1z"/>
  <path d="M394.7 377 c-2 -2.7 -3.7 -5.3 -3.7 -5.7 0 -0.5 1.7 -2.8 3.8 -5.2 l3.8 -4.4 3.7 5.2 c2 2.8 3.7 5.4 3.7 5.7 0 0.9 -6.3 9.4 -7 9.4 -0.3 0 -2.2 -2.2 -4.3 -5z"/>
  <path d="M239.8 374 c-2.1 -2.7 -3.8 -5.4 -3.8 -6 0 -1.5 5.9 -9 7 -9 0.5 0 2.5 2.3 4.5 5 l3.7 5.1 -2.7 3.9 c-4.3 6.2 -4.6 6.3 -8.7 1z"/>
  <path d="M81.2 369.6 c-1.8 -2.4 -3.2 -5 -3.2 -5.6 0 -1.7 5.3 -9 6.5 -8.9 1.7 0 8.5 10.1 7.7 11.4 -1.5 2.5 -6.1 7.5 -7 7.5 -0.5 0 -2.3 -2 -4 -4.4z"/>
  <path d="M384 371.4 c-1.4 -3.6 -0.7 -4.1 1.4 -1 1 1.5 1.2 2.7 0.6 3.1 -0.6 0.3 -1.5 -0.6 -2 -2.1z"/>
  <path d="M228.7 367.9 c-0.4 -1.6 -0.3 -1.8 0.9 -0.8 1.6 1.3 1.9 2.9 0.5 2.9 -0.5 0 -1.1 -0.9 -1.4 -2.1z"/>
  <path d="M385.2 364.5 c-5.9 -8.1 -6 -8.7 -1.6 -13.9 l3.8 -4.5 4.7 6.6 c4 5.5 4.6 6.9 3.6 8.2 -4.3 5.8 -6.1 8.1 -6.6 8.1 -0.3 -0.1 -2.1 -2.1 -3.9 -4.5z"/>
  <path d="M405.4 364.8 c-1.6 -2.4 -3.2 -4.8 -3.6 -5.4 -0.4 -0.6 0.9 -3.2 2.9 -5.9 l3.7 -4.7 2.3 2.8 c1.6 2 2.3 4.2 2.3 7.2 0 4.3 -2.3 10.2 -3.9 10.2 -0.5 0 -2.1 -1.9 -3.7 -4.2z"/>
  <path d="M249.8 360.9 c-2.1 -2.7 -3.8 -5.4 -3.8 -6.1 0 -0.7 1.5 -3.2 3.4 -5.5 3.1 -3.9 3.4 -4.1 4.8 -2.5 4.2 4.8 4.6 12.9 0.9 17.2 -1.5 1.8 -1.7 1.7 -5.3 -3.1z"/>
  <path d="M229.7 360.8 c-6 -7.4 -6 -7.8 -2 -12.9 1.9 -2.4 3.6 -4.5 3.7 -4.6 0.1 -0.2 2.4 2.7 5 6.3 l4.9 6.5 -3 4.2 c-1.7 2.2 -3.5 4.3 -4.1 4.5 -0.5 0.1 -2.6 -1.6 -4.5 -4z"/>
  <path d="M91.8 356.4 c-2.1 -2.6 -3.8 -5.1 -3.8 -5.6 0 -1.4 6 -8.8 7.1 -8.8 1.6 0 4.9 6.3 4.9 9.3 0 3.1 -2.5 9.7 -3.7 9.7 -0.4 0 -2.5 -2.1 -4.5 -4.6z"/>
  <path d="M71.1 356.2 c-5.1 -6.5 -5.7 -8.6 -3.3 -12 4.3 -5.9 4.6 -5.9 9.6 0.5 2.5 3.2 4.6 6.3 4.6 7 0 1.4 -5.8 8.3 -7 8.3 -0.5 0 -2.2 -1.7 -3.9 -3.8z"/>
  <path d="M394.7 350 l-4.6 -6.3 1.7 -2.9 c0.9 -1.6 2.7 -3.8 3.8 -4.9 l2.1 -2 4.7 6.1 c5 6.7 5 6.8 -0.1 12.9 l-2.9 3.4 -4.7 -6.3z"/>
  <path d="M238.6 346.5 l-4.8 -6.5 3.3 -4.5 c1.9 -2.4 3.8 -4.5 4.3 -4.5 1 0 2.1 1.3 6.7 7.8 l3 4.3 -3.6 4.9 c-2 2.8 -3.7 5 -3.8 5 -0.1 -0.1 -2.4 -3 -5.1 -6.5z"/>
  <path d="M377 348.3 c-0.5 -2.1 -1.6 -5.9 -2.4 -8.4 -1.4 -4.5 -0.7 -7.9 1.4 -7.9 0.6 0 3 2.8 5.5 6.2 l4.4 6.1 -3 3.9 c-1.7 2.1 -3.5 3.8 -3.9 3.8 -0.5 0 -1.4 -1.7 -2 -3.7z"/>
  <path d="M219.8 340.8 c-2.4 -7.8 -2.3 -11.8 0.1 -11.8 0.4 0 2.9 2.7 5.5 6.1 l4.7 6 -3.1 4 c-1.8 2.1 -3.5 3.9 -3.9 3.9 -0.5 0 -1.9 -3.7 -3.3 -8.2z"/>
  <path d="M80.2 340.9 l-4.4 -6 3.4 -4.4 c1.8 -2.4 3.6 -4.5 3.9 -4.5 1 0 9.2 11.2 9.2 12.5 0 1.6 -5.6 8.5 -6.8 8.4 -0.5 0 -3 -2.7 -5.3 -6z"/>
  <path d="M411.7 346.4 c-0.8 -0.8 0.1 -2.4 1.4 -2.4 0.5 0 0.9 0.7 0.9 1.5 0 1.5 -1.2 2 -2.3 0.9z"/>
  <path d="M256.3 342.4 c-0.3 -0.8 -0.1 -2 0.6 -2.7 0.8 -0.8 1.1 -0.4 1.1 1.6 0 3 -0.7 3.5 -1.7 1.1z"/>
  <path d="M61.5 334.8 c-2.6 -8.2 -2.7 -10.8 -0.3 -10.7 1.5 0 8.8 9.7 8.8 11.7 0 1.5 -4 7.2 -5.1 7.2 -0.5 0 -2 -3.7 -3.4 -8.2z"/>
  <path d="M404.8 336.9 l-4.6 -6.3 1.9 -2.6 c7 -9.4 7.8 -9.6 11 -2.6 2.8 6.1 2.5 10.9 -0.9 14.7 l-2.9 3.2 -4.5 -6.4z"/>
  <path d="M384.3 335.9 c-2.1 -3 -4.3 -6 -4.7 -6.7 -0.8 -1.3 5 -10.1 6.7 -10.2 0.4 0 2.7 2.7 5.2 6.1 4.9 6.6 4.9 6.6 -0.3 12.8 l-2.9 3.4 -4 -5.4z"/>
  <path d="M249.4 334.3 c-2.1 -2.7 -4.2 -5.3 -4.7 -6 -0.5 -0.8 0.6 -3.2 3.4 -6.9 l4.3 -5.6 2.3 2.6 c2.2 2.6 4.3 8.4 4.3 12 0 2.2 -3.7 8.6 -5 8.6 -0.5 0 -2.6 -2.1 -4.6 -4.7z"/>
  <path d="M227.2 331.4 c-4.7 -6.1 -4.8 -7 -0.2 -12.4 l3 -3.5 3.4 4 c1.9 2.2 4.1 5.1 4.9 6.5 1.5 2.4 1.4 2.8 -1.6 6.7 -1.8 2.3 -3.6 4.2 -4.2 4.3 -0.5 0 -2.9 -2.5 -5.3 -5.6z"/>
  <path d="M91.2 328.4 c-2.7 -3.5 -4.1 -6.1 -3.7 -7.2 1 -3.1 7.2 -9.5 8.4 -8.8 1.9 1.2 5.3 8.8 5.4 12.1 0.1 2.9 -3.5 9.5 -5.1 9.5 -0.4 0 -2.6 -2.5 -5 -5.6z"/>
  <path d="M371.7 330.3 c-0.3 -1 -0.9 -2.9 -1.3 -4.3 -0.7 -2.5 -0.7 -2.5 1.5 -0.6 2.2 2 2.8 5.1 1.2 6.1 -0.5 0.3 -1.2 -0.3 -1.4 -1.2z"/>
  <path d="M68.8 325.7 c-2.1 -2.8 -3.8 -5.7 -3.8 -6.4 0 -1.3 5.8 -8.3 6.9 -8.3 0.8 0 7.9 9.4 8.7 11.4 0.6 1.6 -5.2 8.6 -7 8.5 -0.6 0 -2.8 -2.3 -4.8 -5.2z"/>
  <path d="M215 325.4 c-0.6 -1.4 -1 -3.1 -1 -3.7 0.1 -1.7 4 3.2 4 4.9 0 2.3 -2 1.6 -3 -1.2z"/>
  <path d="M393.6 321.7 l-4.7 -6.7 4.4 -5.5 4.5 -5.5 4.6 6.2 c2.5 3.4 4.6 6.7 4.6 7.3 0 0.6 -1.9 3.3 -4.3 6 l-4.3 4.9 -4.8 -6.7z"/>
  <path d="M238.1 319.5 c-2.3 -3 -4.4 -6.1 -4.7 -6.9 -0.5 -1.3 6.2 -11.4 7.6 -11.5 0.5 -0.1 7.4 8.6 9.3 11.7 0.7 1.1 -1.4 4.6 -7.3 11.5 -0.4 0.4 -2.6 -1.7 -4.9 -4.8z"/>
  <path d="M372.6 319.7 c-2 -2.9 -3.6 -5.7 -3.6 -6.2 0 -0.6 1.6 -2.8 3.5 -5 l3.5 -4 2.8 3.2 c1.5 1.7 3.5 4.5 4.4 6.1 1.7 2.9 1.7 2.9 -1.8 7.1 -2 2.2 -3.9 4.1 -4.4 4.1 -0.4 0 -2.4 -2.4 -4.4 -5.3z"/>
  <path d="M57 321.3 c0 -0.6 -0.3 -2 -0.6 -3 -0.7 -1.7 -0.6 -1.7 1.2 -0.1 1.4 1.4 1.6 2.1 0.6 3 -0.8 0.8 -1.2 0.9 -1.2 0.1z"/>
  <path d="M215.9 316.5 l-4.1 -5.5 3.3 -4.5 c1.9 -2.4 3.7 -4.5 4.1 -4.5 1 0 8.8 9.9 8.8 11.1 0 1.3 -6.1 8.9 -7.1 8.9 -0.5 0 -2.7 -2.5 -5 -5.5z"/>
  <path d="M81.3 315.4 c-7 -9 -7 -8.8 -2.8 -13.9 2.1 -2.5 4.2 -4.5 4.9 -4.5 0.6 0.1 3 2.6 5.3 5.7 4.7 6.2 4.7 6.1 -1 12.7 l-3.3 3.9 -3.1 -3.9z"/>
  <path d="M57.5 310.6 c-2.9 -4.3 -3.5 -5.8 -2.7 -7.2 1.7 -3.1 6 -6.7 7.2 -5.9 1.8 1.1 7 8.6 7 10.1 0 1.5 -5.8 8.4 -7 8.4 -0.4 0 -2.4 -2.4 -4.5 -5.4z"/>
  <path d="M383.1 307.3 c-2.3 -3.1 -4.1 -5.9 -4.1 -6.3 0 -1.1 7.2 -10 8.1 -10 0.5 0 2.7 2.5 5 5.5 l4.1 5.5 -4.1 5.5 c-2.3 3 -4.4 5.5 -4.6 5.5 -0.2 0 -2.2 -2.5 -4.4 -5.7z"/>
  <path d="M404.5 306.8 c-3.5 -4.8 -3.7 -5.4 -2.4 -7.7 2.1 -3.7 3.2 -2.9 5.2 3.5 0.9 3.3 2 6.7 2.3 7.7 1 3.3 -1.4 1.7 -5.1 -3.5z"/>
  <path d="M364 304.1 c-1.1 -3.7 -2 -7.5 -2 -8.3 0 -1.4 3 -4.8 4.2 -4.8 0.9 0 7.8 9.8 7.8 11.1 0 1.3 -6.1 8.9 -7.1 8.9 -0.5 0 -1.7 -3.1 -2.9 -6.9z"/>
  <path d="M225.9 303.5 l-4.1 -5.5 3.8 -5 c2.1 -2.7 4.3 -5 4.9 -5 0.9 0.1 7.4 8 8.3 10.2 0.5 1 -6.7 10.8 -7.9 10.8 -0.4 0 -2.7 -2.5 -5 -5.5z"/>
  <path d="M248.2 303.8 c-2.3 -3 -4.2 -5.9 -4.2 -6.5 0 -0.5 0.9 -1.8 2.1 -2.9 1.7 -1.6 2.2 -1.6 2.9 -0.4 0.6 0.8 1 2 1 2.7 0 0.7 0.7 3.3 1.6 5.8 2.3 7 1.3 7.3 -3.4 1.3z"/>
  <path d="M207.2 301.2 c-1.2 -3.8 -2.2 -7.5 -2.2 -8.4 0 -1.7 3.7 -5.4 4.5 -4.6 0.3 0.3 2.3 2.9 4.5 5.8 l3.9 5.2 -3.2 4.4 c-1.8 2.4 -3.7 4.3 -4.3 4.4 -0.5 0 -2 -3.1 -3.2 -6.8z"/>
  <path d="M67.8 297.8 c-4.1 -5.6 -4.1 -5.9 1.1 -11.8 l3.1 -3.5 4.5 5 c2.4 2.8 4.5 5.3 4.5 5.6 0 1.2 -7.3 9.9 -8.4 9.9 -0.6 0 -2.8 -2.4 -4.8 -5.2z"/>
  <path d="M90.8 298.4 c-4.2 -5.2 -4.5 -6.5 -2.2 -8.9 2.1 -2 2.7 -1.3 4.9 5.5 1 3 2 6.1 2.3 6.8 0.9 2.6 -1.5 1 -5 -3.4z"/>
  <path d="M51.2 300.4 c-0.5 -1.1 -1.8 -4.7 -2.7 -8.1 -1.4 -5.1 -1.5 -6.6 -0.5 -7.8 2.1 -2.5 3.5 -1.8 7.3 3.7 3.8 5.5 3.8 5.8 -0.7 11.2 -2.2 2.7 -2.5 2.7 -3.4 1z"/>
  <path d="M374.4 295.5 c-1.5 -2 -2.4 -3.8 -2.1 -4.1 0.6 -0.6 9.7 0.6 9.7 1.3 0 0.3 -1.1 1.8 -2.4 3.4 l-2.5 2.9 -2.7 -3.5z"/>
  <path d="M394.1 292.8 c-4.5 -5.6 -4.4 -6.2 1.5 -8.3 4.6 -1.6 7.6 -0.7 8.8 2.8 0.8 2.1 0.4 3.4 -1.7 6.6 -1.5 2.3 -3.1 4.1 -3.6 4.1 -0.5 0 -2.8 -2.3 -5 -5.2z"/>
  <path d="M217 292 l-3.2 -4 6.1 0.2 c3.4 0.2 6.1 0.4 6.1 0.4 0 0.1 -1.3 1.8 -2.9 3.8 l-2.9 3.6 -3.2 -4z"/>
  <path d="M237.9 290.8 c-1.8 -2.4 -3.7 -4.8 -4.2 -5.5 -1.2 -1.6 4.8 -5.3 8.5 -5.3 2.8 0 5.8 3.1 5.8 5.9 0 1.7 -4.9 9.1 -6.1 9.1 -0.4 0 -2.2 -1.9 -4 -4.2z"/>
  <path d="M359.6 290.5 c-1.1 -3.1 -0.7 -4.3 1.4 -3.8 2.9 0.8 3.2 1.8 1.1 3.7 -1.7 1.5 -1.9 1.6 -2.5 0.1z"/>
  <path d="M59.6 286.8 c-2.3 -3.3 -2 -3.8 2.4 -3.8 4.4 0 5.2 1.6 2.2 4.3 -2.4 2.2 -2.8 2.1 -4.6 -0.5z"/>
  <path d="M79.6 284.3 c-3.3 -4.3 -3.5 -4.8 -2 -6.4 3.8 -4.2 12.4 -2.7 12.4 2.3 0 2.2 -4.5 8.8 -5.9 8.8 -0.5 0 -2.5 -2.1 -4.5 -4.7z"/>
  <path d="M202.5 287 c-0.8 -2.6 -0.3 -3.3 1.9 -2.4 1.9 0.7 1.8 3.5 -0.1 4.1 -0.6 0.2 -1.4 -0.5 -1.8 -1.7z"/>
  <path d="M44.6 280.5 c-0.3 -0.9 0 -1.5 0.9 -1.5 0.8 0 1.5 0.7 1.5 1.5 0 0.8 -0.4 1.5 -0.9 1.5 -0.5 0 -1.1 -0.7 -1.5 -1.5z"/>
  <path d="M195.1 232.1 c0.7 -1 2 -2.3 3 -3 1.7 -1 1.9 -0.8 1.9 1.9 0 2.7 -0.3 3 -3 3 -2.7 0 -2.9 -0.2 -1.9 -1.9z"/>
  <path d="M272 197.5 c0 -3.3 0.2 -3.5 3.5 -3.5 1.9 0 3.5 0.5 3.5 1 0 0.6 -0.7 1 -1.5 1 -0.8 0 -1.5 0.5 -1.5 1 0 0.6 0.7 1 1.5 1 0.8 0 1.5 0.7 1.5 1.5 0 1 -1.1 1.5 -3.5 1.5 -3.3 0 -3.5 -0.2 -3.5 -3.5z"/>
  <path d="M215 182.3 c0.8 -1 2.5 -2.9 3.8 -4.3 l2.3 -2.4 -0.3 3.9 c-0.3 3.7 -0.5 4 -3.7 4.3 -3.2 0.3 -3.4 0.2 -2.1 -1.5z"/>
  <path d="M254.8 127.2 c-3.1 -0.4 -3.8 -2.7 -1 -3.4 0.9 -0.2 3 -0.2 4.6 0.2 2.7 0.5 2.7 0.6 1 2 -1.1 0.9 -3.1 1.4 -4.6 1.2z"/>
 </g>
 <g fill="#e2d793">
  <path d="M123.9 277.1 c-2 -0.4 -5.2 -1.7 -7.1 -2.9 -4.7 -2.9 -8 -2.8 -11.8 0.5 -2.2 1.8 -3.6 2.4 -4.6 1.7 -0.7 -0.5 -3.2 -2.2 -5.5 -3.9 -3.6 -2.6 -5.1 -3 -10.5 -3 -5.4 0 -6.8 0.4 -10.9 3.3 -6.1 4.3 -9.4 4.9 -12.5 2.4 -2.3 -1.9 -2.5 -2.7 -2.5 -10.5 0 -7.7 0.3 -8.8 2.4 -11.1 1.4 -1.4 2 -2.6 1.5 -2.6 -0.5 0 -0.3 -0.4 0.5 -0.9 1.9 -1.2 -2.3 -14.1 -4.7 -14.2 -0.9 0 -2.6 -0.3 -3.7 -0.5 -1.1 -0.3 -5.7 -0.6 -10.2 -0.7 -5.7 -0.1 -8.3 -0.6 -8.3 -1.4 0 -2.4 6.3 -8.4 12.5 -11.8 5.7 -3.2 6.9 -3.5 14.3 -3.5 11.2 0 11.1 -2 -0.3 -5 -4.8 -1.2 -6.1 -2 -6.9 -4.2 -1.3 -3.8 -0.2 -5.8 3.5 -5.8 l3.1 0 -0.7 -6 c-0.6 -5 -0.3 -6.7 1.4 -10.4 2.1 -4.2 10.9 -13.4 16 -16.7 2.2 -1.4 2.3 -1.8 1.3 -4.9 -1.8 -5 -1.4 -14.9 0.7 -19.5 2.6 -5.7 7.6 -11.6 12.7 -14.8 5.3 -3.5 7.4 -3.2 4.3 0.7 -1.3 1.7 -2.4 4.7 -2.7 7.5 -0.6 6.5 2.8 10.5 10.6 12.7 3.2 0.8 8.2 2.2 11.2 3.1 3.7 1 6.5 2.6 8.7 5 3.8 4 4.1 6.2 1.3 8.8 -2.8 2.5 -2.5 3.5 0.9 3.5 3.3 0 7.1 4.2 7.1 7.8 0 2.6 -2.7 8.9 -4.1 9.8 -0.7 0.4 -4.2 1.4 -7.8 2.3 -3.6 0.9 -6.5 2.1 -6.3 2.6 0.1 0.6 4.1 1 9.1 1.1 8.8 0.1 9.1 0.2 15.6 4.4 11.8 7.7 13.5 11.9 9.8 23.8 -1.4 4.2 -2.8 6.4 -6.5 9.5 -7.2 6 -5.6 6.7 6.9 2.9 6.2 -1.8 11.5 -0.7 15.2 3.2 3.5 3.8 2.2 7.5 -5 13.8 -3.2 2.9 -5.9 5.6 -5.9 6.1 0 0.4 1.6 0.5 3.5 0.1 4.3 -0.8 4.6 0.7 1.2 5.7 -3.6 5.3 -8.2 7.9 -14.1 7.9 -3.3 0 -7 0.9 -10.4 2.5 -5.6 2.6 -6.4 2.7 -12.3 1.6z"/>
 </g>
 <g fill="#e7ace4">
  <path d="M281.6 299.2 c-0.3 -0.6 -1.5 -4 -2.7 -7.6 -3.8 -12.3 -11.2 -17.2 -15.9 -10.6 -2.7 3.9 -4.3 3.8 -9.2 -0.5 -7.8 -6.6 -14.4 -6.9 -22.2 -1 -5.6 4.3 -9.6 5 -16.6 3 -13.5 -3.8 -15.7 -4 -18 -2 -2 1.8 -2.1 1.8 -4.6 -0.6 -5.1 -4.6 -6.8 -12.3 -4 -17.7 2.5 -4.9 5.1 -6.4 12.1 -6.9 3.6 -0.3 6.5 -1 6.5 -1.4 0 -0.5 -0.9 -0.9 -2 -0.9 -3.1 0 -8.5 -2.5 -10.9 -5.1 -1.6 -1.7 -2.1 -3.5 -2.1 -7.4 0 -4.8 0.3 -5.4 4.8 -9.6 2.6 -2.5 7 -6 9.7 -7.8 4.8 -3.2 5.3 -3.3 12.3 -2.7 7.8 0.6 9.2 -0.7 1.9 -1.9 -8.1 -1.3 -11.4 -5.5 -10.2 -12.7 0.6 -3.3 1 -3.8 3.3 -3.8 l2.7 -0.1 -2.7 -2 c-2.4 -1.7 -2.8 -2.8 -2.8 -6.7 0 -5.9 1.8 -8.9 10.5 -17.6 6.4 -6.4 7.1 -6.8 10.3 -6.2 l3.5 0.5 -2.6 -2.7 c-5.4 -5.7 -6 -17.7 -1.3 -27 2.8 -5.5 10.2 -12.6 15.5 -14.8 3.6 -1.5 13.1 -1.9 13.1 -0.6 0 0.5 -0.9 1.7 -2.1 2.8 -7 6.3 -6.3 17.1 1.3 20.7 1.8 0.8 6.2 2.3 9.8 3.2 8.3 2.1 13.6 5.1 16 9.1 2.8 4.5 2.6 7.8 -0.7 10.3 l-2.8 2 3.5 -0.5 c3.2 -0.4 3.8 -0.1 6.3 3.5 1.5 2.1 2.7 4.4 2.7 4.9 0 1.6 -4.3 11.7 -5.3 12.3 -0.5 0.4 -3.6 1.2 -6.9 1.9 -9.2 2 -8.2 3.3 1.8 2.5 l8.9 -0.6 7 5.3 c9.3 7.1 11.9 10.9 11.1 16.7 -1.2 9 -3.8 15.1 -8.1 18.8 -4.4 3.9 -4.1 4 5.5 1.3 5.8 -1.7 11 -0.7 14.4 2.7 4.5 4.5 2.9 10.2 -4.6 16.8 -4.1 3.5 -4.1 3.7 -1.5 3.3 2.4 -0.5 2.7 -0.2 2.7 2.1 0 6 -7.9 13.9 -15 14.8 -3.5 0.5 -4 0.3 -4 -1.4 0 -1.5 0.9 -2.2 3 -2.6 1.6 -0.4 4.7 -2.2 6.7 -4.1 l3.8 -3.5 -2.7 -0.1 c-2.5 0 -2.8 -0.4 -2.8 -3.1 0 -2.5 1.3 -4.3 6.5 -9.4 7.1 -6.9 7.4 -8.2 2.1 -11 -3.1 -1.7 -3.6 -1.7 -8.1 -0.1 -2.7 0.9 -7.3 1.6 -10.2 1.6 l-5.3 0 0 -3.3 c0 -2.7 0.8 -3.8 4.8 -6.7 4.1 -3 5 -4.4 6.9 -10.4 2.5 -7.7 2.1 -9.7 -3.4 -14.7 -7 -6.5 -11.4 -8.9 -16.5 -8.9 -3.1 0 -4.8 -0.4 -4.8 -1.2 0 -0.9 -0.3 -0.9 -1.2 0 -0.7 0.7 -3.2 1.2 -5.6 1.2 l-4.3 0 0.3 -3.7 0.3 -3.7 8.1 -1.9 8.2 -1.8 1.7 -4.4 c1.6 -4.2 1.6 -4.6 -0.2 -6.9 -1.4 -1.9 -2.7 -2.5 -5.5 -2.6 -3.7 0 -3.8 -0.1 -3.8 -3.5 0 -2.5 0.6 -3.7 2.3 -4.6 1.2 -0.6 2.4 -1.3 2.6 -1.5 0.2 -0.1 -0.6 -1.6 -1.8 -3.2 -2.3 -3.3 -8.8 -6.4 -18.3 -8.8 -10.5 -2.7 -13.8 -6.2 -13.8 -15.1 l-0.1 -4.8 -2.5 3 c-1.3 1.7 -3.6 5.3 -5 8.2 -2.4 4.9 -2.5 5.6 -1.8 15.6 l0.7 10.5 -6.7 6.3 c-3.7 3.4 -7.9 8.3 -9.3 10.7 -2.4 4 -2.6 5.4 -2.4 12.4 l0.2 7.8 -3.6 0 c-1.9 0 -3.5 0.4 -3.5 0.9 0 1.7 2.9 3.2 9.6 4.9 6.9 1.7 6.9 1.7 7.2 5.5 l0.3 3.7 -9.1 0 c-9.6 0 -12.5 0.9 -17.8 5.8 -1.4 1.2 -3.6 2.2 -4.8 2.2 -1.7 0 -2.4 0.6 -2.4 1.9 0 1.6 1.3 1.9 11.2 2.7 l11.2 0.9 2.3 6 c3.1 7.9 3 13.2 -0.2 17.5 -1.4 1.8 -2.8 4.8 -3.1 6.6 -0.6 3.3 1 9.9 2.7 11 1.1 0.6 6.9 -1.7 6.9 -2.8 0 -1.9 6.4 -3.8 13 -3.8 7 0 11.3 1.3 15.2 4.7 1.4 1.3 1.9 1.2 3.7 -0.6 3 -3 9.7 -2.8 15.7 0.4 5.3 2.8 9.9 3.2 12.8 1 2.4 -1.8 8.6 -2 8.6 -0.2 0 0.6 -1.3 1.8 -2.9 2.5 -2.3 1 -3.6 2.9 -6.1 9.2 -3.1 7.8 -6.2 12 -7.4 10.2z"/>
 </g>
 <g fill="#f7b9f4">
  <path d="M218.3 280.3 c-1.3 -2 -1.8 -4.7 -1.8 -10.3 0 -6.8 0.3 -8.1 2.9 -11.9 l2.9 -4.2 -1.9 -5.6 c-2.9 -8.6 -2.4 -8.3 -16.1 -8.6 -6.8 -0.1 -12.3 -0.6 -12.3 -1.1 0 -2.6 5 -8.1 11.3 -12.6 l7.1 -5 9.5 0 c10.8 0 11.1 -1.1 1.1 -3.4 -7.5 -1.8 -10.3 -4.3 -9.8 -9 0.3 -2.9 0.5 -3.1 4.1 -2.8 l3.9 0.3 -0.7 -6.5 c-0.7 -5.9 -0.5 -7.2 1.9 -12 1.7 -3.4 5.3 -7.9 9.8 -12.1 l7.1 -6.8 -1.2 -7.1 c-0.9 -5.4 -0.9 -8.5 -0.1 -12.4 2 -9.1 10.3 -19.6 18.4 -23.3 3.8 -1.8 4.2 -0.5 1.2 3.4 -5 6.5 -4.4 14.6 1.3 18.6 1.4 1 5.5 2.6 9.1 3.5 10.1 2.6 17.1 6.4 19.3 10.8 2.2 4.4 1.6 7 -2.1 8.9 l-2.7 1.4 4 0.3 c3.2 0.2 4.5 0.9 6.3 3.6 2.7 4 2.7 4.8 0 11.3 l-2.1 5.2 -7.6 1.7 c-11.5 2.5 -11.3 3.7 0.5 3.1 l10.2 -0.5 6.8 5.2 c11.8 8.8 13.3 13.1 9.1 25.6 -1.9 5.5 -2.9 7 -7 10 -4 2.9 -4.4 3.6 -2.7 3.8 1.2 0.2 4.2 -0.4 6.7 -1.2 6 -2.1 12.2 -2 15.3 0.1 3.4 2.3 4 3.3 4 7.2 0 2.8 -1 4.3 -6.6 9.8 l-6.7 6.4 4.1 -0.7 c3.9 -0.6 4 -0.6 3.4 2.1 -0.2 1.5 -2.3 4.7 -4.6 7 -4.3 4.5 -9.1 6.5 -15.7 6.5 -1.9 0 -4.4 0.7 -5.5 1.5 -3.3 2.5 -13.3 1.9 -18.9 -1.1 -5.6 -2.9 -8.5 -2.6 -10.9 1.1 -2 3.1 -4.7 3.2 -7.2 0.4 -3 -3.4 -9 -5.9 -13.7 -5.9 -3.5 0 -5.7 0.8 -10.3 4 -7.1 4.8 -10.6 5.1 -13.1 1.3z"/>
 </g>
</svg>