<?xml version="1.0" encoding="utf-8"?>
<!DOCTYPE svg PUBLIC "-//W3C//DTD SVG 1.0//EN" "http://www.w3.org/TR/2001/REC-SVG-20010904/DTD/svg10.dtd">
<svg version="1.0" xmlns="http://www.w3.org/2000/svg" width="500px" height="500px" viewBox="0 0 500 500" preserveAspectRatio="xMidYMid meet">
 <g fill="#172626">
  <path d="M238.1 453.7 c-1.4 -1.8 -3.7 -8.3 -6.1 -17.6 -2.1 -8.3 -5.5 -21 -9 -33.6 -1.2 -4.4 -2.6 -9.3 -3 -11 -3 -11.4 -6.8 -25.2 -9.9 -36 -1.1 -3.8 -4.2 -15.8 -7 -26.5 -2.8 -10.7 -6.4 -23.9 -7.9 -29.4 -2.9 -9.8 -2.9 -9.9 -8.3 -13.6 -12.1 -8.3 -14.6 -24.4 -5.2 -34.2 2.4 -2.6 2.5 -3 1.5 -6.6 -1.6 -5.2 -1.5 -10.5 0.2 -14.5 1.6 -3.8 8.6 -10.5 15.6 -14.8 4.7 -2.9 5 -3.3 4.5 -6.3 -0.3 -1.7 -0.1 -8.4 0.4 -14.8 1.1 -14.4 2.7 -17.6 13.7 -27.4 6.3 -5.8 7.4 -7.2 6.9 -9.2 -1.3 -5.4 -0.6 -14.8 1.6 -20.7 4 -10.8 18.3 -22.5 27.9 -22.9 2.2 0 4 -0.4 4 -0.9 0 -0.4 1 -0.5 2.3 -0.2 1.2 0.2 3.9 0.7 6.1 1 5.4 0.7 9.6 4 9.6 7.4 0 2.2 -0.8 3.1 -4.5 4.9 -5.2 2.5 -7.8 6 -7.3 9.9 0.3 2.5 1.1 3.1 10.6 6.5 5.7 2 11.9 4.9 13.8 6.3 4.8 3.7 8.2 9.2 8.8 14.3 0.2 2.4 1.6 6.1 3.1 8.3 3.8 5.8 4.1 9 1.5 15.5 -2.1 5.1 -2.2 5.7 -0.7 6.5 3.2 1.9 12.1 9.9 14.4 13.2 4.3 6.1 4.8 14 1.4 23 -1 2.7 -0.9 2.8 4.3 5.1 11.7 5.2 14.4 15.2 7 26.6 -1.2 1.9 -2.5 5 -2.9 6.8 -0.9 4.4 -8.4 13 -14.1 16.1 l-4.6 2.6 -9.5 26 c-5.2 14.3 -12.8 35.2 -16.9 46.5 -4.1 11.3 -8.1 22.3 -9 24.5 -0.9 2.2 -3.1 8.3 -4.9 13.5 -9.8 27.7 -19.7 54.3 -20.8 55.8 -1.3 1.6 -6.2 1.5 -7.6 -0.1z m11.1 -36.7 c1.9 -5.2 5.2 -14 7.2 -19.5 2 -5.5 5.7 -15.4 8.1 -22 2.4 -6.6 5.8 -15.8 7.5 -20.5 4.8 -13 9.7 -26.4 13.9 -38 2.1 -5.8 4.2 -11.4 4.6 -12.5 0.4 -1.1 -0.2 -0.6 -1.3 1.2 -1.2 1.7 -3 3.7 -4.1 4.2 -2.7 1.5 -10.6 1.4 -11.9 -0.1 -0.6 -0.7 -2.1 -5.3 -3.5 -10.1 -1.4 -4.9 -2.7 -9.1 -3.1 -9.4 -0.3 -0.3 -1.7 0.2 -3 1.1 -1.6 1 -4.6 1.6 -7.9 1.6 -4.9 0 -5.6 -0.3 -9.6 -4.4 -6.3 -6.4 -6.8 -6.4 -15.3 -0.3 -3.6 2.5 -13.8 3.2 -22 1.4 -3.8 -0.8 -6.8 -1.1 -6.8 -0.8 0 0.4 1.5 6.1 3.4 12.7 1.8 6.5 4.3 15.7 5.6 20.4 1.2 4.7 4 14.8 6.2 22.5 2.2 7.7 4.6 16.5 5.3 19.5 1.7 7.5 8.1 31.1 10.5 38.5 1.1 3.3 2.9 9.8 4 14.5 1.2 4.7 2.8 11 3.7 14 l1.6 5.5 1.7 -5 c1 -2.7 3.3 -9.3 5.2 -14.5z m34.9 -127.7 c1.6 -3.8 3.7 -7.4 4.6 -8 0.9 -0.7 4.2 -1.3 7.2 -1.3 3.3 0 7.3 -0.8 9.6 -1.9 5.5 -2.5 11.9 -10.1 8.5 -10.1 -0.5 0 -1 -1.4 -1 -3.2 0 -2.4 1.2 -4.4 5.1 -8.5 4.7 -5 5 -5.5 3.7 -7.5 -2.3 -3.4 -7.6 -5.8 -10.5 -4.7 -1.3 0.5 -4.7 0.9 -7.4 0.9 -4.9 0 -4.9 0 -4.9 -3.3 0 -2.5 0.7 -3.9 2.9 -5.5 1.9 -1.4 3.7 -4.4 5.5 -9.4 3.7 -10 3.2 -11.2 -8.8 -21.1 -6.7 -5.5 -7.2 -5.7 -12.8 -5.7 l-5.8 0 0 -3.5 c0 -3.3 0.2 -3.5 4.5 -4.6 3.8 -1 4.9 -1.8 6.5 -5 1.1 -2.1 2 -4.6 2 -5.6 0 -2 -4.5 -7.3 -6.2 -7.3 -0.7 0 -0.9 -1.8 -0.4 -5.4 0.5 -4.6 0.3 -5.8 -1.6 -8.1 -2 -2.6 -13.1 -8.5 -16 -8.5 -3.4 0 -11.8 -5 -13.2 -7.9 -2.2 -4.2 -2 -12.8 0.3 -17.4 l1.9 -3.8 -2.1 0.7 c-13.7 4.2 -24.5 20.2 -21.6 31.8 0.6 2.5 1.7 5.1 2.5 5.7 0.8 0.6 1.4 2.7 1.4 4.5 0 3.2 -0.2 3.4 -3.2 3.4 -5.9 0.1 -20.8 15.4 -20.8 21.3 0 0.8 0.7 2 1.5 2.7 2.3 1.9 1.9 7.3 -0.6 8.8 -1.5 1 -1.9 2.1 -1.7 4.5 0.3 2.8 1 3.5 5.5 5.7 4.7 2.3 5.2 2.8 5.3 5.8 l0 3.3 -6.3 -0.3 c-5.7 -0.2 -6.8 0.1 -12.5 3.6 -8.6 5.4 -13.2 10 -13.2 13.5 0 3.8 3.2 7.7 7.5 9.1 3.1 1 3.5 1.6 3.5 4.5 0 3.2 -0.1 3.3 -5.5 4 -4.5 0.5 -5.9 1.2 -8.5 4.1 -3.6 4.1 -3.9 8.5 -1 12.8 1.7 2.7 2.3 3 7 2.7 3.6 -0.2 7.8 0.7 14.6 2.9 l9.6 3.2 5.2 -3.6 c9.1 -6.2 20.7 -6.2 27.7 0.1 l3.8 3.5 2.7 -2.1 c1.9 -1.5 4.1 -2.1 7.4 -2.1 6.4 0 10.2 3.7 12.6 12.6 0.9 3.5 1.9 6.4 2.1 6.4 0.2 0 1.7 -3 3.4 -6.7z"/>
  <path d="M402.8 451.3 c-2.1 -2.5 -9.7 -25.6 -9 -27.7 0.1 -0.4 -0.2 -1.4 -0.7 -2 -1.1 -1.3 -3.7 -10.3 -5.3 -18 -0.5 -2.8 -1.6 -5.9 -2.4 -7 -0.8 -1.1 -1.4 -3.4 -1.4 -5.1 0 -1.7 -0.4 -3.5 -0.9 -4.1 -0.8 -0.8 -13.2 -41.2 -17.5 -56.9 -1.8 -6.3 -5.9 -20 -8.2 -27.3 -0.8 -2.4 -1.2 -4.8 -0.9 -5.3 0.4 -0.5 0.2 -0.9 -0.3 -0.9 -0.6 0 -1.3 -1.1 -1.6 -2.4 -0.3 -1.3 -1.8 -2.9 -3.3 -3.5 -3.1 -1.3 -8.6 -6.1 -10.8 -9.5 -1.9 -2.9 -2.6 -15.2 -1 -19.1 0.7 -1.6 2.4 -4.4 3.8 -6.1 2 -2.4 2.3 -3.4 1.4 -4.3 -0.6 -0.6 -1.1 -4.2 -1.2 -8.4 0 -6.6 0.3 -7.7 2.9 -11.1 1.6 -2.1 5.9 -6.1 9.7 -8.8 l6.7 -4.9 -0.1 -6.8 c-0.1 -4.6 0.3 -7.4 1.3 -8.6 1.1 -1.4 1.1 -1.8 0 -2.5 -0.9 -0.6 -1.1 -2.3 -0.7 -6.5 0.7 -7.2 4.8 -13.7 13.3 -21.1 5.5 -4.8 6.4 -6.1 6.4 -9 0 -1.9 -0.4 -3.4 -1 -3.4 -1.7 0 -0.4 -12.4 1.9 -17.5 2.7 -6 6.9 -11.7 8.2 -11 0.5 0.4 0.9 0 0.9 -0.8 0 -2 10.5 -9.1 12.4 -8.4 0.9 0.4 1.6 0.2 1.6 -0.3 0 -0.5 0.7 -0.7 1.5 -0.4 0.8 0.4 1.5 0.2 1.5 -0.3 0 -0.4 2.7 -0.8 6 -0.8 3.3 0 6 0.3 6 0.8 0 0.4 0.6 0.7 1.3 0.6 2.9 -0.4 7.5 2.3 8 4.7 0.4 2.2 -0.3 3 -4.4 5.6 -2.7 1.6 -5.6 4.3 -6.5 6 -1.4 2.7 -1.4 3.2 0 5.3 1 1.5 3.3 2.9 5.8 3.5 17.9 4.5 26.8 12 26.8 22.5 0 1.8 0.7 3.9 1.7 4.6 0.9 0.8 2.5 3.3 3.5 5.6 1.8 4.1 1.8 4.3 -0.1 10 l-2 5.8 3.2 2.5 c9.9 7.7 16 14.9 15 17.7 -0.2 0.6 0.1 1.4 0.6 1.8 1.5 0.8 1.4 7.5 0 7.5 -0.6 0 -0.9 0.9 -0.6 2 0.3 1.1 0.2 2 -0.3 2 -1.3 0 -1.9 4.2 -0.8 5.9 0.6 1 2.3 1.8 3.9 1.8 5.1 0 10.9 8.4 10.9 15.5 -0.1 1.8 -0.9 5.1 -2 7.3 -1.1 2.2 -1.9 4.6 -2 5.3 0 0.6 -0.4 1.2 -0.9 1.2 -0.5 0 -0.9 1.4 -0.9 3 0.1 4.6 -6.3 11.8 -15.6 17.5 -1 0.6 -5.3 11.8 -10.6 27.8 -4.9 14.7 -9.7 28.1 -10.5 29.7 -1.5 2.9 -2.3 5.9 -2.4 9.2 -0.1 0.9 -0.8 2.4 -1.7 3.3 -0.9 0.9 -1.4 1.8 -1.1 2.1 0.6 0.6 -3.2 12.5 -4.4 13.8 -0.5 0.6 -0.9 2 -0.9 3.2 0 1.3 -0.5 2.6 -1 2.9 -0.6 0.4 -0.8 1 -0.5 1.5 0.3 0.5 0.1 1.1 -0.5 1.5 -0.6 0.4 -0.8 1.1 -0.5 1.6 0.4 0.5 0.2 0.9 -0.3 0.9 -0.5 0 -1.5 2.1 -2.2 4.8 -2.6 10.2 -7.2 24.8 -8.2 26 -0.6 0.6 -0.7 1.2 -0.3 1.2 0.4 0 0.2 0.7 -0.5 1.5 -0.7 0.8 -0.9 1.5 -0.5 1.5 0.4 0 0.2 0.7 -0.5 1.5 -0.7 0.8 -1 1.5 -0.7 1.5 0.3 0 -1.4 6 -3.9 13.3 -4.3 12.5 -6.8 16.7 -9.9 16.7 -0.6 0 -1.9 -0.8 -2.7 -1.7z m9.8 -36.3 c1.3 -4.1 4 -12 5.8 -17.5 17.5 -50.9 30.6 -89.9 30.3 -90.2 -0.2 -0.1 -1.4 0.8 -2.7 2.2 -1.9 2 -3.3 2.5 -7.2 2.5 -5.4 0 -6.8 -1.4 -8.8 -9 -0.7 -2.4 -1.9 -6.2 -2.7 -8.3 l-1.6 -3.8 -2.1 2 c-1.7 1.6 -3.6 2.1 -7.7 2.1 -4.9 0 -5.9 -0.4 -8.5 -3.1 -6.3 -6.6 -9.5 -6.9 -15.6 -1.1 -2.2 2 -4 2.6 -9.6 3 -3.7 0.2 -9.2 -0.1 -12.2 -0.7 -2.9 -0.6 -5.5 -0.9 -5.8 -0.6 -0.3 0.2 1.1 5.7 3.1 12.2 2 6.5 4.8 15.9 6.2 20.8 1.4 5 4.6 15.3 7 23 2.5 7.7 6.1 19.6 8 26.5 2 6.9 4 13.6 4.5 15 1 3.1 5.9 19.3 9.5 31.5 1.4 5 2.9 9.7 3.2 10.5 0.5 1.5 2.3 -2.8 6.9 -17z m31 -125.6 c1.5 -3.6 3.5 -6.9 4.5 -7.5 1 -0.5 4.1 -0.9 7 -0.9 6.1 0 12.5 -3.2 15.9 -8 l2.1 -3 -2 0 c-1.7 0 -2.1 -0.6 -2.1 -2.9 0 -2.3 1.3 -4.3 5.5 -8.5 4.9 -4.9 5.5 -5.8 4.5 -7.6 -0.6 -1.2 -2.7 -2.8 -4.5 -3.7 -2.9 -1.4 -4.1 -1.4 -7.3 -0.5 -2.2 0.7 -5.8 1.2 -8.1 1.2 -3.9 0 -4.1 -0.2 -4.1 -3 0 -2.1 1 -3.9 3.5 -6.2 3.4 -3.2 7.5 -12.3 7.5 -16.7 0 -2.7 -5.2 -8.5 -12.4 -13.8 -5.5 -4.1 -6.2 -4.3 -12.7 -4.3 l-6.9 0 0 -3.3 c0 -3.3 0.2 -3.4 5.5 -4.6 4.9 -1.1 5.8 -1.7 7.5 -5.1 1.1 -2.2 2 -4.4 2 -5 0 -2 -4.4 -7 -6.2 -7 -2.2 0 -2.5 -4.9 -0.5 -8.1 1.1 -1.8 0.8 -2.5 -3 -5.9 -3.2 -2.8 -6.7 -4.5 -14.1 -6.9 -12.6 -4 -14.5 -5.8 -15 -14.6 -0.3 -4.4 0 -7.3 1.1 -9.4 2 -4 0.6 -4.1 -5.4 -0.3 -8.4 5.4 -14.8 15 -14.9 22.3 0 4.4 1.9 10.1 3.7 11.2 0.7 0.4 1.3 2.4 1.3 4.2 0 3.2 -0.3 3.5 -3 3.5 -2.3 0 -4.6 1.6 -10.8 7.7 -8.7 8.5 -10.8 12.9 -7.8 16.2 2.1 2.3 2.2 8.1 0.1 8.1 -2.3 0 -3 4.6 -1.1 7.5 1.4 2.1 6.8 4.5 10.4 4.5 0.7 0 1.2 1.4 1.2 3.5 l0 3.5 -6.8 0 c-6.4 0 -7.3 0.3 -13.1 4.1 -3.3 2.3 -7.7 5.9 -9.6 8 -3.1 3.5 -3.3 4.1 -2.3 7 1.1 3.3 5.4 6.4 10 7.4 2.4 0.6 2.8 1.2 2.8 4 l0 3.3 -6 0.4 c-6.6 0.5 -9.4 2.3 -11.7 7.6 -1.2 2.9 -1.1 3.6 0.7 7.2 2 4 2.1 4 7.8 4 3.3 0 9.4 1.1 14.1 2.5 8.2 2.4 11.9 2.3 13.6 -0.5 1.4 -2.3 9 -5 14.3 -5 5.8 0 11.5 2 14.9 5.2 l2.3 2.1 2.3 -2.1 c1.7 -1.6 3.6 -2.2 7.1 -2.2 4.2 0 5.3 0.4 8.1 3.5 2 2.1 3.8 5.4 4.6 8.5 0.7 2.7 1.6 5 2 5 0.4 0 1.9 -3 3.5 -6.6z"/>
  <path d="M84.8 447.3 c-1.5 -1.8 -6.4 -16 -18.9 -55.3 -3.4 -10.7 -7.4 -23.3 -9 -28 -1.5 -4.7 -5.5 -17.3 -8.9 -28 -14.9 -47.3 -14.1 -45.2 -17.5 -46.9 -1.6 -0.9 -5.1 -3.6 -7.6 -6.1 -7.3 -7.1 -8.6 -15.7 -3.9 -25.1 1.1 -2.2 2.9 -4.5 4 -5.1 1.1 -0.7 2 -1.6 2 -2.1 0 -0.4 -0.4 -0.6 -0.9 -0.3 -1.3 0.9 -3.1 -5 -3.1 -10.4 0 -6.9 4.4 -12.7 15.7 -20.9 l3.6 -2.6 0.1 -15 c0.1 -17.6 0.4 -18.4 11.7 -30 l6.8 -7 -1 -7.1 c-1.2 -7.8 0.2 -15.2 4.1 -21.6 4.5 -7.5 17.4 -18.1 19.4 -16 0.4 0.3 1.1 0.1 1.5 -0.6 1 -1.6 13.6 -2.8 14.5 -1.4 0.4 0.6 1.3 0.9 2.1 0.5 0.8 -0.3 1.5 0 1.5 0.7 0 0.6 0.4 0.9 0.9 0.6 1.4 -0.9 4.4 2 4.8 4.7 0.3 2.2 -0.3 3 -3.6 4.6 -5 2.6 -8.5 7.4 -7.7 10.5 0.6 2.5 1.4 2.9 14.6 7 4.6 1.5 9.9 3.8 11.7 5.2 3.4 2.6 7.3 9.1 6.6 11 -0.5 1.4 2.1 7 5.2 11.3 3 4.1 3.2 8.9 0.7 14.6 l-1.8 4 4.3 2.8 c6.7 4.2 14.1 11.5 15.2 15 1.3 4 1.2 10.1 0 15 -1.2 4.6 -0.3 8.1 1.7 7.3 2.5 -1 9.1 3.1 11.5 7.1 3 4.8 2.9 9.8 -0.3 16 -1.4 2.6 -2.8 6.3 -3.2 8.2 -0.9 4.8 -7.8 13.5 -13.1 16.6 -4.3 2.6 -4.6 3 -7.6 12.8 -1.8 5.5 -3.8 11.2 -4.5 12.6 -0.7 1.3 -1.1 2.8 -0.8 3.3 0.3 0.4 0 0.8 -0.6 0.8 -0.7 0 -1 0.7 -0.7 1.5 0.6 1.5 -1.9 10.1 -3.6 12.3 -0.5 0.6 -0.7 1.2 -0.4 1.2 0.8 0 -2.3 10.2 -3.5 11.8 -0.6 0.6 -0.8 1.2 -0.4 1.2 0.3 0 0.1 1.2 -0.5 2.8 -0.6 1.5 -1.7 5.1 -2.5 8.1 -0.8 3 -1.8 6 -2.3 6.5 -0.9 1.2 -4.4 11.3 -4.6 13.6 -0.6 4.8 -1.9 9 -2.7 9 -0.6 0 -0.8 0.7 -0.4 1.5 0.3 0.8 0.1 1.5 -0.4 1.5 -0.4 0 -1.5 3 -2.4 6.8 -0.8 3.7 -2.2 8.2 -3.1 9.9 -0.9 1.8 -1.4 3.7 -1 4.3 0.3 0.5 0.1 1 -0.4 1 -0.6 0 -1.1 1.3 -1.1 2.9 0 1.6 -0.5 4.2 -1.2 5.8 -0.6 1.5 -1 3.4 -0.9 4.1 0.1 0.6 -0.3 1.2 -0.9 1.2 -0.6 0 -1 0.6 -0.9 1.3 0.3 1.3 -1.6 8.5 -3.3 12.6 -0.6 1.4 -1.2 2.8 -1.3 3.1 -0.1 0.3 -0.4 1.2 -0.7 2 -0.3 0.8 -1.2 3.7 -1.9 6.3 -0.9 3.6 -1.8 5.1 -3.6 5.8 -3.3 1.2 -3.8 1.2 -5.5 -0.8z m26.2 -88.8 c8.3 -26.4 15.5 -49.3 16 -51 0.4 -1.6 1.1 -3.9 1.6 -5 0.4 -1.1 -0.7 -0.3 -2.5 1.8 -3.2 3.6 -3.7 3.8 -8.5 3.5 l-5.1 -0.3 -2.1 -5.5 c-1.2 -3 -2.9 -7.6 -3.8 -10.2 l-1.7 -4.7 -2.2 1.9 c-1.5 1.5 -3.5 2 -7.7 2 -5 0 -6 -0.4 -10.4 -4 -2.6 -2.2 -5.7 -4 -6.7 -4 -1 0 -3.4 1.4 -5.3 3.1 -1.9 1.6 -5 3.4 -6.8 4 -4.2 1.2 -12.1 1.1 -17.7 -0.2 -2.4 -0.5 -4.6 -0.8 -4.8 -0.5 -0.5 0.4 7.8 27 17.1 55.1 3 8.8 7.5 22.8 10 31 2.6 8.3 5.8 17.9 7 21.5 1.3 3.6 4.3 12.6 6.6 20 l4.2 13.5 3.8 -12 c2.1 -6.6 10.6 -33.6 19 -60z m13.9 -78.5 c1.3 -2.4 5.3 -4 10 -4 5.1 0 11.9 -3.5 14.5 -7.4 2 -3.1 2 -3.6 0.1 -3.6 -1 0 -1.5 -1 -1.5 -3.2 0 -2.4 1.2 -4.4 5 -8.4 5.7 -6 5.7 -8 -0.2 -11 -2.5 -1.3 -3.8 -1.4 -6.8 -0.5 -2.1 0.6 -5.6 1.1 -7.9 1.1 -4 0 -4.1 -0.1 -4.1 -3.3 0 -2.3 0.8 -4 2.9 -5.8 2 -1.8 3.6 -4.8 5.1 -9.7 2.1 -6.9 2.1 -7.2 0.3 -10.3 -1 -1.7 -5.2 -5.5 -9.3 -8.5 -7.4 -5.4 -7.5 -5.4 -14.7 -5.4 l-7.3 0 0 -3.4 c0 -3.3 0.2 -3.4 5.7 -4.8 5.4 -1.3 5.8 -1.6 7.6 -6 l1.9 -4.6 -2.3 -3.1 c-1.4 -1.9 -3.2 -3.1 -4.6 -3.1 -2 0 -2.3 -0.5 -2.3 -3.5 0 -2.1 0.6 -3.7 1.7 -4.3 1.5 -0.9 1.4 -1.2 -0.6 -4.1 -2.7 -3.8 -7.6 -6.4 -16.9 -9 -8.5 -2.3 -10.5 -3.3 -13.1 -6.7 -2.7 -3.4 -3 -14.7 -0.5 -18.3 1.6 -2.3 1.6 -2.3 -0.7 -1.6 -9 2.7 -19.8 16.3 -19.9 25.1 0 4.3 1.9 9.6 4.1 11.6 1.1 0.9 1.9 2.9 1.9 4.7 0 2.8 -0.3 3.1 -3.3 3.1 -2.7 0 -4.4 1.1 -9.8 6.8 -10.4 10.6 -11.9 14 -7.9 17.7 2.7 2.5 2.8 8.5 0.1 8.5 -2.6 0 -3.4 2.6 -1.8 5.8 0.9 2 2.6 3.1 6.5 4.2 4.9 1.4 5.2 1.7 5.2 4.7 l0 3.3 -6.3 0 c-5.5 0 -6.9 0.4 -11.7 3.6 -6.9 4.6 -10.8 8.2 -12.6 11.5 -1.2 2.4 -1.1 3 0.9 6 1.5 2.2 3.8 3.9 6.5 4.9 3.9 1.3 4.2 1.7 4.2 5.2 l0 3.8 -5.1 0 c-4.2 0 -5.5 0.5 -7.9 2.9 -4 4 -4.6 7.3 -2.3 11.8 2 3.7 2.1 3.8 7.1 3.5 3.4 -0.3 8.1 0.5 14.1 2.3 9.9 2.9 9.8 2.9 18 -3 2.9 -2.1 4.5 -2.5 11.1 -2.5 6.8 0 8.1 0.3 12.4 3.1 l4.8 3 2.2 -2 c1.6 -1.5 3.6 -2.1 7 -2.1 4.3 0 5.3 0.4 8.2 3.5 1.8 2 3.9 5.5 4.5 7.8 1.7 6.5 2.1 6.5 4.6 0.7 1.3 -3 2.7 -6.2 3.2 -7z"/>
 </g>
 <g fill="#eea85a">
  <path d="M238.2 435.8 c-1.7 -6.2 -3.8 -14.2 -4.7 -17.8 -0.8 -3.6 -2.4 -9.2 -3.5 -12.5 -2.4 -7.3 -8.8 -31 -10.5 -38.5 -0.7 -3 -3.1 -11.8 -5.3 -19.5 -2.2 -7.7 -5 -17.6 -6.1 -22 -1.2 -4.4 -4.3 -15.8 -7 -25.3 -5.3 -19 -5.2 -19.8 1.6 -16.4 2.1 1 6.6 2.4 9.9 3.1 7.5 1.4 13.1 0.4 17.4 -3.3 6.4 -5.3 12.5 -4.7 19 1.9 5.4 5.5 8.4 5.8 13 1.5 1.8 -1.6 3.5 -3 4 -3 1.9 0 4.4 4.7 6.8 13.1 1.6 5.5 3.4 9.6 4.5 10.3 3.3 2.1 6.8 -1.2 12 -11.2 4.7 -9 4.9 -9.2 8.3 -9.2 3.1 0 3.5 0.3 2.9 1.8 -0.4 0.9 -2.2 5.8 -4 10.7 -5.9 16 -16.7 45.4 -21.5 58.5 -1.7 4.7 -5.1 13.9 -7.5 20.5 -2.4 6.6 -6.1 16.5 -8.1 22 -5 13.5 -9.7 26.3 -13.3 36.4 -1.7 4.7 -3.5 8.9 -3.9 9.3 -0.5 0.5 -2.2 -3.9 -4 -10.4z m8.2 -21.4 c0.3 -0.9 0 -2.4 -0.8 -3.5 -1.1 -1.7 -1.5 -1.7 -2.5 -0.5 -0.9 1.1 -1 2 -0.1 3.5 1.3 2.5 2.6 2.7 3.4 0.5z m-9.6 -13.6 c0.7 -0.9 0.5 -2 -0.8 -3.6 -2.2 -2.6 -3.5 -1.4 -2.6 2.4 0.7 2.7 1.8 3.1 3.4 1.2z m8.8 -16.5 c-0.5 -1.1 -1 -1.3 -1.7 -0.6 -0.7 0.7 -0.7 1.7 0.3 3.2 1 1.8 1.4 1.9 1.6 0.6 0.2 -0.9 0.1 -2.3 -0.2 -3.2z m-7.9 -10.4 c0.9 -0.9 0.8 -1.8 -0.4 -3.6 -1.4 -2.2 -1.6 -2.2 -2.8 -0.6 -1 1.3 -1 2.1 -0.1 3.5 1.3 2.1 1.8 2.2 3.3 0.7z m-8.7 -15.3 c-0.1 -0.6 -1.1 -2.4 -2.4 -3.9 -1.9 -2.4 -2.4 -2.6 -3.5 -1.3 -1.7 2 2.7 9 4.6 7.4 0.7 -0.6 1.3 -1.6 1.3 -2.2z m19 1 c0 -0.8 -0.3 -2.2 -0.6 -3 -0.6 -1.5 -0.8 -1.5 -1.9 0.1 -0.9 1.3 -1 2.2 -0.3 3 1.4 1.7 2.8 1.6 2.8 -0.1z m-9.1 -15.6 c-2.4 -4.2 -2.7 -4.4 -4.3 -3.1 -1.3 1.1 -1.3 1.6 0.7 4.6 1.9 2.9 2.3 3.1 3.3 1.7 0.8 -1.1 0.9 -2.2 0.3 -3.2z m11.1 -12.8 c0 -1.5 -0.4 -3.4 -1 -4.2 -0.7 -1.2 -1.2 -1.2 -2.9 0.4 l-2 1.9 2 2.8 c2.4 3.4 3.9 3 3.9 -0.9z m-21 -1.1 c0 -0.4 -1 -2.1 -2.3 -3.8 -2.1 -2.9 -2.4 -3 -3.4 -1.4 -1.5 2.4 2.5 8.5 4.4 6.9 0.7 -0.6 1.3 -1.4 1.3 -1.7z m10.6 -12.5 c1.5 -2.3 1.4 -2.7 -0.7 -5.5 -2.3 -3.1 -3.2 -3.2 -4.8 -0.2 -0.7 1.2 -0.4 2.6 1.1 4.9 1.1 1.8 2.2 3.2 2.4 3.2 0.2 0 1.1 -1.1 2 -2.4z m-22.9 -6 c-0.8 -1.1 -1.8 -2.1 -2.4 -2.3 -1.9 -0.7 -2.3 2.8 -0.5 5.2 1.5 2.2 1.8 2.2 2.9 0.8 1 -1.4 1 -2.1 0 -3.7z m11.6 -14.3 c-1.7 -2.5 -3.1 -2.6 -4.6 -0.2 -0.7 1.1 -0.4 2.4 0.8 4.3 l1.9 2.8 1.7 -2.3 c1.5 -2.1 1.6 -2.5 0.2 -4.6z m11.6 -9.7 c0.8 -1 0.8 -1.6 -0.2 -2.4 -1.7 -1.5 -3.9 0 -3.1 2.1 0.8 2.1 1.8 2.2 3.3 0.3z"/>
  <path d="M401.7 432.3 c-3.5 -12 -7 -24 -10.1 -34.3 -0.8 -2.5 -3.3 -10.8 -5.5 -18.5 -2.3 -7.7 -6.1 -20.3 -8.6 -28 -2.4 -7.7 -5.6 -18 -7 -23 -4.2 -14.7 -9.6 -32.7 -11.3 -37.3 -0.8 -2.3 -1.2 -4.6 -0.8 -4.9 0.4 -0.4 3.7 0.4 7.4 1.7 4.6 1.7 8.8 2.5 13.4 2.5 5.8 0 7 -0.3 9.5 -2.6 7.4 -6.9 14.5 -6.6 21.7 1 3.8 4 7.3 4 11.1 0.1 1.6 -1.6 3.5 -3 4.2 -3 2 0 4.3 4.2 6.9 12.6 1.2 4.2 2.8 8.2 3.5 9 3.2 3.9 8.1 -0.5 13.4 -11.9 3.3 -7.1 3.8 -7.7 6.5 -7.7 2.3 0 3 0.5 3 1.9 0 1.1 -0.4 2.2 -0.9 2.5 -0.5 0.3 -1.1 1.8 -1.4 3.3 -0.4 2.6 -12.4 38.1 -31.2 92.8 -4.1 12.1 -8.6 25.4 -9.9 29.5 -5.6 17.3 -9 27 -9.6 27 -0.3 0 -2.2 -5.7 -4.3 -12.7z m7.2 -22.4 c-1 -1.9 -1.2 -2 -2.7 -0.5 -1.4 1.4 -1.4 1.7 0.3 3.6 1.6 1.8 2 1.9 2.7 0.6 0.5 -1 0.4 -2.4 -0.3 -3.7z m-9.6 -13.1 c-2.4 -2.7 -4 -0.7 -2.4 2.9 1.2 2.7 1.3 2.7 2.7 0.9 1.2 -1.7 1.2 -2.2 -0.3 -3.8z m8.7 -12.5 c-0.1 -2.4 -0.2 -2.6 -1.1 -1 -0.5 0.9 -0.7 2.2 -0.4 2.7 1 1.7 1.5 1.1 1.5 -1.7z m-7.3 -10.9 c0.2 -0.5 -0.3 -1.9 -1.2 -2.9 -1.2 -1.7 -1.6 -1.8 -2.4 -0.6 -0.6 1 -0.6 2.2 0 3.4 1 1.8 3 1.9 3.6 0.1z m-9.9 -12.6 c1.5 -1.9 -3 -8.2 -4.6 -6.6 -1.6 1.6 -1.5 2.5 0.6 5.3 2 2.8 2.6 3 4 1.3z m18.8 -3.5 c-0.5 -1.2 -0.9 -1.3 -2.1 -0.3 -1.1 0.9 -1.2 1.6 -0.2 3.1 1 1.6 1.3 1.6 2 0.3 0.5 -0.8 0.6 -2.2 0.3 -3.1z m-8.6 -12.2 c-0.5 -1 -1.6 -2.4 -2.5 -3.1 -2.8 -2.3 -3.8 0.8 -1.3 4.2 1.6 2.3 2.3 2.6 3.4 1.7 0.9 -0.8 1.1 -1.6 0.4 -2.8z m10.4 -10.6 c0.5 -1.5 -1.2 -7.5 -2.2 -7.5 -0.3 0 -1.4 0.7 -2.3 1.6 -1.8 1.6 -1.8 1.8 0.2 4.5 2.3 3.2 3.4 3.6 4.3 1.4z m-21.5 -1.8 c0.8 -1 0.5 -2.1 -1.3 -4.5 -2 -2.8 -2.5 -3 -3.6 -1.7 -1 1.1 -0.8 2 1 4.5 2.5 3.5 2.4 3.4 3.9 1.7z m11.1 -13.7 c0.9 -1.7 0.7 -2.7 -1.1 -5.1 l-2.2 -3.1 -1.8 2.3 c-1.7 2.2 -1.7 2.4 0.3 5.1 2.3 3.3 3.4 3.5 4.8 0.8z m-22.7 -5.1 c-1 -1.6 -2 -2.9 -2.4 -2.9 -1.6 0 -1.8 3.5 -0.4 5.7 1.3 2 1.9 2.2 3.1 1.3 1.2 -1.1 1.1 -1.6 -0.3 -4.1z m11 -14.3 c-2 -2.5 -2.1 -2.5 -3.8 -0.6 -1.7 1.9 -1.7 2.1 0 4.6 l1.7 2.6 2 -2 2.1 -2 -2 -2.6z m-20.3 2.6 c0 -0.5 -0.6 -1.7 -1.4 -2.7 -1.3 -1.8 -1.4 -1.8 -0.9 0.8 0.5 2.4 2.3 3.9 2.3 1.9z m31.4 -14.2 c-0.6 -0.6 -1.8 -0.8 -2.7 -0.4 -1.3 0.5 -1.4 0.9 -0.4 2.5 1 1.6 1.3 1.7 2.6 0.4 1.1 -1 1.2 -1.8 0.5 -2.5z"/>
  <path d="M87.8 441.3 c-0.3 -0.4 -2.8 -8.4 -5.7 -17.8 -2.9 -9.3 -6.4 -19.9 -7.6 -23.5 -1.3 -3.6 -4.5 -13.2 -7.1 -21.5 -2.5 -8.2 -7 -22.2 -10 -31 -2.9 -8.8 -8 -24.8 -11.4 -35.5 -3.4 -10.7 -6.9 -21.4 -7.7 -23.8 -0.9 -2.3 -1.3 -4.5 -1 -4.8 0.3 -0.3 3.2 0.3 6.4 1.4 11.7 4.1 20.7 3.7 24.9 -0.9 2.7 -3.1 8.1 -5.1 11.5 -4.4 1.6 0.4 5 2.4 7.6 4.6 5.9 4.9 9 5 13.2 0.7 4.1 -4.2 5.8 -3.2 8.9 4.8 1.2 3.2 3 7.9 4 10.4 2.3 5.8 4.8 6.3 8.9 1.7 1.7 -1.9 4.3 -6.6 5.8 -10.5 2.4 -6.1 3.2 -7.2 5.7 -7.7 1.6 -0.4 3.2 -0.4 3.5 -0.1 0.6 0.5 -1.4 7.7 -5.6 20.6 -1 3 -2.7 8.4 -3.9 12 -1.2 3.6 -10.5 33.3 -20.8 66 -10.3 32.7 -18.8 59.6 -18.9 59.8 -0.2 0.2 -0.5 0 -0.7 -0.5z m3.5 -31.5 c0.5 -1.6 -1 -4.8 -2.4 -4.8 -1.6 0 -2.2 2.9 -0.9 4.5 1.5 1.8 2.7 1.9 3.3 0.3z m-10.6 -16.5 c-2.4 -2.4 -4.4 -0.4 -2.6 2.6 1.2 1.8 1.5 1.9 2.8 0.6 1.4 -1.3 1.3 -1.7 -0.2 -3.2z m8.3 -12 c0 -1.9 -0.3 -2.4 -1 -1.7 -0.6 0.6 -0.8 1.8 -0.4 2.7 0.9 2.4 1.4 2.1 1.4 -1z m-8.5 -14.3 c-1.6 -1.8 -2 -1.9 -2.7 -0.6 -0.5 1 -0.4 2.4 0.3 3.7 1 1.9 1.2 2 2.7 0.5 1.4 -1.4 1.4 -1.7 -0.3 -3.6z m-10.6 -13.9 c-2 -2.7 -2.5 -2.9 -3.7 -1.7 -1.2 1.2 -1.1 1.8 0.9 4.5 2 2.7 2.5 2.9 3.7 1.7 1.2 -1.2 1.1 -1.8 -0.9 -4.5z m19.6 0.2 c-0.4 -1.2 -0.8 -1.4 -1.7 -0.5 -0.9 0.9 -0.8 1.8 0.3 3.9 1.4 2.6 1.4 2.6 1.7 0.4 0.2 -1.2 0.1 -3 -0.3 -3.8z m-9.5 -13.3 c-2 -2.8 -2.4 -3 -3.8 -1.7 -1.3 1.4 -1.2 1.9 0.9 4.5 2 2.5 2.6 2.8 3.8 1.7 1.1 -1.1 1 -1.8 -0.9 -4.5z m11 -10.9 c0 -1.5 -0.6 -3.5 -1.3 -4.6 -1.3 -1.7 -1.5 -1.7 -3 0.5 -1.5 2.1 -1.4 2.5 0.5 5.1 2.5 3.3 3.8 2.9 3.8 -1z m-21 -2 c-1.6 -3 -4 -4.5 -5.2 -3.3 -0.7 0.7 -0.4 1.9 1.2 4.2 1.7 2.4 2.5 2.8 3.6 1.9 0.9 -0.8 1.1 -1.6 0.4 -2.8z m9.8 -16.2 c-2.6 -3.5 -2.9 -3.5 -4.6 -0.9 -1.1 1.8 -1 2.5 0.9 5.2 l2.2 3.1 1.8 -2.2 c1.8 -2.2 1.8 -2.3 -0.3 -5.2z m-22.4 -0.3 c-1.5 -2.4 -1.9 -2.5 -3.2 -1.3 -1.3 1.3 -1.2 1.8 0.4 4 1.6 2.1 2.1 2.3 3.2 1.2 1.2 -1.1 1.1 -1.7 -0.4 -3.9z m11 -14 c-1.7 -2.7 -1.7 -2.7 -3.7 -0.8 -1.9 2 -1.9 2.1 -0.1 4.5 1.8 2.5 2 2.5 3.8 0.8 1.7 -1.8 1.7 -2 0 -4.5z m-20.4 3.1 c0 -0.7 -0.7 -2.2 -1.5 -3.3 -1.3 -1.7 -1.4 -1.6 -0.4 1.4 1.1 3.3 1.9 4.1 1.9 1.9z m31.3 -14.8 c-0.7 -0.7 -1.9 -0.9 -2.8 -0.6 -1.3 0.6 -1.3 1 -0.3 2.7 1.1 1.7 1.4 1.8 2.7 0.5 1.1 -1.1 1.2 -1.8 0.4 -2.6z"/>
  <path d="M117 299.1 c-0.9 -1.9 -0.8 -2.1 1.5 -2.1 2.8 0 3.2 1.2 1.1 2.9 -1.2 1 -1.7 0.8 -2.6 -0.8z"/>
  <path d="M114.6 291.8 c-1 -3.8 -0.7 -4.8 1.4 -4.8 1.6 0 2 0.7 2 3.5 0 4 -2.4 4.9 -3.4 1.3z"/>
  <path d="M411.4 284.8 l-2.9 -3.3 3.3 2.9 c3 2.8 3.7 3.6 2.9 3.6 -0.2 0 -1.6 -1.5 -3.3 -3.2z"/>
  <path d="M249.9 281.3 l-3.4 -3.8 3.8 3.4 c3.4 3.3 4.2 4.1 3.4 4.1 -0.2 0 -1.9 -1.7 -3.8 -3.7z"/>
  <path d="M58 282 c0 -1.3 0.7 -2 2 -2 1.1 0 2 -0.4 2 -1 0 -0.5 1.6 -1 3.6 -1 3.2 0 3.5 0.2 2.3 1.6 -1.6 1.9 -6.3 4.4 -8.4 4.4 -0.8 0 -1.5 -0.9 -1.5 -2z"/>
  <path d="M128.8 278.8 c0.4 -2.4 0.9 -2.8 3.8 -2.8 2.4 0 3.4 0.5 3.4 1.5 0 0.8 -0.6 1.5 -1.2 1.5 -0.7 0 -2.4 0.6 -3.9 1.3 -2.4 1.3 -2.5 1.3 -2.1 -1.5z"/>
  <path d="M26.1 278.1 c-1.2 -1.6 -2.4 -4.3 -2.7 -6 -0.6 -2.7 -0.4 -3.1 1.4 -3.1 1.5 0 2.2 0.9 2.7 3 0.4 1.7 1.1 3 1.6 3 0.5 0 0.9 1.4 0.9 3 0 3.8 -1.3 3.8 -3.9 0.1z"/>
  <path d="M146 274.5 c0 -3.4 2.1 -5.5 5.5 -5.5 2.5 0 2.5 0.1 1 2.4 -0.9 1.4 -2.7 3.2 -4.1 4.1 -2.3 1.5 -2.4 1.5 -2.4 -1z"/>
  <path d="M73 274 c0 -1.7 0.7 -2 5 -2 4.3 0 5 0.3 5 2 0 1.7 -0.7 2 -5 2 -4.3 0 -5 -0.3 -5 -2z"/>
  <path d="M147 261.5 c0 -3.4 0.1 -3.5 3.7 -3.5 3.6 0 3.6 0 1.8 2 -1.7 1.8 -1.7 2 -0.2 1.4 1.3 -0.4 1.7 -0.1 1.7 1.5 0 1.7 -0.6 2.1 -3.5 2.1 -3.3 0 -3.5 -0.2 -3.5 -3.5z"/>
  <path d="M25 260.1 c2.5 -4.8 10 -7 10 -3.1 0 1.1 -0.6 2 -1.4 2 -0.7 0 -1.9 0.7 -2.6 1.5 -0.7 0.8 -2.6 1.5 -4.2 1.5 -2.5 0 -2.8 -0.2 -1.8 -1.9z"/>
  <path d="M30.9 249.4 c-4.2 -4.9 -5.2 -10.4 -1.9 -10.4 1.4 0 2 0.7 2 2.4 0 1.3 0.5 2.6 1.1 2.8 0.6 0.2 0.9 1.9 0.7 3.7 -0.3 3.2 -0.4 3.3 -1.9 1.5z"/>
  <path d="M133 239.6 c0 -3.3 0.1 -3.4 4.5 -3.8 l4.4 -0.3 -2.7 2.3 -2.7 2.3 2.5 -0.4 c1.4 -0.3 4 -0.8 5.8 -1.2 2.8 -0.7 3.2 -0.5 3.2 1.3 0 2.4 -2.4 3.2 -9.7 3.2 l-5.3 0 0 -3.4z"/>
  <path d="M32.5 230 c2.6 -2.8 13.9 -10 15.8 -10 2.8 0 2.1 3.9 -0.8 4.6 -1.4 0.3 -2.5 1 -2.5 1.5 0 0.5 -0.7 0.9 -1.5 0.9 -0.8 0 -1.5 0.5 -1.5 1 0 0.6 -0.9 1 -2 1 -1.1 0 -2 0.7 -2 1.5 0 1.1 -1.1 1.5 -3.7 1.5 -3.5 0 -3.6 0 -1.8 -2z"/>
  <path d="M142 226.6 c0 -5.2 1.2 -8.6 3.1 -8.6 2.2 0 2.3 0.6 0.8 6.6 -1.2 4.7 -3.9 6.1 -3.9 2z"/>
  <path d="M55 223 c0 -0.5 -0.7 -1 -1.5 -1 -3.4 0 -1.2 -2 2.3 -2.1 l3.7 0 -5 -1.6 c-7.7 -2.3 -10.2 -5.3 -4.5 -5.3 1.7 0 3 0.5 3 1 0 0.6 1.4 1 3.1 1 3.9 0 5.9 2 5.9 5.9 0 2.9 -0.3 3.1 -3.5 3.1 -1.9 0 -3.5 -0.4 -3.5 -1z"/>
  <path d="M46 206.6 c0 -2.5 1.2 -4.6 2.6 -4.6 0.9 0 1.4 1.1 1.4 3 0 2.3 -0.4 3 -2 3 -1.1 0 -2 -0.6 -2 -1.4z"/>
  <path d="M121 198.5 c0 -2.1 4.7 -3 7.6 -1.5 3.7 2 2.9 3 -2.6 3 -3.7 0 -5 -0.4 -5 -1.5z"/>
  <path d="M47 196.9 c-1.7 -3.1 -0.2 -9.3 3.3 -14.1 l3.2 -4.3 0.3 3.4 c0.2 1.9 0 3.7 -0.5 4 -1.6 1.1 -3.3 6.2 -3.3 9.6 0 3.9 -1.4 4.5 -3 1.4z"/>
  <path d="M60.5 172 c2.1 -2.2 3.8 -3 6.4 -3 3.4 0 3.4 -0.1 1.5 -1.4 -4.7 -3.3 -6 -17.1 -2.5 -25.1 4 -9 12 -16.7 18.9 -18.1 2.8 -0.6 3.2 -0.4 3.2 1.4 0 1.5 -0.9 2.2 -3 2.7 -1.6 0.4 -3 1.1 -3 1.6 0 0.5 -0.8 0.9 -1.9 0.9 -1 0 -2.1 0.9 -2.4 2 -0.3 1.4 -1.4 2 -3.1 2 -2.2 0 -2.6 0.4 -2.6 3 0 2 -0.5 3 -1.5 3 -0.9 0 -1.5 0.9 -1.5 2.1 0 1.2 -0.5 3.9 -1.2 6.1 -0.9 3.2 -0.8 4.8 0.6 9.3 0.9 3 2.1 5.5 2.7 5.5 0.5 0 0.9 1.6 0.9 3.5 0 3.3 -0.2 3.5 -3.5 3.5 -2.8 0 -3.5 0.4 -3.5 2 0 1.6 -0.7 2 -3.7 2 l-3.7 0 2.9 -3z"/>
 </g>
 <g fill="#d2c787">
  <path d="M278.7 303.3 c-0.3 -0.4 -1.5 -4.5 -2.7 -8.9 -1.6 -5.9 -3 -9.1 -5.2 -11.3 -3.8 -3.9 -5.8 -3.9 -10.1 -0.1 -1.9 1.7 -4 3 -4.5 3 -0.6 0 -3.4 -2 -6.1 -4.4 -7.7 -6.9 -14.3 -7.1 -23.1 -0.7 -5.5 4 -9 4 -20.5 0.1 -10.1 -3.4 -11.8 -3.6 -13.5 -1.5 -1.7 2.1 -2.4 1.9 -5.9 -1.6 -5.9 -5.9 -6.3 -15.3 -0.9 -21.5 2.4 -2.7 3.9 -3.4 8.6 -4 l5.7 -0.7 -3.5 -1.5 c-4.8 -1.9 -6.7 -3.8 -8.1 -7.9 -2.5 -7.6 1.1 -13.3 13.4 -20.9 5.4 -3.4 6.9 -3.9 12.2 -3.9 l6.1 0 -4.8 -2.2 c-3.3 -1.5 -5.2 -3.1 -5.9 -5 -1.4 -3.7 -0.4 -9.4 1.9 -11.4 1.9 -1.5 1.9 -1.6 0 -3.9 -4.1 -5.1 0.2 -14.3 11 -23.8 6.3 -5.4 7.8 -6.3 10 -5.7 2.5 0.6 2.6 0.6 1 -1.2 -0.9 -1 -2.2 -4 -2.9 -6.6 -4.4 -17.8 10.7 -37.7 28.6 -37.7 3.4 0 6.4 0.3 6.8 0.6 0.3 0.3 -1.4 2.5 -3.8 4.7 -8.2 7.9 -7 16.7 2.8 21.2 2.8 1.4 5.8 2.5 6.5 2.5 0.7 0 4.1 1.3 7.5 2.9 9.2 4.1 13.3 10.2 11 16.2 -0.9 2.3 -0.8 2.9 0.6 3.4 2.3 0.7 6.1 6.7 6.1 9.6 0 1.3 -1.1 4.7 -2.4 7.5 -2.2 4.6 -2.8 5.2 -7 6.3 -6.1 1.5 -5.9 2.5 0.5 1.9 4.7 -0.5 5.5 -0.2 10.2 3.3 15.4 11.6 17.2 16.1 12.2 29.6 -1.6 4.4 -3.6 7.8 -5.7 9.6 -3.7 3.1 -2.4 3.6 4.2 1.6 8.2 -2.5 17 2.5 17 9.6 0 3 -0.9 4.6 -5.1 9.1 -4.4 4.6 -4.9 5.4 -3 5.4 2.5 0 2.6 0.9 0.6 5.8 -3.3 7.7 -10.2 12.1 -19.2 12.2 -2.8 0 -5.9 0.3 -6.8 0.6 -0.9 0.4 -3.4 4.3 -5.5 8.8 -3.8 8 -7.3 12.6 -8.3 10.9z m9 -23 c1.6 -1.1 5.6 -2 9.9 -2.4 5.9 -0.5 8 -1.1 11 -3.4 3.5 -2.7 3.6 -2.9 1.6 -3.6 -1.7 -0.6 -2.2 -1.7 -2.2 -4.3 0 -3.1 0.7 -4 5.9 -8.1 8.3 -6.3 8.9 -9 2.9 -12.1 -2.8 -1.4 -3.5 -1.4 -9.2 0.1 -3.3 0.9 -7.9 1.5 -10.1 1.3 -3.8 -0.3 -4 -0.5 -4.3 -3.8 -0.2 -3.2 0.1 -3.8 4.3 -6.4 4.7 -2.9 7.3 -6.8 9.6 -14.4 1.1 -3.8 1.1 -4.8 -0.5 -7.7 -1 -1.8 -4.8 -5.5 -8.4 -8.2 -6.7 -5 -6.7 -5.1 -15.9 -5.6 -5.1 -0.3 -9.7 -0.8 -10.3 -1.2 -0.5 -0.3 -1 -2.1 -1 -3.9 0 -3.1 0.3 -3.4 4.3 -4.4 2.3 -0.6 6.1 -1.3 8.5 -1.7 3.7 -0.6 4.4 -1.1 6 -4.8 1.7 -3.8 1.7 -4.4 0.3 -6.9 -1.2 -2.1 -2.4 -2.8 -4.8 -2.8 -3.2 0 -3.3 -0.2 -3.3 -3.9 0 -2.9 0.6 -4.4 2.1 -5.5 2.1 -1.4 2.1 -1.6 0.5 -4.1 -2.4 -3.7 -6.8 -6.1 -16.5 -9.2 -4.8 -1.5 -9.7 -3.8 -11.4 -5.3 -2.6 -2.3 -3.1 -3.6 -3.6 -9.5 l-0.6 -6.8 -3.4 3.8 c-6.8 7.7 -8.4 14.3 -6.7 27.1 l0.8 6 -4.9 3.7 c-6.1 4.4 -12.5 11.3 -14.8 15.8 -1.3 2.4 -1.7 5.4 -1.6 11.2 l0.2 7.9 -4 -0.4 c-6.3 -0.6 -3.6 2.3 5.1 5.2 l7.3 2.5 0.3 4.4 0.3 4.4 -9.4 -0.6 -9.4 -0.6 -5.9 3.5 c-3.3 1.9 -6.7 4.3 -7.7 5.3 -1.7 1.7 -1.4 1.8 7 3 13.5 2 12.5 1.3 15.1 9.6 2.9 9.5 2.8 11.3 -0.8 15.6 -3.9 4.8 -5.3 11.2 -3.5 15.5 0.7 1.7 1.7 3.4 2.3 3.8 0.5 0.3 3.1 -0.9 5.7 -2.6 3.9 -2.6 6.2 -3.3 11.2 -3.6 8.6 -0.6 12.8 0.4 16.8 3.9 3.2 2.9 3.6 3 5.7 1.5 3.4 -2.4 12.9 -2.1 16.2 0.5 2.5 2 6.6 3.6 9.4 3.8 0.7 0.1 2.5 -0.7 3.9 -1.6z"/>
  <path d="M350.1 283.4 c-2.3 -1.7 -6.1 -8.4 -6.1 -10.9 0 -0.8 0.9 -1.5 2 -1.5 1.6 0 2 0.7 2 3 0 1.8 0.5 3 1.3 3 1.8 0 4.7 3.2 4.7 5.3 0 2.4 -1.4 2.8 -3.9 1.1z"/>
  <path d="M460 282 c0 -1.6 0.7 -2 3.5 -2 3.9 0 4.6 1.4 1.6 3 -3.1 1.6 -5.1 1.2 -5.1 -1z"/>
  <path d="M359.8 282.3 c-3.3 -0.8 -2 -3.3 1.7 -3.3 2.8 0 3.5 0.4 3.5 2 0 2 -1.4 2.3 -5.2 1.3z"/>
  <path d="M389 279.7 c0 -2.9 2 -3.7 10 -3.7 8 0 10 0.8 10 3.7 0 1.6 -0.4 2.3 -1.2 1.9 -6.1 -2.5 -9 -2.9 -12.5 -1.7 -2.1 0.7 -4.4 1.5 -5 1.7 -0.9 0.4 -1.3 -0.3 -1.3 -1.9z"/>
  <path d="M149 261.5 c0 -3.2 0.3 -3.5 2.8 -3.5 l2.7 0.1 -2.4 1.9 -2.3 2 3.1 -0.6 c2.7 -0.6 3.1 -0.4 3.1 1.5 0 1.7 -0.6 2.1 -3.5 2.1 -3.3 0 -3.5 -0.2 -3.5 -3.5z"/>
  <path d="M24 262.3 c0 -1.1 1.2 -2.6 3.3 -4.2 1.5 -1.2 1.7 -1.1 1.7 1.8 0 2.6 -0.4 3.1 -2.5 3.1 -1.4 0 -2.5 -0.3 -2.5 -0.7z"/>
  <path d="M348.7 259.9 c1.7 -1.7 3.6 -2.4 8.4 -2.7 l6.1 -0.5 -5.4 -2.1 c-4.1 -1.6 -5.7 -2.9 -7.1 -5.6 -1.7 -3.4 -1.7 -3.5 0.3 -3.8 2.5 -0.4 5.9 3.4 6 6.5 0 2.1 0.3 2.2 5 1.6 l5 -0.6 0 3.5 c0 4 0.1 3.9 -14 5.4 l-6.5 0.6 2.2 -2.3z"/>
  <path d="M37 256.5 c0 -0.8 0.7 -1.5 1.5 -1.5 0.8 0 1.5 -0.4 1.5 -1 0 -0.5 -0.7 -1 -1.5 -1 -0.8 0 -1.5 -0.7 -1.5 -1.6 0 -1.2 0.9 -1.4 4.3 -1.2 4.1 0.3 4.2 0.4 4.5 4.1 l0.3 3.7 -4.5 0 c-3.4 0 -4.6 -0.4 -4.6 -1.5z"/>
  <path d="M456 243.5 c0 -3.4 0.1 -3.5 3.8 -3.5 l3.7 0.1 -3 2.6 -3 2.6 2.8 -0.5 c1.9 -0.4 2.7 -0.1 2.7 0.8 0 0.9 -1.2 1.4 -3.5 1.4 -3.3 0 -3.5 -0.2 -3.5 -3.5z"/>
  <path d="M466 244.6 c0 -1.7 3.7 -2.7 6.8 -1.9 4.1 1 2.6 3.3 -2.3 3.3 -3.2 0 -4.5 -0.4 -4.5 -1.4z"/>
  <path d="M133 240.5 c0 -3.3 0.2 -3.5 3.3 -3.5 3 0.1 3.1 0.1 1.3 1.5 -1.9 1.4 -1.9 1.5 0.7 1.5 2 0 2.7 0.5 2.7 2 0 1.7 -0.7 2 -4 2 -3.9 0 -4 -0.1 -4 -3.5z"/>
  <path d="M349 241.4 c0 -2.1 1.8 -5.4 3 -5.4 0.6 0 1 1.6 1 3.5 0 2.8 -0.4 3.5 -2 3.5 -1.1 0 -2 -0.7 -2 -1.6z"/>
  <path d="M28 235.9 c0 -1.4 8.5 -9.9 10 -9.9 0.5 0 1 1.1 1 2.5 0 2 -0.5 2.5 -2.4 2.5 -1.9 0 -2.5 0.6 -2.8 2.8 -0.2 2.1 -0.9 2.8 -3 3 -1.7 0.2 -2.8 -0.1 -2.8 -0.9z"/>
  <path d="M363.3 226.5 c3.6 -3.2 4.7 -3.1 4.7 0 0 2.2 -0.4 2.5 -3.7 2.5 l-3.8 -0.1 2.8 -2.4z"/>
  <path d="M379 225.1 c0 -1.1 0.8 -2.2 1.8 -2.4 1.6 -0.4 1.6 -0.5 0 -0.6 -3.4 -0.2 -1.8 -2.1 1.7 -2.1 3.3 0 3.5 0.2 3.5 3.5 0 3.3 -0.2 3.5 -3.5 3.5 -2.8 0 -3.5 -0.4 -3.5 -1.9z"/>
  <path d="M56 221.9 c0 -1.5 0.5 -1.9 1.5 -1.5 0.8 0.3 1.5 0.1 1.5 -0.3 0 -0.5 -0.7 -1.1 -1.5 -1.5 -2.5 -0.9 -1.7 -2.6 1.4 -2.6 4.9 0 6.1 0.9 6.1 4.6 0 3.4 -0.1 3.4 -4.5 3.4 -3.9 0 -4.5 -0.3 -4.5 -2.1z"/>
  <path d="M372.8 219.9 c-2.9 -1.6 -2.1 -2.9 1.7 -2.9 2.8 0 3.5 0.4 3.5 2 0 2.2 -2.4 2.6 -5.2 0.9z"/>
  <path d="M369 208.6 c0 -2.5 1.2 -4.6 2.6 -4.6 1.1 0 0.9 -0.8 -0.8 -3 -2 -2.8 -2.1 -3.4 -0.9 -7.8 0.6 -2.5 2.4 -6.2 3.9 -8.2 l2.7 -3.5 0.3 3.5 c0.2 1.9 -0.1 3.6 -0.7 3.8 -0.6 0.2 -1.1 1 -1.1 1.8 0 0.8 -0.4 1.4 -1 1.4 -0.5 0 -1 1.8 -1 3.9 0 3.3 0.4 4 2.3 4.3 1.8 0.2 2.3 1 2.5 4.1 0.3 3.4 0.1 3.7 -2.2 3.7 -1.4 0 -2.6 0.5 -2.6 1 0 0.6 -0.9 1 -2 1 -1.1 0 -2 -0.6 -2 -1.4z"/>
  <path d="M452 206 c0 -1.6 -0.7 -2 -3 -2 -1.9 0 -3 -0.5 -3 -1.4 0 -2.6 3.4 -2.3 7.7 0.6 5.7 3.9 6.1 4.8 1.9 4.8 -2.9 0 -3.6 -0.4 -3.6 -2z"/>
  <path d="M47.7 204.3 c-1.3 -1.3 -0.7 -2.3 1.5 -2.3 2.1 0 2.1 0 -0.3 -2.6 l-2.4 -2.5 4 0.3 c3.8 0.3 4 0.5 4.3 4.1 0.3 3.6 0.2 3.7 -3.1 3.7 -1.8 0 -3.7 -0.3 -4 -0.7z"/>
  <path d="M437 203 c0 -1.7 0.7 -2 4 -2 3.3 0 4 0.3 4 2 0 1.7 -0.7 2 -4 2 -3.3 0 -4 -0.3 -4 -2z"/>
  <path d="M109.2 197.3 l0.3 -3.8 8 -0.1 c8 -0.1 8 -0.1 3.5 1.1 -7.6 2 -7.8 2.5 -0.7 2.1 5.8 -0.3 6.7 -0.1 6.7 1.4 0 1.3 -1.2 1.9 -5.2 2.4 -2.9 0.3 -7 0.6 -9.1 0.6 -3.8 0 -3.8 0 -3.5 -3.7z"/>
  <path d="M437 199 c0 -0.5 1.9 -1 4.3 -0.9 3.6 0.1 3.8 0.2 1.7 0.9 -3.6 1.2 -6 1.2 -6 0z"/>
  <path d="M379.5 179 c0.3 -0.5 1.9 -1.9 3.5 -3 l3 -2.1 0 3 c0 2.9 -0.3 3.1 -3.6 3.1 -2 0 -3.3 -0.4 -2.9 -1z"/>
  <path d="M440 176.5 c0 -3.4 0.1 -3.5 3.7 -3.5 3.5 0 3.6 0.1 1.7 1.5 -1.9 1.4 -1.8 1.4 0.3 1.5 1.2 0 2.7 0.9 3.3 2 1 1.9 0.8 2 -4 2 l-5 0 0 -3.5z"/>
  <path d="M116 172.5 c0 -3.4 0.1 -3.5 3.7 -3.5 3.5 0 3.6 0.1 1.7 1.5 -1.7 1.3 -1.7 1.4 -0.1 1.5 1 0 1.7 0.8 1.7 2 0 1.6 -0.7 2 -3.5 2 -3.3 0 -3.5 -0.2 -3.5 -3.5z"/>
  <path d="M389 174.6 c0 -0.8 -0.6 -1.7 -1.2 -1.9 -0.7 -0.3 0.3 -0.6 2.2 -0.7 2.9 0 3.3 -0.3 1.9 -1.3 -0.8 -0.7 -1.8 -2 -2.2 -2.9 -0.5 -1.4 -0.1 -1.8 1.8 -1.8 1.6 0 2.5 0.6 2.5 1.5 0 0.8 0.7 1.5 1.5 1.5 1 0 1.5 1.1 1.5 3.5 0 3.4 -0.1 3.5 -4 3.5 -2.8 0 -4 -0.4 -4 -1.4z"/>
  <path d="M66 171 c0 -1.4 0.7 -2 2.3 -2 2.1 -0.1 2.2 -0.1 0.3 -1.5 -1.9 -1.4 -1.8 -1.5 1.2 -1.5 3 0 3.2 0.2 3.2 3.5 0 3.3 -0.2 3.5 -3.5 3.5 -2.8 0 -3.5 -0.4 -3.5 -2z"/>
  <path d="M387.5 160 c-0.9 -4 0.3 -9 2.1 -9 1 0 1.4 1.5 1.4 6 0 4.5 -0.4 6 -1.4 6 -0.8 0 -1.7 -1.3 -2.1 -3z"/>
  <path d="M389.5 146.4 c1.6 -4 4.6 -8.4 7 -10.4 1.3 -1.1 1.5 -0.8 1.5 2.4 0 2.3 -0.5 3.9 -1.5 4.2 -0.8 0.4 -1.5 1.2 -1.5 2 0 0.8 -0.4 1.4 -1 1.4 -0.5 0 -1 0.9 -1 2 0 1.5 -0.7 2 -2.5 2 -2.5 0 -2.5 0 -1 -3.6z"/>
  <path d="M70.1 135.3 c1.2 -1.6 5.2 -5.4 8.4 -8.1 0.6 -0.4 1.8 -1.1 2.8 -1.5 1.3 -0.5 1.7 -0.1 1.7 1.8 0 1.8 -0.5 2.5 -2 2.5 -1.1 0 -2 0.7 -2 1.5 0 0.8 -0.6 1.5 -1.4 1.5 -0.7 0 -1.6 0.9 -1.9 2 -0.4 1.5 -1.4 2 -3.7 2 -2.9 0 -3.1 -0.2 -1.9 -1.7z"/>
  <path d="M413 133.6 c0 -3.3 0.2 -3.6 3.1 -3.6 l3 0 -2.1 3 c-3.1 4.4 -4 4.5 -4 0.6z"/>
  <path d="M85 125.6 c0 -2.2 7.5 -3.5 11.4 -2 1.5 0.6 1.5 0.8 -0.1 2 -2.5 1.8 -11.3 1.9 -11.3 0z"/>
 </g>
 <g fill="#f4bf86">
  <path d="M240 438.9 c-0.9 -3.3 -0.8 -4.5 0.5 -6.5 1.8 -2.8 2.8 -3 4.5 -0.9 1 1.2 0.9 2.5 -0.6 6.5 -1 2.7 -2.1 5 -2.6 5 -0.4 0 -1.2 -1.8 -1.8 -4.1z"/>
  <path d="M404.1 437.4 c-1 -3.9 -0.9 -5 0.4 -7 1.8 -2.8 2.8 -3 4.5 -0.9 0.9 1.1 0.8 2.5 -0.5 6.5 -0.9 2.7 -2 5.2 -2.5 5.5 -0.4 0.3 -1.3 -1.6 -1.9 -4.1z"/>
  <path d="M86 433.6 c-1 -3.8 -1 -4.7 0.5 -7 2.1 -3.1 3.1 -3.3 4.5 -0.5 0.9 1.5 0.7 3.2 -0.5 7 -0.9 2.7 -2 4.9 -2.5 4.9 -0.4 0 -1.3 -2 -2 -4.4z"/>
  <path d="M237.7 430.4 c-0.8 -1.4 -3.7 -12.8 -3.2 -13.2 0.5 -0.6 6.5 7.9 6.5 9.3 0 1.7 -2.6 4.9 -3.3 3.9z"/>
  <path d="M399.7 422.8 c-0.9 -3.4 -1.4 -6.4 -1.2 -6.6 0.5 -0.6 6.5 7.9 6.5 9.3 0 1.2 -2 3.5 -3.1 3.5 -0.3 0 -1.4 -2.8 -2.2 -6.2z"/>
  <path d="M247 425.6 c0 -0.7 0.8 -2 1.7 -2.7 1.5 -1.2 1.6 -1.2 1 0.4 -0.4 1 -0.7 2.3 -0.7 2.8 0 0.5 -0.4 0.9 -1 0.9 -0.5 0 -1 -0.6 -1 -1.4z"/>
  <path d="M83.7 425.3 c-0.4 -0.6 -1.6 -4 -2.6 -7.4 l-2 -6.4 4 4.5 c2.1 2.5 3.9 5 3.9 5.6 0 1.8 -2.6 4.8 -3.3 3.7z"/>
  <path d="M410 424.6 c0 -1.7 3.9 -6.6 4 -4.9 0 0.6 -0.4 2.3 -1 3.7 -1 2.8 -3 3.5 -3 1.2z"/>
  <path d="M92.5 421.7 c-0.4 -1 0 -2.8 1.1 -4.4 2.2 -3.5 3 -1.6 1.1 2.8 -1.2 2.8 -1.6 3.1 -2.2 1.6z"/>
  <path d="M240.7 418 c-2.1 -3 -3.7 -6 -3.7 -6.5 0 -0.6 1.8 -2.8 3.9 -4.9 l3.9 -3.8 3.6 4.8 c1.9 2.7 3.6 5.4 3.6 5.9 0 0.6 -1.7 3 -3.8 5.4 l-3.9 4.5 -3.6 -5.4z"/>
  <path d="M403.5 416 l-3.7 -5 3.3 -4.5 c1.9 -2.4 3.9 -4.5 4.5 -4.5 1.2 0 7.4 8.5 7.4 10.1 0 1.4 -5.9 8.9 -7 8.9 -0.5 0 -2.5 -2.3 -4.5 -5z"/>
  <path d="M85.7 413.1 c-2 -2.6 -3.7 -5.3 -3.7 -5.8 0 -1.4 5.9 -8.8 7 -8.8 0.5 0 2.5 2.2 4.5 4.8 l3.7 4.9 -3.3 4.9 c-1.9 2.7 -3.6 4.9 -3.9 4.9 -0.3 0 -2.3 -2.2 -4.3 -4.9z"/>
  <path d="M233.1 407.7 c-1.6 -2 -4.1 -8.4 -4.1 -10.6 0 -1.9 4.5 -8.1 5.9 -8.1 1 0 7.1 9.4 7.1 11 0 1.2 -6.1 9 -7.1 9 -0.4 0 -1.2 -0.6 -1.8 -1.3z"/>
  <path d="M251.2 404.8 c-3.3 -4.8 -3.9 -6.8 -2.2 -6.8 1.6 0 6.2 7.7 5.8 9.7 -0.3 1.4 -1.1 0.7 -3.6 -2.9z"/>
  <path d="M395 404.5 c-3.5 -5.6 -3.5 -9.4 -0.1 -13.3 l2.9 -3.4 4.2 5.6 4.2 5.6 -3.6 4.5 c-2.1 2.5 -4.1 4.5 -4.6 4.5 -0.5 0 -1.8 -1.6 -3 -3.5z"/>
  <path d="M414.1 403.7 c-2.9 -4.3 -4 -7.7 -2.3 -7.7 0.4 0 2.2 2.3 4 5.1 4.4 6.7 2.8 9.1 -1.7 2.6z"/>
  <path d="M76.8 401.4 c-4.1 -6.4 -4.3 -8.1 -1.4 -12.5 1.5 -2.1 3 -3.9 3.4 -3.9 1 0 8.2 9.4 8.2 10.6 0 0.5 -1.8 2.9 -3.9 5.3 l-3.8 4.5 -2.5 -4z"/>
  <path d="M95.5 399.9 c-2.1 -3 -3.4 -5.7 -3 -6.6 0.4 -1.2 1.5 -0.3 4 3.3 3 4.2 4.5 8.4 3.1 8.4 -0.2 0 -2.1 -2.3 -4.1 -5.1z"/>
  <path d="M241.7 390.7 c-4.3 -6.2 -4.2 -7 1.1 -12 2.6 -2.5 3 -2.6 4.3 -1.1 0.7 0.9 1.5 4.4 1.7 7.8 0.3 4.9 0 6.6 -1.5 8.4 l-1.9 2.4 -3.7 -5.5z"/>
  <path d="M404.5 390.4 c-1.9 -2.6 -3.5 -5.2 -3.5 -5.8 0 -0.6 1.6 -2.9 3.4 -5.1 4.2 -4.9 5.6 -4.1 6.7 4.2 0.8 5.7 -0.3 11.3 -2.2 11.3 -0.4 0 -2.4 -2.1 -4.4 -4.6z"/>
  <path d="M85.8 387.1 c-2.1 -2.8 -3.8 -5.6 -3.8 -6.3 0.1 -0.7 1.6 -3.1 3.6 -5.3 3.3 -3.9 3.5 -3.9 4.9 -2.1 0.8 1.1 1.5 3.1 1.5 4.5 0 1.4 0.3 4.2 0.6 6.1 0.4 2.6 0.1 4.2 -1.3 5.8 l-1.8 2.3 -3.7 -5z"/>
  <path d="M225.1 384.3 c-3 -11.1 -1.5 -12.4 4.4 -3.9 l3.7 5.4 -2.3 3.1 c-1.2 1.7 -2.6 3.1 -3 3.1 -0.4 0 -1.6 -3.4 -2.8 -7.7z"/>
  <path d="M390 391.7 c0 -0.1 -0.9 -3.3 -1.9 -7 -1.9 -6.4 -1.9 -9.7 -0.1 -9.7 0.4 0 2.4 2.4 4.5 5.4 l3.7 5.5 -2.2 3 c-1.7 2.5 -4 4.1 -4 2.8z"/>
  <path d="M71.2 387.3 c-1.7 -3.3 -4.3 -13.4 -3.7 -14.3 1.1 -1.7 2 -1.1 5.9 4 l3.8 5 -2.2 3.5 c-2.5 4 -2.6 4.1 -3.8 1.8z"/>
  <path d="M232.3 377.2 c-1.8 -2.6 -3.3 -5.3 -3.3 -6.1 0 -1.5 5.8 -9.1 6.9 -9.1 0.5 0 2.4 2.4 4.4 5.4 l3.6 5.4 -3.6 4.6 c-2 2.5 -3.8 4.6 -4.2 4.6 -0.3 0 -2.1 -2.1 -3.8 -4.8z"/>
  <path d="M394.7 377 c-2 -2.7 -3.7 -5.3 -3.7 -5.7 0 -0.5 1.7 -2.8 3.8 -5.2 l3.8 -4.4 3.7 5.2 c2 2.8 3.7 5.4 3.7 5.7 0 0.9 -6.3 9.4 -7 9.4 -0.3 0 -2.2 -2.2 -4.3 -5z"/>
  <path d="M75.8 374 c-2.1 -2.7 -3.8 -5.4 -3.8 -6 0 -1.5 5.9 -9 7 -9 0.5 0 2.5 2.3 4.5 5 l3.7 5.1 -2.7 3.9 c-4.3 6.2 -4.6 6.3 -8.7 1z"/>
  <path d="M384 371.4 c-1.4 -3.6 -0.7 -4.1 1.4 -1 1 1.5 1.2 2.7 0.6 3.1 -0.6 0.3 -1.5 -0.6 -2 -2.1z"/>
  <path d="M64.7 367.9 c-0.4 -1.6 -0.3 -1.8 0.9 -0.8 1.6 1.3 1.9 2.9 0.5 2.9 -0.5 0 -1.1 -0.9 -1.4 -2.1z"/>
  <path d="M244.3 365.8 c-1.3 -1.8 -3 -4.3 -3.9 -5.5 -1.5 -2.1 -1.4 -2.4 2.1 -6.8 2.1 -2.5 4.1 -4.5 4.6 -4.5 1.7 0 3.9 6 3.9 10.4 0 3.2 -0.6 5.2 -2.2 7.1 l-2.3 2.5 -2.2 -3.2z"/>
  <path d="M385.2 364.5 c-5.9 -8.1 -6 -8.7 -1.6 -13.9 l3.8 -4.5 4.7 6.6 c4 5.5 4.6 6.9 3.6 8.2 -4.3 5.8 -6.1 8.1 -6.6 8.1 -0.3 -0.1 -2.1 -2.1 -3.9 -4.5z"/>
  <path d="M405.4 364.8 c-1.6 -2.4 -3.2 -4.8 -3.6 -5.4 -0.4 -0.6 0.9 -3.2 2.9 -5.9 l3.7 -4.7 2.3 2.8 c1.5 1.9 2.3 4.2 2.3 6.7 0 4.1 -2.3 10.7 -3.8 10.7 -0.5 0 -2.2 -1.9 -3.8 -4.2z"/>
  <path d="M223.8 364.8 c-4.6 -6.2 -5.8 -8.2 -5.8 -10 0 -1.7 5.6 -8.8 6.9 -8.8 0.4 0 2.6 2.7 5 6.1 4.8 6.8 4.7 8 -0.9 13.4 l-2.8 2.7 -2.4 -3.4z"/>
  <path d="M85.8 360.9 c-2.1 -2.7 -3.8 -5.4 -3.8 -6.1 0 -0.7 1.5 -3.2 3.4 -5.5 3.1 -3.9 3.4 -4.1 4.8 -2.5 3 3.4 3.8 6 3.1 10.7 -0.3 2.5 -1.3 5.5 -2.2 6.5 -1.5 1.8 -1.8 1.6 -5.3 -3.1z"/>
  <path d="M65.7 360.8 c-6 -7.4 -6 -7.8 -2 -12.9 1.9 -2.4 3.6 -4.5 3.7 -4.6 0.1 -0.2 2.4 2.7 5 6.3 l4.9 6.5 -3 4.2 c-1.7 2.2 -3.5 4.3 -4.1 4.5 -0.5 0.1 -2.6 -1.6 -4.5 -4z"/>
  <path d="M394.7 350 l-4.6 -6.3 1.7 -2.9 c0.9 -1.6 2.7 -3.8 3.8 -4.9 l2.1 -2 4.7 6.1 c5 6.7 5 6.8 -0.1 12.9 l-2.9 3.4 -4.7 -6.3z"/>
  <path d="M232.2 348.5 l-4.4 -6.4 3.8 -4.6 c2.1 -2.5 4.1 -4.5 4.4 -4.5 0.3 0 2.5 2.9 4.9 6.4 l4.3 6.5 -3.7 4.5 c-2.1 2.5 -4 4.6 -4.4 4.6 -0.3 0 -2.5 -3 -4.9 -6.5z"/>
  <path d="M74.6 346.5 l-4.8 -6.5 3.3 -4.5 c1.9 -2.4 3.8 -4.5 4.3 -4.5 1 0 2.1 1.3 6.7 7.8 l3 4.3 -3.6 4.9 c-2 2.8 -3.7 5 -3.8 5 -0.1 -0.1 -2.4 -3 -5.1 -6.5z"/>
  <path d="M377 348.3 c-0.5 -2.1 -1.6 -5.9 -2.4 -8.4 -1.4 -4.5 -0.7 -7.9 1.4 -7.9 0.6 0 3 2.8 5.5 6.2 l4.4 6.1 -3 3.9 c-1.7 2.1 -3.5 3.8 -3.9 3.8 -0.5 0 -1.4 -1.7 -2 -3.7z"/>
  <path d="M215.6 349.3 c-3.5 -11.8 -4.5 -16.7 -3.5 -18 1.8 -2.1 2.4 -1.6 6.9 5.2 l4.2 6.5 -3.2 4 c-1.7 2.2 -3.3 4 -3.5 4 -0.2 0 -0.6 -0.8 -0.9 -1.7z"/>
  <path d="M55.8 340.8 c-2.4 -7.8 -2.3 -11.8 0.1 -11.8 0.4 0 2.9 2.7 5.5 6.1 l4.7 6 -3.1 4 c-1.8 2.1 -3.5 3.9 -3.9 3.9 -0.5 0 -1.9 -3.7 -3.3 -8.2z"/>
  <path d="M411.7 346.4 c-0.8 -0.8 0.1 -2.4 1.4 -2.4 0.5 0 0.9 0.7 0.9 1.5 0 1.5 -1.2 2 -2.3 0.9z"/>
  <path d="M92.5 342.7 c-0.4 -1 -0.5 -2.1 -0.1 -2.4 1 -1 1.8 0.4 1.3 2.4 -0.4 1.7 -0.4 1.7 -1.2 0z"/>
  <path d="M404.8 336.9 l-4.6 -6.3 1.9 -2.6 c7 -9.4 7.8 -9.6 11 -2.6 2.8 6.1 2.5 10.9 -0.9 14.7 l-2.9 3.2 -4.5 -6.4z"/>
  <path d="M244.7 337.7 c-1.5 -2.3 -3.4 -5.1 -4.2 -6.3 -1.4 -1.9 -1.2 -2.4 2.7 -7.2 2.3 -2.9 4.5 -5.2 5 -5.2 1.5 0 4.7 6.4 5.4 10.7 0.5 3.7 0.2 5 -2 8.3 -1.4 2.2 -3 4 -3.4 4 -0.4 0 -2 -1.9 -3.5 -4.3z"/>
  <path d="M384.3 335.9 c-2.1 -3 -4.3 -6 -4.7 -6.7 -0.8 -1.3 5 -10.1 6.7 -10.2 0.4 0 2.7 2.7 5.2 6.1 4.9 6.6 4.9 6.6 -0.3 12.8 l-2.9 3.4 -4 -5.4z"/>
  <path d="M85.4 334.3 c-2.1 -2.7 -4.2 -5.3 -4.7 -6 -0.5 -0.8 0.6 -3.2 3.4 -6.9 l4.3 -5.6 2.3 2.6 c2.2 2.6 4.3 8.4 4.3 12 0 2.2 -3.7 8.6 -5 8.6 -0.5 0 -2.6 -2.1 -4.6 -4.7z"/>
  <path d="M221.1 332.5 l-4.3 -6.4 3.7 -4.5 c2.1 -2.5 3.9 -4.6 4.1 -4.6 0.7 0 9.4 12.2 9.4 13.1 0 1.1 -7 8.9 -7.9 8.9 -0.3 0 -2.6 -2.9 -5 -6.5z"/>
  <path d="M63.2 331.4 c-4.7 -6.1 -4.8 -7 -0.2 -12.4 l3 -3.5 3.4 4 c1.9 2.2 4.1 5.1 4.9 6.5 1.5 2.4 1.4 2.8 -1.6 6.7 -1.8 2.3 -3.6 4.2 -4.2 4.3 -0.5 0 -2.9 -2.5 -5.3 -5.6z"/>
  <path d="M371.7 330.3 c-0.2 -0.5 -0.7 -2.1 -1.1 -3.8 -0.7 -2.9 -0.7 -2.9 1.3 -1.1 2.1 1.9 2.9 5.6 1.2 5.6 -0.6 0 -1.2 -0.3 -1.4 -0.7z"/>
  <path d="M209.4 326.6 c-0.3 -1.5 -0.4 -2.9 -0.1 -3.2 0.3 -0.3 1.1 0.4 1.7 1.6 0.8 1.5 0.9 2.5 0.1 3.3 -0.7 0.7 -1.2 0.2 -1.7 -1.7z"/>
  <path d="M51 325.4 c-0.6 -1.4 -1 -3.1 -1 -3.7 0.1 -1.7 4 3.2 4 4.9 0 2.3 -2 1.6 -3 -1.2z"/>
  <path d="M393.6 321.7 l-4.8 -6.7 4.2 -5 c2.4 -2.8 4.6 -5 5.1 -4.8 1.2 0.4 8.9 11 8.9 12.3 0 0.6 -1.9 3.3 -4.3 6 l-4.3 4.9 -4.8 -6.7z"/>
  <path d="M232 319.5 l-4.3 -6.6 4 -4.7 c2.2 -2.6 4.5 -4.7 5.1 -4.7 1.1 0 9.2 10.7 9.2 12.2 0 1.1 -8 10.3 -9 10.3 -0.4 0 -2.7 -2.9 -5 -6.5z"/>
  <path d="M74.1 319.5 c-2.3 -3 -4.4 -6.1 -4.7 -6.9 -0.5 -1.3 6.2 -11.4 7.6 -11.5 0.5 -0.1 7.4 8.6 9.3 11.7 0.7 1.1 -1.4 4.6 -7.3 11.5 -0.4 0.4 -2.6 -1.7 -4.9 -4.8z"/>
  <path d="M372.6 319.7 c-2 -2.9 -3.6 -5.7 -3.6 -6.2 0 -0.6 1.6 -2.8 3.5 -5 l3.5 -4 2.8 3.2 c1.5 1.7 3.5 4.5 4.4 6.1 1.7 2.9 1.7 2.9 -1.8 7.1 -2 2.2 -3.9 4.1 -4.4 4.1 -0.4 0 -2.4 -2.4 -4.4 -5.3z"/>
  <path d="M210.8 317.5 c-2.1 -2.9 -3.8 -5.7 -3.8 -6.1 0 -1.3 7.2 -9.4 7.9 -8.9 0.5 0.2 2.5 2.9 4.6 5.9 l3.8 5.5 -3.7 4.6 c-2.1 2.5 -4 4.5 -4.4 4.5 -0.4 -0.1 -2.4 -2.5 -4.4 -5.5z"/>
  <path d="M51.9 316.5 l-4.1 -5.5 3.3 -4.5 c1.9 -2.4 3.7 -4.5 4.1 -4.5 1 0 8.8 9.9 8.8 11.1 0 1.3 -6.1 8.9 -7.1 8.9 -0.5 0 -2.7 -2.5 -5 -5.5z"/>
  <path d="M383.1 307.3 c-2.3 -3.1 -4.1 -6 -4.1 -6.4 0 -0.9 6.9 -9.3 8 -9.7 0.5 -0.2 2.7 2.2 5 5.2 l4.2 5.6 -4.1 5.5 c-2.3 3 -4.4 5.5 -4.6 5.5 -0.2 0 -2.2 -2.5 -4.4 -5.7z"/>
  <path d="M404.6 306.8 c-3.6 -4.8 -3.8 -5.3 -2.5 -7.6 2.1 -3.8 3.2 -3 5.2 3.4 0.9 3.3 2 6.7 2.3 7.7 1 3.2 -1.1 1.7 -5 -3.5z"/>
  <path d="M364 304.1 c-1.1 -3.7 -2 -7.5 -2 -8.3 0 -1.4 3 -4.8 4.2 -4.8 0.9 0 7.8 9.8 7.8 11.1 0 1.3 -6.1 8.9 -7.1 8.9 -0.5 0 -1.7 -3.1 -2.9 -6.9z"/>
  <path d="M221.6 304.5 c-2 -3 -3.6 -5.9 -3.6 -6.5 0 -1.4 8.1 -10.1 8.9 -9.6 0.4 0.3 2.4 2.9 4.5 6 l3.8 5.6 -4.2 5 c-2.3 2.7 -4.5 5 -5 5 -0.4 0 -2.4 -2.5 -4.4 -5.5z"/>
  <path d="M243.7 304.4 l-3.9 -5.6 2.3 -2.4 c2.7 -2.9 3.4 -2.4 4.8 4.1 0.6 2.8 1.3 6 1.7 7.3 1.1 3.7 -0.9 2.4 -4.9 -3.4z"/>
  <path d="M61.9 303.5 l-4.1 -5.5 3.8 -5 c2.1 -2.7 4.3 -5 4.9 -5 0.9 0.1 7.4 8 8.3 10.2 0.5 1 -6.7 10.8 -7.9 10.8 -0.4 0 -2.7 -2.5 -5 -5.5z"/>
  <path d="M84.1 303.7 c-2.2 -3 -4.1 -5.8 -4.1 -6.4 0 -1.3 3.9 -4.8 4.5 -4.1 0.8 0.8 4.6 15 4.2 15.5 -0.2 0.2 -2.3 -2.1 -4.6 -5z"/>
  <path d="M43.2 301.2 c-1.2 -3.8 -2.2 -7.5 -2.2 -8.4 0 -1.7 3.7 -5.4 4.5 -4.6 0.3 0.3 2.3 2.9 4.5 5.8 l3.9 5.2 -3.2 4.4 c-1.8 2.4 -3.7 4.3 -4.3 4.4 -0.5 0 -2 -3.1 -3.2 -6.8z"/>
  <path d="M202.1 299.9 c-2.1 -7.7 -2.1 -8.2 -0.5 -10 0.9 -1 2.1 -1.9 2.5 -1.9 1.2 0 7.8 9.2 7.9 10.9 0 1.5 -5.7 9.1 -6.9 9.1 -0.4 0 -1.8 -3.6 -3 -8.1z"/>
  <path d="M374.4 295.5 c-1.5 -2 -2.4 -3.8 -2.1 -4.1 0.6 -0.6 9.7 0.6 9.7 1.3 0 0.3 -1.1 1.8 -2.4 3.4 l-2.5 2.9 -2.7 -3.5z"/>
  <path d="M394.1 292.8 c-4.5 -5.6 -4.4 -6.2 1.5 -8.3 4.7 -1.6 7.5 -0.7 8.7 2.9 0.7 2.2 0.4 3.5 -1.7 6.6 -1.5 2.2 -3 4 -3.5 4 -0.5 0 -2.8 -2.3 -5 -5.2z"/>
  <path d="M53 292 l-3.1 -4 6 0.3 c3.4 0.1 6.1 0.3 6.1 0.3 0 0.1 -1.3 1.8 -2.9 3.8 l-2.9 3.6 -3.2 -4z"/>
  <path d="M213.2 292.4 c-1.3 -2 -2.1 -3.8 -1.9 -4 0.3 -0.3 2.6 -0.1 5.3 0.3 l4.8 0.8 -3 3.3 -2.9 3.2 -2.3 -3.6z"/>
  <path d="M233.8 290.6 c-2.1 -3 -3.8 -5.7 -3.8 -6 0 -1.1 6 -3.6 8.8 -3.6 5.9 0 7.2 5.5 2.7 11.4 -1.5 2 -3 3.6 -3.4 3.6 -0.3 0 -2.3 -2.5 -4.3 -5.4z"/>
  <path d="M73.9 290.8 c-1.8 -2.4 -3.7 -4.8 -4.2 -5.5 -1.2 -1.6 4.8 -5.3 8.5 -5.3 3.5 0 6.3 3.9 5.2 7.2 -0.8 2.7 -4.5 7.8 -5.5 7.8 -0.4 0 -2.2 -1.9 -4 -4.2z"/>
  <path d="M359.6 290.5 c-1.1 -3.1 -0.7 -4.3 1.4 -3.8 2.9 0.8 3.2 1.8 1.1 3.7 -1.7 1.5 -1.9 1.6 -2.5 0.1z"/>
  <path d="M38.5 287 c-0.8 -2.6 -0.3 -3.3 1.9 -2.4 1.9 0.7 1.8 3.5 -0.1 4.1 -0.6 0.2 -1.4 -0.5 -1.8 -1.7z"/>
  <path d="M198.7 287.3 c-1 -0.9 -0.8 -4.3 0.2 -4.3 0.5 0 1.4 0.6 2 1.4 0.8 1 0.8 1.6 -0.2 2.5 -0.8 0.6 -1.7 0.8 -2 0.4z"/>
  <path d="M80.3 275.8 c-4.5 -1.5 -4.3 -3.8 0.2 -3.8 3.1 0 3.5 0.3 3.5 2.5 0 1.4 -0.1 2.5 -0.2 2.4 -0.2 -0.1 -1.8 -0.6 -3.5 -1.1z"/>
  <path d="M151.3 265.3 c-2.1 -0.8 -1.5 -3 0.9 -3.7 2.7 -0.6 4.3 0.7 3.5 2.8 -0.6 1.6 -2.1 1.9 -4.4 0.9z"/>
  <path d="M150 259.5 c0 -0.9 0.9 -1.5 2.1 -1.5 1.8 0 1.9 0.2 0.9 1.5 -0.7 0.8 -1.6 1.5 -2.1 1.5 -0.5 0 -0.9 -0.7 -0.9 -1.5z"/>
  <path d="M29 257.6 c0 -1.3 2.8 -2.6 5.8 -2.6 0.6 0 1.2 0.9 1.2 2 0 1.6 -0.7 2 -3.5 2 -2.3 0 -3.5 -0.5 -3.5 -1.4z"/>
  <path d="M39 256.1 c0 -0.5 1 -1.2 2.3 -1.4 l2.2 -0.4 -2.2 -0.8 c-3.7 -1.2 -2.8 -3.5 1.2 -3.5 3.3 0 3.5 0.2 3.5 3.5 0 3.3 -0.2 3.5 -3.5 3.5 -1.9 0 -3.5 -0.4 -3.5 -0.9z"/>
  <path d="M32.2 250.4 c-3 -2.1 -2.8 -3.4 0.8 -3.4 2.5 0 3 0.4 3 2.5 0 2.9 -0.7 3.1 -3.8 0.9z"/>
  <path d="M27.4 241.5 c-0.5 -2.9 -0.1 -4.3 2.1 -7.5 1.5 -2.1 3.8 -4.6 5.1 -5.5 2.3 -1.5 2.4 -1.5 2.4 1.3 0 3.2 -1.6 5.2 -4.2 5.2 -1.5 0 -1.8 0.9 -1.8 5 0 6.1 -2.5 7.1 -3.6 1.5z"/>
  <path d="M57 221.6 c0 -0.9 0.9 -1.2 2.8 -1 l2.7 0.4 -2.7 -1.2 c-4 -1.7 -3.6 -3.8 0.7 -3.8 3.3 0 3.5 0.2 3.5 3.5 0 3.3 -0.2 3.5 -3.5 3.5 -2.3 0 -3.5 -0.5 -3.5 -1.4z"/>
  <path d="M48.8 215.9 c-2.7 -1.5 -2.2 -3.9 0.7 -3.9 2 0 2.5 0.5 2.5 2.5 0 2.7 -0.6 3 -3.2 1.4z"/>
  <path d="M108 197.6 c0 -1.9 0.5 -3.8 1.1 -4.1 0.6 -0.4 3.6 -0.4 6.7 0 l5.7 0.8 -4.2 1.1 c-6 1.6 -6.7 3 -1 2.2 4.3 -0.7 4.7 -0.6 4.7 1.3 0 1.9 -0.6 2.1 -6.5 2.1 l-6.5 0 0 -3.4z"/>
  <path d="M122 198.6 c0 -1.5 3.5 -2.7 5.6 -1.9 2.9 1.1 1.5 3.3 -2.1 3.3 -2.3 0 -3.5 -0.5 -3.5 -1.4z"/>
  <path d="M50.8 182.3 c1.1 -1.6 4.5 -5.2 7.6 -8.2 l5.6 -5.3 0 3.6 c0 3.3 -0.2 3.6 -3 3.6 -2.6 0 -3 0.4 -3 2.8 0 3.5 -2.8 6.2 -6.4 6.2 l-2.7 0 1.9 -2.7z"/>
  <path d="M64.6 159.8 c-1 -3.8 -0.7 -4.8 1.4 -4.8 1.6 0 2 0.7 2 3.5 0 4 -2.4 4.9 -3.4 1.3z"/>
  <path d="M90.3 127.2 c-2 -0.2 -3.3 -0.9 -3.3 -1.7 0 -1.7 4.9 -2.8 7.9 -1.7 2.1 0.7 2.1 0.9 0.4 2.3 -1 0.8 -3.2 1.3 -5 1.1z"/>
 </g>
 <g fill="#83e6d6">
  <path d="M437 300.8 c-2.7 -10.1 -3.6 -12.3 -6.6 -15.4 -3.9 -4.2 -6.2 -4.3 -9.9 -0.4 -1.6 1.7 -3.5 3 -4.3 3 -0.8 0 -3.4 -1.8 -5.9 -4 -7.2 -6.3 -14.5 -6.6 -21.6 -0.8 -5.4 4.3 -10.2 4.6 -20.2 1.4 -9.3 -3 -12.2 -3.2 -14.5 -1.1 -1.6 1.4 -2 1.2 -5.3 -2.4 -4.2 -4.6 -5.4 -9.7 -3.8 -15.1 1.4 -4.9 5.3 -8 10 -8.1 2 -0.1 5 -0.4 6.6 -0.8 l3 -0.7 -3.7 -0.7 c-7.4 -1.5 -12.6 -8.5 -11.4 -15.1 0.7 -3.8 6 -9.1 14.3 -14.4 4.9 -3.1 5.7 -3.3 12.2 -3 7.8 0.3 8 -0.3 0.8 -2.2 -5.6 -1.5 -7.7 -4 -7.7 -9.1 0 -5.4 0.9 -6.9 3.9 -6.9 l2.6 -0.1 -2.7 -2 c-2.4 -1.7 -2.8 -2.8 -2.8 -6.8 0 -6.1 3.5 -11.8 11.8 -19 5.5 -4.7 6.6 -5.3 9.4 -4.7 l3.2 0.6 -2.1 -2.2 c-3.2 -3.4 -4.4 -7.5 -4.4 -14.3 0 -7.2 1.6 -11.5 7 -18.3 5.2 -6.5 11.4 -10.2 18.5 -10.9 8.5 -0.9 9.4 -0.1 4.7 4.6 -5.9 5.9 -6.6 12.6 -1.8 17.8 1.2 1.4 6 3.5 11.9 5.4 11.8 3.8 17.5 8.2 18.5 14.1 0.5 3.1 0.2 4.1 -1.8 5.8 -2.1 1.9 -2.2 2 -0.4 1.6 2.4 -0.7 3.3 -0.1 6.3 3.8 2.8 3.7 2.8 6.5 -0.3 12.6 -2.3 4.6 -2.8 4.9 -8 6.1 -6.9 1.5 -6.2 2.4 1.7 2.1 5.6 -0.2 6.5 0 11.5 3.5 3 2 7.2 5.6 9.4 8 3.5 3.8 3.9 4.8 3.9 9.3 0 7.5 -3.2 15.9 -7.7 19.9 l-3.8 3.4 3 -0.7 c14.7 -3.4 22.5 -0.5 22.5 8.4 0 2.5 -1.2 4.3 -5.6 8.7 -4.8 4.8 -5.2 5.5 -2.8 4.9 2.6 -0.7 2.7 -0.6 2.1 2.9 -1.3 8.1 -9.9 14.5 -19.3 14.5 -2.7 0 -5.5 0.4 -6.3 0.9 -0.8 0.5 -3.5 5.1 -6 10.2 -2.5 5.2 -5.1 9.5 -5.8 9.7 -0.7 0.2 -1.7 -1.5 -2.3 -4z m10.4 -19.3 c1.2 -0.9 4.2 -1.5 7.6 -1.5 4.5 0 6.5 -0.6 10.2 -2.9 5.8 -3.7 6.7 -5.1 3.4 -5.1 -2.2 0 -2.6 -0.4 -2.6 -3.1 0 -2.6 1.2 -4.3 6.5 -9.3 7.2 -6.8 7.5 -8.2 2.2 -11.1 -3 -1.6 -3.6 -1.6 -9.3 -0.1 -3.4 0.9 -8 1.6 -10.3 1.6 -4.1 0 -4.1 0 -4 -3.7 0 -3.4 0.5 -4.1 4.7 -6.8 4 -2.5 5 -3.9 6.9 -9 1.2 -3.3 2.2 -7 2.2 -8.2 0.1 -2.9 -3.9 -7.5 -11.4 -12.8 l-6.3 -4.5 -9.6 0 -9.6 0 0 -3.9 c0 -3.9 0 -3.9 4.8 -4.6 9.6 -1.3 11.7 -2.3 13.5 -6 0.9 -2 1.7 -4.1 1.7 -4.7 0 -2.3 -4.4 -5.8 -7.2 -5.8 -2.5 0 -2.8 -0.3 -2.8 -3.5 0 -2.4 0.6 -3.7 2 -4.5 5.6 -3 -2.1 -9.1 -17.5 -13.9 -3.8 -1.1 -7.7 -2.7 -8.6 -3.4 -2.7 -2.1 -4.9 -7.4 -4.9 -11.8 0 -4.1 -0.1 -4.2 -1.9 -2.5 -3.3 3 -8.1 13.2 -8.2 17.3 -0.1 2.1 0.2 7 0.6 10.8 l0.7 7 -5.2 3.9 c-5.2 4 -10.7 10.1 -13 14.6 -0.9 1.6 -1.3 5.4 -1.1 10.2 l0.2 7.7 -4.1 0.3 c-3.8 0.3 -4 0.5 -2.8 2.1 0.8 1 4.4 2.6 8.3 3.6 7 1.7 7 1.7 7.3 5.4 l0.3 3.7 -9.2 0 c-9.1 0 -9.3 0.1 -15.5 4.1 -9.9 6.4 -9.9 6.5 1.8 7.9 5.7 0.7 10.7 1.6 11.2 2.1 1.7 1.5 4.5 11.4 4.6 16 0 3.6 -0.5 5 -2.5 6.9 -3.8 3.6 -4.9 8.9 -2.9 13.9 1.7 4.4 4.2 5.3 6.5 2.4 2.5 -2.9 9.1 -5.3 15.2 -5.3 6 0 10.4 1.6 14.5 5.3 l2.2 2 2.3 -2.1 c3.4 -3.2 11.1 -3 15.2 0.3 3.5 2.9 10.8 3.4 13.9 1z"/>
 </g>
 <g fill="#e2d693">
  <path d="M276.8 284 c-1.5 -0.4 -3.9 -1.8 -5.4 -2.9 -3.5 -2.8 -7.3 -2.6 -11.4 0.4 -1.9 1.4 -3.7 2.5 -4.1 2.5 -0.4 0 -2.8 -1.8 -5.3 -4 -7.3 -6.3 -14.9 -6.6 -23.3 -1.1 -5.8 3.9 -10.6 4.1 -12.8 0.7 -3.8 -5.7 -2.6 -17.2 2.4 -23.3 l2.9 -3.5 -2.1 -6.6 c-1.2 -3.7 -2.2 -6.8 -2.3 -7 -0.3 -0.6 -18.7 -3.2 -21.5 -3 -1.8 0.2 -3.4 -0.2 -3.6 -0.9 -0.7 -1.9 6.5 -8.8 13.2 -12.9 l6 -3.6 9.3 0.6 c11.5 0.8 12.1 -0.8 1.6 -4.2 -7.7 -2.5 -9.4 -4.1 -9.4 -8.8 0 -4 0.8 -4.6 5 -3.4 l3.2 0.9 -0.7 -6.5 c-0.6 -5.8 -0.4 -7.1 1.9 -11.8 2.4 -5 8.7 -11.7 16.3 -17.6 3.2 -2.4 3.3 -2.6 2.2 -7 -1.4 -5.9 -0.6 -14.6 1.9 -20.3 3.6 -8.1 15.1 -18.7 20.3 -18.7 2 0 1.9 0.2 -1 3.5 -3.7 4.2 -4.5 7.2 -3.8 12.8 0.8 5.8 4.5 8.8 14.8 12 10.2 3.2 14.3 5.6 16.9 9.9 2.6 4.3 2.5 6.4 -0.5 9 -3.3 2.9 -3.2 3.8 0.8 3.8 2.5 0 3.6 0.6 5 3.1 2.2 4 2.2 6.6 -0.3 12.2 -1.8 4.1 -2.4 4.6 -6.3 5.2 -15.1 2.4 -16 4.7 -1.9 4.9 l8.9 0.1 7.1 5.4 c8.8 6.7 10.6 9.9 10 17.2 -0.8 8.8 -4.3 15.5 -10.1 19.4 -6.2 4.2 -4.6 5.5 3.7 3.1 11.9 -3.5 20.6 -0.4 20.6 7.4 0 3.1 -2.6 6.4 -8.6 11 -5.6 4.2 -6.5 6.7 -1.7 4.9 1.4 -0.5 2.8 -0.7 3.1 -0.5 0.9 1 -0.8 5.5 -3.3 8.4 -3.5 4.1 -8.4 6.2 -14.7 6.2 -3.5 0 -6.4 0.7 -8.6 2 -3.4 2.1 -9.4 2.5 -14.4 1z"/>
 </g>
 <g fill="#8efbe6">
  <path d="M411.8 284.1 c-4.3 -3.7 -9.1 -6.1 -12.3 -6.1 -3.3 0 -9.4 2.6 -12.1 5.1 -1.2 1.1 -4 2.3 -6.3 2.6 -4 0.6 -4.1 0.5 -6.1 -3.8 -3.3 -7.3 -2.2 -16.5 2.5 -20.9 1.4 -1.3 2.5 -3.1 2.5 -3.9 -0.1 -2.2 -3.6 -12.1 -4.6 -13 -1.6 -1.4 -17.9 -3 -21.7 -2.1 -2.7 0.6 -3.7 0.5 -3.7 -0.5 0 -2.8 5 -8.3 11.9 -13 l7.3 -5 9 0.3 c10.2 0.3 10.9 -0.9 1.7 -2.8 -7.7 -1.7 -9.9 -3.7 -9.9 -9 l0 -4 4.1 0.6 4.1 0.7 -0.7 -6.5 c-0.6 -5.4 -0.4 -7.3 1.3 -11.1 2 -4.5 8.8 -12.1 15.1 -16.9 l3.4 -2.6 -1.3 -6 c-2.9 -14 4 -28.5 17 -35.6 5.7 -3.1 7.5 -2.8 4.3 0.7 -2.8 3 -5.3 8.1 -5.3 10.7 0 2.6 2.8 8.1 4.9 9.7 0.9 0.7 4.8 2.3 8.6 3.4 13.9 4.3 20.5 9.1 20.5 15 0 1.8 -0.9 3.4 -2.7 4.8 l-2.8 2 3.2 0.1 c3.7 0 8.3 4.8 8.3 8.6 0 2.7 -3.6 10.5 -5.4 11.6 -0.6 0.4 -4.4 1.3 -8.3 1.9 -4 0.6 -7.3 1.6 -7.3 2 0 0.5 4.3 0.9 9.6 0.9 l9.6 0 6.3 4.5 c9.2 6.5 11.5 9.6 11.5 15.4 0 2.6 -1 7.5 -2.1 11 -1.7 5 -3 6.9 -6.1 9.1 -2.2 1.6 -4.5 3.1 -5.1 3.3 -0.7 0.2 -0.9 0.8 -0.5 1.2 0.4 0.4 4 -0.1 8 -1.1 4 -1 8.6 -1.7 10.2 -1.6 5.9 0.5 9.6 3.9 9.6 9 0 3.2 -0.8 4.5 -6.7 10.1 -3.8 3.5 -6 6.1 -5 5.8 1.1 -0.4 3 -1 4.4 -1.3 2.3 -0.6 2.5 -0.5 1.8 1.7 -1.6 5.2 -3.8 8.1 -8.3 11 -3.7 2.3 -5.7 2.9 -10.3 2.9 -4.1 0 -6.3 0.5 -8 1.9 -3.4 2.8 -15 1.9 -19.6 -1.5 -4.1 -3.1 -5.8 -3 -10 0.6 -1.8 1.7 -3.8 3 -4.3 3 -0.5 0 -2.4 -1.3 -4.2 -2.9z"/>
 </g>
 <g fill="#e7ace4">
  <path d="M116 295.8 c-2.2 -8.7 -3.2 -10.9 -6.5 -14.3 -4 -4.3 -6.3 -4.4 -10 -0.5 -3.5 3.7 -4.8 3.7 -8.7 0.5 -1.7 -1.4 -4.9 -3.5 -7.1 -4.6 -5.1 -2.7 -8.9 -2 -15.8 2.8 -7 4.7 -11.2 5.1 -21.8 1.9 -10 -3.1 -10.5 -3.1 -12.6 -1 -2.4 2.5 -5.8 0.5 -8.4 -4.8 -3.2 -6.7 -2.8 -12 1.2 -16.4 3 -3.3 3.9 -3.6 10 -4.1 3.7 -0.3 6.7 -1 6.7 -1.4 0 -0.5 -1.1 -0.9 -2.4 -0.9 -3.7 0 -7.4 -1.7 -10.1 -4.6 -2 -2.2 -2.5 -3.8 -2.5 -7.9 0 -5 0.2 -5.4 5.3 -10.2 2.8 -2.7 7.4 -6.2 10 -7.8 4.4 -2.5 5.4 -2.7 11.8 -2.2 7.5 0.6 8.6 -0.7 1.6 -1.8 -8.7 -1.5 -11.9 -5.7 -10.2 -13.4 0.5 -2.5 1.2 -3.1 3.3 -3.1 l2.7 -0.1 -2.7 -2 c-2.4 -1.7 -2.8 -2.8 -2.8 -6.7 0 -5.7 1.6 -8.5 10.3 -17.6 5.8 -6.1 6.9 -6.8 9.6 -6.4 3.2 0.5 4.3 -0.8 1.6 -1.8 -1.8 -0.7 -4.7 -10.1 -4.7 -14.9 0 -9.4 8.4 -22 17.5 -26.4 3.9 -1.9 14.7 -3 14.7 -1.6 0 0.3 -1.6 2.5 -3.5 5.1 -4.2 5.4 -4.7 10.6 -1.4 14.8 2.6 3.4 4.6 4.4 13.1 6.7 9.2 2.6 14.2 5.2 16.7 8.8 2.8 3.9 2.7 8.8 -0.1 11 l-2.2 1.8 3 -0.4 c2.6 -0.4 3.4 0.1 5.7 3.4 3.3 4.8 3.3 5.6 0.3 12.5 l-2.4 5.5 -6.4 1.3 c-11.5 2.3 -9.3 3.9 3.1 2.1 4.7 -0.7 5.7 -0.5 9 1.7 14.3 9.7 16.7 12.7 15.8 20 -1.4 10.7 -4.4 17.2 -9.3 20 -3.3 1.8 -0.9 2.2 4.2 0.7 8.6 -2.6 15.9 -1.3 18.4 3.4 2.4 4.6 1.2 8.2 -4.5 13.9 -4.5 4.5 -5 5.3 -3 5 3.1 -0.6 3.9 1.4 2 5.5 -1.9 4.3 -3.4 6 -7.9 9.1 -4.7 3.2 -10.6 3.6 -10.6 0.7 0 -1.3 0.9 -2 3 -2.4 1.6 -0.4 4.7 -2.2 6.7 -4.1 l3.8 -3.5 -2.7 -0.1 c-2.5 0 -2.8 -0.4 -2.8 -3.1 0 -2.5 1.3 -4.3 6.5 -9.4 7.1 -6.9 7.4 -8.2 2.1 -11 -3.1 -1.7 -3.6 -1.7 -8.1 -0.1 -2.7 0.9 -7.3 1.6 -10.2 1.6 l-5.3 0 0 -3.3 c0 -2.7 0.8 -3.8 4.8 -6.7 4.1 -3 5 -4.4 6.9 -10.4 2.6 -7.9 2 -10 -4.2 -15.5 -8.6 -7.5 -10.3 -8.2 -21.4 -8.2 l-10.2 0 0.3 -3.7 0.3 -3.6 8.1 -1.9 8.2 -1.8 1.7 -4.4 c1.6 -4.2 1.6 -4.6 -0.2 -6.9 -1.4 -1.9 -2.7 -2.5 -5.5 -2.6 -3.7 0 -3.8 -0.1 -3.8 -3.5 0 -2.5 0.6 -3.7 2.3 -4.6 1.2 -0.6 2.4 -1.3 2.6 -1.5 0.2 -0.1 -0.6 -1.6 -1.8 -3.2 -2.3 -3.3 -8.8 -6.4 -18.3 -8.8 -10.5 -2.7 -13.8 -6.2 -13.8 -15.1 l-0.1 -4.8 -2.5 3 c-1.3 1.7 -3.6 5.3 -5 8.2 -2.4 4.9 -2.5 5.6 -1.8 15.6 l0.7 10.5 -6.7 6.3 c-3.7 3.4 -7.9 8.3 -9.3 10.7 -2.4 4 -2.6 5.4 -2.4 12.4 l0.2 7.8 -3.6 0 c-1.9 0 -3.5 0.4 -3.5 0.9 0 1.7 2.9 3.2 9.6 4.9 6.9 1.7 6.9 1.7 7.2 5.5 l0.3 3.7 -9.4 0 c-9.3 0 -9.4 0 -15 4 -3 2.2 -6.5 4 -7.6 4 -1.4 0 -2.1 0.6 -2.1 1.9 0 1.6 1.3 1.9 11.2 2.7 l11.2 0.9 2.3 6 c3.1 7.9 3 13.2 -0.2 17.5 -1.4 1.8 -2.8 4.8 -3.1 6.6 -0.7 3.7 1.2 10.3 3.1 11 0.7 0.3 3.7 -1.1 6.5 -3 4.8 -3.3 5.8 -3.6 12.7 -3.6 7.3 0 11.6 1.3 15.5 4.7 1.4 1.3 1.9 1.2 3.7 -0.6 3 -3 9.7 -2.8 15.7 0.4 5.3 2.8 9.9 3.2 12.8 1 2.4 -1.9 9.6 -2 9.6 -0.2 0 0.6 -1.5 1.9 -3.2 2.7 -3.5 1.7 -3.3 1.4 -8.2 12.3 -4 8.9 -6 9.8 -7.6 3.5z"/>
 </g>
 <g fill="#f7b9f4">
  <path d="M54.3 280.3 c-1.3 -2 -1.8 -4.7 -1.8 -10.3 0 -6.8 0.3 -8.1 2.9 -11.9 l2.9 -4.2 -1.9 -5.6 c-2.9 -8.6 -2.4 -8.3 -16.1 -8.6 -6.8 -0.1 -12.3 -0.6 -12.3 -1.1 0 -2.6 5 -8.1 11.3 -12.6 l7.1 -5 9.5 0 c10.8 0 11.1 -1.1 1.1 -3.4 -7.5 -1.8 -10.3 -4.3 -9.8 -9 0.3 -2.9 0.5 -3.1 4.1 -2.8 l3.9 0.3 -0.7 -6.5 c-0.7 -5.9 -0.5 -7.2 1.9 -12 1.7 -3.4 5.3 -7.9 9.8 -12.1 l7.1 -6.8 -1.2 -7.1 c-0.9 -5.4 -0.9 -8.5 -0.1 -12.4 2 -9.1 10.3 -19.6 18.4 -23.3 3.8 -1.8 4.2 -0.5 1.2 3.4 -5 6.5 -4.4 14.6 1.3 18.6 1.4 1 5.5 2.6 9.1 3.5 10.1 2.6 17.1 6.4 19.3 10.8 2.2 4.4 1.6 7 -2.1 8.9 l-2.7 1.4 4 0.3 c3.2 0.2 4.5 0.9 6.3 3.6 2.7 4 2.7 4.8 0 11.3 l-2.1 5.2 -7.6 1.7 c-11.5 2.5 -11.3 3.7 0.5 3.1 l10.2 -0.5 6.8 5.2 c11.8 8.8 13.3 13.1 9.1 25.6 -1.9 5.5 -2.9 7 -7 10 -4 2.9 -4.4 3.6 -2.7 3.8 1.2 0.2 4.2 -0.4 6.7 -1.2 6 -2.1 12.2 -2 15.3 0.1 3.4 2.3 4 3.3 4 7.2 0 2.8 -1 4.3 -6.6 9.8 l-6.7 6.4 4.1 -0.7 c3.9 -0.6 4 -0.6 3.4 2.1 -0.2 1.5 -2.3 4.7 -4.6 7 -4.3 4.5 -9.1 6.5 -15.7 6.5 -1.9 0 -4.4 0.7 -5.5 1.5 -3.3 2.5 -13.3 1.9 -18.9 -1.1 -5.6 -2.9 -8.5 -2.6 -10.9 1.1 -2 3.1 -4.7 3.2 -7.2 0.4 -3 -3.4 -9 -5.9 -13.7 -5.9 -3.5 0 -5.7 0.8 -10.3 4 -7.1 4.8 -10.6 5.1 -13.1 1.3z"/>
 </g>
</svg>